<?xml version="1.0" encoding="UTF-8"?>
<svg version="1.1" xmlns="http://www.w3.org/2000/svg" width="886" height="143">
<path d="M0 0 C9.97813382 9.72228423 14.9059028 19.68404521 15.66015625 33.8125 C15.54886285 42.91382687 12.67417681 52.11373478 7.625 59.6875 C3.24969789 59.21106626 -1.12518363 58.73087194 -5.5 58.25 C-7.35625 58.04793945 -7.35625 58.04793945 -9.25 57.84179688 C-11.04824219 57.64360352 -11.04824219 57.64360352 -12.8828125 57.44140625 C-13.98254395 57.32095947 -15.08227539 57.2005127 -16.21533203 57.07641602 C-19.28732619 56.69829156 -22.32628335 56.21971997 -25.375 55.6875 C-23.75962556 51.78832032 -21.09575127 48.97456228 -18.25 45.9375 C-17.54810547 45.17759766 -17.54810547 45.17759766 -16.83203125 44.40234375 C-15.68373459 43.16030859 -14.52991328 41.92338506 -13.375 40.6875 C-11.395 42.0075 -9.415 43.3275 -7.375 44.6875 C-6.09588166 33.99222133 -5.74340105 25.51721321 -12.375 16.6875 C-12.375 16.0275 -12.375 15.3675 -12.375 14.6875 C-12.95121094 14.40132812 -13.52742187 14.11515625 -14.12109375 13.8203125 C-15.54064986 13.10684409 -16.95119839 12.37486959 -18.34765625 11.6171875 C-25.26677258 8.12529702 -31.53806008 7.50962846 -39.0859375 9.34765625 C-46.63173027 11.96489068 -50.18162826 16.10499282 -54.25 22.75 C-57.52952266 31.39778892 -55.79754107 41.41635908 -52.375 49.6875 C-61.08546306 47.67821527 -69.33245855 45.70877073 -77.375 41.6875 C-77.8742116 27.82051115 -76.17021572 18.34897553 -68.375 6.6875 C-67.7975 5.800625 -67.22 4.91375 -66.625 4 C-49.05917485 -14.05376474 -19.43255592 -16.79714222 0 0 Z " fill="#036141" transform="translate(586.375,49.3125)"/>
<path d="M0 0 C-0.33 0.886875 -0.66 1.77375 -1 2.6875 C-3.31088004 10.95978074 -2.98281797 19.94991021 0.59765625 27.7734375 C4.01100053 33.19295349 8.87912103 37.11051128 15 39 C23.88079018 39.78150954 31.65261616 39.08211095 40 36 C40 32.04 40 28.08 40 24 C33.4 24 26.8 24 20 24 C19.979375 21.215625 19.95875 18.43125 19.9375 15.5625 C19.928396 14.68408447 19.91929199 13.80566895 19.90991211 12.90063477 C19.90276909 10.93354026 19.94968107 8.96646379 20 7 C21.81565436 5.18434564 24.31269962 5.87138101 26.72888184 5.86105347 C27.52991333 5.8630777 28.33094482 5.86510193 29.15625 5.8671875 C29.97371704 5.86623077 30.79118408 5.86527405 31.63342285 5.86428833 C33.36515378 5.86360655 35.09688724 5.86546071 36.82861328 5.86962891 C39.48866482 5.87497721 42.1485475 5.86968388 44.80859375 5.86328125 C46.48697954 5.86394203 48.16536523 5.8652232 49.84375 5.8671875 C50.64478149 5.86516327 51.44581299 5.86313904 52.27111816 5.86105347 C57.88504921 5.88504921 57.88504921 5.88504921 59 7 C59.41360436 12.30378041 59.52807433 17.60829973 59.62475586 22.92626953 C59.66634889 24.71525547 59.7276548 26.50389923 59.80932617 28.29150391 C60.47476172 43.0957298 60.47476172 43.0957298 56.92944336 47.67358398 C54.35219118 49.51241133 51.92200293 50.79703507 49 52 C47.96230469 52.56332031 46.92460937 53.12664062 45.85546875 53.70703125 C31.47910479 59.66385556 16.66848991 60.79393427 1.9140625 55.34375 C-8.77346869 50.41545143 -16.50690954 42.67886174 -21.37890625 31.96875 C-24.58194827 22.95112648 -25.92016389 11.33027974 -23 2 C-20.29215006 1.66227261 -17.58383004 1.32969313 -14.875 1 C-14.11445313 0.90460938 -13.35390625 0.80921875 -12.5703125 0.7109375 C-8.35090048 0.20169812 -4.25995656 -0.10888068 0 0 Z " fill="#036141" transform="translate(254,70)"/>
<path d="M0 0 C18 0 18 0 22.06640625 2.859375 C23.38964844 4.72119141 23.38964844 4.72119141 24.5625 6.75 C25.03333008 7.43884277 25.50416016 8.12768555 25.98925781 8.83740234 C26.93565183 10.22611172 27.85887059 11.63094457 28.75634766 13.05175781 C30.44187884 15.69222481 32.33575364 18.14689496 34.25 20.625 C34.95125 21.56730469 35.6525 22.50960937 36.375 23.48046875 C39.97606429 28.3175661 43.6101671 33.1295385 47.25 37.9375 C47.93610352 38.85031738 48.62220703 39.76313477 49.32910156 40.70361328 C55.22538162 48.47938661 59.22532418 53.3586013 68.8125 55.8125 C71.514375 56.534375 74.21625 57.25625 77 58 C77 67.57 77 77.14 77 87 C62.11353571 88.667284 62.11353571 88.667284 56.984375 84.62109375 C54.55614011 81.70693864 52.54046277 78.51618502 50.51953125 75.31152344 C47.57804744 70.83691407 44.21391526 66.66922022 40.9375 62.4375 C39.56592004 60.63677737 38.19609227 58.83471863 36.828125 57.03125 C32.87926241 51.83640604 28.90413869 46.66233465 24.91796875 41.49609375 C23.26318772 39.34251925 21.6295478 37.1727304 20 35 C19.67 38.63 19.34 42.26 19 46 C12.47907931 44.63271018 6.45400301 42.9362009 0 41 C0 27.47 0 13.94 0 0 Z " fill="#046141" transform="translate(422,40)"/>
<path d="M0 0 C2.39614575 0.14165893 4.79182897 0.28818841 7.1875 0.4375 C7.86103516 0.47681641 8.53457031 0.51613281 9.22851562 0.55664062 C12.89699102 0.78927565 16.41694206 1.17207011 20 2 C19.93039062 3.68416016 19.93039062 3.68416016 19.859375 5.40234375 C19.45658249 17.24931143 19.45658249 17.24931143 24 28 C24.598125 28.928125 25.19625 29.85625 25.8125 30.8125 C31.03320152 36.03320152 36.90629567 38.11287102 44.1875 38.3125 C51.26477025 38.23690833 56.32217293 36.14226166 61.8125 31.75 C66.606981 25.72265246 68.67592616 19.52631447 70 12 C76.95776959 13.36874156 83.38603107 15.4533129 90 18 C89.12430432 30.04081559 83.43908136 38.91766375 74.875 47.1875 C65.4534146 55.24731003 53.31605679 58.40969547 41.125 57.875 C27.4023922 56.55180163 16.05275008 51.44707785 7.125 40.6875 C0.79189537 31.90336208 -2.13370253 23.2594942 -2.1875 12.5 C-2.20876953 10.56640625 -2.20876953 10.56640625 -2.23046875 8.59375 C-2.0146557 5.22852954 -1.46189261 3.00468046 0 0 Z " fill="#036141" transform="translate(322,71)"/>
<path d="M0 0 C18 0 18 0 23.25 4.8125 C24.41702492 6.51457959 25.58026213 8.22041693 26.68066406 9.96630859 C28.73263932 13.12932745 31.0118246 16.11663297 33.26806641 19.13574219 C35.09826504 21.58916124 36.90238144 24.06006837 38.703125 26.53515625 C41.907581 30.91145942 45.2528729 35.13155791 48.7421875 39.28515625 C50 41 50 41 50 43 C47.2328864 44.03205859 44.46208746 45.05090829 41.6875 46.0625 C40.90181641 46.35705078 40.11613281 46.65160156 39.30664062 46.95507812 C38.54931641 47.22900391 37.79199219 47.50292969 37.01171875 47.78515625 C36.31522217 48.04176025 35.61872559 48.29836426 34.90112305 48.56274414 C33 49 33 49 30 48 C28.34065037 46.00247549 26.82050869 44.04124488 25.3125 41.9375 C23.889375 39.978125 22.46625 38.01875 21 36 C20.67 41.61 20.34 47.22 20 53 C15 55 15 55 0 58 C0 38.86 0 19.72 0 0 Z " fill="#046141" transform="translate(733,40)"/>
<path d="M0 0 C8.00432997 7.51149437 13.39225528 14.91638009 15.83984375 25.7265625 C15.86869945 27.39297935 15.87390818 29.06024399 15.83984375 30.7265625 C12.56531459 30.14139408 9.29617734 29.53018946 6.02734375 28.9140625 C5.09857422 28.74841797 4.16980469 28.58277344 3.21289062 28.41210938 C2.32021484 28.24130859 1.42753906 28.07050781 0.5078125 27.89453125 C-0.31436768 27.74266357 -1.13654785 27.5907959 -1.98364258 27.43432617 C-5.91447087 26.15609048 -7.60930804 23.14815557 -9.84765625 19.8515625 C-13.71616459 14.61315843 -18.68329834 10.94559089 -25.16015625 9.7265625 C-33.35740346 9.00163588 -40.09127167 10.06540932 -46.59765625 15.2890625 C-49.16657762 17.45620635 -49.16657762 17.45620635 -50.16015625 19.7265625 C-57.57032648 19.84115276 -64.80221892 19.63816536 -72.16015625 18.7265625 C-71.8174475 13.24322246 -68.54458109 9.76778212 -65.16015625 5.7265625 C-64.43699219 4.82357422 -64.43699219 4.82357422 -63.69921875 3.90234375 C-56.3108971 -4.44233425 -45.20904646 -8.94658977 -34.30859375 -10.12109375 C-21.88719045 -10.72212939 -9.79953979 -8.07995881 0 0 Z " fill="#046141" transform="translate(396.16015625,48.2734375)"/>
<path d="M0 0 C0.55929199 1.29248657 0.55929199 1.29248657 1.12988281 2.61108398 C2.53106281 5.84854038 3.93263909 9.08582463 5.33447266 12.32299805 C5.93781839 13.71648536 6.54101216 15.11003848 7.14404297 16.50366211 C8.01749059 18.52215176 8.89152134 20.54038813 9.765625 22.55859375 C10.04764771 23.21072845 10.32967041 23.86286316 10.62023926 24.53475952 C12.1884506 28.15435117 13.78995124 31.75641662 15.421875 35.34765625 C17 39 17 39 17 41 C10.07 41 3.14 41 -4 41 C-6.31 35.39 -8.62 29.78 -11 24 C-23.21 24 -35.42 24 -48 24 C-50.31 29.61 -52.62 35.22 -55 41 C-61.6 41 -68.2 41 -75 41 C-72.31533029 27.57665143 -72.31533029 27.57665143 -66.7734375 23.26953125 C-64.23809542 21.9653279 -61.68549554 20.8374329 -59.02929688 19.80273438 C-56.73013586 18.89324912 -54.46941291 17.91038116 -52.203125 16.921875 C-38.43449084 11.0044707 -24.3405732 6.32162888 -10 2 C-9.28440918 1.78069824 -8.56881836 1.56139648 -7.83154297 1.33544922 C-5.09368374 0.51688445 -2.87947169 0 0 0 Z " fill="#046242" transform="translate(155,86)"/>
<path d="M0 0 C0 10.23 0 20.46 0 31 C11.55 31 23.1 31 35 31 C35 37.27 35 43.54 35 50 C16.85 50 -1.3 50 -20 50 C-20 34.82 -20 19.64 -20 4 C-16.40147165 2.80049055 -13.09102193 1.69851299 -9.4375 0.875 C-8.71433594 0.70742187 -7.99117187 0.53984375 -7.24609375 0.3671875 C-5 0 -5 0 0 0 Z " fill="#056041" transform="translate(196,77)"/>
<path d="M0 0 C6.93 0 13.86 0 21 0 C21.0093457 1.68480469 21.01869141 3.36960938 21.02832031 5.10546875 C21.06396776 10.69757293 21.11784124 16.28930696 21.18390274 21.88113403 C21.22326475 25.26859356 21.25550766 28.65579755 21.27099609 32.04345703 C21.29247832 35.94606166 21.33916004 39.84768949 21.390625 43.75 C21.39185364 44.95551514 21.39308228 46.16103027 21.39434814 47.40307617 C21.51487912 54.37491261 22.16297967 59.10860748 26 65 C27.92555476 66.61088101 29.80333311 67.75189382 32 69 C32 69.33 32 69.66 32 70 C22.76 70 13.52 70 4 70 C0.70575401 59.01918005 -0.15195326 50.21195202 -0.09765625 38.96484375 C-0.0962413 37.84557999 -0.09482635 36.72631622 -0.09336853 35.57313538 C-0.08780879 32.02789542 -0.07526385 28.48272059 -0.0625 24.9375 C-0.05747979 22.52148529 -0.0529178 20.10546959 -0.04882812 17.68945312 C-0.03785257 11.79294398 -0.02061596 5.896483 0 0 Z " fill="#026242" transform="translate(610,40)"/>
<path d="M0 0 C0.74886475 0.00523682 1.49772949 0.01047363 2.26928711 0.01586914 C3.07817383 0.0190918 3.88706055 0.02231445 4.72045898 0.02563477 C5.5705957 0.03401367 6.42073242 0.04239258 7.29663086 0.05102539 C8.15063477 0.05553711 9.00463867 0.06004883 9.88452148 0.06469727 C12.00108749 0.07652166 14.11761771 0.0944577 16.23413086 0.11352539 C18.03319461 4.23837644 19.82955513 8.36439135 21.62353516 12.49145508 C22.23283867 13.89216022 22.84285028 15.29255759 23.45361328 16.69262695 C29.69913644 31.01188039 29.69913644 31.01188039 32.23413086 38.11352539 C25.97454238 40.37763186 19.81112096 41.17395538 13.23413086 42.11352539 C10.26413086 35.18352539 10.26413086 35.18352539 7.23413086 28.11352539 C4.06178662 31.74148944 4.06178662 31.74148944 3.58569336 35.39086914 C2.0679942 43.03648267 2.0679942 43.03648267 -0.76586914 46.11352539 C-7.02320516 49.31476385 -14.77640643 50.69831792 -21.76586914 51.11352539 C-22.42586914 50.78352539 -23.08586914 50.45352539 -23.76586914 50.11352539 C-20.7968193 43.15204427 -17.82404724 36.19216163 -14.84863281 29.23339844 C-13.83604708 26.86397709 -12.82432661 24.49418578 -11.81347656 22.12402344 C-10.36366333 18.72502475 -8.91078354 15.32735161 -7.45727539 11.92993164 C-7.00308731 10.86327774 -6.54889923 9.79662384 -6.08094788 8.69764709 C-5.45040749 7.22623512 -5.45040749 7.22623512 -4.80712891 5.72509766 C-4.43628677 4.85683853 -4.06544464 3.98857941 -3.68336487 3.0940094 C-2.31907684 0.14909038 -2.31907684 0.14909038 0 0 Z " fill="#036141" transform="translate(118.765869140625,38.886474609375)"/>
<path d="M0 0 C6.59580907 0.99479126 13.18320764 2.02130807 19.7578125 3.1484375 C31.96489698 5.19820281 44.09674626 7.00566964 56.4375 8.0390625 C57.4069455 8.12135101 58.37639099 8.20363953 59.37521362 8.28842163 C64.1833629 8.69051409 68.99161897 9.06111925 73.80517578 9.39208984 C75.58109813 9.53167495 77.35697916 9.67178701 79.1328125 9.8125 C79.94089355 9.85831207 80.74897461 9.90412415 81.58154297 9.95132446 C87.26761849 10.42941817 89.94426386 11.97746114 94 16 C92.43636055 19.65415742 90.17824958 22.2119688 87.5 25.125 C86.7059375 25.99382812 85.911875 26.86265625 85.09375 27.7578125 C83.75256247 29.19408422 82.38954317 30.61045683 81 32 C80.40832031 31.38511719 79.81664062 30.77023438 79.20703125 30.13671875 C78.41683594 29.32847656 77.62664062 28.52023438 76.8125 27.6875 C76.03519531 26.88699219 75.25789062 26.08648437 74.45703125 25.26171875 C72.04403755 23.04053695 69.99166819 21.34984069 67 20 C64.94025051 20.4221805 64.94025051 20.4221805 63.125 21.6875 C52.24661478 27.83439425 39.91690752 27.97518451 28 25 C16.34708377 21.57770449 7.78665253 14.1799788 1.125 4.1875 C0 2 0 2 0 0 Z " fill="#046141" transform="translate(513,102)"/>
<path d="M0 0 C6.6 0 13.2 0 20 0 C20.04969986 7.48900401 20.0858612 14.97791047 20.10986328 22.46704102 C20.11987697 25.01100336 20.13349185 27.55495432 20.15087891 30.09887695 C20.17533158 33.77037376 20.18652979 37.44171743 20.1953125 41.11328125 C20.20563507 42.23769119 20.21595764 43.36210114 20.22659302 44.52058411 C20.22883341 60.54233317 20.22883341 60.54233317 17 67 C14.33267143 67.48715584 11.75324963 67.8480487 9.0625 68.125 C8.29429932 68.20991699 7.52609863 68.29483398 6.73461914 68.38232422 C1.1296504 68.96847245 -4.36262154 69.1789644 -10 69 C-9.236875 68.29875 -8.47375 67.5975 -7.6875 66.875 C-2.29252548 61.10363191 -0.92322409 55.26155604 -0.79467773 47.56713867 C-0.77473251 46.50641647 -0.75478729 45.44569427 -0.73423767 44.35282898 C-0.71752518 43.2193251 -0.70081268 42.08582123 -0.68359375 40.91796875 C-0.66281265 39.74865311 -0.64203156 38.57933746 -0.62062073 37.37458801 C-0.55532586 33.64561747 -0.49633341 29.91657753 -0.4375 26.1875 C-0.39429571 23.65689391 -0.35068081 21.1262948 -0.30664062 18.59570312 C-0.19966496 12.39720624 -0.09834091 6.19863965 0 0 Z " fill="#026342" transform="translate(667,40)"/>
<path d="M0 0 C-1.67229701 3.95969176 -4.36304994 7.0161201 -7.125 10.25 C-7.59292969 10.80429687 -8.06085938 11.35859375 -8.54296875 11.9296875 C-9.69175328 13.28947326 -10.84539653 14.64515165 -12 16 C-12.64066406 15.59007813 -13.28132813 15.18015625 -13.94140625 14.7578125 C-22.38681031 9.49674112 -29.92877835 6.6222679 -40 8 C-44.24812882 9.52768118 -48.39805522 11.31714892 -51.546875 14.625 C-56.60175607 19.40811327 -70.37038029 17.07861209 -77 17 C-72.7811993 5.33625688 -64.7125209 -2.33174255 -53.75 -7.75 C-35.4088065 -15.50298056 -15.51572437 -12.2551736 0 0 Z " fill="#036141" transform="translate(310,50)"/>
<path d="M0 0 C6.6 0 13.2 0 20 0 C20 20.13 20 40.26 20 61 C12 63 12 63 0 64 C0 42.88 0 21.76 0 0 Z " fill="#016341" transform="translate(699,40)"/>
<path d="M0 0 C0 12.87 0 25.74 0 39 C-17 39 -17 39 -21.4765625 35.37890625 C-23.12890625 33.04101562 -23.12890625 33.04101562 -24.625 30.5625 C-25.15738281 29.77939453 -25.68976562 28.99628906 -26.23828125 28.18945312 C-27.30882628 26.61474101 -28.35647061 25.02420059 -29.37988281 23.41845703 C-31.62535771 20.06648682 -34.18760199 17.00465817 -36.79052734 13.92553711 C-37.18965332 13.29010986 -37.5887793 12.65468262 -38 12 C-37.67 11.01 -37.34 10.02 -37 9 C-34.08837891 7.94091797 -34.08837891 7.94091797 -30.2265625 6.9921875 C-29.54701508 6.82123566 -28.86746765 6.65028381 -28.16732788 6.47415161 C-25.98935983 5.92896473 -23.80751333 5.40166457 -21.625 4.875 C-19.45076186 4.33720767 -17.27742359 3.79588124 -15.10409546 3.25442505 C-13.12757401 2.76414304 -11.14903283 2.28202503 -9.17041016 1.80029297 C-2.03843807 0 -2.03843807 0 0 0 Z " fill="#036141" transform="translate(810,88)"/>
<path d="M0 0 C6.6 0 13.2 0 20 0 C20 15.84 20 31.68 20 48 C13.25178086 45.18824203 6.53877325 42.26938662 0 39 C0 26.13 0 13.26 0 0 Z " fill="#056142" transform="translate(479,40)"/>
<path d="M0 0 C-2.87280711 6.09775964 -8.38477063 11.20648086 -14.625 13.875 C-27.15627781 17.68670081 -40.30577631 18.3100951 -52.375 12.8125 C-56.93227306 10.31046773 -60.83976604 7.15434729 -64 3 C-64 2.34 -64 1.68 -64 1 C-63.18269409 1.00785522 -63.18269409 1.00785522 -62.34887695 1.01586914 C-48.94984887 1.12534512 -35.59158569 0.89084599 -22.20239258 0.35571289 C-14.79639765 0.065515 -7.41163873 -0.06089672 0 0 Z " fill="#046141" transform="translate(681,112)"/>
<path d="M0 0 C6.27 0 12.54 0 19 0 C19 10.23 19 20.46 19 31 C14.854375 32.98 14.854375 32.98 10.625 35 C9.75568848 35.41765625 8.88637695 35.8353125 7.99072266 36.265625 C6.96277588 36.75289062 6.96277588 36.75289062 5.9140625 37.25 C5.2123291 37.58515625 4.5105957 37.9203125 3.78759766 38.265625 C2 39 2 39 0 39 C0 26.13 0 13.26 0 0 Z " fill="#046242" transform="translate(791,40)"/>
<path d="M0 0 C6.6 0 13.2 0 20 0 C20 10.23 20 20.46 20 31 C5 33 5 33 0 33 C0 22.11 0 11.22 0 0 Z " fill="#075F41" transform="translate(176,40)"/>
<path d="M0 0 C4.99121994 0.83186999 8.85588776 2.03013775 13.375 4.0625 C15.56125 5.031875 17.7475 6.00125 20 7 C20 15.91 20 24.82 20 34 C13.73 34 7.46 34 1 34 C0.67 22.78 0.34 11.56 0 0 Z " fill="#086142" transform="translate(421,93)"/>
<path d="M0 0 C0 8.25 0 16.5 0 25 C-6.6 25 -13.2 25 -20 25 C-20 17.74 -20 10.48 -20 3 C-16.16375 2.2575 -16.16375 2.2575 -12.25 1.5 C-11.45110352 1.34337891 -10.65220703 1.18675781 -9.82910156 1.02539062 C-6.46461514 0.38469749 -3.4380842 0 0 0 Z " fill="#056141" transform="translate(753,102)"/>
<path d="M0 0 C0 6.6 0 13.2 0 20 C-6.6 20 -13.2 20 -20 20 C-20 14.39 -20 8.78 -20 3 C-4 0 -4 0 0 0 Z " fill="#075F41" transform="translate(719,107)"/>
<path d="M0 0 C6.6 0 13.2 0 20 0 C20.04588418 5.92670666 20.08571783 11.85279833 20.10986328 17.77954102 C20.11992773 19.79616381 20.13358047 21.81277199 20.15087891 23.8293457 C20.17510769 26.72611089 20.18647859 29.62268331 20.1953125 32.51953125 C20.20563507 33.42274612 20.21595764 34.325961 20.22659302 35.25654602 C20.22674408 36.09719101 20.22689514 36.937836 20.22705078 37.80395508 C20.231492 38.54341873 20.23593323 39.28288239 20.24050903 40.04475403 C20 42 20 42 18 45 C18 30.81 18 16.62 18 2 C12.72 2 7.44 2 2 2 C2.33 21.47 2.66 40.94 3 61 C5.97 61.33 8.94 61.66 12 62 C12 62.33 12 62.66 12 63 C6.06 63.495 6.06 63.495 0 64 C0 42.88 0 21.76 0 0 Z " fill="#0F573E" transform="translate(699,40)"/>
<path d="M0 0 C6.27 0 12.54 0 19 0 C19.04969986 7.48900401 19.0858612 14.97791047 19.10986328 22.46704102 C19.11987697 25.01100336 19.13349185 27.55495432 19.15087891 30.09887695 C19.17533158 33.77037376 19.18652979 37.44171743 19.1953125 41.11328125 C19.20563507 42.23769119 19.21595764 43.36210114 19.22659302 44.52058411 C19.22883341 60.54233317 19.22883341 60.54233317 16 67 C13.33267143 67.48715584 10.75324963 67.8480487 8.0625 68.125 C7.29429932 68.20991699 6.52609863 68.29483398 5.73461914 68.38232422 C0.1296504 68.96847245 -5.36262154 69.1789644 -11 69 C-10.236875 68.29875 -9.47375 67.5975 -8.6875 66.875 C-6.03409522 64.03647396 -4.55999257 61.53050949 -3 58 C-2.34 58.33 -1.68 58.66 -1 59 C-1 60.32 -1 61.64 -1 63 C-1.66 63 -2.32 63 -3 63 C-2.67 63.66 -2.34 64.32 -2 65 C3.61 65.33 9.22 65.66 15 66 C15.95149063 58.68266455 16.20985147 51.46408338 16.31640625 44.08984375 C16.33718735 42.88179581 16.35796844 41.67374786 16.37937927 40.42909241 C16.44437039 36.59861527 16.50352365 32.76807399 16.5625 28.9375 C16.60573326 26.32876961 16.64934903 23.72004552 16.69335938 21.11132812 C16.79999961 14.74094991 16.90140692 8.37050764 17 2 C8.585 2.495 8.585 2.495 0 3 C0 2.01 0 1.02 0 0 Z " fill="#0B5036" transform="translate(668,40)"/>
<path d="M0 0 C6.93 0 13.86 0 21 0 C21.04936398 7.49307285 21.08570259 14.98605146 21.10986328 22.47924805 C21.11993328 25.02939502 21.13359004 27.57953042 21.15087891 30.12963867 C21.17508312 33.7908819 21.18647305 37.45197274 21.1953125 41.11328125 C21.20563507 42.2571077 21.21595764 43.40093414 21.22659302 44.579422 C21.22674408 45.64029526 21.22689514 46.70116852 21.22705078 47.79418945 C21.231492 48.72906693 21.23593323 49.6639444 21.24050903 50.62715149 C21 53 21 53 19 56 C19 38.18 19 20.36 19 2 C13.06 2.33 7.12 2.66 1 3 C1 18.84 1 34.68 1 51 C0.67 51 0.34 51 0 51 C0 34.17 0 17.34 0 0 Z " fill="#0A4C3A" transform="translate(610,40)"/>
<path d="M0 0 C-0.309375 0.886875 -0.61875 1.77375 -0.9375 2.6875 C-2.57510414 8.30877947 -2.66774411 14.18552198 -3 20 C-3.66 20 -4.32 20 -5 20 C-5 16.04 -5 12.08 -5 8 C-5.99 7.67 -6.98 7.34 -8 7 C-8 5.68 -8 4.36 -8 3 C-12.62 3 -17.24 3 -22 3 C-22 9.27 -22 15.54 -22 22 C-21.34 22.33 -20.68 22.66 -20 23 C-19.73432996 24.92610779 -19.47724245 26.85423055 -19.28515625 28.7890625 C-18.87224606 31.99053057 -17.96170644 34.9225394 -17 38 C-22.06406467 33.74850731 -23.61302044 26.24106025 -24.19238281 19.89160156 C-24.74268799 7.56810067 -24.74268799 7.56810067 -23 2 C-20.29215006 1.66227261 -17.58383004 1.32969313 -14.875 1 C-14.11445313 0.90460938 -13.35390625 0.80921875 -12.5703125 0.7109375 C-8.35090048 0.20169812 -4.25995656 -0.10888068 0 0 Z " fill="#125941" transform="translate(254,70)"/>
<path d="M0 0 C10.35265153 1.55472682 20.67680372 3.26208817 31 5 C31 5.33 31 5.66 31 6 C30.11957031 5.97679688 29.23914063 5.95359375 28.33203125 5.9296875 C27.17058594 5.91164063 26.00914062 5.89359375 24.8125 5.875 C23.66394531 5.85179688 22.51539063 5.82859375 21.33203125 5.8046875 C18.04280042 5.99749118 15.91232918 6.50223071 13 8 C11.19651922 10.01317219 11.19651922 10.01317219 10 12 C11.32 12.66 12.64 13.32 14 14 C14 14.66 14 15.32 14 16 C14.66 16 15.32 16 16 16 C15.67 16.99 15.34 17.98 15 19 C3.25796118 9.15036744 3.25796118 9.15036744 0 2 C0 1.34 0 0.68 0 0 Z " fill="#0D5C41" transform="translate(513,102)"/>
<path d="M0 0 C1.65 0 3.3 0 5 0 C4.566875 0.83917969 4.566875 0.83917969 4.125 1.6953125 C0.00042183 10.60325562 -0.58641607 19.99761146 2.5 29.375 C2.995 30.57125 3.49 31.7675 4 33 C1.39392608 32.38221953 -1.20965697 31.75612789 -3.8125 31.125 C-4.55048828 30.95097656 -5.28847656 30.77695313 -6.04882812 30.59765625 C-9.49717037 29.75507489 -12.01928362 28.98714425 -15 27 C-13.84371094 26.92652344 -13.84371094 26.92652344 -12.6640625 26.8515625 C-11.66117188 26.77679688 -10.65828125 26.70203125 -9.625 26.625 C-8.12839844 26.52058594 -8.12839844 26.52058594 -6.6015625 26.4140625 C-3.84491121 26.23636036 -3.84491121 26.23636036 -2 24 C-1.88021625 21.50499222 -1.85971349 19.11416837 -1.9375 16.625 C-2.14501733 8.60099653 -2.14501733 8.60099653 -1 5 C-0.65939189 3.33480481 -0.32441604 1.66842534 0 0 Z " fill="#0D593F" transform="translate(530,66)"/>
<path d="M0 0 C1.81242052 -0.02687279 3.62495233 -0.04633715 5.4375 -0.0625 C6.44683594 -0.07410156 7.45617187 -0.08570312 8.49609375 -0.09765625 C11 0 11 0 12 1 C12.41360436 6.30378041 12.52807433 11.60829973 12.62475586 16.92626953 C12.66634889 18.71525547 12.7276548 20.50389923 12.80932617 22.29150391 C13.47931951 37.19712896 13.47931951 37.19712896 9.72509766 41.77246094 C7.20337366 43.53842394 4.86010205 44.87610029 2 46 C1.34 45.67 0.68 45.34 0 45 C1.77483652 43.03833859 3.30295177 41.8268847 5.625 40.5 C8.29756313 39.16270693 8.29756313 39.16270693 9 36 C9.15346953 33.34393699 9.25717898 30.70904905 9.31640625 28.05078125 C9.33718735 27.27816452 9.35796844 26.50554779 9.37937927 25.70951843 C9.44471038 23.2439352 9.50368315 20.77824639 9.5625 18.3125 C9.60570087 16.63996309 9.64931566 14.96743681 9.69335938 13.29492188 C9.8003749 9.1967225 9.90168857 5.09841704 10 1 C6.7 1 3.4 1 0 1 C0 0.67 0 0.34 0 0 Z " fill="#12543F" transform="translate(301,76)"/>
<path d="M0 0 C4.455 0.99 4.455 0.99 9 2 C9 2.33 9 2.66 9 3 C6.36 3 3.72 3 1 3 C0.91363281 3.6290625 0.82726562 4.258125 0.73828125 4.90625 C-0.52963083 12.63004466 -2.91413089 18.12942408 -8.6875 23.5 C-11 25 -11 25 -13 25 C-13 25.66 -13 26.32 -13 27 C-19.93116809 28.7969695 -26.97925636 30.34024788 -34 28 C-34 27.34 -34 26.68 -34 26 C-32.64068359 26.06960937 -32.64068359 26.06960937 -31.25390625 26.140625 C-21.87926611 26.41839212 -15.56893987 25.65515189 -8.1875 19.75 C-3.3488736 13.66715538 -1.42049468 7.57597164 0 0 Z " fill="#11553E" transform="translate(392,83)"/>
<path d="M0 0 C5.80205656 5.64524422 5.80205656 5.64524422 8 9 C8 9.66 8 10.32 8 11 C5.2328864 12.03205859 2.46208746 13.05090829 -0.3125 14.0625 C-1.09818359 14.35705078 -1.88386719 14.65160156 -2.69335938 14.95507812 C-3.45068359 15.22900391 -4.20800781 15.50292969 -4.98828125 15.78515625 C-5.68477783 16.04176025 -6.38127441 16.29836426 -7.09887695 16.56274414 C-9 17 -9 17 -12 16 C-13.65469197 14.00808238 -15.18339146 12.03653505 -16.6875 9.9375 C-17.10322266 9.36966797 -17.51894531 8.80183594 -17.94726562 8.21679688 C-18.97140082 6.81596827 -19.98657535 5.40859652 -21 4 C-20.01 4 -19.02 4 -18 4 C-16.34289267 5.9796909 -15.00550597 8.08754282 -13.59765625 10.25 C-13.07042969 10.8275 -12.54320312 11.405 -12 12 C-10.68 12 -9.36 12 -8 12 C-8 12.66 -8 13.32 -8 14 C-7.0925 13.505 -6.185 13.01 -5.25 12.5 C-2 11 -2 11 2 11 C2.19622241 6.78121808 1.80230168 3.82989106 0 0 Z " fill="#0E553C" transform="translate(775,72)"/>
<path d="M0 0 C0.33 0 0.66 0 1 0 C0.85892253 1.45880109 0.71197585 2.91703551 0.5625 4.375 C0.48128906 5.18710938 0.40007813 5.99921875 0.31640625 6.8359375 C0 9 0 9 -1 11 C-3.66732857 11.48715584 -6.24675037 11.8480487 -8.9375 12.125 C-9.70570068 12.20991699 -10.47390137 12.29483398 -11.26538086 12.38232422 C-16.8703496 12.96847245 -22.36262154 13.1789644 -28 13 C-27.236875 12.29875 -26.47375 11.5975 -25.6875 10.875 C-23.03409522 8.03647396 -21.55999257 5.53050949 -20 2 C-19.34 2.33 -18.68 2.66 -18 3 C-18 4.32 -18 5.64 -18 7 C-18.66 7 -19.32 7 -20 7 C-19.67 7.66 -19.34 8.32 -19 9 C-13.39 9.33 -7.78 9.66 -2 10 C-1.855625 8.535625 -1.71125 7.07125 -1.5625 5.5625 C-1.125 1.125 -1.125 1.125 0 0 Z " fill="#14533E" transform="translate(685,96)"/>
<path d="M0 0 C0.66 0.33 1.32 0.66 2 1 C0.63875 1.6496875 0.63875 1.6496875 -0.75 2.3125 C-5.55034245 5.4179348 -6.38877742 10.79451167 -8 16 C-2.39 16 3.22 16 9 16 C9 16.99 9 17.98 9 19 C2.4 19 -4.2 19 -11 19 C-10.2031305 15.01565248 -9.34468897 12.03874745 -7.75 8.375 C-7.35296875 7.43398437 -6.9559375 6.49296875 -6.546875 5.5234375 C-4.7318652 2.56258817 -3.14858089 1.4138532 0 0 Z " fill="#175642" transform="translate(91,108)"/>
<path d="M0 0 C0.33 0 0.66 0 1 0 C0.67 2.97 0.34 5.94 0 9 C-4 10 -4 10 -8 10 C-11.17760854 11.99524257 -12.73593147 13.10622959 -13.8125 16.75 C-13.874375 17.4925 -13.93625 18.235 -14 19 C-15.65 19 -17.3 19 -19 19 C-17.38462556 15.10082032 -14.72075127 12.28706228 -11.875 9.25 C-11.40707031 8.74339844 -10.93914063 8.23679687 -10.45703125 7.71484375 C-9.30873459 6.47280859 -8.15491328 5.23588506 -7 4 C-5.02 5.32 -3.04 6.64 -1 8 C-0.67 5.36 -0.34 2.72 0 0 Z " fill="#13563E" transform="translate(580,86)"/>
<path d="M0 0 C3.96 0 7.92 0 12 0 C8.89214838 6.21570324 3.86007991 10.79575583 -2.5625 13.5 C-3.366875 13.665 -4.17125 13.83 -5 14 C-4.67 13.01 -4.34 12.02 -4 11 C-2.35 10.67 -0.7 10.34 1 10 C1 9.34 1 8.68 1 8 C1.99 8 2.98 8 4 8 C4 7.34 4 6.68 4 6 C4.66 6 5.32 6 6 6 C5.67 5.01 5.34 4.02 5 3 C2.03 2.505 2.03 2.505 -1 2 C-0.67 1.34 -0.34 0.68 0 0 Z " fill="#0E563D" transform="translate(669,112)"/>
<path d="M0 0 C0 12.87 0 25.74 0 39 C-5.61 39 -11.22 39 -17 39 C-17 38.67 -17 38.34 -17 38 C-11.72 38 -6.44 38 -1 38 C-1 26.45 -1 14.9 -1 3 C-2.65 2.67 -4.3 2.34 -6 2 C-3 0 -3 0 0 0 Z " fill="#1C5844" transform="translate(810,88)"/>
<path d="M0 0 C2.32789515 2.83395931 3.07377893 4.29511572 4 8 C-2.93 8 -9.86 8 -17 8 C-17.66 6.68 -18.32 5.36 -19 4 C-18.67 3.01 -18.34 2.02 -18 1 C-18 1.66 -18 2.32 -18 3 C-17.34 3 -16.68 3 -16 3 C-15.67 3.66 -15.34 4.32 -15 5 C-12.28553021 5.31241455 -9.66090639 5.51336592 -6.9375 5.625 C-6.17888672 5.66367188 -5.42027344 5.70234375 -4.63867188 5.7421875 C-2.75952805 5.83673562 -0.87979664 5.91946756 1 6 C0.67 4.02 0.34 2.04 0 0 Z " fill="#165741" transform="translate(168,119)"/>
<path d="M0 0 C0.66 0 1.32 0 2 0 C2 0.66 2 1.32 2 2 C8.93 2 15.86 2 23 2 C23.33 1.34 23.66 0.68 24 0 C25.68496298 0.96885372 27.35178756 1.96986723 29 3 C29 3.33 29 3.66 29 4 C19.76 4 10.52 4 1 4 C0.67 2.68 0.34 1.36 0 0 Z " fill="#12533F" transform="translate(613,106)"/>
<path d="M0 0 C0.33 0.99 0.66 1.98 1 3 C-0.0725 3.5775 -1.145 4.155 -2.25 4.75 C-6.44139659 7.1511442 -9.43059479 9.29178438 -11 14 C-11.99 14 -12.98 14 -14 14 C-14.66 16.64 -15.32 19.28 -16 22 C-14.35 22 -12.7 22 -11 22 C-11 22.33 -11 22.66 -11 23 C-13.64 23 -16.28 23 -19 23 C-18.52770404 15.44326467 -11.81756459 9.47742953 -6.6796875 4.4765625 C-4.61180009 2.6587452 -2.44536274 1.25973232 0 0 Z " fill="#145640" transform="translate(343,44)"/>
<path d="M0 0 C0.66 0 1.32 0 2 0 C3.44526736 1.73548169 4.8087222 3.53975963 6.125 5.375 C6.84945313 6.37273437 7.57390625 7.37046875 8.3203125 8.3984375 C10 11 10 11 10 13 C10.60199219 13.2475 11.20398438 13.495 11.82421875 13.75 C14.35397631 15.20336161 15.30624044 16.52445559 16.8125 19 C17.25207031 19.70125 17.69164062 20.4025 18.14453125 21.125 C18.42683594 21.74375 18.70914062 22.3625 19 23 C18.67 23.66 18.34 24.32 18 25 C0 2.63106796 0 2.63106796 0 0 Z " fill="#0C523A" transform="translate(458,94)"/>
<path d="M0 0 C4.18001995 -0.08196118 7.92212105 0.10554296 12 1 C11.98839844 2.15757813 11.97679687 3.31515625 11.96484375 4.5078125 C11.95545923 6.04687338 11.94635974 7.58593601 11.9375 9.125 C11.92912109 9.88554688 11.92074219 10.64609375 11.91210938 11.4296875 C11.89353491 15.7389644 12.13882735 19.75516474 13 24 C11 23 11 23 10 20 C9.85596652 18.66636297 9.75409577 17.32781954 9.68359375 15.98828125 C9.64169922 15.23095703 9.59980469 14.47363281 9.55664062 13.69335938 C9.49766602 12.51483398 9.49766602 12.51483398 9.4375 11.3125 C9.39431641 10.51521484 9.35113281 9.71792969 9.30664062 8.89648438 C9.20072632 6.93118553 9.09987449 4.96561504 9 3 C8.071875 2.87625 7.14375 2.7525 6.1875 2.625 C3 2 3 2 0 0 Z " fill="#155740" transform="translate(330,72)"/>
<path d="M0 0 C-2.79498724 2.79498724 -6.01968254 3.22250384 -9.75 4.125 C-10.45382812 4.30675781 -11.15765625 4.48851563 -11.8828125 4.67578125 C-15.98045283 5.68876669 -19.74893798 6.39455965 -24 6 C-24.66 5.34 -25.32 4.68 -26 4 C-24.7625 3.855625 -23.525 3.71125 -22.25 3.5625 C-19.42361026 3.21105749 -16.75760481 2.71163995 -14 2 C-12.80375 1.835 -11.6075 1.67 -10.375 1.5 C-0.2122905 -0.00558659 -0.2122905 -0.00558659 0 0 Z " fill="#0E553E" transform="translate(388,123)"/>
<path d="M0 0 C0 6.93 0 13.86 0 21 C-0.33 21 -0.66 21 -1 21 C-1.33 14.73 -1.66 8.46 -2 2 C-4.413125 2.556875 -4.413125 2.556875 -6.875 3.125 C-9.6171875 3.7578125 -9.6171875 3.7578125 -12 4 C-12.66 3.34 -13.32 2.68 -14 2 C-12.4176994 1.66179834 -10.83410625 1.32964061 -9.25 1 C-8.36828125 0.814375 -7.4865625 0.62875 -6.578125 0.4375 C-4 0 -4 0 0 0 Z " fill="#11543C" transform="translate(753,102)"/>
<path d="M0 0 C2 3 2 3 2 5 C6.62 5 11.24 5 16 5 C11.75197923 7.12401038 8.83238937 7.2376107 4.25 7.125 C3.55261719 7.11597656 2.85523438 7.10695313 2.13671875 7.09765625 C0.42433042 7.07419888 -1.28788004 7.03833104 -3 7 C-2.01 4.69 -1.02 2.38 0 0 Z " fill="#13563D" transform="translate(236,60)"/>
<path d="M0 0 C1.32 0 2.64 0 4 0 C4 0.66 4 1.32 4 2 C5.1446875 1.7215625 5.1446875 1.7215625 6.3125 1.4375 C9 1 9 1 12 2 C12 2.66 12 3.32 12 4 C15.3 4.66 18.6 5.32 22 6 C22 6.33 22 6.66 22 7 C15.22838401 7.61560145 9.19077337 5.70620064 3 3 C1.140625 1.36328125 1.140625 1.36328125 0 0 Z " fill="#0F583F" transform="translate(250,121)"/>
<path d="M0 0 C0.66 0 1.32 0 2 0 C2.33 0.99 2.66 1.98 3 3 C-1.281516 4.54863345 -5.37066549 5.48152364 -9.875 6.125 C-11.02742187 6.29257813 -12.17984375 6.46015625 -13.3671875 6.6328125 C-14.67042969 6.81457031 -14.67042969 6.81457031 -16 7 C-16.33 5.02 -16.66 3.04 -17 1 C-16.01 1.33 -15.02 1.66 -14 2 C-14 2.66 -14 3.32 -14 4 C-11.85270859 3.71926927 -9.70716807 3.42511501 -7.5625 3.125 C-6.36753906 2.96257812 -5.17257813 2.80015625 -3.94140625 2.6328125 C-2.97074219 2.42398438 -2.00007812 2.21515625 -1 2 C-0.67 1.34 -0.34 0.68 0 0 Z " fill="#10563E" transform="translate(148,74)"/>
<path d="M0 0 C4.87072783 4.56630734 8.89156398 9.74976539 13 15 C12.01 15.495 12.01 15.495 11 16 C9 15 9 15 8 12 C7.030625 11.62875 6.06125 11.2575 5.0625 10.875 C2 9 2 9 1.16015625 6.80859375 C0.67404665 4.54126504 0.27983592 2.3014092 0 0 Z " fill="#09563B" transform="translate(757,49)"/>
<path d="M0 0 C1.58971965 2.38457948 2.86741593 4.6304124 4.125 7.1875 C4.47820312 7.90292969 4.83140625 8.61835937 5.1953125 9.35546875 C5.46085937 9.89816406 5.72640625 10.44085938 6 11 C6.99 10.67 7.98 10.34 9 10 C9.33 12.97 9.66 15.94 10 19 C4.91484441 14.66266141 1.54138804 9.17194239 -1 3 C-0.67 2.01 -0.34 1.02 0 0 Z " fill="#0B543B" transform="translate(323,96)"/>
<path d="M0 0 C0.99 0 1.98 0 3 0 C4.98 4.62 6.96 9.24 9 14 C8.01 14.495 8.01 14.495 7 15 C6.34 12.69 5.68 10.38 5 8 C3.35 8.66 1.7 9.32 0 10 C-0.33 9.01 -0.66 8.02 -1 7 C-0.34 7 0.32 7 1 7 C1.33 5.02 1.66 3.04 2 1 C1.34 0.67 0.68 0.34 0 0 Z " fill="#115A41" transform="translate(152,86)"/>
<path d="M0 0 C1 2 2 4 3 6 C2.360625 6.61875 1.72125 7.2375 1.0625 7.875 C-1.03883584 9.82597612 -1.03883584 9.82597612 -2 12 C-1.34 12 -0.68 12 0 12 C0 12.66 0 13.32 0 14 C-1.98 14.33 -3.96 14.66 -6 15 C-4.02 10.05 -2.04 5.1 0 0 Z " fill="#12573E" transform="translate(101,75)"/>
<path d="M0 0 C6.57331917 1.73462589 12.08906647 4.18328102 17 9 C18.22265625 11.19140625 18.22265625 11.19140625 19 13 C18.22076172 12.38511719 18.22076172 12.38511719 17.42578125 11.7578125 C13.7576223 8.92363424 10.48550294 6.40171967 6 5 C6 4.34 6 3.68 6 3 C4.35 3 2.7 3 1 3 C0.67 2.01 0.34 1.02 0 0 Z " fill="#0E533C" transform="translate(381,41)"/>
<path d="M0 0 C0.73605469 0.2165625 1.47210937 0.433125 2.23046875 0.65625 C3.20628906 0.9346875 4.18210937 1.213125 5.1875 1.5 C6.15042969 1.7784375 7.11335937 2.056875 8.10546875 2.34375 C10.85345876 2.96677608 13.19598416 3.12302812 16 3 C16 3.66 16 4.32 16 5 C16.66 5.33 17.32 5.66 18 6 C14.21654059 7.26115314 12.73576419 6.5135673 9 5.25 C7.948125 4.90453125 6.89625 4.5590625 5.8125 4.203125 C3.17693698 3.07568971 1.80245189 2.1779627 0 0 Z " fill="#11553E" transform="translate(530,121)"/>
<path d="M0 0 C0 0.66 0 1.32 0 2 C1.32 1.67 2.64 1.34 4 1 C4 1.99 4 2.98 4 4 C-2.6 3.34 -9.2 2.68 -16 2 C-16 1.67 -16 1.34 -16 1 C-14.27111445 0.83044205 -12.54187557 0.66448486 -10.8125 0.5 C-9.84957031 0.4071875 -8.88664063 0.314375 -7.89453125 0.21875 C-5.24812333 0.01875156 -2.65239135 -0.03879183 0 0 Z " fill="#145740" transform="translate(590,105)"/>
<path d="M0 0 C3 1 3 1 4.375 3.375 C6.22651147 6.36590314 7.99152602 7.29248774 11 9 C11 9.66 11 10.32 11 11 C11.66 11 12.32 11 13 11 C12.67 11.99 12.34 12.98 12 14 C10.36525411 12.61559342 8.74254338 11.21696755 7.125 9.8125 C6.22007812 9.03519531 5.31515625 8.25789063 4.3828125 7.45703125 C2.00413905 5.00426797 0.99809514 3.22946877 0 0 Z " fill="#0F523C" transform="translate(516,107)"/>
<path d="M0 0 C4.95 0.99 4.95 0.99 10 2 C10.33 3.65 10.66 5.3 11 7 C6.00724943 5.72278474 3.42388092 3.82669043 0 0 Z " fill="#0D5840" transform="translate(622,119)"/>
<path d="M0 0 C4.51478398 0.53115106 7.34666857 2.36620292 11 5 C9.55746343 8.36591866 7.66735273 10.51047079 5 13 C5.75 8.25 5.75 8.25 8 6 C7.4225 5.65066406 6.845 5.30132812 6.25 4.94140625 C5.13625 4.25884766 5.13625 4.25884766 4 3.5625 C3.2575 3.11003906 2.515 2.65757813 1.75 2.19140625 C1.1725 1.79824219 0.595 1.40507813 0 1 C0 0.67 0 0.34 0 0 Z " fill="#0F563E" transform="translate(299,45)"/>
<path d="M0 0 C5.94 0 11.88 0 18 0 C18.66 1.98 19.32 3.96 20 6 C18.68 5.34 17.36 4.68 16 4 C16 3.01 16 2.02 16 1 C13.54126232 1.14058476 11.08314825 1.28722999 8.625 1.4375 C7.92632812 1.47681641 7.22765625 1.51613281 6.5078125 1.55664062 C2.62639508 1.74280134 2.62639508 1.74280134 -1 3 C-0.67 2.01 -0.34 1.02 0 0 Z " fill="#195140" transform="translate(117,39)"/>
<path d="M0 0 C-0.969375 0.45375 -1.93875 0.9075 -2.9375 1.375 C-6.07079582 2.65786221 -6.07079582 2.65786221 -7 5 C-7.66 5 -8.32 5 -9 5 C-9.33 5.66 -9.66 6.32 -10 7 C-10 6.34 -10 5.68 -10 5 C-11.32 4.67 -12.64 4.34 -14 4 C-12.23494565 3.13395466 -10.46271926 2.28251358 -8.6875 1.4375 C-7.70136719 0.96183594 -6.71523437 0.48617187 -5.69921875 -0.00390625 C-3 -1 -3 -1 0 0 Z M-13 8 C-11 9 -11 9 -11 9 Z " fill="#0F5C43" transform="translate(115,100)"/>
<path d="M0 0 C4 4 8 8 12 12 C10.68 12.33 9.36 12.66 8 13 C8 12.01 8 11.02 8 10 C7.4225 9.731875 6.845 9.46375 6.25 9.1875 C3.87632037 7.93472464 1.93793429 6.86872235 0 5 C-0.25 2.3125 -0.25 2.3125 0 0 Z " fill="#10583F" transform="translate(343,96)"/>
<path d="M0 0 C0.66 0.33 1.32 0.66 2 1 C0.02 3.31 -1.96 5.62 -4 8 C-6.64 6.35 -9.28 4.7 -12 3 C-10.68 2.67 -9.36 2.34 -8 2 C-7.67 2.99 -7.34 3.98 -7 5 C-5.68 5 -4.36 5 -3 5 C-3 3.68 -3 2.36 -3 1 C-2.01 0.67 -1.02 0.34 0 0 Z " fill="#14543F" transform="translate(302,58)"/>
<path d="M0 0 C0.66 0 1.32 0 2 0 C3.03275341 2.26607052 4.05133551 4.53681939 5.0625 6.8125 C5.50432617 7.77639648 5.50432617 7.77639648 5.95507812 8.75976562 C8.11328125 13.66015625 8.11328125 13.66015625 7 17 C6.01330241 15.10807525 5.0359398 13.21128022 4.0625 11.3125 C3.51722656 10.25675781 2.97195312 9.20101562 2.41015625 8.11328125 C1.1529424 5.33765953 0.43930431 2.99727874 0 0 Z " fill="#0E563B" transform="translate(160,102)"/>
<path d="M0 0 C2 2 2 2 2.1953125 3.9453125 C2.13020833 5.96354167 2.06510417 7.98177083 2 10 C0.125 10.625 0.125 10.625 -2 11 C-2.66 10.34 -3.32 9.68 -4 9 C-3.67 8.34 -3.34 7.68 -3 7 C-2.01 7 -1.02 7 0 7 C0 4.69 0 2.38 0 0 Z " fill="#0D573F" transform="translate(717,91)"/>
<path d="M0 0 C1.54620838 4.3876173 0.15606516 7.02159179 -1.7421875 11.0703125 C-3 13 -3 13 -5.75 14.0625 C-6.86375 14.0315625 -6.86375 14.0315625 -8 14 C-7.54882812 13.59910156 -7.09765625 13.19820312 -6.6328125 12.78515625 C-4.79203719 10.77263397 -3.92496984 8.94667991 -2.875 6.4375 C-2.54242188 5.65246094 -2.20984375 4.86742188 -1.8671875 4.05859375 C-1.58101563 3.37925781 -1.29484375 2.69992188 -1 2 C-0.67 1.34 -0.34 0.68 0 0 Z " fill="#0D553C" transform="translate(121,70)"/>
<path d="M0 0 C0.33 0 0.66 0 1 0 C1 2.31 1 4.62 1 7 C-0.59766103 7.86627399 -2.20339944 8.71766465 -3.8125 9.5625 C-4.70582031 10.03816406 -5.59914063 10.51382813 -6.51953125 11.00390625 C-9 12 -9 12 -12 11 C-11.34 11 -10.68 11 -10 11 C-10 10.34 -10 9.68 -10 9 C-8.68 9 -7.36 9 -6 9 C-6 8.34 -6 7.68 -6 7 C-4.02 6.67 -2.04 6.34 0 6 C0 4.02 0 2.04 0 0 Z " fill="#16543E" transform="translate(809,64)"/>
<path d="M0 0 C0 0.99 0 1.98 0 3 C-2.31 3.33 -4.62 3.66 -7 4 C-7 4.66 -7 5.32 -7 6 C-8.8125 7.0625 -8.8125 7.0625 -11 8 C-11.99 7.67 -12.98 7.34 -14 7 C-12.37554381 6.01993141 -10.75041739 5.04097364 -9.125 4.0625 C-8.22007812 3.51722656 -7.31515625 2.97195312 -6.3828125 2.41015625 C-2.31024931 0 -2.31024931 0 0 0 Z " fill="#0D543B" transform="translate(540,41)"/>
<path d="M0 0 C4.455 0.99 4.455 0.99 9 2 C9 2.33 9 2.66 9 3 C6.36 3 3.72 3 1 3 C0.34 5.97 -0.32 8.94 -1 12 C-2.47591551 7.57225348 -1.10908015 4.50156059 0 0 Z " fill="#1B5845" transform="translate(392,83)"/>
<path d="M0 0 C3.82097239 0.53069061 6.06171403 1.49701566 9 4 C7.63016497 7.16115776 7.0109362 7.9927092 4 10 C4.33 7.69 4.66 5.38 5 3 C2.525 2.01 2.525 2.01 0 1 C0 0.67 0 0.34 0 0 Z " fill="#0C523B" transform="translate(598,114)"/>
<path d="M0 0 C2.9375 0.375 2.9375 0.375 6 1 C6.33 1.66 6.66 2.32 7 3 C3.37 3.66 -0.26 4.32 -4 5 C-4 4.34 -4 3.68 -4 3 C-2.68 2.67 -1.36 2.34 0 2 C0 1.34 0 0.68 0 0 Z " fill="#10563F" transform="translate(106,83)"/>
<path d="M0 0 C3.87511727 0.54984772 5.59576506 2.27555331 8.25 5.0625 C8.95640625 5.79597656 9.6628125 6.52945313 10.390625 7.28515625 C10.92171875 7.85105469 11.4528125 8.41695312 12 9 C11.01 9.495 11.01 9.495 10 10 C8.8274869 9.04882866 7.66212985 8.08882991 6.5 7.125 C5.8503125 6.59132813 5.200625 6.05765625 4.53125 5.5078125 C4.0259375 5.01023437 3.520625 4.51265625 3 4 C3 3.34 3 2.68 3 2 C2.01 1.67 1.02 1.34 0 1 C0 0.67 0 0.34 0 0 Z " fill="#0E4F39" transform="translate(581,47)"/>
<path d="M0 0 C3.25516428 3.16474305 6.32008793 6.32752791 9 10 C9 10.66 9 11.32 9 12 C5.37648747 10.79216249 4.84784764 9.70346858 2.8125 6.5625 C2.28269531 5.75941406 1.75289063 4.95632812 1.20703125 4.12890625 C0 2 0 2 0 0 Z " fill="#0E523B" transform="translate(465,74)"/>
<path d="M0 0 C4.29 0 8.58 0 13 0 C13 0.33 13 0.66 13 1 C11.96875 1.12375 10.9375 1.2475 9.875 1.375 C6.37883154 1.93889814 3.31602373 2.78682059 0 4 C0 2.68 0 1.36 0 0 Z " fill="#04593A" transform="translate(480,41)"/>
<path d="M0 0 C0.99 0.33 1.98 0.66 3 1 C3 1.66 3 2.32 3 3 C3.99 3.33 4.98 3.66 6 4 C2.62182575 4.84454356 0.32534757 5.10844919 -3 4 C-3 3.34 -3 2.68 -3 2 C-2.01 1.34 -1.02 0.68 0 0 Z " fill="#07583B" transform="translate(637,123)"/>
<path d="M0 0 C3.94139078 1.66751148 6.7892812 4.22710649 10 7 C9.01 7.66 8.02 8.32 7 9 C5.83037314 7.69013727 4.66437056 6.3770374 3.5 5.0625 C2.8503125 4.33160156 2.200625 3.60070312 1.53125 2.84765625 C0 1 0 1 0 0 Z " fill="#0E523B" transform="translate(237,109)"/>
<path d="M0 0 C1.98 0 3.96 0 6 0 C6.33 0.66 6.66 1.32 7 2 C4.69 3.65 2.38 5.3 0 7 C0 4.69 0 2.38 0 0 Z " fill="#10563E" transform="translate(535,59)"/>
<path d="M0 0 C0 0.33 0 0.66 0 1 C-7.5 2.5 -7.5 2.5 -15 4 C-15 3.34 -15 2.68 -15 2 C-9.75614911 0.2520497 -5.52677733 -0.19392201 0 0 Z " fill="#165D45" transform="translate(274,39)"/>
<path d="M0 0 C-1.485 1.485 -1.485 1.485 -3 3 C-3.99 2.67 -4.98 2.34 -6 2 C-6 2.66 -6 3.32 -6 4 C-6.99 3.67 -7.98 3.34 -9 3 C-8.34 2.67 -7.68 2.34 -7 2 C-7 1.34 -7 0.68 -7 0 C-3.86650268 -1.04449911 -3.01031744 -0.93423645 0 0 Z " fill="#0C583E" transform="translate(142,91)"/>
<path d="M0 0 C0.66 0 1.32 0 2 0 C2 0.66 2 1.32 2 2 C2.66 2 3.32 2 4 2 C6.29013653 5.4352048 6.17842973 6.985331 6 11 C5.34 10.01 4.68 9.02 4 8 C3.29875 6.989375 2.5975 5.97875 1.875 4.9375 C0 2 0 2 0 0 Z " fill="#13553F" transform="translate(574,64)"/>
<path d="M0 0 C1.32 0.33 2.64 0.66 4 1 C2.8803014 2.00593243 1.7540588 3.0045849 0.625 4 C-0.00148438 4.556875 -0.62796875 5.11375 -1.2734375 5.6875 C-3 7 -3 7 -5 7 C-5 6.34 -5 5.68 -5 5 C-3.35 4.34 -1.7 3.68 0 3 C0 2.01 0 1.02 0 0 Z " fill="#0D533D" transform="translate(395,115)"/>
<path d="M0 0 C1.875 0.25 1.875 0.25 4 1 C5.64872507 3.5164751 6.37312706 6.07459296 7 9 C4.03595495 6.19195732 1.55500981 3.81684226 0 0 Z " fill="#104B37" transform="translate(772,98)"/>
<path d="M0 0 C3.3 0 6.6 0 10 0 C10 0.33 10 0.66 10 1 C8.329375 1.433125 8.329375 1.433125 6.625 1.875 C2.99708908 2.69241329 2.99708908 2.69241329 1 5 C0.67 3.35 0.34 1.7 0 0 Z " fill="#095A3E" transform="translate(177,80)"/>
<path d="M0 0 C1 2 1 2 0.22265625 4.3828125 C-0.16019531 5.28773437 -0.54304687 6.19265625 -0.9375 7.125 C-1.31777344 8.03507812 -1.69804688 8.94515625 -2.08984375 9.8828125 C-2.39019531 10.58148438 -2.69054687 11.28015625 -3 12 C-3.66 11.67 -4.32 11.34 -5 11 C-3.77472971 6.94718288 -2.30119506 3.55639236 0 0 Z " fill="#12503B" transform="translate(516,59)"/>
<path d="M0 0 C-2.97 1.32 -5.94 2.64 -9 4 C-9 3.01 -9 2.02 -9 1 C-5.19495213 -0.79682816 -4.29399165 -1.07349791 0 0 Z " fill="#0F563D" transform="translate(271,57)"/>
<path d="M0 0 C0 0.66 0 1.32 0 2 C-0.99 2 -1.98 2 -3 2 C-3 2.66 -3 3.32 -3 4 C-5.31 3.67 -7.62 3.34 -10 3 C-6.41600853 0.61067235 -4.26804999 0 0 0 Z " fill="#145842" transform="translate(152,87)"/>
<path d="M0 0 C0.66 0 1.32 0 2 0 C2.33 0.99 2.66 1.98 3 3 C-0.82320557 4.42258812 -3.91281305 5.24042276 -8 5 C-5.66785852 3.79371992 -3.50357861 2.8345262 -1 2 C-0.67 1.34 -0.34 0.68 0 0 Z " fill="#1C5542" transform="translate(148,74)"/>
<path d="M0 0 C3.82946843 1.45255699 5.12050295 3.42895561 7 7 C6.01 7 5.02 7 4 7 C0 1.62857143 0 1.62857143 0 0 Z " fill="#0D543C" transform="translate(454,61)"/>
<path d="M0 0 C3.2542015 2.83430453 4.5206753 4.68607774 5 9 C3.02 7.68 1.04 6.36 -1 5 C-0.34 4.67 0.32 4.34 1 4 C0.67 2.68 0.34 1.36 0 0 Z " fill="#0F5940" transform="translate(404,58)"/>
<path d="M0 0 C1.98 0.66 3.96 1.32 6 2 C2.86501708 3.85776765 0.62528568 4.20140476 -3 4 C-2.34 3.67 -1.68 3.34 -1 3 C-0.67 2.01 -0.34 1.02 0 0 Z " fill="#105940" transform="translate(656,124)"/>
<path d="M0 0 C0.66 0.33 1.32 0.66 2 1 C0.515 4.96 0.515 4.96 -1 9 C-2.1875 7.3125 -2.1875 7.3125 -3 5 C-1.625 2.25 -1.625 2.25 0 0 Z " fill="#10533C" transform="translate(105,109)"/>
<path d="M0 0 C1.99097846 2.98646769 2.94124926 5.59687262 4 9 C2.35 8.67 0.7 8.34 -1 8 C-0.67 7.34 -0.34 6.68 0 6 C0.039992 4.00039988 0.04346799 1.99952758 0 0 Z " fill="#1A533F" transform="translate(530,90)"/>
<path d="M0 0 C2.95183101 2.95183101 3.08663988 5.95511947 4 10 C3.34 10 2.68 10 2 10 C1.01 7.03 0.02 4.06 -1 1 C-0.67 0.67 -0.34 0.34 0 0 Z " fill="#0F4E3A" transform="translate(127,64)"/>
<path d="M0 0 C0.33 0.66 0.66 1.32 1 2 C1.99 2.33 2.98 2.66 4 3 C3.01 3.66 2.02 4.32 1 5 C-0.32 3.68 -1.64 2.36 -3 1 C-2.01 0.67 -1.02 0.34 0 0 Z " fill="#0B5A3F" transform="translate(336,114)"/>
<path d="M0 0 C2.31 0.66 4.62 1.32 7 2 C6.01 3.32 5.02 4.64 4 6 C2.62437146 4.71034824 1.29233607 3.37310707 0 2 C0 1.34 0 0.68 0 0 Z " fill="#085236" transform="translate(617,113)"/>
<path d="" fill="#FFFFFF" transform="translate(0,0)"/>
<path d="" fill="#FFFFFF" transform="translate(0,0)"/>
<path d="" fill="#FFFFFF" transform="translate(0,0)"/>
<path d="" fill="#FFFFFF" transform="translate(0,0)"/>
<path d="" fill="#FFFFFF" transform="translate(0,0)"/>
<path d="" fill="#FFFFFF" transform="translate(0,0)"/>
<path d="" fill="#FFFFFF" transform="translate(0,0)"/>
<path d="" fill="#FFFFFF" transform="translate(0,0)"/>
<path d="" fill="#FFFFFF" transform="translate(0,0)"/>
<path d="" fill="#FFFFFF" transform="translate(0,0)"/>
<path d="" fill="#FFFFFF" transform="translate(0,0)"/>
<path d="" fill="#FFFFFF" transform="translate(0,0)"/>
<path d="" fill="#FFFFFF" transform="translate(0,0)"/>
<path d="" fill="#FFFFFF" transform="translate(0,0)"/>
<path d="" fill="#FFFFFF" transform="translate(0,0)"/>
<path d="" fill="#FFFFFF" transform="translate(0,0)"/>
<path d="" fill="#FFFFFF" transform="translate(0,0)"/>
<path d="" fill="#FFFFFF" transform="translate(0,0)"/>
<path d="" fill="#FFFFFF" transform="translate(0,0)"/>
<path d="" fill="#FFFFFF" transform="translate(0,0)"/>
<path d="" fill="#FFFFFF" transform="translate(0,0)"/>
<path d="" fill="#FFFFFF" transform="translate(0,0)"/>
<path d="" fill="#FFFFFF" transform="translate(0,0)"/>
<path d="" fill="#FFFFFF" transform="translate(0,0)"/>
<path d="" fill="#FFFFFF" transform="translate(0,0)"/>
<path d="" fill="#FFFFFF" transform="translate(0,0)"/>
<path d="" fill="#FFFFFF" transform="translate(0,0)"/>
<path d="" fill="#FFFFFF" transform="translate(0,0)"/>
<path d="" fill="#FFFFFF" transform="translate(0,0)"/>
<path d="" fill="#FFFFFF" transform="translate(0,0)"/>
<path d="" fill="#FFFFFF" transform="translate(0,0)"/>
<path d="" fill="#FFFFFF" transform="translate(0,0)"/>
<path d="" fill="#FFFFFF" transform="translate(0,0)"/>
<path d="" fill="#FFFFFF" transform="translate(0,0)"/>
<path d="" fill="#FFFFFF" transform="translate(0,0)"/>
<path d="" fill="#FFFFFF" transform="translate(0,0)"/>
<path d="" fill="#FFFFFF" transform="translate(0,0)"/>
<path d="" fill="#FFFFFF" transform="translate(0,0)"/>
<path d="" fill="#FFFFFF" transform="translate(0,0)"/>
<path d="" fill="#FFFFFF" transform="translate(0,0)"/>
<path d="" fill="#FFFFFF" transform="translate(0,0)"/>
<path d="" fill="#FFFFFF" transform="translate(0,0)"/>
<path d="" fill="#FFFFFF" transform="translate(0,0)"/>
<path d="" fill="#FFFFFF" transform="translate(0,0)"/>
<path d="" fill="#FFFFFF" transform="translate(0,0)"/>
<path d="" fill="#FFFFFF" transform="translate(0,0)"/>
<path d="" fill="#FFFFFF" transform="translate(0,0)"/>
<path d="" fill="#FFFFFF" transform="translate(0,0)"/>
<path d="" fill="#FFFFFF" transform="translate(0,0)"/>
<path d="" fill="#FFFFFF" transform="translate(0,0)"/>
<path d="" fill="#FFFFFF" transform="translate(0,0)"/>
<path d="" fill="#FFFFFF" transform="translate(0,0)"/>
<path d="" fill="#FFFFFF" transform="translate(0,0)"/>
<path d="" fill="#FFFFFF" transform="translate(0,0)"/>
<path d="" fill="#FFFFFF" transform="translate(0,0)"/>
<path d="" fill="#FFFFFF" transform="translate(0,0)"/>
<path d="" fill="#FFFFFF" transform="translate(0,0)"/>
<path d="" fill="#FFFFFF" transform="translate(0,0)"/>
<path d="" fill="#FFFFFF" transform="translate(0,0)"/>
<path d="" fill="#FFFFFF" transform="translate(0,0)"/>
<path d="" fill="#FFFFFF" transform="translate(0,0)"/>
<path d="" fill="#FFFFFF" transform="translate(0,0)"/>
</svg>
