<?xml version="1.0" encoding="UTF-8"?>
<svg version="1.1" xmlns="http://www.w3.org/2000/svg" width="860" height="685">
<path d="M0 0 C0.8982062 -0.00350607 1.79641241 -0.00701215 2.72183698 -0.01062447 C5.71730218 -0.01989309 8.71257101 -0.01502689 11.70804405 -0.01015663 C13.88316772 -0.01389518 16.05829004 -0.01849751 18.23341024 -0.02388728 C24.19997333 -0.03610744 30.16648031 -0.03585795 36.13305306 -0.03349853 C42.5722434 -0.03309011 49.0114158 -0.04413189 55.45059776 -0.05361366 C68.06251844 -0.07065307 80.67442315 -0.07574896 93.28635414 -0.07683842 C103.539605 -0.07775833 113.79284981 -0.08187929 124.04609871 -0.08823967 C127.00000011 -0.09003483 129.95390152 -0.09181445 132.90780294 -0.09358943 C134.00940407 -0.09425257 134.00940407 -0.09425257 135.13325978 -0.09492911 C155.78501135 -0.10723402 176.43676083 -0.1151306 197.08851624 -0.11424255 C198.25594608 -0.11419582 198.25594608 -0.11419582 199.44696036 -0.11414814 C203.39142272 -0.11398193 207.33588507 -0.11378385 211.28034742 -0.11357872 C212.4553718 -0.11351889 212.4553718 -0.11351889 213.65413405 -0.11345784 C215.23825769 -0.11337697 216.82238133 -0.11329337 218.40650497 -0.11320706 C243.04589048 -0.1119819 267.68522093 -0.12698975 292.32459068 -0.15435219 C320.02310985 -0.18509938 347.72159283 -0.20228308 375.42013013 -0.20042574 C378.37591767 -0.20027649 381.33170521 -0.20017907 384.28749275 -0.20011711 C385.01525243 -0.2000938 385.74301212 -0.20007049 386.49282512 -0.20004648 C398.18457749 -0.19998503 409.87628189 -0.21273553 421.56802001 -0.22998164 C433.32703761 -0.24696774 445.08597947 -0.24854673 456.84500273 -0.235763 C463.21050517 -0.22923833 469.5758345 -0.22909836 475.94132042 -0.2464695 C481.77563112 -0.26222698 487.60963182 -0.25930891 493.44393508 -0.24190123 C495.54754223 -0.23883727 497.65117268 -0.24244077 499.75475235 -0.25362138 C514.88749362 -0.3286855 529.31327778 0.67578822 542.94324303 8.00726891 C543.93553917 8.52486778 543.93553917 8.52486778 544.9478817 9.0529232 C550.72087863 12.15831476 555.74479356 15.80915408 560.56824303 20.25726891 C561.47058678 21.06808922 562.37293053 21.87890953 563.30261803 22.71430016 C579.68703697 38.17087217 588.96327776 58.84175251 590.14636803 81.36273766 C590.20909653 82.52948021 590.20909653 82.52948021 590.27309227 83.71979332 C590.68716519 92.3060946 590.60819532 100.88201181 590.52832603 109.47519493 C590.03732516 169.96318561 592.20963179 245.06182602 633.56824303 293.25726891 C634.09675865 293.94176109 634.62527428 294.62625328 635.16980553 295.33148766 C647.49475172 310.78320591 665.99489797 316.12985889 684.56824303 320.25726891 C684.56824303 335.10726891 684.56824303 349.95726891 684.56824303 365.25726891 C678.62824303 366.57726891 672.68824303 367.89726891 666.56824303 369.25726891 C663.47661207 370.43739427 660.94344046 371.4394837 658.13074303 373.00726891 C657.48226402 373.35160973 656.83378502 373.69595055 656.16565514 374.05072594 C627.26862894 389.78152445 613.51379232 419.75112769 604.47498131 450.04779625 C597.20725713 475.77248717 593.25242254 502.60008357 591.56824303 529.25726891 C591.52454582 529.94706841 591.48084862 530.6368679 591.43582726 531.34757042 C590.44549466 547.56663863 590.50521113 563.74444101 590.66419029 579.98700523 C590.96748111 613.2940681 590.96748111 613.2940681 585.94324303 627.38226891 C585.6830941 628.12815269 585.42294518 628.87403648 585.15491295 629.64252281 C580.45971434 642.53470404 573.27051373 652.66416581 563.56824303 662.25726891 C562.76515709 663.07066734 561.96207115 663.88406578 561.13464928 664.72211266 C547.1832825 678.12367187 528.91676652 685.42610258 509.62867737 685.39148998 C508.28829113 685.39501833 508.28829113 685.39501833 506.92082638 685.39861795 C503.91702539 685.40529169 500.91326783 685.40485022 497.90946007 685.40443993 C495.73778956 685.40773957 493.56611966 685.41146535 491.39445055 685.41558141 C485.41886458 685.42559821 479.44328865 685.42931769 473.46769547 685.43197072 C467.0257126 685.43587473 460.58373767 685.44545303 454.14175987 685.45418358 C439.31566756 685.47329298 424.48957405 685.48320386 409.66347241 685.49164426 C402.33385049 685.49585293 395.00422939 685.50107465 387.67460816 685.50632879 C362.57523912 685.52421884 337.47586983 685.53921358 312.37649536 685.54664898 C310.80107817 685.54712373 309.22566097 685.54759962 307.65024378 685.54807664 C306.86899257 685.54831302 306.08774137 685.54854939 305.28281588 685.54879293 C301.3247356 685.54999411 297.36665533 685.55120956 293.40857506 685.55243492 C292.23034384 685.55279515 292.23034384 685.55279515 291.02830997 685.55316265 C265.57126703 685.5610524 240.11427072 685.58447763 214.65724814 685.61699087 C187.73117617 685.65131743 160.80513147 685.67100278 133.87903726 685.67429322 C130.92094063 685.67471074 127.96284401 685.6751903 125.00474739 685.6757164 C124.27640171 685.67583959 123.54805602 685.67596278 122.79763926 685.67608971 C111.09450525 685.67841831 99.39142555 685.6940593 87.68831087 685.71455825 C75.91536719 685.73485167 64.1424941 685.73994451 52.36953612 685.73078761 C45.99595699 685.72624542 39.62255362 685.72812485 33.24899864 685.74754906 C27.40713232 685.76519873 21.56556972 685.76416801 15.72370009 685.74865177 C13.61727929 685.74627847 11.51083737 685.75058465 9.40444882 685.76248042 C-5.73815129 685.84265801 -20.16739913 684.84380182 -33.80675697 677.50726891 C-34.46828773 677.16220299 -35.1298185 676.81713707 -35.81139565 676.46161461 C-41.58566595 673.35553808 -46.60332653 669.70134667 -51.43175697 665.25726891 C-52.32249916 664.46965172 -53.21324135 663.68203453 -54.13097572 662.87055016 C-72.48145162 645.748558 -80.54554009 622.95391067 -81.43175697 598.25726891 C-81.53182431 591.23104813 -81.44580271 584.20343287 -81.39183998 577.17706871 C-80.98932476 517.33719846 -83.09474864 443.27838806 -122.43175697 394.25726891 C-123.10722572 393.40519859 -123.78269447 392.55312828 -124.47863197 391.67523766 C-138.11173144 375.47971256 -155.05042499 369.78645379 -175.43175697 365.25726891 C-175.43175697 350.40726891 -175.43175697 335.55726891 -175.43175697 320.25726891 C-166.52175697 318.27726891 -166.52175697 318.27726891 -157.43175697 316.25726891 C-154.34012602 315.07714354 -151.80695441 314.07505411 -148.99425697 312.50726891 C-148.34577797 312.16292809 -147.69729897 311.81858727 -147.02916908 311.46381187 C-118.06609648 295.69705939 -104.4412732 265.74622542 -95.33849525 235.41937828 C-88.03981469 209.96635978 -84.18990653 183.64828253 -82.43175697 157.25726891 C-82.3412809 155.96063316 -82.25080482 154.66399742 -82.15758705 153.32806969 C-81.17747238 138.08003196 -81.38442389 122.83871229 -81.52770424 107.5673275 C-81.80922433 75.34990209 -78.31094188 47.36172581 -54.80675697 23.13226891 C-40.13627271 8.59932771 -20.75030674 -0.10449851 0 0 Z " fill="#7C11F7" transform="translate(175.4317569732666,-0.25726890563964844)"/>
<path d="M0 0 C205.00369004 0 205.00369004 0 238.1875 32.1171875 C247.05095622 41.56923261 253.04754979 52.72345011 257 65 C257.47953125 66.39992187 257.47953125 66.39992187 257.96875 67.828125 C262.67399642 84.12221907 261.43891744 103.07846314 256 119 C255.54947266 120.38832031 255.54947266 120.38832031 255.08984375 121.8046875 C251.11943433 132.83933188 244.01784017 141.62293761 236 150 C235.13761719 150.95712891 235.13761719 150.95712891 234.2578125 151.93359375 C224.63263507 162.27260012 211.33938372 168.17719686 198 172 C198.64324219 172.17015625 199.28648437 172.3403125 199.94921875 172.515625 C226.04846306 179.51513702 250.23105174 189.5646211 265.375 213.5 C266.6129031 215.64990926 267.82335871 217.81596035 269 220 C269.48210937 220.89332031 269.96421875 221.78664063 270.4609375 222.70703125 C281.2766747 244.56793037 282.12090522 272.25154829 274.67578125 295.29296875 C270.58081426 307.07784692 264.99883523 317.42268066 257 327 C256.49082031 327.65484375 255.98164062 328.3096875 255.45703125 328.984375 C235.58447518 353.51839484 201.88325699 362.26459288 172 366 C115.24 366 58.48 366 0 366 C0 245.22 0 124.44 0 0 Z " fill="#F6EFFD" transform="translate(298,159)"/>
<path d="M0 0 C13.81875 -0.04125 27.6375 -0.0825 41.875 -0.125 C46.20093262 -0.14320801 50.52686523 -0.16141602 54.98388672 -0.18017578 C60.36157227 -0.18920898 60.36157227 -0.18920898 62.89749146 -0.19088745 C64.62837764 -0.1939122 66.35926025 -0.20084662 68.09011841 -0.21115112 C83.14060023 -0.29609133 98.70744934 -0.1551669 113.25 4.1875 C114.35311523 4.50895996 114.35311523 4.50895996 115.47851562 4.83691406 C131.2754138 9.67172229 144.8906968 18.18326782 153 33 C160.14770352 50.23729721 159.83423403 68.43586432 152.9375 85.65234375 C148.12376391 95.16281539 140.24893747 102.85653729 131 108 C130.26136719 108.42796875 129.52273438 108.8559375 128.76171875 109.296875 C112.02018859 117.94800064 92.82759775 118.7297199 74.4140625 118.48828125 C72.49048596 118.48089815 70.56689923 118.47581687 68.64331055 118.47302246 C61.63705039 118.44717477 54.6310075 118.37737257 47.625 118.3125 C31.90875 118.209375 16.1925 118.10625 0 118 C0 79.06 0 40.12 0 0 Z " fill="#7811F2" transform="translate(358,359)"/>
<path d="M0 0 C20.3259375 -0.061875 20.3259375 -0.061875 41.0625 -0.125 C45.31133057 -0.14320801 49.56016113 -0.16141602 53.93774414 -0.18017578 C59.20202637 -0.18920898 59.20202637 -0.18920898 61.68113708 -0.19088745 C63.38048862 -0.19392079 65.07983638 -0.20087434 66.77915955 -0.21115112 C80.62232304 -0.29054565 94.67393892 -0.24827135 107.8125 4.6875 C108.5233374 4.94877686 109.2341748 5.21005371 109.96655273 5.47924805 C121.80963345 10.04133713 131.3389251 17.94364539 136.875 29.5 C142.83884047 43.99795562 142.33356916 59.01895586 137.00390625 73.75390625 C130.49463959 88.14636782 118.30961858 96.60178463 104 102 C83.4395154 109.3821022 61.09080144 107.5519507 39.625 107.3125 C26.54875 107.209375 13.4725 107.10625 0 107 C0 71.69 0 36.38 0 0 Z " fill="#7C11F2" transform="translate(358,207)"/>
<path d="M0 0 C0.33 0 0.66 0 1 0 C1 120.78 1 241.56 1 366 C94.56850643 366.89208555 94.56850643 366.89208555 188 364 C188 364.66 188 365.32 188 366 C187.08476562 366.04898437 186.16953125 366.09796875 185.2265625 366.1484375 C183.44378906 366.26058594 183.44378906 366.26058594 181.625 366.375 C180.44164062 366.44460938 179.25828125 366.51421875 178.0390625 366.5859375 C174.89437681 366.70217346 174.89437681 366.70217346 173 369 C170.0677166 369.24609566 170.0677166 369.24609566 166.22970581 369.24050903 C165.17358603 369.24307231 165.17358603 369.24307231 164.09613049 369.24568737 C161.72528063 369.24899452 159.35471072 369.23795865 156.98388672 369.22705078 C155.28903205 369.22648693 153.59417689 369.22680271 151.89932251 369.22793579 C147.28797528 369.22851133 142.67673138 369.2167246 138.06540823 369.20278788 C133.25008253 369.19031391 128.43475465 369.18911266 123.61941528 369.18673706 C114.49630578 369.18051246 105.37324402 369.16408843 96.25015557 369.14403808 C85.86579108 369.12170952 75.48142435 369.11069332 65.09704185 369.10064721 C43.73133455 369.07972302 22.36567028 369.04452806 1 369 C-0.3699023 366.26019541 -0.12409367 364.09082006 -0.12304783 361.02232933 C-0.1260344 359.09874692 -0.1260344 359.09874692 -0.12908131 357.13630426 C-0.12622789 355.69978656 -0.12328228 354.26326905 -0.12025452 352.82675171 C-0.12069021 351.31122368 -0.12156508 349.79569573 -0.12284368 348.28016818 C-0.12508905 344.10029974 -0.12106679 339.92045672 -0.11606562 335.74059153 C-0.11176191 331.23888046 -0.11320749 326.73717092 -0.1139679 322.23545837 C-0.11449318 314.4308475 -0.1113459 306.62624497 -0.10573006 298.8216362 C-0.09761567 287.53737174 -0.0949999 276.25311132 -0.09374207 264.96884425 C-0.09155145 246.66249544 -0.0848911 228.35615108 -0.07543945 210.04980469 C-0.06626559 192.26302106 -0.05918463 174.47623864 -0.05493164 156.68945312 C-0.05466892 155.59375119 -0.05440619 154.49804926 -0.05413551 153.36914425 C-0.05283051 147.87253137 -0.05156679 142.37591849 -0.05032361 136.8793056 C-0.03995069 91.25286732 -0.02233211 45.62643389 0 0 Z " fill="#7F38C9" transform="translate(297,159)"/>
<path d="M0 0 C13.81875 -0.04125 27.6375 -0.0825 41.875 -0.125 C46.20093262 -0.14320801 50.52686523 -0.16141602 54.98388672 -0.18017578 C60.36157227 -0.18920898 60.36157227 -0.18920898 62.89749146 -0.19088745 C64.62837764 -0.1939122 66.35926025 -0.20084662 68.09011841 -0.21115112 C83.55657004 -0.29843893 99.24031655 -0.03832523 114.125 4.625 C114.90230469 4.85445313 115.67960937 5.08390625 116.48046875 5.3203125 C118.32438195 5.86665715 120.16292898 6.43107257 122 7 C119 9 119 9 116.66796875 8.75 C112.84576911 7.67553099 109.15017213 6.30831775 105.42578125 4.9375 C97.99617522 2.90431249 90.26519806 2.85231914 82.60302734 2.88647461 C81.26307425 2.88629381 81.26307425 2.88629381 79.89605141 2.88610935 C77.04265357 2.88684779 74.18932344 2.89442658 71.3359375 2.90234375 C69.55900097 2.90381649 67.782064 2.90483515 66.00512695 2.90539551 C59.46174463 2.91060992 52.91837163 2.92457115 46.375 2.9375 C31.73125 2.958125 17.0875 2.97875 2 3 C1.67 40.62 1.34 78.24 1 117 C15.06625 116.855625 29.1325 116.71125 43.625 116.5625 C48.03955566 116.51939697 52.45411133 116.47629395 57.00244141 116.43188477 C61.01653146 116.38855487 61.01653146 116.38855487 65.03060913 116.34410095 C66.79581112 116.32508593 68.56103139 116.3077178 70.32626343 116.29173279 C90.80007044 116.33274619 90.80007044 116.33274619 110.9375 113.125 C111.62650391 112.96386719 112.31550781 112.80273438 113.02539062 112.63671875 C116.4628911 111.79766944 119.59996627 110.78686351 122.81640625 109.3046875 C126 108 126 108 129 109 C111.57128271 117.48823756 93.80363135 118.58937738 74.70703125 118.390625 C72.78040025 118.38472274 70.85376276 118.38065509 68.92712402 118.37841797 C61.88881636 118.35769111 54.85064721 118.30184808 47.8125 118.25 C32.034375 118.1675 16.25625 118.085 0 118 C0 79.06 0 40.12 0 0 Z " fill="#6A1DC8" transform="translate(358,359)"/>
<path d="M0 0 C20.3259375 -0.061875 20.3259375 -0.061875 41.0625 -0.125 C45.31133057 -0.14320801 49.56016113 -0.16141602 53.93774414 -0.18017578 C59.20202637 -0.18920898 59.20202637 -0.18920898 61.68113708 -0.19088745 C63.38048862 -0.19392079 65.07983638 -0.20087434 66.77915955 -0.21115112 C80.86646348 -0.29194587 94.67956697 -0.14121976 108 5 C108 5.33 108 5.66 108 6 C106.00045254 6.04254356 103.99958364 6.04080783 102 6 C101.505 5.505 101.505 5.505 101 5 C99.14712498 4.92773498 97.29166122 4.9161878 95.4375 4.9375 C93.91962891 4.95103516 93.91962891 4.95103516 92.37109375 4.96484375 C91.58863281 4.97644531 90.80617188 4.98804688 90 5 C90 4.34 90 3.68 90 3 C60.63 2.67 31.26 2.34 1 2 C1 36.32 1 70.64 1 106 C13.08625 105.87625 25.1725 105.7525 37.625 105.625 C41.41307129 105.59100098 45.20114258 105.55700195 49.10400391 105.52197266 C52.55926461 105.48197453 52.55926461 105.48197453 56.01449585 105.43954468 C57.52967882 105.42209034 59.04490569 105.40818715 60.56015015 105.39730835 C76.72358054 105.86937596 76.72358054 105.86937596 92 102 C94.6723621 101.86584528 97.32250488 101.95681459 100 102 C89.77220201 108.81853199 74.37937345 107.402573 62.59765625 107.29296875 C60.98466302 107.28854318 59.37166543 107.28549174 57.75866699 107.28381348 C51.85987781 107.26825531 45.96118161 107.22637275 40.0625 107.1875 C26.841875 107.125625 13.62125 107.06375 0 107 C0 71.69 0 36.38 0 0 Z " fill="#721CC6" transform="translate(358,207)"/>
<path d="M0 0 C0.33 0 0.66 0 1 0 C1.02685412 2.31243792 1.04632841 4.6249627 1.0625 6.9375 C1.07410156 8.22527344 1.08570313 9.51304687 1.09765625 10.83984375 C1 14 1 14 0 15 C-0.50156186 17.08376156 -0.8979096 19.1810051 -1.3046875 21.28515625 C-2.99952363 27.90263438 -5.83413281 34.03152481 -8.875 40.125 C-9.20113281 40.80175781 -9.52726563 41.47851562 -9.86328125 42.17578125 C-12.09472618 46.66471911 -14.55035378 50.3454243 -18 54 C-18.66 54 -19.32 54 -20 54 C-20.33 54.99 -20.66 55.98 -21 57 C-21.66 57 -22.32 57 -23 57 C-23.33 59.31 -23.66 61.62 -24 64 C-25.485 64.495 -25.485 64.495 -27 65 C-27.66 65.66 -28.32 66.32 -29 67 C-30.46389465 68.02222624 -31.94514081 69.01979692 -33.4375 70 C-34.21996094 70.515625 -35.00242187 71.03125 -35.80859375 71.5625 C-36.53175781 72.036875 -37.25492188 72.51125 -38 73 C-38.99 73.66 -39.98 74.32 -41 75 C-42.32 75 -43.64 75 -45 75 C-45.495 76.485 -45.495 76.485 -46 78 C-47.99609375 79.16796875 -47.99609375 79.16796875 -50.4375 80.1875 C-51.24058594 80.53167969 -52.04367187 80.87585938 -52.87109375 81.23046875 C-55 82 -55 82 -57 82 C-57.495 83.485 -57.495 83.485 -58 85 C-59.485 84.505 -59.485 84.505 -61 84 C-61.7425 84.9590625 -61.7425 84.9590625 -62.5 85.9375 C-65.80765399 88.66631454 -68.88660364 88.71522641 -73 89 C-77.5221884 89.41970765 -77.5221884 89.41970765 -81 92 C-83.1640625 91.9765625 -83.1640625 91.9765625 -85.625 91.625 C-86.44226563 91.51414062 -87.25953125 91.40328125 -88.1015625 91.2890625 C-88.72804688 91.19367188 -89.35453125 91.09828125 -90 91 C-87.28051837 89.54552707 -84.7462494 88.57513039 -81.75390625 87.84375 C-63.4434419 83.13993173 -46.55361038 76.30126592 -32 64 C-30.948125 63.21625 -29.89625 62.4325 -28.8125 61.625 C-11.05119291 45.04778005 -3.09745613 23.47545699 0 0 Z " fill="#6C22CF" transform="translate(576,432)"/>
<path d="M0 0 C10.90211599 -0.04667119 21.80420758 -0.08204379 32.70640373 -0.10362434 C37.77061406 -0.11399028 42.83475523 -0.12801537 47.89892578 -0.15087891 C52.80080962 -0.17286719 57.70262762 -0.18462242 62.60455704 -0.18975449 C64.45971841 -0.19340423 66.31487685 -0.20052856 68.17000961 -0.21146011 C83.60975269 -0.29868806 99.26667057 -0.0300686 114.125 4.625 C114.90230469 4.85445313 115.67960937 5.08390625 116.48046875 5.3203125 C118.32438195 5.86665715 120.16292898 6.43107257 122 7 C119 9 119 9 116.66796875 8.75 C112.84576911 7.67553099 109.15017213 6.30831775 105.42578125 4.9375 C97.96601277 2.89605823 90.20399637 2.8525374 82.51123047 2.88647461 C81.62219528 2.88632858 80.7331601 2.88618256 79.81718445 2.8860321 C76.91715948 2.88672143 74.01720106 2.89446731 71.1171875 2.90234375 C69.09123774 2.90421142 67.06528753 2.90563367 65.03933716 2.90663147 C59.73594898 2.91042918 54.43258868 2.92023571 49.12921143 2.93133545 C43.70593645 2.94160892 38.28265692 2.94614175 32.859375 2.95117188 C22.23957116 2.96186071 11.61978791 2.97890374 1 3 C0.67 2.01 0.34 1.02 0 0 Z " fill="#8141CD" transform="translate(358,359)"/>
<path d="M0 0 C0 0.66 0 1.32 0 2 C-0.91523438 2.04898438 -1.83046875 2.09796875 -2.7734375 2.1484375 C-3.96195313 2.22320313 -5.15046875 2.29796875 -6.375 2.375 C-7.55835938 2.44460938 -8.74171875 2.51421875 -9.9609375 2.5859375 C-13.10562319 2.70217346 -13.10562319 2.70217346 -15 5 C-17.9322834 5.24609566 -17.9322834 5.24609566 -21.77029419 5.24050903 C-22.47437405 5.24221788 -23.1784539 5.24392673 -23.90386951 5.24568737 C-26.27471937 5.24899452 -28.64528928 5.23795865 -31.01611328 5.22705078 C-32.71096795 5.22648693 -34.40582311 5.22680271 -36.10067749 5.22793579 C-40.71202472 5.22851133 -45.32326862 5.2167246 -49.93459177 5.20278788 C-54.74991747 5.19031391 -59.56524535 5.18911266 -64.38058472 5.18673706 C-73.50369422 5.18051246 -82.62675598 5.16408843 -91.74984443 5.14403808 C-102.13420892 5.12170952 -112.51857565 5.11069332 -122.90295815 5.10064721 C-144.26866545 5.07972302 -165.63432972 5.04452806 -187 5 C-187 4.34 -187 3.68 -187 3 C-186.19383869 2.99668985 -185.38767738 2.99337971 -184.55708694 2.98996925 C-164.85533648 2.90841283 -145.15366138 2.81621653 -125.45201492 2.71247292 C-115.92408062 2.66255251 -106.39615405 2.616109 -96.86816406 2.578125 C-88.55441202 2.54497252 -80.24072386 2.50501696 -71.92704272 2.45720994 C-67.53334814 2.43217358 -63.13969465 2.41032773 -58.74594879 2.39665604 C-34.7022041 2.4076388 -34.7022041 2.4076388 -10.75946045 0.42294312 C-7.10193116 0.01146736 -3.67140984 -0.0747074 0 0 Z " fill="#6817C7" transform="translate(485,523)"/>
<path d="M0 0 C10.69316023 -0.04660296 21.38629579 -0.08200997 32.07953739 -0.10362434 C37.0463072 -0.11400481 42.01300687 -0.12805755 46.97973633 -0.15087891 C51.7843487 -0.17281399 56.58889415 -0.1846116 61.39355278 -0.18975449 C63.21490976 -0.19341353 65.03626361 -0.20055713 66.85759163 -0.21146011 C80.91863208 -0.29218771 94.70501963 -0.13139593 108 5 C108 5.33 108 5.66 108 6 C106.00045254 6.04254356 103.99958364 6.04080783 102 6 C101.505 5.505 101.505 5.505 101 5 C99.14712498 4.92773498 97.29166122 4.9161878 95.4375 4.9375 C93.91962891 4.95103516 93.91962891 4.95103516 92.37109375 4.96484375 C91.58863281 4.97644531 90.80617188 4.98804688 90 5 C90 4.34 90 3.68 90 3 C60.3 2.67 30.6 2.34 0 2 C0 1.34 0 0.68 0 0 Z " fill="#7F3ACC" transform="translate(358,207)"/>
<path d="M0 0 C11.37722553 1.66090884 20.6463387 10.21869569 27.5234375 18.9296875 C33.92151945 28.27476477 36.19811419 39.6676011 36.1875 50.8125 C36.18814453 51.51375 36.18878906 52.215 36.18945312 52.9375 C36.13547051 58.24742613 35.45403232 62.91088689 34 68 C33.67 68 33.34 68 33 68 C32.9498877 66.90534424 32.89977539 65.81068848 32.84814453 64.68286133 C32.65938413 60.61030608 32.45909522 56.5383846 32.25537109 52.46655273 C32.16890418 50.7062872 32.08553801 48.94586644 32.00537109 47.18530273 C31.8894 44.6504037 31.76218067 42.1162776 31.6328125 39.58203125 C31.59938751 38.79850784 31.56596252 38.01498444 31.53152466 37.2077179 C31.31112865 33.11703784 30.95118109 29.64211692 29 26 C28.34 25.67 27.68 25.34 27 25 C26.26924352 22.6859378 25.59861742 20.35171131 25 18 C24.360625 17.896875 23.72125 17.79375 23.0625 17.6875 C22.381875 17.460625 21.70125 17.23375 21 17 C20.67 16.01 20.34 15.02 20 14 C19.01 13.67 18.02 13.34 17 13 C17 12.01 17 11.02 17 10 C16.278125 9.731875 15.55625 9.46375 14.8125 9.1875 C12 8 12 8 9.5 6.4375 C7.08097826 4.85101389 7.08097826 4.85101389 4.3125 4.5625 C2 4 2 4 0.6875 1.9375 C0.460625 1.298125 0.23375 0.65875 0 0 Z " fill="#7735CB" transform="translate(480,367)"/>
<path d="M0 0 C4.27128998 4.27128998 4.16449745 11.42244833 4.3125 17.1875 C4.03034907 32.28257469 -0.14290086 44.70337806 -10.546875 55.67578125 C-16.91754432 61.7116861 -24.37685175 66.84816851 -33 69 C-33.99 68.67 -34.98 68.34 -36 68 C-34.02 67.505 -34.02 67.505 -32 67 C-32 66.34 -32 65.68 -32 65 C-30.35 65 -28.7 65 -27 65 C-27 64.34 -27 63.68 -27 63 C-25.68 63 -24.36 63 -23 63 C-22.67 62.01 -22.34 61.02 -22 60 C-21.01 60.33 -20.02 60.66 -19 61 C-19 60.34 -19 59.68 -19 59 C-18.01 59 -17.02 59 -16 59 C-16.33 58.01 -16.66 57.02 -17 56 C-14.525 55.505 -14.525 55.505 -12 55 C-11.67 53.68 -11.34 52.36 -11 51 C-10.01 51 -9.02 51 -8 51 C-8 50.01 -8 49.02 -8 48 C-7.34 48 -6.68 48 -6 48 C-5.86464844 47.43667969 -5.72929687 46.87335938 -5.58984375 46.29296875 C-4.98413613 43.93833053 -4.3014045 41.62875505 -3.5625 39.3125 C-3.31628906 38.52488281 -3.07007813 37.73726563 -2.81640625 36.92578125 C-2 35 -2 35 0 34 C1.28055881 29.72876903 1.15265137 25.35727519 1.125 20.9375 C1.12306641 20.19250244 1.12113281 19.44750488 1.11914062 18.67993164 C1.07075577 12.42148567 0.67151987 6.22355024 0 0 Z " fill="#7622D2" transform="translate(495,240)"/>
<path d="M0 0 C3.76591888 1.68065801 5.1379634 3.27592679 7 7 C7 7.66 7 8.32 7 9 C7.66 9 8.32 9 9 9 C9 9.99 9 10.98 9 12 C9.99 12.33 10.98 12.66 12 13 C11.67 13.99 11.34 14.98 11 16 C11.7763932 19.0745356 11.7763932 19.0745356 14 21 C13.625 24.625 13.625 24.625 13 28 C13.66 28 14.32 28 15 28 C15.13277344 28.83144531 15.26554688 29.66289062 15.40234375 30.51953125 C15.57894531 31.60621094 15.75554688 32.69289063 15.9375 33.8125 C16.11152344 34.89144531 16.28554688 35.97039062 16.46484375 37.08203125 C16.93871921 40.04933356 16.93871921 40.04933356 18 43 C18.12070269 45.31019336 18.175363 47.6241874 18.1875 49.9375 C18.20167969 51.16339844 18.21585938 52.38929688 18.23046875 53.65234375 C18.01676797 56.75643812 17.63998182 58.41362551 16 61 C15.67 61 15.34 61 15 61 C14.96261719 59.741875 14.92523437 58.48375 14.88671875 57.1875 C14.13262089 36.09140519 9.88358532 18.85013696 0 0 Z " fill="#7121D2" transform="translate(562,371)"/>
<path d="M0 0 C0 0.99 0 1.98 0 3 C-3.08391451 5.96811535 -6.56720717 8.44859992 -10 11 C-10.59039063 11.44214844 -11.18078125 11.88429688 -11.7890625 12.33984375 C-16.34756772 15.56980066 -20.4246651 17 -26 17 C-25.67 17.99 -25.34 18.98 -25 20 C-28.96 19.67 -32.92 19.34 -37 19 C-33.75231712 17.37615856 -30.93641385 16.30309457 -27.5 15.25 C-17.13029575 11.82711346 -8.30968703 7.09261166 0 0 Z " fill="#6B26BF" transform="translate(529,313)"/>
<path d="M0 0 C0.66 0.66 1.32 1.32 2 2 C1.91291596 6.00586597 1.46526044 7.54666931 -1.4375 10.375 C-4 12 -4 12 -6 12 C-5.67 12.99 -5.34 13.98 -5 15 C-6.2065625 15.61875 -6.2065625 15.61875 -7.4375 16.25 C-10.17125741 17.68720448 -10.17125741 17.68720448 -10.4375 20 C-11 22 -11 22 -13.9375 23.8125 C-14.948125 24.204375 -15.95875 24.59625 -17 25 C-17.66 24.67 -18.32 24.34 -19 24 C-18.35933594 23.40574219 -17.71867188 22.81148438 -17.05859375 22.19921875 C-10.90492223 16.30233233 -6.29727964 10.33711666 -2 3 C-1.34 2.01 -0.68 1.02 0 0 Z " fill="#6E21CE" transform="translate(549,288)"/>
<path d="M0 0 C5.12024879 1.50845504 9.7883093 3.11001886 14.51171875 5.64453125 C16.7469691 6.3308975 16.7469691 6.3308975 18.51171875 6.64453125 C18.51171875 7.30453125 18.51171875 7.96453125 18.51171875 8.64453125 C19.83171875 8.31453125 21.15171875 7.98453125 22.51171875 7.64453125 C22.51171875 8.63453125 22.51171875 9.62453125 22.51171875 10.64453125 C23.83171875 10.31453125 25.15171875 9.98453125 26.51171875 9.64453125 C26.51171875 10.63453125 26.51171875 11.62453125 26.51171875 12.64453125 C27.17171875 12.64453125 27.83171875 12.64453125 28.51171875 12.64453125 C28.51171875 13.30453125 28.51171875 13.96453125 28.51171875 14.64453125 C24.96796203 13.26791806 21.50481504 11.74765814 18.04101562 10.18188477 C10.32431119 6.71252427 2.6811724 3.89672652 -5.48828125 1.64453125 C-2.48828125 -0.35546875 -2.48828125 -0.35546875 0 0 Z " fill="#7627D3" transform="translate(509.48828125,332.35546875)"/>
<path d="M0 0 C4.27128998 4.27128998 4.16449745 11.42244833 4.3125 17.1875 C4.21898403 24.37972795 2.75342024 31.03850416 1 38 C-0.13351092 34.59946723 0.28216386 32.46626358 1 29 C1.09469968 26.30105903 1.14187796 23.63526052 1.125 20.9375 C1.12306641 20.19250244 1.12113281 19.44750488 1.11914062 18.67993164 C1.07075577 12.42148567 0.67151987 6.22355024 0 0 Z " fill="#7B36CC" transform="translate(495,240)"/>
<path d="M0 0 C0.33 0 0.66 0 1 0 C1.02692484 2.29160319 1.04636124 4.58329546 1.0625 6.875 C1.07410156 8.15117187 1.08570313 9.42734375 1.09765625 10.7421875 C1 14 1 14 0 16 C-0.35613097 17.66194453 -0.69208308 19.328451 -1 21 C-1.66 21 -2.32 21 -3 21 C-3.10957031 21.62648438 -3.21914063 22.25296875 -3.33203125 22.8984375 C-3.49058594 23.71570313 -3.64914062 24.53296875 -3.8125 25.375 C-3.96332031 26.18710937 -4.11414063 26.99921875 -4.26953125 27.8359375 C-5 30 -5 30 -8 32 C-7.74476563 31.195625 -7.74476563 31.195625 -7.484375 30.375 C-5.78288549 24.87231052 -4.27888004 19.33460905 -2.875 13.75 C-2.70452148 13.07710938 -2.53404297 12.40421875 -2.35839844 11.7109375 C-1.39306462 7.82657241 -0.60211448 3.95675229 0 0 Z " fill="#762FD1" transform="translate(558,256)"/>
<path d="M0 0 C3.39848344 6.11727019 3.18260503 12.30141345 3.1875 19.125 C3.19974609 20.03121094 3.21199219 20.93742187 3.22460938 21.87109375 C3.22654297 22.74121094 3.22847656 23.61132812 3.23046875 24.5078125 C3.23457764 25.29816895 3.23868652 26.08852539 3.24291992 26.90283203 C3 29 3 29 1 32 C0.8305164 28.16678585 0.6649259 24.33341274 0.5 20.5 C0.45230469 19.42234375 0.40460937 18.3446875 0.35546875 17.234375 C0.10998826 11.4831177 -0.05588769 5.75643239 0 0 Z " fill="#6B18D4" transform="translate(512,403)"/>
<path d="M0 0 C26.75104461 -0.7419396 26.75104461 -0.7419396 34 6 C28.65421791 5.38088938 23.40393716 4.55073148 18.125 3.5 C12.10050455 2.33099452 6.12932935 1.42728498 0 1 C0 0.67 0 0.34 0 0 Z " fill="#7C2DD5" transform="translate(458,159)"/>
<path d="M0 0 C10.41863977 1.02833328 19.99875925 2.78085063 30 6 C27 8 27 8 24.66796875 7.75 C21.82888698 6.95189795 19.08442423 6.00662669 16.3125 5 C10.856214 3.13390962 5.74726395 2.25430371 0 2 C0 1.34 0 0.68 0 0 Z " fill="#7222CC" transform="translate(450,360)"/>
<path d="M0 0 C1.10424427 2.76061067 1.04167422 3.88237115 0.03125 6.734375 C-3.29542688 13.28589172 -6.80962939 18.77891713 -12 24 C-12.33 23.01 -12.66 22.02 -13 21 C-12.01 20.34 -11.02 19.68 -10 19 C-8.93753473 17.03247172 -7.92862192 15.03412421 -7 13 C-6.34 13 -5.68 13 -5 13 C-4.31292445 10.50935112 -4 8.62113708 -4 6 C-3.01 5.67 -2.02 5.34 -1 5 C-0.67 3.35 -0.34 1.7 0 0 Z " fill="#6D1FCF" transform="translate(512,435)"/>
<path d="M0 0 C7.42857143 1 7.42857143 1 11 2 C11 2.66 11 3.32 11 4 C12.65 4 14.3 4 16 4 C16 4.66 16 5.32 16 6 C18.97 6.495 18.97 6.495 22 7 C22.33 7.99 22.66 8.98 23 10 C23.99 10 24.98 10 26 10 C26 10.66 26 11.32 26 12 C21.80206457 10.69826631 18.01991835 9.09260996 14.125 7.0625 C9.48746545 4.69747303 4.91610598 2.70172899 0 1 C0 0.67 0 0.34 0 0 Z " fill="#7925D5" transform="translate(493,165)"/>
<path d="M0 0 C6.29958605 2.64949033 10.6002432 8.63791041 14 14.375 C15 17 15 17 15 20 C14.34 20 13.68 20 13 20 C12.34 17.36 11.68 14.72 11 12 C10.34 12 9.68 12 9 12 C8.67 12.66 8.34 13.32 8 14 C7.79375 12.906875 7.5875 11.81375 7.375 10.6875 C6.34336062 6.7714341 6.34336062 6.7714341 2.875 5.0625 C1.92625 4.711875 0.9775 4.36125 0 4 C0 2.68 0 1.36 0 0 Z " fill="#7225CC" transform="translate(480,220)"/>
<path d="M0 0 C4.2839376 0.60181009 7.44368723 2.11067842 11.1875 4.25 C12.23292969 4.83265625 13.27835937 5.4153125 14.35546875 6.015625 C17.24466038 8.18358563 18.03695992 9.57323163 19 13 C18.34 13 17.68 13 17 13 C17 12.01 17 11.02 17 10 C16.278125 9.731875 15.55625 9.46375 14.8125 9.1875 C12 8 12 8 9.5 6.4375 C7.08097826 4.85101389 7.08097826 4.85101389 4.3125 4.5625 C2 4 2 4 0.6875 1.9375 C0.460625 1.298125 0.23375 0.65875 0 0 Z " fill="#6E1ED1" transform="translate(480,367)"/>
<path d="M0 0 C0 0.99 0 1.98 0 3 C-3.08415053 5.9683425 -6.56889531 8.44590413 -10 11 C-10.62519531 11.47695313 -11.25039063 11.95390625 -11.89453125 12.4453125 C-13.4375 13.5625 -13.4375 13.5625 -16 15 C-16.99 14.67 -17.98 14.34 -19 14 C-18.34 14 -17.68 14 -17 14 C-16.76925781 13.401875 -16.53851562 12.80375 -16.30078125 12.1875 C-14.65638711 9.42215249 -12.98982185 8.54610861 -10.1875 7 C-6.52078135 4.90928054 -3.20230995 2.77533529 0 0 Z " fill="#6E1CCD" transform="translate(529,313)"/>
<path d="M0 0 C0.66 0.33 1.32 0.66 2 1 C2.05407567 3.58361518 2.093707 6.16609255 2.125 8.75 C2.14175781 9.47960937 2.15851562 10.20921875 2.17578125 10.9609375 C2.21072239 14.8044624 2.17499684 17.74606772 0 21 C-0.33 21 -0.66 21 -1 21 C-1.02888146 17.68751813 -1.04675799 14.37506833 -1.0625 11.0625 C-1.07087891 10.11697266 -1.07925781 9.17144531 -1.08789062 8.19726562 C-1.09111328 7.29814453 -1.09433594 6.39902344 -1.09765625 5.47265625 C-1.10289307 4.64000244 -1.10812988 3.80734863 -1.11352539 2.94946289 C-1 1 -1 1 0 0 Z " fill="#6B16D3" transform="translate(578,411)"/>
<path d="M0 0 C0 0.66 0 1.32 0 2 C-1.37285156 2.07347656 -1.37285156 2.07347656 -2.7734375 2.1484375 C-3.96195312 2.22320313 -5.15046875 2.29796875 -6.375 2.375 C-8.15003906 2.47941406 -8.15003906 2.47941406 -9.9609375 2.5859375 C-13.10562319 2.70217346 -13.10562319 2.70217346 -15 5 C-15.99 5 -16.98 5 -18 5 C-18 4.34 -18 3.68 -18 3 C-20.97 3 -23.94 3 -27 3 C-27 2.67 -27 2.34 -27 2 C-23.81309767 1.66078548 -20.62539896 1.32970583 -17.4375 1 C-16.54224609 0.90460937 -15.64699219 0.80921875 -14.72460938 0.7109375 C-9.78509212 0.20432035 -4.96511986 -0.10897382 0 0 Z " fill="#6C24C8" transform="translate(485,523)"/>
<path d="M0 0 C-3.36858419 2.24572279 -6.42085189 2.9197599 -10.3125 3.6875 C-10.96412109 3.82994141 -11.61574219 3.97238281 -12.28710938 4.11914062 C-16.48196784 4.96315119 -19.83651553 4.96179719 -24 4 C-24 3.67 -24 3.34 -24 3 C-22.51886719 2.80083984 -22.51886719 2.80083984 -21.0078125 2.59765625 C-19.72648437 2.42105469 -18.44515625 2.24445313 -17.125 2.0625 C-15.21074219 1.80146484 -15.21074219 1.80146484 -13.2578125 1.53515625 C-3.5626072 -0.05746141 -3.5626072 -0.05746141 0 0 Z " fill="#7927DA" transform="translate(458,309)"/>
<path d="M0 0 C0 0.70125 0 1.4025 0 2.125 C1.55233238 6.58795558 5.16489997 8.45782663 9 11 C8.67 11.99 8.34 12.98 8 14 C6.39490066 12.56354149 4.79095576 11.12579294 3.1875 9.6875 C2.29417969 8.88699219 1.40085937 8.08648437 0.48046875 7.26171875 C-1.39926786 5.54775419 -3.22592747 3.82122396 -5 2 C-2 0 -2 0 0 0 Z " fill="#7322D6" transform="translate(528,178)"/>
<path d="M0 0 C0.66 0.33 1.32 0.66 2 1 C0.75627811 1.98712878 -0.49527218 2.96439905 -1.75 3.9375 C-2.44609375 4.48277344 -3.1421875 5.02804687 -3.859375 5.58984375 C-5.96092128 6.97425654 -7.54321799 7.56286987 -10 8 C-9.67 5.69 -9.34 3.38 -9 1 C-8.34 1 -7.68 1 -7 1 C-7 1.99 -7 2.98 -7 4 C-6.01 4 -5.02 4 -4 4 C-3.67 3.01 -3.34 2.02 -3 1 C-2.01 0.67 -1.02 0.34 0 0 Z " fill="#721FD8" transform="translate(497,459)"/>
<path d="M0 0 C1.1446875 0.3403125 1.1446875 0.3403125 2.3125 0.6875 C-0.85224305 3.94266428 -4.01502791 7.00758793 -7.6875 9.6875 C-8.3475 9.6875 -9.0075 9.6875 -9.6875 9.6875 C-9.6875 9.0275 -9.6875 8.3675 -9.6875 7.6875 C-8.6975 7.0275 -7.7075 6.3675 -6.6875 5.6875 C-6.3575 4.6975 -6.0275 3.7075 -5.6875 2.6875 C-3.80173153 0.04742414 -3.30736142 -0.38457691 0 0 Z " fill="#F4E1FD" transform="translate(545.6875,492.3125)"/>
<path d="M0 0 C5.30589313 1.16470825 7.91905568 3.57897699 11.484375 7.44140625 C12.9357317 9.10513896 12.9357317 9.10513896 15 10 C14.67 10.99 14.34 11.98 14 13 C12.41540185 11.58474822 10.83237609 10.1677358 9.25 8.75 C8.36828125 7.96109375 7.4865625 7.1721875 6.578125 6.359375 C4.32133835 4.29407328 2.14260074 2.18264936 0 0 Z " fill="#7B2CD6" transform="translate(538,347)"/>
<path d="M0 0 C1.65 1.65 3.3 3.3 5 5 C-0.28 3.68 -5.56 2.36 -11 1 C-6.39231987 -1.30384007 -4.89036829 -1.28693902 0 0 Z " fill="#EFD4FC" transform="translate(477,362)"/>
<path d="M0 0 C0.33 1.32 0.66 2.64 1 4 C0.01 4.33 -0.98 4.66 -2 5 C-2.695085 7.04439102 -2.695085 7.04439102 -3 9.4375 C-3.375 11.87109375 -3.375 11.87109375 -4 14 C-4.99 14.66 -5.98 15.32 -7 16 C-6.54636829 14.41531323 -6.08688548 12.83230076 -5.625 11.25 C-5.36976563 10.36828125 -5.11453125 9.4865625 -4.8515625 8.578125 C-4.0790066 6.23919428 -3.16374324 4.16557438 -2 2 C-1.34 2 -0.68 2 0 2 C0 1.34 0 0.68 0 0 Z " fill="#7222D1" transform="translate(557,272)"/>
<path d="M0 0 C0.66 0.33 1.32 0.66 2 1 C0.8125 3.9375 0.8125 3.9375 -1 7 C-3.6875 7.875 -3.6875 7.875 -6 8 C-4.55746343 4.63408134 -2.66735273 2.48952921 0 0 Z " fill="#F3DEFE" transform="translate(503,455)"/>
<path d="M0 0 C0.66 0 1.32 0 2 0 C3.7879537 6.8165735 4.23668569 12.96517526 4 20 C3.67 20 3.34 20 3 20 C2.49685437 17.22970414 1.99736162 14.4588348 1.5 11.6875 C1.35691406 10.90181641 1.21382812 10.11613281 1.06640625 9.30664062 C0.93105469 8.54931641 0.79570313 7.79199219 0.65625 7.01171875 C0.53056641 6.31522217 0.40488281 5.61872559 0.27539062 4.90112305 C0 3 0 3 0 0 Z " fill="#7226C8" transform="translate(555,224)"/>
<path d="M0 0 C4.75809749 0.59476219 8.94710294 2.4906128 13 5 C13.33 5.66 13.66 6.32 14 7 C9.27934033 5.45730076 4.58335908 3.92205381 0 2 C0 1.34 0 0.68 0 0 Z " fill="#7222CA" transform="translate(466,213)"/>
<path d="M0 0 C4.52048157 3.13922331 6.51545911 6.21495828 9 11 C4.70073737 9.40768051 2.64994267 6.60686641 0 3 C0 2.01 0 1.02 0 0 Z " fill="#F5DDFE" transform="translate(554,362)"/>
<path d="M0 0 C0.98613281 0.30164063 1.97226562 0.60328125 2.98828125 0.9140625 C3.98214844 1.21054687 4.97601562 1.50703125 6 1.8125 C7.13888672 2.17214844 7.13888672 2.17214844 8.30078125 2.5390625 C8.30078125 2.8690625 8.30078125 3.1990625 8.30078125 3.5390625 C3.10868721 3.75098471 -0.82595775 3.1303314 -5.69921875 1.5390625 C-2.69921875 -0.4609375 -2.69921875 -0.4609375 0 0 Z " fill="#6D1FCC" transform="translate(509.69921875,332.4609375)"/>
<path d="M0 0 C3.2441189 1.04275251 4.60194664 2.61240491 6.3125 5.4375 C8 9 8 9 7 12 C5.83061933 10.18924982 4.66456267 8.37635257 3.5 6.5625 C2.8503125 5.55316406 2.200625 4.54382813 1.53125 3.50390625 C0 1 0 1 0 0 Z " fill="#7227D2" transform="translate(541,197)"/>
<path d="M0 0 C0.66 0.66 1.32 1.32 2 2 C1.9375 4.9375 1.9375 4.9375 1 8 C-1.5625 9.875 -1.5625 9.875 -4 11 C-3.71125 10.29875 -3.4225 9.5975 -3.125 8.875 C-1.97866412 5.94547497 -0.97374346 2.99078347 0 0 Z " fill="#6D13DC" transform="translate(549,288)"/>
<path d="M0 0 C0 2 0 2 -1.42578125 3.54296875 C-2.04839844 4.08566406 -2.67101562 4.62835938 -3.3125 5.1875 C-3.92738281 5.73792969 -4.54226563 6.28835938 -5.17578125 6.85546875 C-5.77777344 7.23316406 -6.37976563 7.61085938 -7 8 C-7.99 7.67 -8.98 7.34 -10 7 C-9.236875 6.401875 -8.47375 5.80375 -7.6875 5.1875 C-5.08664741 3.15995888 -5.08664741 3.15995888 -3.3125 1.25 C-2 0 -2 0 0 0 Z " fill="#6C11E2" transform="translate(534,312)"/>
<path d="M0 0 C0.66 0.99 1.32 1.98 2 3 C0.68 5.31 -0.64 7.62 -2 10 C-2.33 10 -2.66 10 -3 10 C-3.36629408 5.72656908 -2.40814077 3.51187196 0 0 Z " fill="#F3DDFE" transform="translate(565,465)"/>
<path d="M0 0 C1.60379341 -0.05416188 3.20811406 -0.09286638 4.8125 -0.125 C5.70582031 -0.14820313 6.59914063 -0.17140625 7.51953125 -0.1953125 C10 0 10 0 13 2 C7.96488101 3.0070238 4.76052962 2.97387813 0 1 C0 0.67 0 0.34 0 0 Z " fill="#6E0EDB" transform="translate(450,362)"/>
<path d="M0 0 C0.66 0.99 1.32 1.98 2 3 C0.35 5.64 -1.3 8.28 -3 11 C-3.66 10.67 -4.32 10.34 -5 10 C-3.35 6.7 -1.7 3.4 0 0 Z " fill="#F2D7FE" transform="translate(495,278)"/>
<path d="M0 0 C2 1 2 1 2.6328125 2.84765625 C2.79523437 3.57855469 2.95765625 4.30945313 3.125 5.0625 C3.29257812 5.79597656 3.46015625 6.52945312 3.6328125 7.28515625 C3.75398437 7.85105469 3.87515625 8.41695313 4 9 C3.01 8.67 2.02 8.34 1 8 C-0.1875 4.4375 -0.1875 4.4375 -1 1 C-0.67 0.67 -0.34 0.34 0 0 Z " fill="#F0D8FD" transform="translate(570,389)"/>
<path d="M0 0 C1 2 1 2 0.375 4.0625 C-1 6 -1 6 -3.625 6.75 C-4.800625 6.87375 -4.800625 6.87375 -6 7 C-4.02 4.69 -2.04 2.38 0 0 Z " fill="#7731CF" transform="translate(536,306)"/>
<path d="M0 0 C0.66 0 1.32 0 2 0 C2.625 2.875 2.625 2.875 3 6 C2.34 6.66 1.68 7.32 1 8 C0 7 0 7 -0.0625 3.4375 C-0.041875 2.303125 -0.02125 1.16875 0 0 Z " fill="#EFE0F9" transform="translate(568,453)"/>
<path d="M0 0 C3 1 3 1 3.94921875 2.84765625 C4.19285156 3.57855469 4.43648438 4.30945313 4.6875 5.0625 C4.93886719 5.79597656 5.19023438 6.52945312 5.44921875 7.28515625 C5.63097656 7.85105469 5.81273437 8.41695313 6 9 C5.34 9 4.68 9 4 9 C3.71125 8.195625 3.4225 7.39125 3.125 6.5625 C2.26737432 3.8673532 2.26737432 3.8673532 0 3 C0 2.01 0 1.02 0 0 Z " fill="#772BCD" transform="translate(507,389)"/>
</svg>
