<?xml version="1.0" encoding="UTF-8"?>
<svg version="1.1" xmlns="http://www.w3.org/2000/svg" width="187" height="182">
<path d="M0 0 C0.79538177 -0.01620895 1.59076355 -0.03241791 2.4102478 -0.04911804 C9.75946458 -0.18951487 17.10988573 -0.26748685 24.46015263 -0.32803631 C29.39645884 -0.36897632 34.33077661 -0.42925495 39.26611328 -0.53710938 C44.04081275 -0.64109862 48.81374055 -0.69547802 53.58950615 -0.71549416 C55.40488461 -0.73138722 57.22020113 -0.76452843 59.03492928 -0.81564903 C73.21939779 -1.1959698 73.21939779 -1.1959698 78.37075806 2.44500732 C80.64886918 4.94652875 82.48930399 7.41906609 84.29663086 10.2722168 C85.22601329 11.44178521 86.16710275 12.6022443 87.12475586 13.7487793 C88.32358398 15.30725586 88.32358398 15.30725586 89.54663086 16.8972168 C93.56244273 22.07928019 97.64858967 27.19538174 101.79663086 32.2722168 C106.41367435 37.92974962 110.99149006 43.61414997 115.45776367 49.3918457 C117.50436298 52.03352842 119.57226833 54.58279423 121.79272461 57.0847168 C122.53651367 57.9303418 123.28030273 58.7759668 124.04663086 59.6472168 C125.02889648 60.71069336 125.02889648 60.71069336 126.03100586 61.7956543 C128.62965539 66.88066604 125.94625404 74.2792696 124.74609375 79.63452148 C124.59310318 80.32176804 124.44011261 81.00901459 124.28248596 81.71708679 C123.78196149 83.96030973 123.27589627 86.20223583 122.76928711 88.4440918 C122.4166021 90.01487217 122.06410167 91.585694 121.71177673 93.15655518 C120.97545498 96.43511319 120.23625621 99.71300626 119.49511719 102.99047852 C118.54632706 107.18774483 117.60579153 111.38681227 116.66750431 115.58643723 C115.9428311 118.82489549 115.21330476 122.06224584 114.48235893 125.29929352 C114.1334866 126.84746318 113.78623914 128.39599995 113.44066048 129.94490814 C112.95763103 132.10693455 112.46795865 134.26735237 111.9765625 136.42749023 C111.69978165 137.65578552 111.42300079 138.88408081 111.13783264 140.14959717 C109.96349462 144.50884964 109.37544607 146.59851001 105.49707031 149.02050781 C104.31330811 149.59986084 103.1295459 150.17921387 101.90991211 150.77612305 C101.2646759 151.09588608 100.6194397 151.41564911 99.95465088 151.74510193 C97.84505377 152.78678517 95.72744449 153.81089147 93.60913086 154.8347168 C92.1470049 155.55188675 90.68533755 156.26999243 89.22412109 156.98901367 C84.923072 159.10030305 80.61105035 161.18841995 76.29663086 163.2722168 C75.14485352 163.83021973 73.99307617 164.38822266 72.80639648 164.96313477 C68.01294995 167.28184937 63.21152836 169.58147497 58.39428711 171.8503418 C55.02283969 173.43945603 51.68126275 175.07458012 48.35522461 176.7565918 C47.58170654 177.14073242 46.80818848 177.52487305 46.01123047 177.9206543 C44.59474687 178.62522645 43.18461327 179.34280804 41.78320312 180.0769043 C37.10660176 182.37388585 34.32792968 182.34566502 29.29663086 181.2722168 C26.60713545 180.25218386 24.06713923 178.99506832 21.50366211 177.6940918 C20.39936859 177.14928665 20.39936859 177.14928665 19.27276611 176.59347534 C16.88054827 175.41159499 14.49499508 174.21686304 12.10913086 173.0222168 C8.78335413 171.37421801 5.45416232 169.73318024 2.12475586 168.0925293 C0.87862267 167.47690628 0.87862267 167.47690628 -0.39268494 166.84884644 C-9.21429888 162.50233679 -18.13708177 158.3872383 -27.09667969 154.33374023 C-28.67896362 153.61105957 -28.67896362 153.61105957 -30.29321289 152.8737793 C-31.65240845 152.26010498 -31.65240845 152.26010498 -33.0390625 151.6340332 C-41.21312281 147.45599706 -41.21312281 147.45599706 -43.11497498 142.86366272 C-43.45215931 141.49403244 -43.76318899 140.1177915 -44.05273438 138.73730469 C-44.2307811 137.98397354 -44.40882782 137.2306424 -44.5922699 136.45448303 C-45.17240443 133.97271928 -45.71761155 131.4847088 -46.26196289 128.99487305 C-46.65753456 127.26337368 -47.05494676 125.53229385 -47.45411682 123.80162048 C-48.28473848 120.17756242 -49.09924945 116.5503932 -49.90136719 112.91992188 C-50.92923541 108.26952808 -51.98699445 103.6266083 -53.05564785 98.98543644 C-53.87657907 95.4125699 -54.68649238 91.83728269 -55.49260139 88.26104546 C-55.87910721 86.54814318 -56.26787889 84.83575053 -56.65896416 83.12388802 C-57.20302928 80.73028873 -57.73337951 78.33406405 -58.25976562 75.93652344 C-58.50348907 74.87887787 -58.50348907 74.87887787 -58.75213623 73.79986572 C-59.57274893 69.98492104 -59.91720886 67.0133368 -58.70336914 63.2722168 C-56.80493164 60.65112305 -56.80493164 60.65112305 -54.32836914 57.8347168 C-53.41117453 56.77249213 -52.49588012 55.70862439 -51.58227539 54.64331055 C-51.10677246 54.09143066 -50.63126953 53.53955078 -50.14135742 52.97094727 C-47.77291232 50.17304557 -45.51930991 47.28797394 -43.26586914 44.3972168 C-42.80760742 43.81125732 -42.3493457 43.22529785 -41.87719727 42.62158203 C-40.48450095 40.8395638 -39.09377497 39.05602251 -37.70336914 37.2722168 C-35.91391602 34.97881113 -34.12232095 32.68710528 -32.32836914 30.3972168 C-31.88493164 29.83083496 -31.44149414 29.26445312 -30.98461914 28.6809082 C-26.77046349 23.31866528 -22.46047437 18.03528393 -18.11791992 12.77661133 C-15.74542465 9.88363096 -13.47850121 7.01205298 -11.44946289 3.8659668 C-8.42781179 -0.62257086 -4.99758135 0.08021736 0 0 Z " fill="#C8C7C5" transform="translate(59.703369140625,-0.272216796875)"/>
<path d="M0 0 C1.37498497 0.18761016 2.74998324 0.37512297 4.125 0.5625 C5.07375 0.706875 6.0225 0.85125 7 1 C7.495 3.97 7.495 3.97 8 7 C9.19625 6.7525 10.3925 6.505 11.625 6.25 C15.08175127 5.82324058 15.91799159 5.95819179 19.1875 7.625 C21.95111891 9.95872263 24.51671303 12.37063733 27 15 C30.53233755 13.82255415 30.86308075 13.04394359 32.6875 9.9375 C33.12449219 9.20402344 33.56148438 8.47054688 34.01171875 7.71484375 C34.33785156 7.14894531 34.66398437 6.58304688 35 6 C37.477175 6.38438922 38.7495611 6.75456988 40.5625 8.53125 C42.10970576 10.6502492 43.58147028 12.79255535 45 15 C45.42023438 15.62648438 45.84046875 16.25296875 46.2734375 16.8984375 C52.32208989 27.7516932 49.06614529 44.15817191 48 56 C46.35 56.33 44.7 56.66 43 57 C43.495 58.0209375 43.495 58.0209375 44 59.0625 C45.21665201 62.63641527 45.28340382 65.23192673 45 69 C43.50390625 71.90234375 43.50390625 71.90234375 41.5625 74.9375 C37.26892164 82.40807354 37.22526807 89.83544278 37.26391602 98.29663086 C37.26829478 105.90379586 36.85733874 113.57119351 31.8125 119.625 C29.0552894 123.23789665 29.42296695 125.52799386 30 130 C32.54746764 132.92487026 35.23437092 133.47699596 39 134 C39 135.32 39 136.64 39 138 C36.01129084 138.2612508 34.40446441 138.24239179 31.796875 136.6796875 C26.2225126 131.76488706 26.2225126 131.76488706 25 127.5625 C25 126.716875 25 125.87125 25 125 C24.236875 125.309375 23.47375 125.61875 22.6875 125.9375 C19.17201656 127.32734229 16.73771294 128.06671945 13 127.8125 C9.04273265 127.74183451 6.16727621 128.53205938 2.5 130 C-5.80830097 133.24254524 -12.00045618 132.30249352 -20.421875 129.75390625 C-24.2324246 128.63960917 -27.39324589 127.96629144 -31.375 128.1875 C-36.01711193 127.94739076 -38.14752036 126.51590507 -42 124 C-41.855625 124.680625 -41.71125 125.36125 -41.5625 126.0625 C-42.16639548 130.11722677 -44.11444657 131.80119118 -47.04296875 134.55078125 C-49.62114462 136.45996937 -51.81886272 136.92241129 -55 137 C-55 136.01 -55 135.02 -55 134 C-54.071875 133.566875 -53.14375 133.13375 -52.1875 132.6875 C-48.55152737 130.90622588 -48.55152737 130.90622588 -46 128 C-46.10914629 122.97927057 -47.93758245 120.78298638 -51 117 C-54.32565049 110.05951202 -54.28124322 103.97696985 -54.25 96.375 C-54.37807085 86.76968599 -55.24343119 79.90797183 -60.50390625 71.83203125 C-62.91877823 67.26079838 -62.41118463 63.41344717 -61 58.5625 C-60.67 57.716875 -60.34 56.87125 -60 56 C-61.65 56 -63.3 56 -65 56 C-65.34076026 51.4240765 -65.63022796 46.84887893 -65.87109375 42.26660156 C-65.95396822 40.80939215 -66.04929834 39.35280899 -66.16015625 37.89746094 C-67.070876 25.76036894 -64.70864999 17.05714999 -57.015625 7.546875 C-55 6 -55 6 -52.921875 5.99609375 C-50.44514077 7.28983501 -49.62865931 8.6498462 -48.25 11.0625 C-47.82203125 11.79597656 -47.3940625 12.52945312 -46.953125 13.28515625 C-46.63859375 13.85105469 -46.3240625 14.41695312 -46 15 C-43.01049141 13.64947638 -40.91685017 12.06924555 -38.5 9.875 C-33.38693905 5.88526304 -28.21003106 6.4410972 -22 7 C-22 5.02 -22 3.04 -22 1 C-14.35227109 -0.58999175 -7.72030537 -1.22249242 0 0 Z " fill="#FCE180" transform="translate(102,14)"/>
<path d="M0 0 C4.53969626 -0.25220535 7.97572795 -0.12922605 12.25 1.4375 C20.43757985 4.17530273 29.44645757 3.77464466 38 4 C40.26240986 25.30856782 40.26240986 25.30856782 37.4609375 31.28125 C35.42110599 33.38983987 33.2970832 35.17990675 31 37 C25.87658622 43.28951765 25.366329 49.71172173 25.140625 57.546875 C25.02024964 60.50275876 24.67902898 63.13055496 24 66 C28.84254713 67.13490406 28.84254713 67.13490406 33.44921875 65.76953125 C36.01729419 63.98800265 38.31089745 62.09939201 40.625 60 C41.38039062 59.319375 42.13578125 58.63875 42.9140625 57.9375 C43.60242188 57.298125 44.29078125 56.65875 45 56 C45.56074219 55.50886719 46.12148437 55.01773438 46.69921875 54.51171875 C48.29355592 52.65884042 48.68087481 51.18974127 49.1875 48.8125 C49.455625 47.554375 49.72375 46.29625 50 45 C49.278125 44.773125 48.55625 44.54625 47.8125 44.3125 C44.2955751 42.67126838 42.34536683 41.10416199 40 38 C40.07392771 33.71219277 40.6166769 31.57498466 43 28 C49.09749563 26.49332197 55.24997729 26.43084092 61 29 C63.24711564 31.83331972 63.39245729 34.46250823 63 38 C61.0686929 39.91837424 58.98842833 41.32047561 56.75 42.86328125 C54.59870953 45.48996849 54.28968164 47.57671463 54.46630859 50.94702148 C55.47569178 54.82986833 58.30346401 56.91277077 61.3125 59.375 C61.90740234 59.89449219 62.50230469 60.41398437 63.11523438 60.94921875 C67.71556692 64.9276069 70.62691293 67.40679279 77 67 C77.66 66.67 78.32 66.34 79 66 C78.83757812 65.32066406 78.67515625 64.64132813 78.5078125 63.94140625 C77.92610471 60.57197575 77.92532009 57.35567211 77.875 53.9375 C77.52748096 46.01854362 74.83038465 40.22603049 70 34 C69.47825195 33.59201172 68.95650391 33.18402344 68.41894531 32.76367188 C65.53960808 30.46357961 64.14401509 29.01501982 63.61352539 25.27612305 C63.63363445 22.03143777 63.83571261 18.85664466 64.125 15.625 C64.19976562 14.50738281 64.27453125 13.38976562 64.3515625 12.23828125 C64.53955693 9.4888627 64.75646952 6.74496363 65 4 C77.65700825 2.56309327 90.32260242 1.24392001 103 0 C105.00831104 4.14214151 105.43778281 7.41586048 105 12 C103.50390625 14.90234375 103.50390625 14.90234375 101.5625 17.9375 C97.26892164 25.40807354 97.22526807 32.83544278 97.26391602 41.29663086 C97.26829478 48.90379586 96.85733874 56.57119351 91.8125 62.625 C89.0552894 66.23789665 89.42296695 68.52799386 90 73 C92.54746764 75.92487026 95.23437092 76.47699596 99 77 C99 78.32 99 79.64 99 81 C96.01129084 81.2612508 94.40446441 81.24239179 91.796875 79.6796875 C86.2225126 74.76488706 86.2225126 74.76488706 85 70.5625 C85 69.716875 85 68.87125 85 68 C84.236875 68.309375 83.47375 68.61875 82.6875 68.9375 C79.17201656 70.32734229 76.73771294 71.06671945 73 70.8125 C69.04273265 70.74183451 66.16727621 71.53205938 62.5 73 C54.19169903 76.24254524 47.99954382 75.30249352 39.578125 72.75390625 C35.7675754 71.63960917 32.60675411 70.96629144 28.625 71.1875 C23.98288807 70.94739076 21.85247964 69.51590507 18 67 C18.144375 67.680625 18.28875 68.36125 18.4375 69.0625 C17.83360452 73.11722677 15.88555343 74.80119118 12.95703125 77.55078125 C10.37885538 79.45996937 8.18113728 79.92241129 5 80 C5 79.01 5 78.02 5 77 C5.928125 76.566875 6.85625 76.13375 7.8125 75.6875 C11.44847263 73.90622588 11.44847263 73.90622588 14 71 C13.89085371 65.97927057 12.06241755 63.78298638 9 60 C5.67434951 53.05951202 5.71875678 46.97696985 5.75 39.375 C5.62192915 29.76968599 4.75656881 22.90797183 -0.50390625 14.83203125 C-2.35992915 11.31867197 -2.32768252 8.92295979 -2 5 C-1 2.0625 -1 2.0625 0 0 Z " fill="#161616" transform="translate(42,71)"/>
<path d="M0 0 C1.37498497 0.18761016 2.74998324 0.37512297 4.125 0.5625 C5.07375 0.706875 6.0225 0.85125 7 1 C7.495 3.97 7.495 3.97 8 7 C9.19625 6.7525 10.3925 6.505 11.625 6.25 C15.08175127 5.82324058 15.91799159 5.95819179 19.1875 7.625 C21.95111891 9.95872263 24.51671303 12.37063733 27 15 C30.53233755 13.82255415 30.86308075 13.04394359 32.6875 9.9375 C33.12449219 9.20402344 33.56148438 8.47054688 34.01171875 7.71484375 C34.33785156 7.14894531 34.66398437 6.58304688 35 6 C37.477175 6.38438922 38.7495611 6.75456988 40.5625 8.53125 C42.10970576 10.6502492 43.58147028 12.79255535 45 15 C45.42023438 15.62648438 45.84046875 16.25296875 46.2734375 16.8984375 C50.52472191 24.52662868 49.32784869 33.55789633 49 42 C42.26272522 43.95458451 33.37002314 42.12270982 27.08203125 39.06835938 C23.51892195 36.98537032 20.22359413 34.57032789 17 32 C18.59607544 26.73444272 20.70272155 23.33852428 24 19 C22.5741914 15.54804233 20.90253666 13.8985744 17.875 11.75 C17.15054688 11.22921875 16.42609375 10.7084375 15.6796875 10.171875 C15.12539062 9.78515625 14.57109375 9.3984375 14 9 C14.08121094 9.9178125 14.16242188 10.835625 14.24609375 11.78125 C14.82691306 23.06573936 14.82691306 23.06573936 11 27.8125 C8.34731221 30.36336745 6.60397298 31.36469414 2.9375 31.5625 C-1.41907916 32.04656435 -1.83176336 32.39828526 -4.5 35.5625 C-5.35481326 36.69239945 -6.19590941 37.83345948 -7 39 C-10.8515625 37.2578125 -10.8515625 37.2578125 -12.1875 34.9375 C-13.77636079 32.79729068 -13.77636079 32.79729068 -15.90625 32.87109375 C-16.6590625 32.87238281 -17.411875 32.87367187 -18.1875 32.875 C-22.70559625 32.54963791 -24.54473397 31.01157513 -27.5 27.625 C-31.39999001 22.27025182 -32.198513 17.52611489 -32 11 C-35.40212299 12.61382757 -38.10324519 14.58603766 -41 17 C-40.06536278 18.94716088 -39.10926683 20.82985017 -37.94140625 22.6484375 C-34.96613677 27.36357045 -34.96613677 27.36357045 -35.1328125 30.49609375 C-36.87489483 35.5261603 -41.40551969 37.75811503 -46 40 C-52.08006858 41.84429741 -58.65032024 43 -65 43 C-67.64985448 35.05043655 -67.2276841 25.6466434 -63.68945312 18.06958008 C-59.07093853 9.12420864 -59.07093853 9.12420864 -55 6 C-52.921875 5.99609375 -52.921875 5.99609375 -51 7 C-49.515625 8.84765625 -49.515625 8.84765625 -48.25 11.0625 C-47.82203125 11.79597656 -47.3940625 12.52945312 -46.953125 13.28515625 C-46.63859375 13.85105469 -46.3240625 14.41695312 -46 15 C-43.01049141 13.64947638 -40.91685017 12.06924555 -38.5 9.875 C-33.38693905 5.88526304 -28.21003106 6.4410972 -22 7 C-22 5.02 -22 3.04 -22 1 C-14.35227109 -0.58999175 -7.72030537 -1.22249242 0 0 Z " fill="#FAC921" transform="translate(102,14)"/>
<path d="M0 0 C0.79538177 -0.01620895 1.59076355 -0.03241791 2.4102478 -0.04911804 C9.75946458 -0.18951487 17.10988573 -0.26748685 24.46015263 -0.32803631 C29.39645884 -0.36897632 34.33077661 -0.42925495 39.26611328 -0.53710938 C44.04081275 -0.64109862 48.81374055 -0.69547802 53.58950615 -0.71549416 C55.40488461 -0.73138722 57.22020113 -0.76452843 59.03492928 -0.81564903 C73.21939779 -1.1959698 73.21939779 -1.1959698 78.37075806 2.44500732 C80.64886918 4.94652875 82.48930399 7.41906609 84.29663086 10.2722168 C85.22601329 11.44178521 86.16710275 12.6022443 87.12475586 13.7487793 C88.32358398 15.30725586 88.32358398 15.30725586 89.54663086 16.8972168 C93.56244273 22.07928019 97.64858967 27.19538174 101.79663086 32.2722168 C106.41367435 37.92974962 110.99149006 43.61414997 115.45776367 49.3918457 C117.50436298 52.03352842 119.57226833 54.58279423 121.79272461 57.0847168 C122.53651367 57.9303418 123.28030273 58.7759668 124.04663086 59.6472168 C125.02889648 60.71069336 125.02889648 60.71069336 126.03100586 61.7956543 C128.62965539 66.88066604 125.94625404 74.2792696 124.74609375 79.63452148 C124.59310318 80.32176804 124.44011261 81.00901459 124.28248596 81.71708679 C123.78196149 83.96030973 123.27589627 86.20223583 122.76928711 88.4440918 C122.4166021 90.01487217 122.06410167 91.585694 121.71177673 93.15655518 C120.97545498 96.43511319 120.23625621 99.71300626 119.49511719 102.99047852 C118.54632706 107.18774483 117.60579153 111.38681227 116.66750431 115.58643723 C115.9428311 118.82489549 115.21330476 122.06224584 114.48235893 125.29929352 C114.1334866 126.84746318 113.78623914 128.39599995 113.44066048 129.94490814 C112.95763103 132.10693455 112.46795865 134.26735237 111.9765625 136.42749023 C111.69978165 137.65578552 111.42300079 138.88408081 111.13783264 140.14959717 C109.96349462 144.50884964 109.37544607 146.59851001 105.49707031 149.02050781 C104.31330811 149.59986084 103.1295459 150.17921387 101.90991211 150.77612305 C101.2646759 151.09588608 100.6194397 151.41564911 99.95465088 151.74510193 C97.84505377 152.78678517 95.72744449 153.81089147 93.60913086 154.8347168 C92.1470049 155.55188675 90.68533755 156.26999243 89.22412109 156.98901367 C84.923072 159.10030305 80.61105035 161.18841995 76.29663086 163.2722168 C75.14485352 163.83021973 73.99307617 164.38822266 72.80639648 164.96313477 C68.01294995 167.28184937 63.21152836 169.58147497 58.39428711 171.8503418 C55.02283969 173.43945603 51.68126275 175.07458012 48.35522461 176.7565918 C47.58170654 177.14073242 46.80818848 177.52487305 46.01123047 177.9206543 C44.59474687 178.62522645 43.18461327 179.34280804 41.78320312 180.0769043 C37.10660176 182.37388585 34.32792968 182.34566502 29.29663086 181.2722168 C26.60713545 180.25218386 24.06713923 178.99506832 21.50366211 177.6940918 C20.39936859 177.14928665 20.39936859 177.14928665 19.27276611 176.59347534 C16.88054827 175.41159499 14.49499508 174.21686304 12.10913086 173.0222168 C8.78335413 171.37421801 5.45416232 169.73318024 2.12475586 168.0925293 C0.87862267 167.47690628 0.87862267 167.47690628 -0.39268494 166.84884644 C-9.21429888 162.50233679 -18.13708177 158.3872383 -27.09667969 154.33374023 C-28.67896362 153.61105957 -28.67896362 153.61105957 -30.29321289 152.8737793 C-31.65240845 152.26010498 -31.65240845 152.26010498 -33.0390625 151.6340332 C-41.21312281 147.45599706 -41.21312281 147.45599706 -43.11497498 142.86366272 C-43.45215931 141.49403244 -43.76318899 140.1177915 -44.05273438 138.73730469 C-44.2307811 137.98397354 -44.40882782 137.2306424 -44.5922699 136.45448303 C-45.17240443 133.97271928 -45.71761155 131.4847088 -46.26196289 128.99487305 C-46.65753456 127.26337368 -47.05494676 125.53229385 -47.45411682 123.80162048 C-48.28473848 120.17756242 -49.09924945 116.5503932 -49.90136719 112.91992188 C-50.92923541 108.26952808 -51.98699445 103.6266083 -53.05564785 98.98543644 C-53.87657907 95.4125699 -54.68649238 91.83728269 -55.49260139 88.26104546 C-55.87910721 86.54814318 -56.26787889 84.83575053 -56.65896416 83.12388802 C-57.20302928 80.73028873 -57.73337951 78.33406405 -58.25976562 75.93652344 C-58.50348907 74.87887787 -58.50348907 74.87887787 -58.75213623 73.79986572 C-59.57274893 69.98492104 -59.91720886 67.0133368 -58.70336914 63.2722168 C-56.80493164 60.65112305 -56.80493164 60.65112305 -54.32836914 57.8347168 C-53.41117453 56.77249213 -52.49588012 55.70862439 -51.58227539 54.64331055 C-51.10677246 54.09143066 -50.63126953 53.53955078 -50.14135742 52.97094727 C-47.77291232 50.17304557 -45.51930991 47.28797394 -43.26586914 44.3972168 C-42.80760742 43.81125732 -42.3493457 43.22529785 -41.87719727 42.62158203 C-40.48450095 40.8395638 -39.09377497 39.05602251 -37.70336914 37.2722168 C-35.91391602 34.97881113 -34.12232095 32.68710528 -32.32836914 30.3972168 C-31.88493164 29.83083496 -31.44149414 29.26445312 -30.98461914 28.6809082 C-26.77046349 23.31866528 -22.46047437 18.03528393 -18.11791992 12.77661133 C-15.74542465 9.88363096 -13.47850121 7.01205298 -11.44946289 3.8659668 C-8.42781179 -0.62257086 -4.99758135 0.08021736 0 0 Z M-17.70336914 19.2722168 C-18.78099955 20.67837328 -19.87664009 22.07173523 -21.01586914 23.4284668 C-21.46510742 23.98791992 -21.9143457 24.54737305 -22.37719727 25.1237793 C-22.81483398 25.66776367 -23.2524707 26.21174805 -23.70336914 26.7722168 C-28.01625108 32.14785582 -32.29089183 37.55163483 -36.5390625 42.97851562 C-40.5914906 48.14809561 -44.69700806 53.27445815 -48.82055664 58.38745117 C-53.24450517 63.22260282 -53.24450517 63.22260282 -54.49633789 69.2253418 C-53.54657035 74.53294782 -52.25596216 79.77675682 -51.01586914 85.0222168 C-48.80624708 94.46724158 -46.66278729 103.92380355 -44.57836914 113.3972168 C-43.62574282 117.69017331 -42.6672073 121.98176412 -41.70336914 126.2722168 C-41.405354 127.6020459 -41.405354 127.6020459 -41.10131836 128.95874023 C-40.58571561 131.23316634 -40.05478902 133.50322047 -39.51586914 135.7722168 C-39.23356445 136.9787793 -38.95125977 138.1853418 -38.66040039 139.4284668 C-37.19899343 143.77093318 -35.24728626 144.97831285 -31.22705078 147.15063477 C-29.77570072 147.86170769 -28.3209355 148.56583613 -26.86352539 149.2644043 C-25.6840181 149.83866653 -25.6840181 149.83866653 -24.48068237 150.42453003 C-21.91236726 151.67235345 -19.3395408 152.91048303 -16.76586914 154.1472168 C-14.9976752 155.00031125 -13.22952767 155.8535019 -11.46142578 156.70678711 C-7.90408134 158.4212699 -4.34418623 160.13031122 -0.7824707 161.83569336 C3.11156429 163.70084793 6.99740329 165.58210427 10.87944031 167.47207642 C14.03277621 169.00258875 17.1963193 170.51138368 20.35913086 172.0222168 C21.4914917 172.57635254 22.62385254 173.13048828 23.79052734 173.70141602 C24.83539307 174.19399902 25.88025879 174.68658203 26.95678711 175.1940918 C27.85018799 175.62302734 28.74358887 176.05196289 29.6640625 176.49389648 C35.84278714 178.32063989 41.04455425 175.19227549 46.46459961 172.4753418 C47.24956314 172.09007828 48.03452667 171.70481476 48.84327698 171.30787659 C51.39419418 170.0538509 53.93943376 168.78881149 56.48413086 167.5222168 C60.00242476 165.77882401 63.52233913 164.03872539 67.04272461 162.29956055 C67.91631622 161.86701462 68.78990784 161.43446869 69.68997192 160.98881531 C75.00962729 158.36493838 80.36178465 155.8382522 85.76928711 153.40112305 C87.0251009 152.82766443 88.28072347 152.25378684 89.53613281 151.67944336 C91.8179494 150.64287434 94.10916512 149.62666806 96.41064453 148.63452148 C97.92428589 147.93891113 97.92428589 147.93891113 99.46850586 147.22924805 C100.33572266 146.84744385 101.20293945 146.46563965 102.09643555 146.07226562 C107.1008577 141.97799082 107.88875711 134.35524862 109.12866211 128.27612305 C109.36451523 127.16185188 109.36451523 127.16185188 109.60513306 126.02507019 C109.93935893 124.44429965 110.27094949 122.8629699 110.60006714 121.28112793 C111.46258992 117.1360961 112.34371232 112.99504334 113.22631836 108.85424805 C113.40116257 108.03270233 113.57600677 107.21115662 113.75614929 106.36471558 C115.49934669 98.22728956 117.43580258 90.14215167 119.48144531 82.07519531 C120.12736969 79.4811575 120.73022146 76.88468314 121.29663086 74.2722168 C121.47693848 73.46550537 121.65724609 72.65879395 121.84301758 71.82763672 C122.59317951 67.55189208 122.66308253 65.88818332 120.37475586 62.04174805 C119.45542469 61.03423203 118.51098372 60.04922801 117.54663086 59.0847168 C116.51542012 57.96467703 115.48685026 56.8422011 114.46069336 55.7175293 C113.93121094 55.149375 113.40172852 54.5812207 112.85620117 53.99584961 C110.38956992 51.26973554 108.16149096 48.37260782 105.92163086 45.4597168 C101.94422239 40.34334921 97.89534382 35.29188707 93.79663086 30.2722168 C89.52434891 25.0347745 85.2877015 19.77231129 81.10913086 14.4597168 C80.65151367 13.87899414 80.19389648 13.29827148 79.72241211 12.69995117 C77.81871714 10.2709989 76.00965299 7.84174999 74.29663086 5.2722168 C71.72705466 4.91156243 69.38849555 4.74892704 66.80859375 4.70947266 C66.0359317 4.68654648 65.26326965 4.6636203 64.4671936 4.63999939 C61.90126824 4.57048562 59.33585332 4.52583391 56.76928711 4.48706055 C55.89121336 4.47233767 55.01313961 4.45761478 54.10845757 4.44244576 C49.45338661 4.36806126 44.79856686 4.31505293 40.14306641 4.27685547 C35.35275136 4.23266176 30.56798426 4.10892891 25.77971745 3.96694088 C22.08279239 3.87300702 18.38715538 3.841968 14.68914604 3.82711983 C12.92548489 3.80891466 11.1618913 3.76707616 9.39940071 3.70030022 C-5.08003082 3.18416975 -10.2865079 7.03938643 -17.70336914 19.2722168 Z " fill="#FDFDFD" transform="translate(59.703369140625,-0.272216796875)"/>
<path d="M0 0 C4.14581887 -0.02886751 8.29161216 -0.04675327 12.4375 -0.0625 C13.62150391 -0.07087891 14.80550781 -0.07925781 16.02539062 -0.08789062 C17.15009766 -0.09111328 18.27480469 -0.09433594 19.43359375 -0.09765625 C20.47572021 -0.10289307 21.51784668 -0.10812988 22.59155273 -0.11352539 C25 0 25 0 26 1 C25.98964687 2.60530019 25.9162588 4.21027488 25.81640625 5.8125 C24.91859968 16.81223758 24.91859968 16.81223758 27.6015625 27.2109375 C29.6289929 29.31430163 31.74533332 31.14616295 34 33 C39.11299177 39.3043685 39.63339583 45.70216964 39.859375 53.546875 C39.97975036 56.50275876 40.32097102 59.13055496 41 62 C37.48820788 64.34119475 36.13436193 64.5070932 32 64 C29.47265625 62.2421875 29.47265625 62.2421875 27.0625 59.875 C24.09874065 57.00091567 21.2031441 54.37453858 17.875 51.9375 C15.4164443 49.81340176 14.43069296 48.32007164 14.0625 45.0625 C14.27961194 42.1966224 14.73687218 41.24974843 16.84375 39.25 C18.32374171 38.1243725 19.80421126 36.999373 21.28515625 35.875 C23.22317202 34.11796167 23.22317202 34.11796167 23.30859375 31.5625 C23.0292101 29.29913881 22.63524165 27.18860599 22 25 C19.93831015 24.80379233 17.87559002 24.61839247 15.8125 24.4375 C14.66394531 24.33308594 13.51539062 24.22867188 12.33203125 24.12109375 C9.28968064 24.01052767 6.90946609 24.14086418 4 25 C2.43543214 27.08609048 2.03560685 28.84965998 1.4375 31.375 C2.34070633 35.58996288 5.60090189 37.56987556 9 40 C9.66 40.33 10.32 40.66 11 41 C11.33007166 45.73102709 10.99469612 48.27931694 8 52 C5.80618924 53.83648553 3.56171742 55.56307336 1.25390625 57.25390625 C-1.06515599 58.95647713 -1.06515599 58.95647713 -3.03125 61.16015625 C-6.21899689 64.13918161 -8.70754577 63.86373161 -13 64 C-13.99 63.34 -14.98 62.68 -16 62 C-15.83886719 61.32324219 -15.67773438 60.64648438 -15.51171875 59.94921875 C-14.92064647 56.54265713 -14.88770675 53.26842943 -14.8125 49.8125 C-14.42826278 41.87964272 -12.08328302 35.86002275 -6.24072266 30.33691406 C-2.40618748 26.53636438 -0.54460538 23.97451786 -0.3515625 18.4765625 C-0.40672975 16.52469271 -0.49853783 14.57354982 -0.625 12.625 C-0.70384408 10.65898463 -0.77952794 8.69283915 -0.8515625 6.7265625 C-0.90135254 5.86627441 -0.95114258 5.00598633 -1.00244141 4.11962891 C-1 2 -1 2 0 0 Z " fill="#FCFCFC" transform="translate(81,75)"/>
<path d="M0 0 C2.96175123 0.61277612 4.38058783 1.25372522 7 3 C9.51112634 3.12918176 9.51112634 3.12918176 12.25 2.9375 C17.43737903 2.82800387 20.40414857 3.70207429 25 6 C33.10579179 8.34641341 39.63797034 6.95161191 47.29296875 3.87890625 C50.67735461 2.78007967 53.48415908 2.86145902 56.99609375 3.0625 C60.07382966 2.96650824 62.34539387 1.45371288 65 0 C65.99 0.33 66.98 0.66 68 1 C68.061875 1.886875 68.12375 2.77375 68.1875 3.6875 C69.18372507 7.74903297 70.97798676 9.21044932 74 12 C74 12.66 74 13.32 74 14 C70.21406277 15.76044345 66.42783452 17.52025915 62.64135742 19.27954102 C61.35840337 19.87573071 60.07552337 20.47207978 58.79272461 21.06860352 C58.17469971 21.35598389 57.5566748 21.64336426 56.91992188 21.93945312 C56.30432404 22.2257962 55.6887262 22.51213928 55.05447388 22.80715942 C53.81827367 23.38073696 52.58119075 23.95241589 51.3432312 24.52218628 C48.47889215 25.84093721 45.63142805 27.18178079 42.80322266 28.57666016 C41.36342041 29.2754126 41.36342041 29.2754126 39.89453125 29.98828125 C38.64893433 30.60956909 38.64893433 30.60956909 37.37817383 31.2434082 C31.81347979 33.01375897 26.66692241 29.62046201 21.70703125 27.25390625 C20.91979172 26.88273178 20.13255219 26.51155731 19.32145691 26.12913513 C17.66363236 25.34586195 16.00710502 24.55983797 14.35180664 23.77124023 C11.81418537 22.56330225 9.27173411 21.36602279 6.72851562 20.16992188 C5.11688943 19.40687924 3.5055511 18.64322824 1.89453125 17.87890625 C1.13308304 17.52051163 0.37163483 17.162117 -0.41288757 16.79286194 C-5.7694022 14.2305978 -5.7694022 14.2305978 -8 12 C-7.50628906 11.55269531 -7.01257812 11.10539063 -6.50390625 10.64453125 C-1.58736273 6.22045221 -1.58736273 6.22045221 0 0 Z " fill="#FBFBFB" transform="translate(60,138)"/>
<path d="M0 0 C2.83246807 2.83246807 2.96044725 5.16400162 3.30859375 9.08203125 C2.92618363 12.69798515 1.63592403 14.48567012 -0.375 17.5 C-5.0213589 25.17061618 -4.75195872 32.7315869 -4.64794922 41.53515625 C-4.62124123 49.28279476 -5.33131954 56.63036614 -10.50268555 62.78979492 C-11.2438562 63.38884644 -11.2438562 63.38884644 -12 64 C-14.13745922 63.74853421 -15.45925779 63.54074221 -17 62 C-17.0810206 59.89646505 -17.13919907 57.79204048 -17.1875 55.6875 C-17.73104795 47.45902025 -20.12285965 40.265016 -25.75708008 34.06713867 C-31.33269797 27.79059404 -31.9103987 23.17425204 -31.4375 14.9375 C-31.40591797 13.88111328 -31.37433594 12.82472656 -31.34179688 11.73632812 C-31.26002159 9.15456545 -31.14552442 6.57882072 -31 4 C-26.62359016 3.37957195 -22.24549487 2.773628 -17.86523438 2.18115234 C-16.37477414 1.97746478 -14.88485228 1.76979722 -13.39550781 1.55810547 C-11.25714391 1.25486212 -9.1172653 0.96588848 -6.9765625 0.6796875 C-5.68830566 0.50163574 -4.40004883 0.32358398 -3.07275391 0.14013672 C-2.05874512 0.0938916 -1.04473633 0.04764648 0 0 Z " fill="#7D7D7B" transform="translate(141,71)"/>
<path d="M0 0 C1.37577361 0.11617644 2.75061045 0.24345777 4.125 0.375 C4.89070313 0.44460937 5.65640625 0.51421875 6.4453125 0.5859375 C9 1 9 1 11.75 2 C15.82307933 3.25325518 19.63820667 3.45265586 23.875 3.625 C25.050625 3.68300781 25.050625 3.68300781 26.25 3.7421875 C28.16631367 3.83566622 30.08312319 3.91888495 32 4 C32.08736736 7.72901814 32.14051482 11.45777165 32.1875 15.1875 C32.21263672 16.24259766 32.23777344 17.29769531 32.26367188 18.38476562 C32.27333984 19.40634766 32.28300781 20.42792969 32.29296875 21.48046875 C32.3086792 22.41785889 32.32438965 23.35524902 32.34057617 24.32104492 C31.8144075 28.4598613 29.92655963 31.07890143 27.01171875 33.9765625 C20.0881802 40.94043235 18.32874437 49.67979977 18.203125 59.1640625 C18 62 18 62 16 64 C14.125 64 14.125 64 12 63 C6.61767177 56.19293783 5.84491961 50.3029259 5.82373047 41.88647461 C5.78878868 31.15554623 5.49518424 23.61777636 -0.5390625 14.56640625 C-2.52972398 11.06944209 -2.37677013 8.65793007 -1.5625 4.8046875 C-1.06135735 3.19685484 -0.53256641 1.59769923 0 0 Z " fill="#7D7D7B" transform="translate(45,71)"/>
<path d="M0 0 C0.99 1.32 1.98 2.64 3 4 C-6.77194359 10.84317663 -14.63028685 15.65103753 -27 15 C-27 17.97 -27 20.94 -27 24 C-26.38745361 23.84853516 -25.77490723 23.69707031 -25.14379883 23.54101562 C5.08345089 16.39963904 38.26270724 16.03422647 68.63867188 22.54248047 C72.40532585 23.27228915 76.18247939 23.63293071 80 24 C80 21.03 80 18.06 80 15 C79.071875 15.061875 78.14375 15.12375 77.1875 15.1875 C66.39293021 15.07912079 58.49715407 10.24310971 50 4 C50.33 3.34 50.66 2.68 51 2 C54.28856679 2.5998924 56.00820869 3.70614287 58.5625 5.8125 C65.64949517 10.78057938 74.6458907 11.55524051 83 13 C83 17.29 83 21.58 83 26 C59.93732446 31.3867321 37.55747797 32.22365698 14 31 C13.67 31.66 13.34 32.32 13 33 C13 32.34 13 31.68 13 31 C12.44650879 31.01571045 11.89301758 31.0314209 11.32275391 31.04760742 C-7.45932567 31.51080751 -7.45932567 31.51080751 -14.61328125 28.80078125 C-19.5642511 27.13965389 -24.84681336 26.71267475 -30 26 C-30 21.71 -30 17.42 -30 13 C-28.74445312 12.79246094 -27.48890625 12.58492187 -26.1953125 12.37109375 C-16.59662767 10.65218373 -8.23410016 9.09431078 -1 2 C-0.67 1.34 -0.34 0.68 0 0 Z " fill="#F6C61D" transform="translate(67,44)"/>
<path d="M0 0 C2.477175 0.38438922 3.7495611 0.75456988 5.5625 2.53125 C7.10970576 4.6502492 8.58147028 6.79255535 10 9 C10.63035156 9.93972656 10.63035156 9.93972656 11.2734375 10.8984375 C15.52472191 18.52662868 14.32784869 27.55789633 14 36 C7.26272522 37.95458451 -1.62997686 36.12270982 -7.91796875 33.06835938 C-11.48107805 30.98537032 -14.77640587 28.57032789 -18 26 C-15.9623614 19.41472251 -13.37307554 14.92812388 -8 10.5625 C-4.37996675 7.47038827 -2.30762087 4.11491686 0 0 Z " fill="#7E7E7C" transform="translate(137,20)"/>
<path d="M0 0 C2.53860415 1.33610745 3.35988733 2.80048573 4.8046875 5.265625 C6.65757737 8.2321204 8.25595969 10.53451165 11.0546875 12.640625 C14.61797737 15.58421228 16.04803718 17.80072829 17.9296875 22.015625 C17.74371827 25.13795048 17.31143443 26.59146175 15.20703125 28.9296875 C7.13968394 34.82868269 -2.11168826 37.015625 -12.0703125 37.015625 C-14.72016698 29.06606155 -14.2979966 19.6622684 -10.75976562 12.08520508 C-4.53783034 0.03424778 -4.53783034 0.03424778 0 0 Z " fill="#7E7D7C" transform="translate(49.0703125,19.984375)"/>
<path d="M0 0 C1.11246094 -0.00257812 2.22492188 -0.00515625 3.37109375 -0.0078125 C6.22627492 0.11100777 8.78757946 0.47146731 11.5625 1.125 C11.9454451 15.08122131 10.91234175 21.5140168 1.5625 32.125 C-0.13182824 30.48050494 -1.78976753 28.81541984 -3.4375 27.125 C-3.97632812 26.59390625 -4.51515625 26.0628125 -5.0703125 25.515625 C-9.04526092 21.32944743 -10.40739348 17.94559335 -10.4375 12.125 C-10.45167969 11.15046875 -10.46585937 10.1759375 -10.48046875 9.171875 C-10.49767238 6.48810798 -10.48189381 3.80835928 -10.4375 1.125 C-6.92571216 0.04312893 -3.66197434 -0.00846699 0 0 Z " fill="#FCE283" transform="translate(93.4375,16.875)"/>
<path d="M0 0 C2.38258063 0.01610181 4.76346591 0.00004076 7.14599609 -0.01904297 C17.12948272 -0.03167181 26.16034286 1.15201058 35.88427734 3.39111328 C37.88173999 3.73932886 39.88107606 4.07759181 41.88427734 4.39111328 C41.88427734 4.72111328 41.88427734 5.05111328 41.88427734 5.39111328 C33.8854168 7.40670316 26.21508631 7.68353731 17.99365234 7.65673828 C16.69026917 7.65865173 15.38688599 7.66056519 14.04400635 7.66253662 C11.3041909 7.66546356 8.56450703 7.66126665 5.82470703 7.65185547 C2.3257091 7.64041683 -1.17298339 7.64706342 -4.67197037 7.6590004 C-8.03345365 7.6679852 -11.39485572 7.6616877 -14.75634766 7.65673828 C-16.00643616 7.66078674 -17.25652466 7.66483521 -18.54449463 7.66900635 C-19.71300964 7.66270203 -20.88152466 7.65639771 -22.08544922 7.64990234 C-23.61906097 7.64751556 -23.61906097 7.64751556 -25.18365479 7.64508057 C-28.41016713 7.36560935 -31.09216046 6.52513378 -34.11572266 5.39111328 C-24.78625654 -0.8285308 -10.83196745 -0.08676252 0 0 Z " fill="#FCE079" transform="translate(88.11572265625,64.60888671875)"/>
<path d="M0 0 C3.43952148 2.09362177 5.78028175 4.11907831 7 8 C7.33837797 11.72215762 7.29518405 14.27843899 5.875 17.75 C2.82828839 21.40605394 -0.35783942 22.72630657 -5 23.5 C-9.26096064 22.78983989 -10.92314769 21.0052976 -14 18 C-15.89111162 14.21777675 -15.75206324 10.09874463 -15 6 C-11.28650472 0.22596771 -6.49533984 -1.04763546 0 0 Z " fill="#EDC00A" transform="translate(70,83)"/>
<path d="M0 0 C3.56268053 2.16858815 5.45038819 4.16453549 7 8 C7.34050529 12.88057582 6.66327491 16.18366164 3.5625 20 C0.26047368 22.57719127 -1.20167811 23.20694883 -5.3125 22.9375 C-9.03946486 22.45059007 -10.0011738 21.99904179 -13.0625 19.5 C-15.3365538 16.20381051 -15.71341386 13.13565645 -15.5 9.1875 C-14.64358538 5.44068602 -12.75978331 3.62836505 -10 1 C-6.79386153 -0.60306924 -3.47860003 -0.48740461 0 0 Z " fill="#F0C20A" transform="translate(126,83)"/>
<path d="M0 0 C5.03163018 4.29785078 10.02718443 8.63425542 15 13 C14 15 14 15 11.44140625 16.109375 C7.55269834 17.11576025 3.92266781 17.29465174 -0.0625 17.25 C-0.75666016 17.25773437 -1.45082031 17.26546875 -2.16601562 17.2734375 C-6.21850071 17.25804344 -9.35489452 16.79057813 -13 15 C-11.00868967 10.11223828 -7.3084704 7.04082872 -3.25 3.8125 C-0.92512612 2.19690923 -0.92512612 2.19690923 0 0 Z " fill="#F7F7F7" transform="translate(93,125)"/>
<path d="M0 0 C2.477175 0.38438922 3.7495611 0.75456988 5.5625 2.53125 C7.10970576 4.6502492 8.58147028 6.79255535 10 9 C10.63035156 9.93972656 10.63035156 9.93972656 11.2734375 10.8984375 C15.52472191 18.52662868 14.32784869 27.55789633 14 36 C12.02 36.495 12.02 36.495 10 37 C10.04640625 35.80503906 10.0928125 34.61007813 10.140625 33.37890625 C10.56432046 21.14472306 10.56432046 21.14472306 6 10 C5.46375 8.989375 4.9275 7.97875 4.375 6.9375 C3.694375 5.9784375 3.694375 5.9784375 3 5 C2.34 5 1.68 5 1 5 C0.12821085 6.35999107 -0.73990443 7.72242227 -1.59375 9.09375 C-3.35704792 11.48399829 -5.40787624 13.39480475 -7.5625 15.4375 C-11.34603645 19.10902386 -13.40358359 21.99789524 -15 27 C-15.99 26.67 -16.98 26.34 -18 26 C-16.245903 19.46200207 -13.22681402 14.80928639 -8 10.5625 C-4.37996675 7.47038827 -2.30762087 4.11491686 0 0 Z " fill="#11110E" transform="translate(137,20)"/>
<path d="M0 0 C2.53860415 1.33610745 3.35988733 2.80048573 4.8046875 5.265625 C6.65757737 8.2321204 8.25595969 10.53451165 11.0546875 12.640625 C14.61797737 15.58421228 16.04803718 17.80072829 17.9296875 22.015625 C17.6796875 24.953125 17.6796875 24.953125 16.9296875 27.015625 C14.9296875 25.015625 14.9296875 25.015625 13.3671875 21.953125 C10.97520674 17.60572271 7.55080708 14.4935159 3.953125 11.12890625 C2.0556465 9.14717678 0.98332378 7.52509205 -0.0703125 5.015625 C-0.7303125 5.015625 -1.3903125 5.015625 -2.0703125 5.015625 C-3.37110199 6.59574346 -3.37110199 6.59574346 -4.5703125 8.640625 C-4.993125 9.31351563 -5.4159375 9.98640625 -5.8515625 10.6796875 C-8.9751878 16.66663599 -9.33228681 21.78424872 -9.1953125 28.390625 C-9.18628906 29.22207031 -9.17726562 30.05351563 -9.16796875 30.91015625 C-9.1445747 32.94543837 -9.10870975 34.98057064 -9.0703125 37.015625 C-10.0603125 37.015625 -11.0503125 37.015625 -12.0703125 37.015625 C-14.72016698 29.06606155 -14.2979966 19.6622684 -10.75976562 12.08520508 C-4.53783034 0.03424778 -4.53783034 0.03424778 0 0 Z " fill="#11100F" transform="translate(49.0703125,19.984375)"/>
<path d="M0 0 C0.55429688 0.42152344 1.10859375 0.84304687 1.6796875 1.27734375 C2.40414062 1.82519531 3.12859375 2.37304688 3.875 2.9375 C4.59429687 3.48277344 5.31359375 4.02804688 6.0546875 4.58984375 C7.94357079 6.03964624 7.94357079 6.03964624 10 7 C10.32589516 11.67116396 9.84137634 14.24532412 7 18 C4.3710719 20.38246609 3.61165822 21 0 21 C-2.93983916 15.94715145 -4.88950647 12.00416869 -4 6 C-2 2.5625 -2 2.5625 0 0 Z " fill="#C8C8C8" transform="translate(82,109)"/>
<path d="M0 0 C4.875 2.75 4.875 2.75 6 5 C6.64047462 11.27665128 4.77302561 15.54060583 2 21 C-0.02048131 19.69791204 -2.01811655 18.36011609 -4 17 C-4.61875 16.5875 -5.2375 16.175 -5.875 15.75 C-7.45009018 13.29985971 -7.64464807 10.94675741 -7.5703125 8.07421875 C-6.49767336 4.1730449 -3.23167841 2.17643648 0 0 Z " fill="#CACACA" transform="translate(103,110)"/>
<path d="M0 0 C-0.66 0.391875 -1.32 0.78375 -2 1.1875 C-4.27329279 2.84916802 -4.27329279 2.84916802 -4.3125 5.625 C-4.25156054 7.95137906 -4.25156054 7.95137906 -3 9 C0.72224599 9.29386153 1.77786243 9.14809171 5 7 C4.7452901 10.73574522 4.36763692 12.57829882 1.875 15.4375 C-1 17 -1 17 -4.625 17 C-8 16 -8 16 -9.9375 14.4375 C-11.47681792 10.90612359 -11.68303974 7.78776583 -11 4 C-8.12243286 -0.60410742 -5.14365078 -0.39566544 0 0 Z " fill="#120F06" transform="translate(125,86)"/>
<path d="M0 0 C4.05886955 0.23416555 6.35661366 0.45312161 9.5 3.125 C11.50686067 6.97148295 11.27176524 8.88546541 10 13 C7.875 15.5 7.875 15.5 5 17 C1.0761242 17 -1.07472875 16.89542379 -3.9375 14.125 C-5 12 -5 12 -5 9 C-3.865625 9.020625 -2.73125 9.04125 -1.5625 9.0625 C1.81575674 9.41577477 1.81575674 9.41577477 3 8 C3.33374277 5.58416247 3.33374277 5.58416247 3 3 C1.60414215 1.18523997 1.60414215 1.18523997 0 0 Z " fill="#0F0D05" transform="translate(63,86)"/>
<path d="M0 0 C2 3 2 3 1.625 5.1875 C1.41875 5.785625 1.2125 6.38375 1 7 C0.34 7 -0.32 7 -1 7 C-1.33 6.01 -1.66 5.02 -2 4 C-2.99 3.67 -3.98 3.34 -5 3 C-4.649375 3.598125 -4.29875 4.19625 -3.9375 4.8125 C-3 7 -3 7 -4 10 C-4 9.34 -4 8.68 -4 8 C-4.99 8 -5.98 8 -7 8 C-7 8.99 -7 9.98 -7 11 C-7.99 10.67 -8.98 10.34 -10 10 C-9.34 7.69 -8.68 5.38 -8 3 C-8.99 3 -9.98 3 -11 3 C-11.33 4.65 -11.66 6.3 -12 8 C-12.99 7.34 -13.98 6.68 -15 6 C-14.67 4.02 -14.34 2.04 -14 0 C-8.96204923 -1.13353892 -5.01852377 -1.00370475 0 0 Z " fill="#767676" transform="translate(100,102)"/>
<path d="M0 0 C0.12117188 0.96421875 0.24234375 1.9284375 0.3671875 2.921875 C0.53476563 4.18515625 0.70234375 5.4484375 0.875 6.75 C1.03742188 8.00296875 1.19984375 9.2559375 1.3671875 10.546875 C1.9058355 13.48616408 2.48008841 15.47107147 4 18 C1.8125 18.4375 1.8125 18.4375 -1 18 C-4.18837115 15.33727923 -5.83367656 12.43246064 -6.3125 8.30859375 C-6.3125 5.85199581 -6.22146081 3.44591159 -6 1 C-3 0 -3 0 0 0 Z " fill="#FCD95B" transform="translate(80,24)"/>
<path d="M0 0 C1.12588014 0.95729916 2.2506715 1.91587895 3.375 2.875 C4.00148438 3.40867188 4.62796875 3.94234375 5.2734375 4.4921875 C6.55836651 5.61432007 7.79371975 6.79371975 9 8 C4.89610799 10.98464873 2.03483202 11.457712 -3 11 C-5.4375 10 -5.4375 10 -7 9 C-5.44499019 5.18315774 -2.96404505 2.80804268 0 0 Z " fill="#C7C7C7" transform="translate(93,125)"/>
<path d="M0 0 C8.76660902 1.60159203 17.37072413 3.79450269 26 6 C26 6.99 26 7.98 26 9 C16.94269693 8.50596529 8.60629066 5.67773223 0 3 C0 2.01 0 1.02 0 0 Z " fill="#F8F8F8" transform="translate(12,72)"/>
<path d="M0 0 C1.65 0.33 3.3 0.66 5 1 C5.76681614 10.57668161 5.76681614 10.57668161 3.88671875 14.06640625 C2.5 15.6875 2.5 15.6875 0 18 C-1.32 17.67 -2.64 17.34 -4 17 C-3.34 16.34 -2.68 15.68 -2 15 C-1.5342637 12.44132526 -1.16515752 9.95312092 -0.875 7.375 C-0.78863281 6.66859375 -0.70226562 5.9621875 -0.61328125 5.234375 C-0.40118817 3.49049859 -0.19959009 1.7453516 0 0 Z " fill="#FCD95A" transform="translate(108,24)"/>
<path d="M0 0 C0 0.99 0 1.98 0 3 C-18.84466019 9 -18.84466019 9 -26 9 C-26 8.01 -26 7.02 -26 6 C-25.40461426 5.85377197 -24.80922852 5.70754395 -24.19580078 5.55688477 C-21.50492304 4.89454315 -18.81495783 4.22856732 -16.125 3.5625 C-15.18785156 3.33240234 -14.25070313 3.10230469 -13.28515625 2.86523438 C-12.38925781 2.64287109 -11.49335938 2.42050781 -10.5703125 2.19140625 C-9.32918701 1.88505249 -9.32918701 1.88505249 -8.06298828 1.57250977 C-2.39658849 0 -2.39658849 0 0 0 Z " fill="#F9F9F9" transform="translate(176,72)"/>
<path d="M0 0 C3.29419914 0.39757576 5.63680748 1.07146913 8.625 2.4375 C9.285 2.4375 9.945 2.4375 10.625 2.4375 C11.7827506 5.91075181 11.69366652 8.79817448 11.625 12.4375 C11.026875 11.65375 10.42875 10.87 9.8125 10.0625 C7.71414751 7.29175677 7.71414751 7.29175677 4.625 5.4375 C1.87981679 5.19562349 1.87981679 5.19562349 -1.0625 5.3125 C-2.05636719 5.33054687 -3.05023438 5.34859375 -4.07421875 5.3671875 C-4.83347656 5.39039062 -5.59273437 5.41359375 -6.375 5.4375 C-4.74832982 1.61004076 -4.25484044 0.55155339 0 0 Z " fill="#7E7D7B" transform="translate(65.375,78.5625)"/>
<path d="M0 0 C2.5 0.25 2.5 0.25 4.5 2.25 C4.75 4.75 4.75 4.75 4.5 7.25 C2.5 9.25 2.5 9.25 0 9.5 C-2.5 9.25 -2.5 9.25 -4.5 7.25 C-4.75 4.75 -4.75 4.75 -4.5 2.25 C-2.5 0.25 -2.5 0.25 0 0 Z " fill="#FAFAFA" transform="translate(124.5,86.75)"/>
<path d="M0 0 C2.5 0.25 2.5 0.25 4.5 2.25 C4.75 4.75 4.75 4.75 4.5 7.25 C2.5 9.25 2.5 9.25 0 9.5 C-2.5 9.25 -2.5 9.25 -4.5 7.25 C-4.75 4.75 -4.75 4.75 -4.5 2.25 C-2.5 0.25 -2.5 0.25 0 0 Z " fill="#FBFBFA" transform="translate(62.5,86.75)"/>
<path d="M0 0 C4.11317432 1.43099507 7.21443825 3.45178101 10.6875 6.0625 C14.20307017 8.75920044 14.20307017 8.75920044 18 11 C18 11.99 18 12.98 18 14 C13.82080975 13.39117969 10.70367873 11.03466136 7.3125 8.6875 C6.71888672 8.29626953 6.12527344 7.90503906 5.51367188 7.50195312 C1.21243906 4.54454904 1.21243906 4.54454904 0.10546875 1.70703125 C0.07066406 1.14371094 0.03585938 0.58039063 0 0 Z " fill="#F9F9F9" transform="translate(141,126)"/>
<path d="M0 0 C0.66 0.33 1.32 0.66 2 1 C0.47708531 5.30173954 -2.75790307 7.33869252 -6.375 9.8125 C-7.24125 10.44188477 -7.24125 10.44188477 -8.125 11.08398438 C-12.41641652 14.0576029 -12.41641652 14.0576029 -15.4140625 13.76171875 C-15.93742187 13.51035156 -16.46078125 13.25898438 -17 13 C-13.75042141 9.49302905 -10.18687827 6.90631127 -6.25 4.25 C-5.64800781 3.83878906 -5.04601562 3.42757812 -4.42578125 3.00390625 C-2.95313343 1.99876568 -1.47692498 0.99884522 0 0 Z " fill="#F9F9F9" transform="translate(43,126)"/>
<path d="M0 0 C3 1.25 3 1.25 5 3 C5.8125 5.1875 5.8125 5.1875 6 7 C3.03824877 6.38722388 1.61941217 5.74627478 -1 4 C-5.5597248 3.66224261 -8.8782921 4.00159617 -13 6 C-13 3 -13 3 -11.5625 1.3125 C-7.73506148 -0.64789534 -4.21759328 -0.55633138 0 0 Z " fill="#0B0B0B" transform="translate(126,76)"/>
<path d="M0 0 C3.5 1.5 3.5 1.5 6 3 C5.67 3.99 5.34 4.98 5 6 C3.9790625 5.505 3.9790625 5.505 2.9375 5 C-0.60355647 3.79453397 -3.27916967 3.6617427 -7 4 C-9.2072358 5.48800372 -9.2072358 5.48800372 -11 7 C-11.99 6.67 -12.98 6.34 -14 6 C-9.71403381 0.42824396 -7.08213853 -0.78690428 0 0 Z " fill="#090909" transform="translate(69,76)"/>
<path d="M0 0 C0.99 0 1.98 0 3 0 C5.01867252 4.16351207 5.46856604 7.39243396 5 12 C3.87266265 14.79383605 2.51404136 17.39774141 1 20 C0.01 20 -0.98 20 -2 20 C-0.125 14.25 -0.125 14.25 1 12 C0.91219597 9.95501575 0.75758462 7.91255052 0.5625 5.875 C0.46066406 4.77929688 0.35882813 3.68359375 0.25390625 2.5546875 C0.17011719 1.71164063 0.08632812 0.86859375 0 0 Z " fill="#101010" transform="translate(142,71)"/>
<path d="M0 0 C0.99 0 1.98 0 3 0 C3 5.61 3 11.22 3 17 C2.01 17 1.02 17 0 17 C0 11.39 0 5.78 0 0 Z " fill="#292929" transform="translate(92,149)"/>
<path d="M0 0 C0.99 0.99 1.98 1.98 3 3 C5.65466049 2.76956136 5.65466049 2.76956136 8 2 C7.57847656 2.6290625 7.15695313 3.258125 6.72265625 3.90625 C3.19374867 9.41964913 1.24309615 13.43640403 1 20 C0.67 20 0.34 20 0 20 C0 13.4 0 6.8 0 0 Z " fill="#7E7B6D" transform="translate(110,78)"/>
<path d="M0 0 C0 3 0 3 -2.375 5.5 C-3.24125 6.325 -4.1075 7.15 -5 8 C-5.99 9.485 -5.99 9.485 -7 11 C-7.99 11 -8.98 11 -10 11 C-9.40114059 7.6989701 -8.30314403 5.78574977 -6.125 3.25 C-5.61195313 2.63640625 -5.09890625 2.0228125 -4.5703125 1.390625 C-3 0 -3 0 0 0 Z " fill="#0E0E0B" transform="translate(136,40)"/>
<path d="M0 0 C3.11728368 1.36508501 5.08663738 2.86919698 7.3125 5.4375 C7.84488281 6.03433594 8.37726562 6.63117187 8.92578125 7.24609375 C9.45751953 8.11427734 9.45751953 8.11427734 10 9 C9.67 9.99 9.34 10.98 9 12 C8.34 12 7.68 12 7 12 C5.62464661 10.02866014 4.29788956 8.02318078 3 6 C1.68456721 4.31916921 0.35683751 2.6475884 -1 1 C-0.67 0.67 -0.34 0.34 0 0 Z " fill="#080807" transform="translate(50,40)"/>
<path d="M0 0 C4.29 0 8.58 0 13 0 C13 2.97 13 5.94 13 9 C11 6 11 6 11 4 C7.37 3.01 3.74 2.02 0 1 C0 0.67 0 0.34 0 0 Z " fill="#707070" transform="translate(64,75)"/>
<path d="M0 0 C0.33 0 0.66 0 1 0 C1.66 4.95 2.32 9.9 3 15 C2.01 15 1.02 15 0 15 C-1.03876383 11.88370851 -1.13361625 9.6405571 -1.125 6.375 C-1.12757812 5.39273438 -1.13015625 4.41046875 -1.1328125 3.3984375 C-1 1 -1 1 0 0 Z " fill="#0C0B05" transform="translate(37,42)"/>
<path d="M0 0 C0.99 0.33 1.98 0.66 3 1 C3.33 2.65 3.66 4.3 4 6 C3.67 5.34 3.34 4.68 3 4 C2.01 4 1.02 4 0 4 C0 4.99 0 5.98 0 7 C-0.99 6.67 -1.98 6.34 -3 6 C-1.125 1.125 -1.125 1.125 0 0 Z " fill="#696969" transform="translate(93,106)"/>
<path d="M0 0 C2.86724686 0.57344937 3.8614515 0.8614515 6 3 C5.01 3 4.02 3 3 3 C2.67 4.65 2.34 6.3 2 8 C1.01 7.34 0.02 6.68 -1 6 C-0.67 4.02 -0.34 2.04 0 0 Z " fill="#6D6D6D" transform="translate(86,102)"/>
<path d="M0 0 C0.99 1.32 1.98 2.64 3 4 C1.02 5.32 -0.96 6.64 -3 8 C-3.66 7.67 -4.32 7.34 -5 7 C-3.35 4.69 -1.7 2.38 0 0 Z " fill="#EABD1E" transform="translate(67,44)"/>
</svg>
