<?xml version="1.0" encoding="UTF-8"?>
<svg version="1.1" xmlns="http://www.w3.org/2000/svg" width="860" height="951">
<path d="M0 0 C1.13163574 -0.03383789 1.13163574 -0.03383789 2.28613281 -0.06835938 C14.27836395 -0.01743695 24.74991235 5.13155984 35 10.875 C36.68428101 11.80034546 36.68428101 11.80034546 38.40258789 12.74438477 C41.81854975 14.62728737 45.22357039 16.52848836 48.625 18.4375 C49.61387207 18.99179687 50.60274414 19.54609375 51.62158203 20.1171875 C56.3274108 22.76063987 61.02356574 25.42066833 65.71484375 28.08984375 C72.15980745 31.75108768 78.64129864 35.34543312 85.125 38.9375 C93.47919801 43.56795735 101.81610558 48.22622636 110.125 52.9375 C121.76961385 59.53800597 133.47003817 66.03632034 145.17675781 72.52587891 C160.53761981 81.04156493 175.88831509 89.57472044 191.20703125 98.16601562 C198.87646244 102.46495908 206.56103144 106.73611743 214.25 111 C222.56202349 115.61042761 230.856271 120.24986978 239.125 124.9375 C251.91297586 132.18594812 264.76831564 139.31184613 277.625 146.4375 C291.42252668 154.08460377 305.20782675 161.74958239 318.93164062 169.52832031 C329.64358736 175.59300966 340.41077596 181.55781339 351.17675781 187.52587891 C354.60528394 189.4265699 358.03327155 191.328227 361.4609375 193.23046875 C362.58411377 193.85373047 363.70729004 194.47699219 364.86450195 195.11914062 C367.11138564 196.36742734 369.35732657 197.61741258 371.60229492 198.86914062 C377.22671955 202.00437594 382.86269113 205.11374185 388.52734375 208.17578125 C390.20546143 209.09218384 390.20546143 209.09218384 391.91748047 210.02709961 C394.0160682 211.17290908 396.12014733 212.30874978 398.23095703 213.43188477 C413.43534123 221.78212744 424.83555719 233.56218126 430.17349595 250.14104933 C430.81082539 253.38264953 430.76615913 256.59011124 430.75922108 259.87992954 C430.76157331 260.6359524 430.76392554 261.39197525 430.76634905 262.17090788 C430.77303629 264.71873502 430.77258091 267.26651113 430.77217102 269.81434631 C430.77546982 271.65374547 430.77919542 273.4931439 430.7833125 275.33254141 C430.79333885 280.39877184 430.79705032 285.46499043 430.79970181 290.53122938 C430.80360299 295.99086663 430.81318147 301.45049448 430.82191467 306.91012573 C430.84168452 320.10106117 430.85174603 333.29199737 430.86064246 346.48294392 C430.86502457 352.69331055 430.87039159 358.90367633 430.87563133 365.11404228 C430.89264425 385.75628641 430.90713866 406.39853 430.91438007 427.04078007 C430.91485483 428.37574427 430.91533072 429.71070848 430.91580774 431.04567268 C430.9161623 432.03869998 430.9161623 432.03869998 430.91652403 433.05178843 C430.91772522 436.40586352 430.91894067 439.7599386 430.92016602 443.11401367 C430.92040617 443.77963846 430.92064632 444.44526325 430.92089374 445.13105849 C430.92878506 466.70777387 430.95221326 488.28443425 430.98472196 509.86112562 C431.01903423 532.67657625 431.0387314 555.49199951 431.04202431 578.30747694 C431.04419013 590.74307055 431.05294925 603.17858334 431.07848549 615.61415291 C431.1001821 626.2044403 431.10824799 636.79462722 431.09851871 647.38493431 C431.09397102 652.78778932 431.09588771 658.190437 431.11528015 663.59326363 C431.1328908 668.5424457 431.13193096 673.49126888 431.11638286 678.44045465 C431.11400362 680.22787192 431.11834672 682.0153139 431.13021151 683.80269337 C431.18946913 693.32165035 430.87563633 701.68841486 426.625 710.4375 C426.14417969 711.43265625 425.66335938 712.4278125 425.16796875 713.453125 C416.38173941 727.93647711 402.33539475 734.6216652 387.875 742.5625 C386.09988877 743.54223526 384.32543543 744.5231553 382.55099487 745.50410461 C381.34588691 746.17021695 380.14058514 746.83597877 378.93508911 747.50138855 C372.94297021 750.80971895 366.96996856 754.15188125 361 757.5 C359.46835205 758.35863647 359.46835205 758.35863647 357.90576172 759.23461914 C355.84596552 760.38937308 353.78623229 761.54423936 351.7265625 762.69921875 C348.58947836 764.45740823 345.45118127 766.21341344 342.3125 767.96875 C332.23795558 773.60386258 322.1709189 779.25148918 312.125 784.9375 C301.03027296 791.21713839 289.90886607 797.44850698 278.78222656 803.67138672 C273.56206291 806.59148136 268.34359227 809.51459832 263.125 812.4375 C256.85241152 815.95073852 250.57945881 819.46331749 244.3046875 822.97265625 C234.23295878 828.60684113 224.16838657 834.25292249 214.125 839.9375 C203.03027296 846.21713839 191.90886607 852.44850698 180.78222656 858.67138672 C175.56206291 861.59148136 170.34359227 864.51459832 165.125 867.4375 C158.85241152 870.95073852 152.57945881 874.46331749 146.3046875 877.97265625 C136.23295878 883.60684113 126.16838657 889.25292249 116.125 894.9375 C105.03027296 901.21713839 93.90886607 907.44850698 82.78222656 913.67138672 C78.6014903 916.0100386 74.42185957 918.35066134 70.24243164 920.69165039 C68.17153835 921.85140902 66.10041364 923.01075449 64.02905273 924.16967773 C58.65388963 927.17758704 53.28288026 930.19258883 47.91796875 933.21875 C46.81195313 933.84136719 45.7059375 934.46398437 44.56640625 935.10546875 C42.47525613 936.28283899 40.38530811 937.46234826 38.296875 938.64453125 C14.92741579 951.78789153 14.92741579 951.78789153 0.9375 951.8125 C0.22400391 951.83699219 -0.48949219 951.86148438 -1.22460938 951.88671875 C-13.81064135 951.95301918 -24.60578293 946.10370943 -35.25 940 C-36.52443516 939.28159618 -37.79951201 938.56432965 -39.07519531 937.84814453 C-42.25863205 936.05738609 -45.43400614 934.25287123 -48.60705566 932.44378662 C-51.23080343 930.9503899 -53.86145119 929.46932388 -56.4921875 927.98828125 C-60.23510337 925.87952399 -63.9744883 923.76472465 -67.7109375 921.64453125 C-73.71221281 918.24199444 -79.72962882 914.86860769 -85.75 911.5 C-86.78930664 910.91847168 -87.82861328 910.33694336 -88.89941406 909.73779297 C-91.00546792 908.55961521 -93.11158788 907.38155559 -95.21777344 906.20361328 C-101.47828908 902.70155868 -107.73648612 899.19536247 -113.99511719 895.68994141 C-119.22775048 892.75937215 -124.46094222 889.82980956 -129.6953125 886.90234375 C-140.71670521 880.7369112 -151.72545319 874.5501603 -162.71582031 868.32958984 C-173.91449514 861.99465696 -185.14538025 855.7173583 -196.375 849.4375 C-209.5041297 842.09539261 -222.62465906 834.73921411 -235.71582031 827.32958984 C-245.86492675 821.58838304 -256.04085758 815.8953339 -266.21777344 810.20361328 C-272.47828908 806.70155868 -278.73648612 803.19536247 -284.99511719 799.68994141 C-290.22775048 796.75937215 -295.46094222 793.82980956 -300.6953125 790.90234375 C-311.71670521 784.7369112 -322.72545319 778.5501603 -333.71582031 772.32958984 C-340.7174444 768.36886955 -347.73055968 764.429052 -354.75 760.5 C-356.29977539 759.6322998 -356.29977539 759.6322998 -357.88085938 758.74707031 C-363.22256174 755.75750973 -368.56681713 752.77260369 -373.9140625 749.79296875 C-379.13735417 746.88098266 -384.35336345 743.95638472 -389.56298828 741.02001953 C-391.35873095 740.00942707 -393.15639758 739.00224071 -394.95654297 737.99951172 C-410.31316251 729.43148071 -422.93723925 720.50979945 -428.54255664 703.07290637 C-430.205331 695.81131862 -429.92706825 688.45014748 -429.8896637 681.03614807 C-429.89499564 679.18301544 -429.90206505 677.32988714 -429.91071075 675.476767 C-429.92927887 670.40957675 -429.92305321 665.34267992 -429.91255772 660.27547777 C-429.90554918 654.80092562 -429.92157618 649.32643275 -429.93455505 643.85189819 C-429.95617239 633.13689624 -429.95607398 622.42200058 -429.94792951 611.70698399 C-429.94162412 602.99646317 -429.94277149 594.2859733 -429.94920158 585.5754528 C-429.95055407 583.71431592 -429.95055407 583.71431592 -429.95193387 581.81558032 C-429.95378511 579.29482023 -429.95564767 576.77406014 -429.95752143 574.25330006 C-429.97361977 551.30031202 -429.96643121 528.34737055 -429.94996829 505.39438766 C-429.9351212 484.4603865 -429.94390251 463.52651583 -429.97192383 442.5925293 C-430.00337535 419.05114182 -430.01824644 395.50981471 -430.00812382 371.96840328 C-430.00710129 369.45672318 -430.00610668 366.94504308 -430.0051403 364.43336296 C-430.00466391 363.19764656 -430.00418752 361.96193016 -430.0036967 360.68876781 C-430.00153434 351.9918794 -430.01132715 343.29505187 -430.02591133 334.59817696 C-430.04344474 323.99493099 -430.04330262 313.39186231 -430.02055968 302.78862328 C-430.00942695 297.38138428 -430.00623334 291.97445754 -430.02486038 286.56723213 C-430.04171039 281.61200792 -430.03525274 276.65736722 -430.01064359 271.7021805 C-430.00577478 269.91497366 -430.00923626 268.12771935 -430.02213103 266.3405524 C-430.11647844 252.24069165 -428.2130533 240.34011877 -418.375 229.4375 C-417.55370605 228.50828735 -417.55370605 228.50828735 -416.71582031 227.56030273 C-411.42508491 221.93907329 -405.71957976 218.41601105 -398.9375 214.8125 C-396.69901968 213.59151073 -394.46074411 212.37014601 -392.22265625 211.1484375 C-391.0845752 210.53323242 -389.94649414 209.91802734 -388.77392578 209.28417969 C-383.44433085 206.38854285 -378.16135646 203.41110163 -372.875 200.4375 C-370.79191125 199.27039669 -368.70857723 198.10373103 -366.625 196.9375 C-365.59375 196.36 -364.5625 195.7825 -363.5 195.1875 C-268.70833333 142.10416667 -173.91666667 89.02083333 -79.125 35.9375 C-77.5769165 35.0705249 -77.5769165 35.0705249 -75.99755859 34.18603516 C-73.92247437 33.02405289 -71.84727975 31.86226775 -69.77197266 30.70068359 C-64.43648716 27.71398527 -59.1031951 24.72347185 -53.7734375 21.7265625 C-48.55091362 18.79078517 -43.32214638 15.86646669 -38.08789062 12.95166016 C-36.39159457 12.00489737 -34.69724807 11.05462324 -33.00585938 10.09912109 C-21.9472759 3.85288298 -12.75011991 0.25168022 0 0 Z " fill="#00599C" transform="translate(429.375,-0.4375)"/>
<path d="M0 0 C2.85196133 -0.00217467 5.70352718 -0.02036127 8.55541992 -0.03930664 C24.90450431 -0.08998012 41.00516684 1.194118 57.1315918 3.93530273 C58.61236206 4.18473633 58.61236206 4.18473633 60.12304688 4.43920898 C71.02511468 6.361832 81.68074208 9.14699176 92.3190918 12.18530273 C93.00632324 12.3815625 93.69355469 12.57782227 94.40161133 12.7800293 C101.82491429 14.92882884 109.08830436 17.46470603 116.3190918 20.18530273 C117.54370117 20.63131836 118.76831055 21.07733398 120.0300293 21.53686523 C132.17898484 26.09932393 144.08754443 31.69782687 155.3190918 38.18530273 C156.38901367 38.77698242 157.45893555 39.36866211 158.5612793 39.97827148 C171.85538698 47.35930986 184.30925488 55.86703211 196.3190918 65.18530273 C197.13506836 65.81823242 197.95104492 66.45116211 198.79174805 67.10327148 C201.32586913 69.1017247 203.82697745 71.13469035 206.3190918 73.18530273 C207.07198486 73.80066895 207.07198486 73.80066895 207.84008789 74.4284668 C215.3331172 80.58321254 222.39569201 87.0818922 229.2565918 93.93530273 C229.95405518 94.63196045 230.65151855 95.32861816 231.37011719 96.04638672 C237.37031926 102.11125389 243.01657127 108.43751285 248.3190918 115.12280273 C249.2162793 116.25008789 249.2162793 116.25008789 250.1315918 117.40014648 C250.8534668 118.31924805 251.5753418 119.23834961 252.3190918 120.18530273 C252.81731445 120.80832275 253.31553711 121.43134277 253.82885742 122.07324219 C258.79518871 128.34713755 263.34606484 134.86552367 267.8190918 141.49780273 C268.55901367 142.56836914 269.29893555 143.63893555 270.0612793 144.74194336 C270.75479492 145.77125977 271.44831055 146.80057617 272.1628418 147.86108398 C272.79383789 148.78832275 273.42483398 149.71556152 274.07495117 150.67089844 C275.3190918 153.18530273 275.3190918 153.18530273 275.31152344 155.33300781 C273.89871295 157.96990651 272.2236346 158.73875267 269.59643555 160.14624023 C268.59547852 160.69280273 267.59452148 161.23936523 266.56323242 161.80249023 C264.92644531 162.67260742 264.92644531 162.67260742 263.2565918 163.56030273 C260.95210505 164.81609631 258.64874601 166.0739612 256.34643555 167.33374023 C255.7578476 167.65397156 255.16925964 167.97420288 254.56283569 168.30413818 C248.74276238 171.47694506 243.02815655 174.81818664 237.3190918 178.18530273 C228.17112902 183.55921472 218.94501098 188.77609554 209.67456055 193.93530273 C201.5080442 198.49146628 193.42879148 203.18493775 185.36499023 207.91992188 C176.98588635 212.82703281 168.53015726 217.58926895 160.04174805 222.30444336 C153.08065701 226.17533043 146.18515115 230.14827203 139.3190918 234.18530273 C136.49859776 231.41937074 134.16377204 228.70750741 131.9440918 225.43530273 C127.44326999 218.90526426 123.07811062 212.67646021 117.3190918 207.18530273 C116.70678711 206.54077148 116.09448242 205.89624023 115.46362305 205.23217773 C95.45325967 184.38349312 68.94096666 170.79272303 41.3190918 163.18530273 C40.6586084 162.99967773 39.998125 162.81405273 39.31762695 162.62280273 C11.24662575 155.11309719 -20.46494743 158.24732128 -47.6809082 167.18530273 C-48.39730469 167.4120166 -49.11370117 167.63873047 -49.85180664 167.87231445 C-85.71500108 179.34888003 -116.94107774 207.48093352 -135.1184082 240.06030273 C-135.99193135 241.75881997 -136.84698528 243.46699658 -137.6809082 245.18530273 C-138.31899414 246.48274414 -138.31899414 246.48274414 -138.9699707 247.80639648 C-144.03411755 258.5094553 -147.6507447 269.4519306 -150.4309082 280.93530273 C-150.74705078 282.22960205 -150.74705078 282.22960205 -151.06958008 283.55004883 C-153.62959688 294.5392357 -153.91978327 305.44142838 -153.9309082 316.68530273 C-153.93191528 317.39395477 -153.93292236 318.10260681 -153.93395996 318.83273315 C-153.92334876 329.89225792 -153.22992419 340.39929186 -150.6809082 351.18530273 C-150.43727539 352.3622168 -150.19364258 353.53913086 -149.94262695 354.75170898 C-144.46523546 378.40054145 -132.79236478 401.0744028 -116.6809082 419.18530273 C-115.96418945 420.0219043 -115.2474707 420.85850586 -114.5090332 421.72045898 C-87.9305129 452.21035727 -48.97488187 471.21976773 -8.6809082 474.18530273 C10.47442591 475.00572588 28.90346277 473.56589212 47.3190918 468.18530273 C48.01437988 467.98984863 48.70966797 467.79439453 49.42602539 467.59301758 C68.09111505 462.26798973 85.05750463 453.11568052 100.3190918 441.18530273 C101.31424805 440.41186523 102.3094043 439.63842773 103.3347168 438.84155273 C117.17395354 427.80041304 131.30572011 413.21204611 139.3190918 397.18530273 C145.43510553 398.82443539 150.57497506 402.03424561 156.0065918 405.18530273 C163.21413171 409.31689759 170.44076311 413.36665222 177.8190918 417.18530273 C187.91109887 422.42414031 197.78045798 428.041281 207.65844727 433.6706543 C211.45580107 435.83240719 215.26115679 437.97975842 219.0690918 440.12280273 C219.65134521 440.45159424 220.23359863 440.78038574 220.83349609 441.11914062 C228.53055202 445.45330966 236.30214215 449.65013537 244.09643555 453.80639648 C244.68045135 454.11784103 245.26446716 454.42928558 245.86618042 454.75016785 C248.26182729 456.02744658 250.65752663 457.30460781 253.05517578 458.578125 C257.15599694 460.75722711 261.24040548 462.96493565 265.3190918 465.18530273 C265.90732727 465.49816223 266.49556274 465.81102173 267.10162354 466.13336182 C268.80841164 467.04338573 270.50347845 467.97528943 272.19799805 468.90795898 C273.67828491 469.71052124 273.67828491 469.71052124 275.18847656 470.52929688 C275.89157959 471.07577881 276.59468262 471.62226074 277.3190918 472.18530273 C277.3190918 476.83668574 275.81316031 479.25465062 273.4440918 483.06030273 C273.03916504 483.7208667 272.63423828 484.38143066 272.21704102 485.06201172 C262.41578644 500.8391367 250.89728384 515.54193047 238.3190918 529.18530273 C236.88113808 530.80990126 235.4436464 532.43490884 234.0065918 534.06030273 C226.23227198 542.67289704 218.17632774 550.76617108 209.0769043 557.98608398 C206.2245854 560.2606669 203.4641542 562.62400266 200.6940918 564.99780273 C189.77982972 574.09066791 178.04148165 582.05031206 165.7644043 589.18139648 C163.67930192 590.39416011 161.6071004 591.63004524 159.5612793 592.90795898 C125.44795616 613.94285065 84.73045153 625.72098943 45.3190918 631.18530273 C44.50021484 631.30389648 43.68133789 631.42249023 42.83764648 631.54467773 C-1.80968789 637.72576729 -49.99219651 633.36715737 -92.6809082 619.18530273 C-93.41937988 618.94763184 -94.15785156 618.70996094 -94.91870117 618.46508789 C-130.96377311 606.81423113 -164.0830269 588.74084792 -193.6809082 565.18530273 C-194.65157227 564.42862305 -195.62223633 563.67194336 -196.62231445 562.89233398 C-205.09415052 556.16284274 -212.87892746 548.66828212 -220.6809082 541.18530273 C-221.19105469 540.69852051 -221.70120117 540.21173828 -222.22680664 539.71020508 C-227.70631938 534.46077773 -232.66748648 528.96923306 -237.38012695 523.02124023 C-239.2266105 520.745269 -241.11625875 518.55654095 -243.0637207 516.36889648 C-261.72164815 495.14391364 -275.56702512 469.59468287 -287.55981445 444.18530273 C-287.96917236 443.31905273 -288.37853027 442.45280273 -288.80029297 441.56030273 C-289.6809082 439.18530273 -289.6809082 439.18530273 -289.6809082 435.18530273 C-290.3409082 435.18530273 -291.0009082 435.18530273 -291.6809082 435.18530273 C-293.3492552 430.35610097 -295.00245266 425.5220436 -296.64306641 420.68334961 C-297.20066625 419.04529001 -297.76206008 417.40851593 -298.32763672 415.77319336 C-302.06191733 404.96535543 -304.82678995 394.47289107 -306.6809082 383.18530273 C-306.99957534 381.70290724 -307.32824726 380.2224808 -307.6809082 378.74780273 C-315.10149029 345.72621245 -316.46522131 309.73192803 -311.6809082 276.18530273 C-311.46362061 274.65244629 -311.46362061 274.65244629 -311.24194336 273.08862305 C-309.57893281 261.62554725 -307.65248078 250.38804555 -304.6809082 239.18530273 C-304.45878662 238.33589111 -304.23666504 237.48647949 -304.0078125 236.61132812 C-291.6500286 190.04838458 -268.67149675 143.78631262 -235.66918945 108.32202148 C-233.90251711 106.42345612 -232.22600197 104.48077483 -230.5559082 102.49780273 C-222.37389412 93.10860624 -213.30482732 84.09126055 -203.6809082 76.18530273 C-203.14449707 75.73509766 -202.60808594 75.28489258 -202.05541992 74.82104492 C-192.3196794 66.65259649 -182.3138315 59.14357712 -171.6809082 52.18530273 C-170.9290625 51.69143066 -170.1772168 51.19755859 -169.40258789 50.6887207 C-136.3689656 29.10246109 -100.41229361 14.01780925 -61.6809082 6.18530273 C-60.2912185 5.8888398 -58.90186803 5.59078006 -57.51293945 5.29077148 C-48.96453784 3.49250669 -40.37281362 2.07726037 -31.6809082 1.18530273 C-30.39567261 1.05176392 -30.39567261 1.05176392 -29.08447266 0.91552734 C-19.39560216 0.03814237 -9.720354 -0.00082565 0 0 Z " fill="#FEFEFE" transform="translate(426.680908203125,158.814697265625)"/>
<path d="M0 0 C1.13163574 -0.03383789 1.13163574 -0.03383789 2.28613281 -0.06835938 C14.27836395 -0.01743695 24.74991235 5.13155984 35 10.875 C36.68428101 11.80034546 36.68428101 11.80034546 38.40258789 12.74438477 C41.81854975 14.62728737 45.22357039 16.52848836 48.625 18.4375 C49.61387207 18.99179687 50.60274414 19.54609375 51.62158203 20.1171875 C56.3274108 22.76063987 61.02356574 25.42066833 65.71484375 28.08984375 C72.15980745 31.75108768 78.64129864 35.34543312 85.125 38.9375 C93.47919801 43.56795735 101.81610558 48.22622636 110.125 52.9375 C121.76961385 59.53800597 133.47003817 66.03632034 145.17675781 72.52587891 C160.53761981 81.04156493 175.88831509 89.57472044 191.20703125 98.16601562 C198.87646244 102.46495908 206.56103144 106.73611743 214.25 111 C222.56202349 115.61042761 230.856271 120.24986978 239.125 124.9375 C251.91297586 132.18594812 264.76831564 139.31184613 277.625 146.4375 C291.42252668 154.08460377 305.20782675 161.74958239 318.93164062 169.52832031 C329.64358736 175.59300966 340.41077596 181.55781339 351.17675781 187.52587891 C354.60528394 189.4265699 358.03327155 191.328227 361.4609375 193.23046875 C362.58411377 193.85373047 363.70729004 194.47699219 364.86450195 195.11914062 C367.11138564 196.36742734 369.35732657 197.61741258 371.60229492 198.86914062 C377.22671955 202.00437594 382.86269113 205.11374185 388.52734375 208.17578125 C390.20546143 209.09218384 390.20546143 209.09218384 391.91748047 210.02709961 C394.0160682 211.17290908 396.12014733 212.30874978 398.23095703 213.43188477 C405.92513557 217.65752502 415.09216929 223.00490576 418.625 231.4375 C411.46505309 235.89534521 404.26443357 240.27698327 397 244.5625 C396.33299072 244.95743652 395.66598145 245.35237305 394.97875977 245.75927734 C390.21155768 248.56134241 385.37726118 251.22478097 380.51708984 253.86181641 C375.57259373 256.55570277 370.66186072 259.30968185 365.75 262.0625 C364.6671875 262.66932617 363.584375 263.27615234 362.46875 263.90136719 C348.35909129 271.81946313 334.30350791 279.82236357 320.38183594 288.06689453 C315.74518537 290.80450327 311.04746145 293.3987991 306.30078125 295.94140625 C303.15764213 297.69881104 300.11591606 299.59117064 297.0625 301.5 C292.45258811 304.37300196 287.81688527 306.91994391 282.92578125 309.2734375 C279.33817686 311.08855823 275.99232516 313.24855278 272.625 315.4375 C272.07585938 314.2825 271.52671875 313.1275 270.9609375 311.9375 C268.74086615 307.50126243 266.10077499 303.48885963 263.25 299.4375 C262.75886719 298.73254395 262.26773438 298.02758789 261.76171875 297.30126953 C258.47709637 292.60412884 255.14119986 287.96439499 251.625 283.4375 C250.88507812 282.45136719 250.14515625 281.46523438 249.3828125 280.44921875 C241.80675034 270.46219645 233.3436018 261.4299129 224.625 252.4375 C224.09310059 251.88368652 223.56120117 251.32987305 223.01318359 250.75927734 C216.61048028 244.10140153 209.88414513 238.14111403 202.625 232.4375 C201.47348449 231.51882279 200.32246489 230.59952373 199.171875 229.6796875 C192.48485957 224.35335965 185.74213812 219.18225874 178.625 214.4375 C178.00753906 214.025 177.39007812 213.6125 176.75390625 213.1875 C167.61687491 207.10766062 158.42179194 201.41090086 148.625 196.4375 C147.98675293 196.11152832 147.34850586 195.78555664 146.69091797 195.44970703 C135.86698914 189.93015147 125.02949681 184.65532351 113.625 180.4375 C112.44164062 179.98890625 111.25828125 179.5403125 110.0390625 179.078125 C90.46845029 171.81839445 70.18610834 166.90244445 49.625 163.4375 C47.79582031 163.11652344 47.79582031 163.11652344 45.9296875 162.7890625 C31.05867669 160.31653299 16.15589924 160.23430913 1.125 160.25 C-0.33999939 160.25040787 -0.33999939 160.25040787 -1.83459473 160.25082397 C-20.56514954 160.27484145 -38.8058531 161.02753734 -57.17089844 164.96923828 C-59.66465031 165.49903625 -62.16401259 165.99688535 -64.6640625 166.49609375 C-95.21549096 172.71754228 -124.16081408 183.16086556 -151.375 198.4375 C-152.58788095 199.09886938 -153.80138972 199.75908915 -155.015625 200.41796875 C-188.24085319 218.81321495 -219.74200301 244.62622409 -243.375 274.4375 C-244.44814453 275.70980469 -244.44814453 275.70980469 -245.54296875 277.0078125 C-255.33561693 288.62033334 -263.66767853 301.36588278 -271.375 314.4375 C-271.72240234 315.02402344 -272.06980469 315.61054688 -272.42773438 316.21484375 C-289.08347782 344.50269528 -302.80164549 375.95967874 -308.375 408.4375 C-308.70272964 410.06363941 -309.03558916 411.68875852 -309.375 413.3125 C-309.71149524 415.02021334 -310.04440856 416.72863395 -310.375 418.4375 C-310.6121875 419.64277344 -310.849375 420.84804688 -311.09375 422.08984375 C-318.37999555 460.21063567 -318.07539065 502.52211337 -309.375 540.4375 C-309.15070313 541.50484375 -308.92640625 542.5721875 -308.6953125 543.671875 C-305.71891788 557.38335585 -301.45052123 570.68156075 -296.61035156 583.83813477 C-296.31999023 584.64049561 -296.02962891 585.44285645 -295.73046875 586.26953125 C-295.46903076 586.97827393 -295.20759277 587.6870166 -294.93823242 588.41723633 C-294.375 590.4375 -294.375 590.4375 -294.375 594.4375 C-293.715 594.4375 -293.055 594.4375 -292.375 594.4375 C-292.08109375 595.35015625 -292.08109375 595.35015625 -291.78125 596.28125 C-289.47076728 603.05335451 -286.55081476 609.34228669 -283.28125 615.68945312 C-281.1271425 619.87613288 -279.18304153 624.08918829 -277.375 628.4375 C-283.74089491 633.01647704 -290.49600719 636.78056464 -297.35913086 640.54345703 C-303.55721961 643.95231013 -309.62176804 647.53844322 -315.65234375 651.234375 C-319.51320415 653.5601815 -323.47430667 655.69318689 -327.43676758 657.83984375 C-332.39847555 660.53775958 -337.3232397 663.3014257 -342.25 666.0625 C-343.33571289 666.67077637 -344.42142578 667.27905273 -345.54003906 667.90576172 C-354.99393577 673.20994186 -364.41121718 678.57637629 -373.81445312 683.96972656 C-379.02791388 686.95822066 -384.24662375 689.93755215 -389.46582031 692.91601562 C-394.04546648 695.53049584 -398.61991209 698.15356427 -403.1875 700.7890625 C-404.13947266 701.33691406 -405.09144531 701.88476562 -406.07226562 702.44921875 C-407.89541452 703.49864104 -409.71711155 704.55059106 -411.53710938 705.60546875 C-412.36017578 706.07855469 -413.18324219 706.55164063 -414.03125 707.0390625 C-415.11116211 707.66288818 -415.11116211 707.66288818 -416.21289062 708.29931641 C-418.54476868 709.5268701 -420.91425561 710.49881552 -423.375 711.4375 C-428.75704472 705.51725081 -429.67772417 699.38855969 -429.63506222 691.60027885 C-429.63886789 690.83801691 -429.64267356 690.07575497 -429.64659455 689.29039419 C-429.65689073 686.73933355 -429.65300782 684.18849624 -429.64915466 681.63742065 C-429.65360814 679.78860671 -429.65892255 677.93979466 -429.66502339 676.09098542 C-429.67920071 671.01257748 -429.68086673 665.93423076 -429.68042648 660.85580587 C-429.68207492 655.37777027 -429.69514198 649.89975986 -429.70661926 644.42173767 C-429.72946639 632.44438892 -429.73738958 620.46705789 -429.74244571 608.4896903 C-429.74570308 601.00973719 -429.75222581 593.52978922 -429.7594471 586.04983902 C-429.77901271 565.33627691 -429.79549842 544.62271924 -429.79832363 523.90914726 C-429.79841769 523.24683296 -429.79851175 522.58451865 -429.79860866 521.90213422 C-429.79898714 519.21815677 -429.79935113 516.53417931 -429.79971164 513.85020186 C-429.79998336 511.83014759 -429.80026004 509.81009333 -429.80053711 507.79003906 C-429.80062513 507.12253477 -429.80071315 506.45503047 -429.80080384 505.76729877 C-429.80370838 484.80055352 -429.82579725 463.83390052 -429.86206055 442.8671875 C-429.90281712 419.30204179 -429.92646285 395.73694126 -429.92678314 372.17175496 C-429.92736763 359.69812129 -429.93585408 347.22460636 -429.96478081 334.75100327 C-429.98929966 324.12935147 -429.99657407 313.50786171 -429.98153328 302.88618927 C-429.97436654 297.46884869 -429.97521206 292.05182806 -429.99794388 286.63452339 C-430.01857636 281.66986426 -430.01589342 276.70577019 -429.99506903 271.7411169 C-429.99158233 269.95038911 -429.9964492 268.15962019 -430.01077347 266.3689463 C-430.1163522 252.25469081 -428.22421405 240.35248721 -418.375 229.4375 C-417.55370605 228.50828735 -417.55370605 228.50828735 -416.71582031 227.56030273 C-411.42508491 221.93907329 -405.71957976 218.41601105 -398.9375 214.8125 C-396.69901968 213.59151073 -394.46074411 212.37014601 -392.22265625 211.1484375 C-391.0845752 210.53323242 -389.94649414 209.91802734 -388.77392578 209.28417969 C-383.44433085 206.38854285 -378.16135646 203.41110163 -372.875 200.4375 C-370.79191125 199.27039669 -368.70857723 198.10373103 -366.625 196.9375 C-365.59375 196.36 -364.5625 195.7825 -363.5 195.1875 C-268.70833333 142.10416667 -173.91666667 89.02083333 -79.125 35.9375 C-77.5769165 35.0705249 -77.5769165 35.0705249 -75.99755859 34.18603516 C-73.92247437 33.02405289 -71.84727975 31.86226775 -69.77197266 30.70068359 C-64.43648716 27.71398527 -59.1031951 24.72347185 -53.7734375 21.7265625 C-48.55091362 18.79078517 -43.32214638 15.86646669 -38.08789062 12.95166016 C-36.39159457 12.00489737 -34.69724807 11.05462324 -33.00585938 10.09912109 C-21.9472759 3.85288298 -12.75011991 0.25168022 0 0 Z " fill="#659AD0" transform="translate(429.375,-0.4375)"/>
<path d="M0 0 C0.35626465 0.67587158 0.7125293 1.35174316 1.07958984 2.0480957 C4.61804132 8.66104286 8.43411178 14.97007924 12.625 21.1875 C13.23255127 22.09169678 13.84010254 22.99589355 14.46606445 23.92749023 C22.46334619 35.74054339 30.75747923 47.02288397 40.5546875 57.40625 C42.58407913 59.55883154 44.52456662 61.74514133 46.4375 64 C53.61889391 72.26896078 61.57617064 80.00822163 70 87 C70.51949219 87.43860352 71.03898438 87.87720703 71.57421875 88.32910156 C93.44639747 106.76111973 117.17732113 121.7372871 143 134 C143.72380859 134.35126953 144.44761719 134.70253906 145.19335938 135.06445312 C166.49842661 145.36281044 188.82760175 152.36380005 212 157 C213.77611761 157.37203344 215.55215924 157.74442985 217.328125 158.1171875 C219.09333212 158.47602016 220.85894487 158.83286447 222.625 159.1875 C223.37442871 159.34259033 224.12385742 159.49768066 224.89599609 159.6574707 C241.40697474 162.83132843 258.11252422 163.34654884 274.875 163.25 C275.8393396 163.24689819 276.8036792 163.24379639 277.79724121 163.24060059 C291.61564383 163.18852909 305.30094788 162.97017031 319 161 C319.91378418 160.87641113 320.82756836 160.75282227 321.76904297 160.62548828 C352.68788957 156.35206753 382.83651215 147.4580154 411 134 C411.6811084 133.67531738 412.3622168 133.35063477 413.06396484 133.01611328 C451.75052663 114.42694738 488.36956649 88.12451585 516 55 C516.45213867 54.46165527 516.90427734 53.92331055 517.37011719 53.36865234 C528.03264469 40.63153084 538.00342935 27.3952725 546.5 13.1015625 C548.10702005 10.85006045 549.77182766 9.60823729 552 8 C552.66 7.01 553.32 6.02 554 5 C565.52164009 10.18678815 565.52164009 10.18678815 571 13 C571 13.66 571 14.32 571 15 C572.051875 15.2475 573.10375 15.495 574.1875 15.75 C576.81052416 16.36718215 578.12502233 17.10162127 580.25390625 18.83203125 C583.5529506 21.43653994 586.97498438 23.12935885 590.75 24.9375 C592.18558121 25.64052926 593.62048307 26.34494755 595.0546875 27.05078125 C595.73885742 27.38674316 596.42302734 27.72270508 597.12792969 28.06884766 C603.50856784 31.24252448 609.58596921 34.91843518 615.640625 38.66796875 C618.03387188 40.01912303 620.42857713 41.03799605 623 42 C623 42.66 623 43.32 623 44 C624.093125 44.103125 625.18625 44.20625 626.3125 44.3125 C630.24752984 45.04614963 630.45730991 45.34590339 633 48 C634.89854348 49.09265895 634.89854348 49.09265895 636.9375 50 C639.19117443 51.07766614 641.06500627 52.04924718 643.0625 53.5625 C645.20878877 55.15490779 647.42948853 56.05280299 649.890625 57.0625 C656.09298642 59.81910508 661.96424233 63.34193334 667.75 66.875 C674.33555996 70.88174846 681.17838639 74.41637899 688 78 C688 78.66 688 79.32 688 80 C689.98 80.33 691.96 80.66 694 81 C694 81.66 694 82.32 694 83 C696.31 83.33 698.62 83.66 701 84 C698.06170523 92.48338439 691.52933356 98.35056693 683.97265625 102.87890625 C683.40798645 103.21860443 682.84331665 103.55830261 682.26153564 103.90829468 C676.33407582 107.44935988 670.30162251 110.80178957 664.25 114.125 C662.47488877 115.10473526 660.70043543 116.0856553 658.92599487 117.06660461 C657.72088691 117.73271695 656.51558514 118.39847877 655.31008911 119.06388855 C649.31797021 122.37221895 643.34496856 125.71438125 637.375 129.0625 C636.35390137 129.63492432 635.33280273 130.20734863 634.28076172 130.79711914 C632.22096552 131.95187308 630.16123229 133.10673936 628.1015625 134.26171875 C624.96447836 136.01990823 621.82618127 137.77591344 618.6875 139.53125 C608.61295558 145.16636258 598.5459189 150.81398918 588.5 156.5 C577.40527296 162.77963839 566.28386607 169.01100698 555.15722656 175.23388672 C549.93706291 178.15398136 544.71859227 181.07709832 539.5 184 C533.22741152 187.51323852 526.95445881 191.02581749 520.6796875 194.53515625 C510.60795878 200.16934113 500.54338657 205.81542249 490.5 211.5 C479.40527296 217.77963839 468.28386607 224.01100698 457.15722656 230.23388672 C451.93706291 233.15398136 446.71859227 236.07709832 441.5 239 C435.22741152 242.51323852 428.95445881 246.02581749 422.6796875 249.53515625 C412.60795878 255.16934113 402.54338657 260.81542249 392.5 266.5 C381.40527296 272.77963839 370.28386607 279.01100698 359.15722656 285.23388672 C354.9764903 287.5725386 350.79685957 289.91316134 346.61743164 292.25415039 C344.54653835 293.41390902 342.47541364 294.57325449 340.40405273 295.73217773 C335.02888963 298.74008704 329.65788026 301.75508883 324.29296875 304.78125 C322.63394531 305.71517578 322.63394531 305.71517578 320.94140625 306.66796875 C318.85025613 307.84533899 316.76030811 309.02484826 314.671875 310.20703125 C291.30241579 323.35039153 291.30241579 323.35039153 277.3125 323.375 C276.59900391 323.39949219 275.88550781 323.42398437 275.15039062 323.44921875 C262.56435865 323.51551918 251.76921707 317.66620943 241.125 311.5625 C239.85056484 310.84409618 238.57548799 310.12682965 237.29980469 309.41064453 C234.11636795 307.61988609 230.94099386 305.81537123 227.76794434 304.00628662 C225.14419657 302.5128899 222.51354881 301.03182388 219.8828125 299.55078125 C216.13989663 297.44202399 212.4005117 295.32722465 208.6640625 293.20703125 C202.66278719 289.80449444 196.64537118 286.43110769 190.625 283.0625 C189.58569336 282.48097168 188.54638672 281.89944336 187.47558594 281.30029297 C185.36953208 280.12211521 183.26341212 278.94405559 181.15722656 277.76611328 C174.89671092 274.26405868 168.63851388 270.75786247 162.37988281 267.25244141 C157.14724952 264.32187215 151.91405778 261.39230956 146.6796875 258.46484375 C135.65829479 252.2994112 124.64954681 246.1126603 113.65917969 239.89208984 C102.46050486 233.55715696 91.22961975 227.2798583 80 221 C66.8708703 213.65789261 53.75034094 206.30171411 40.65917969 198.89208984 C30.51007325 193.15088304 20.33414242 187.4578339 10.15722656 181.76611328 C3.89671092 178.26405868 -2.36148612 174.75786247 -8.62011719 171.25244141 C-13.85275048 168.32187215 -19.08594222 165.39230956 -24.3203125 162.46484375 C-35.34170521 156.2994112 -46.35045319 150.1126603 -57.34082031 143.89208984 C-64.3424444 139.93136955 -71.35555968 135.991552 -78.375 132.0625 C-79.40818359 131.4840332 -80.44136719 130.90556641 -81.50585938 130.30957031 C-86.84756174 127.32000973 -92.19181713 124.33510369 -97.5390625 121.35546875 C-102.76235417 118.44348266 -107.97836345 115.51888472 -113.18798828 112.58251953 C-114.98373095 111.57192707 -116.78139758 110.56474071 -118.58154297 109.56201172 C-143.34345827 95.74641529 -143.34345827 95.74641529 -149 83 C-148.67 82.01 -148.34 81.02 -148 80 C-147.67 80.99 -147.34 81.98 -147 83 C-145.90836548 82.37508667 -145.90836548 82.37508667 -144.79467773 81.73754883 C-141.34264572 79.76190185 -137.89022249 77.78693995 -134.4375 75.8125 C-133.80297913 75.44963898 -133.16845825 75.08677795 -132.51470947 74.71292114 C-124.14860484 69.92975183 -115.77101364 65.16803694 -107.375 60.4375 C-99.22081822 55.8415326 -91.10252207 51.18640751 -83 46.5 C-69.13424306 38.48108845 -55.19261028 30.60046665 -41.2265625 22.7578125 C-39.29662295 21.67232302 -37.3669343 20.58638731 -35.4375 19.5 C-34.03298584 18.70952271 -34.03298584 18.70952271 -32.60009766 17.90307617 C-24.60105931 13.38131143 -16.69386419 8.71021046 -8.82788086 3.9609375 C-7.96042236 3.44144531 -7.09296387 2.92195312 -6.19921875 2.38671875 C-5.43440186 1.92483154 -4.66958496 1.46294434 -3.8815918 0.98706055 C-2 0 -2 0 0 0 Z " fill="#004480" transform="translate(153,628)"/>
<path d="M0 0 C0.88558594 0.50789063 1.77117187 1.01578125 2.68359375 1.5390625 C14.4565671 8.64133171 25.73510431 17.83496041 35 28 C35.56460937 28.60714844 36.12921875 29.21429688 36.7109375 29.83984375 C43.38954971 37.22862513 49.62588557 45.0325991 54 54 C50.12681398 56.27393792 46.25113689 58.54359634 42.375 60.8125 C41.28058594 61.45509766 40.18617188 62.09769531 39.05859375 62.75976562 C37.99511719 63.38173828 36.93164062 64.00371094 35.8359375 64.64453125 C34.86188965 65.21534424 33.8878418 65.78615723 32.88427734 66.37426758 C29.96703805 68.01857911 26.99515354 69.50353925 24 71 C22.31909283 71.95733893 20.64828987 72.93264575 18.98828125 73.92578125 C18.06466797 74.47556641 17.14105469 75.02535156 16.18945312 75.59179688 C15.24005859 76.15962891 14.29066406 76.72746094 13.3125 77.3125 C6.77680524 81.22123498 0.20765075 85.02353852 -6.49243164 88.64428711 C-9.8066685 90.43612406 -13.09337773 92.27429944 -16.375 94.125 C-17.03798096 94.49842529 -17.70096191 94.87185059 -18.3840332 95.2565918 C-29.41137132 101.47821217 -40.39138512 107.78366463 -51.375 114.08203125 C-60.62511578 119.38232643 -69.89288117 124.64428336 -79.22924805 129.79150391 C-79.91672119 130.17097168 -80.60419434 130.55043945 -81.3125 130.94140625 C-82.2715625 131.46951904 -82.2715625 131.46951904 -83.25 132.00830078 C-84.79776897 132.88539866 -86.30861194 133.82697005 -87.8125 134.77734375 C-90 136 -90 136 -93 136 C-93 136.66 -93 137.32 -93 138 C-93.66829834 138.3717334 -94.33659668 138.7434668 -95.02514648 139.12646484 C-107.75758798 146.21521369 -120.4533514 153.34569741 -132.97753906 160.796875 C-142.89836959 166.69859552 -152.8254397 172.54351872 -163 178 C-170.44182959 181.99416159 -177.75159622 186.16537217 -185 190.5 C-192.24908603 194.83503582 -199.56558998 198.99117856 -207 203 C-208.28327602 203.70441193 -209.56593147 204.40995692 -210.84765625 205.1171875 C-211.90855469 205.69726562 -212.96945312 206.27734375 -214.0625 206.875 C-215.68865234 207.76832031 -215.68865234 207.76832031 -217.34765625 208.6796875 C-220 210 -220 210 -222 210 C-232.06383481 187.02548876 -239.18823258 164.83681173 -239.18530273 139.49365234 C-239.18747355 137.40050419 -239.20563537 135.30789803 -239.22460938 133.21484375 C-239.33695809 106.95894798 -232.97079003 77.96718939 -218 56 C-217.38382812 55.0409375 -216.76765625 54.081875 -216.1328125 53.09375 C-208.78489376 41.7716651 -200.23029424 31.79693589 -191 22 C-190.43925781 21.39027344 -189.87851562 20.78054688 -189.30078125 20.15234375 C-188 19 -188 19 -186 19 C-185.67 18.01 -185.34 17.02 -185 16 C-182.8279301 14.18498269 -180.67141717 12.51851705 -178.375 10.875 C-177.70637939 10.39144043 -177.03775879 9.90788086 -176.34887695 9.40966797 C-123.54136423 -28.23321219 -56.37041795 -32.82704181 0 0 Z " fill="#659AD0" transform="translate(511,339)"/>
<path d="M0 0 C5.75 0.875 5.75 0.875 8 2 C8 2.66 8 3.32 8 4 C9.10214844 4.17402344 9.10214844 4.17402344 10.2265625 4.3515625 C13.02381884 5.00556891 14.92008286 5.91268474 17.375 7.375 C20.16347389 8.99231486 22.88036986 10.43222359 25.875 11.625 C29 13 29 13 30.24609375 14.33984375 C32.86553922 16.81927431 36.00963685 18.29393858 39.1875 19.9375 C39.86079346 20.29158936 40.53408691 20.64567871 41.2277832 21.01049805 C44.69158443 22.82582596 48.17373203 24.5955452 51.6875 26.3125 C55 28 55 28 57.0625 29.5625 C59.20878877 31.15490779 61.42948853 32.05280299 63.890625 33.0625 C70.20444976 35.86864434 76.1718191 39.46881417 82.0625 43.0625 C86.9054328 46.00533476 91.90265205 48.53181047 97 51 C98.33424284 51.66484455 99.66788543 52.33090136 101 53 C101 53.66 101 54.32 101 55 C102.3921875 55.185625 102.3921875 55.185625 103.8125 55.375 C107 56 107 56 110 58 C110 58.66 110 59.32 110 60 C112.31 60.66 114.62 61.32 117 62 C117 62.66 117 63.32 117 64 C118.60875 64.4021875 118.60875 64.4021875 120.25 64.8125 C123.64762895 65.88841583 125.292862 66.85295952 128 69 C130.14733927 69.70514846 130.14733927 69.70514846 132 70 C132 70.66 132 71.32 132 72 C133.65 72.33 135.3 72.66 137 73 C137 73.66 137 74.32 137 75 C137.86625 75.103125 138.7325 75.20625 139.625 75.3125 C143.16683123 76.03398414 145.84312042 77.27123261 149 79 C148.34 79.33 147.68 79.66 147 80 C146.73703125 80.69351563 146.4740625 81.38703125 146.203125 82.1015625 C144.59422676 85.97754462 142.27262077 89.04108818 139.75 92.375 C138.95807251 93.42240356 138.95807251 93.42240356 138.15014648 94.4909668 C112.86502909 127.3405454 76.59504402 150.59502246 35.17578125 156.4921875 C33.78461227 156.66757986 32.39262871 156.83660206 31 157 C30.21882812 157.0935376 29.43765625 157.1870752 28.6328125 157.28344727 C-12.57031973 161.83956285 -53.27555509 150.34820016 -86 125 C-86.96292969 124.26007813 -87.92585938 123.52015625 -88.91796875 122.7578125 C-105.81286837 109.36580462 -119.00478746 93.05431756 -129 74 C-125.89317645 70.68204455 -122.21311412 68.76291111 -118.25 66.625 C-116.6206227 65.73263038 -114.99174059 64.83935618 -113.36328125 63.9453125 C-112.49525879 63.4699707 -111.62723633 62.99462891 -110.73291016 62.50488281 C-105.94870616 59.87045067 -101.19240893 57.18685328 -96.4375 54.5 C-95.45773193 53.94666992 -94.47796387 53.39333984 -93.46850586 52.82324219 C-87.03189862 49.17767316 -80.64790696 45.4526964 -74.28979492 41.67236328 C-68.00174073 37.95487831 -61.59407972 34.46788785 -55.17919922 30.9753418 C-49.27777377 27.74607534 -43.55260395 24.32607779 -37.8515625 20.75390625 C-34.35633078 18.60409935 -30.78525985 16.6429444 -27.1640625 14.71484375 C-24.59518003 13.32257288 -22.0574072 11.89534926 -19.5234375 10.44140625 C-18.72703857 9.98813965 -17.93063965 9.53487305 -17.11010742 9.06787109 C-15.52554946 8.16500999 -13.9447939 7.25543411 -12.3684082 6.33837891 C-8.23005606 3.99417287 -4.83474271 2.40737896 0 2 C0 1.34 0 0.68 0 0 Z " fill="#004481" transform="translate(419,476)"/>
<path d="M0 0 C15.95028602 2.62877765 32.94879213 1.54577993 49 0.0625 C49 0.7225 49 1.3825 49 2.0625 C31.42744459 4.88216505 12.51700498 5.85628985 -5 2.0625 C-5.66 1.4025 -6.32 0.7425 -7 0.0625 C-4.27780377 -1.29859811 -2.98093688 -0.61967845 0 0 Z " fill="#1C4F7D" transform="translate(407,629.9375)"/>
<path d="M0 0 C1.32 0.66 2.64 1.32 4 2 C-13.16 1.67 -30.32 1.34 -48 1 C-48 0.67 -48 0.34 -48 0 C-39.88736982 -1.094784 -31.76028155 -1.36645643 -23.5871582 -1.61254883 C-21.17548238 -1.68787536 -18.76465554 -1.77842641 -16.35351562 -1.86914062 C-14.81252916 -1.91760309 -13.27151395 -1.96516152 -11.73046875 -2.01171875 C-11.01376511 -2.04077805 -10.29706146 -2.06983734 -9.55863953 -2.09977722 C-5.79086811 -2.19486802 -3.19870004 -2.03537567 0 0 Z " fill="#6C99C5" transform="translate(456,158)"/>
<path d="M0 0 C1.2372583 -0.0012085 1.2372583 -0.0012085 2.49951172 -0.00244141 C6.8119697 0.03757934 10.87960485 0.33432573 15.125 1.1875 C15.125 1.5175 15.125 1.8475 15.125 2.1875 C13.83251343 2.22508423 13.83251343 2.22508423 12.51391602 2.26342773 C9.27651571 2.35931688 6.03923661 2.45849786 2.80200195 2.55981445 C1.40848651 2.60277354 0.0149315 2.64447055 -1.37866211 2.68481445 C-8.92550793 2.90415228 -16.37707511 3.27311892 -23.875 4.1875 C-26.88749471 4.29080915 -29.85899586 4.23537308 -32.875 4.1875 C-29.82885763 1.14135763 -26.11427222 1.43810395 -22 1.0625 C-20.67524658 0.93621216 -20.67524658 0.93621216 -19.32373047 0.80737305 C-12.88011297 0.24505205 -6.46708732 0.00604288 0 0 Z " fill="#7CA3C8" transform="translate(430.875,316.8125)"/>
<path d="M0 0 C0.99 0 1.98 0 3 0 C3 0.66 3 1.32 3 2 C3.5775 1.67 4.155 1.34 4.75 1 C7 0 7 0 11 0 C11 0.99 11 1.98 11 3 C13.64 3 16.28 3 19 3 C19 3.33 19 3.66 19 4 C14.92896481 4.0250466 10.85796054 4.04302089 6.78686523 4.05493164 C5.40697446 4.05990624 4.02708879 4.06668832 2.6472168 4.07543945 C-5.63093324 4.12655771 -13.77282454 3.96057715 -22 3 C-22 2.67 -22 2.34 -22 2 C-15.07 2 -8.14 2 -1 2 C-0.67 1.34 -0.34 0.68 0 0 Z " fill="#DFF5F9" transform="translate(417,788)"/>
<path d="M0 0 C15.74487472 -0.18451025 15.74487472 -0.18451025 23 1 C22 3 22 3 20.265625 3.62109375 C17.71855716 4.04706889 15.33143831 4.09646629 12.75 4.0625 C11.85796875 4.05347656 10.9659375 4.04445313 10.046875 4.03515625 C9.37140625 4.02355469 8.6959375 4.01195312 8 4 C7.67 3.34 7.34 2.68 7 2 C4.67843403 1.59270772 2.3431213 1.25561323 0 1 C0 0.67 0 0.34 0 0 Z " fill="#0F406E" transform="translate(404,792)"/>
<path d="M0 0 C0.70189453 0.00902344 1.40378906 0.01804688 2.12695312 0.02734375 C3.85561525 0.05086296 5.58410145 0.08673287 7.3125 0.125 C7.3125 0.455 7.3125 0.785 7.3125 1.125 C3.58348307 1.93818824 -0.14573952 2.75042948 -3.875 3.5625 C-5.45764648 3.90764648 -5.45764648 3.90764648 -7.07226562 4.25976562 C-8.60463867 4.59331055 -8.60463867 4.59331055 -10.16796875 4.93359375 C-11.10535889 5.13782959 -12.04274902 5.34206543 -13.00854492 5.55249023 C-15.56419614 6.09864918 -18.12367713 6.61874156 -20.6875 7.125 C-20.6875 6.465 -20.6875 5.805 -20.6875 5.125 C-20.00042969 4.93164062 -19.31335938 4.73828125 -18.60546875 4.5390625 C-17.70441406 4.27867187 -16.80335938 4.01828125 -15.875 3.75 C-14.98167969 3.49476563 -14.08835937 3.23953125 -13.16796875 2.9765625 C-4.20066363 -0.10197689 -4.20066363 -0.10197689 0 0 Z " fill="#7A9FC6" transform="translate(362.6875,163.875)"/>
<path d="M0 0 C0.99 0.33 1.98 0.66 3 1 C0.89817699 2.96090192 -1.20632283 4.91878444 -3.3125 6.875 C-4.20485352 7.70837891 -4.20485352 7.70837891 -5.11523438 8.55859375 C-5.69208984 9.09355469 -6.26894531 9.62851563 -6.86328125 10.1796875 C-7.39219971 10.67194824 -7.92111816 11.16420898 -8.46606445 11.67138672 C-10 13 -10 13 -13 15 C-13 14.01 -13 13.02 -13 12 C-13.66 11.67 -14.32 11.34 -15 11 C-14 10 -14 10 -11.4375 9.9375 C-10.633125 9.958125 -9.82875 9.97875 -9 10 C-8.67 8.68 -8.34 7.36 -8 6 C-7.38125 5.9175 -6.7625 5.835 -6.125 5.75 C-3.8234856 5.20005805 -3.8234856 5.20005805 -2.875 3 C-2.58625 2.34 -2.2975 1.68 -2 1 C-1.34 0.67 -0.68 0.34 0 0 Z " fill="#799FC8" transform="translate(217,238)"/>
<path d="M0 0 C0 0.33 0 0.66 0 1 C-19.8 0.505 -19.8 0.505 -40 0 C-40 -0.33 -40 -0.66 -40 -1 C-35.42892458 -1.19350491 -30.85759033 -1.37201718 -26.28540039 -1.53710938 C-24.73250936 -1.59523985 -23.17976168 -1.65734981 -21.62719727 -1.72363281 C-19.38584531 -1.81861145 -17.14435505 -1.89891073 -14.90234375 -1.9765625 C-14.21663803 -2.00875885 -13.53093231 -2.0409552 -12.82444763 -2.0741272 C-8.09237014 -2.21872116 -4.43344762 -1.47697573 0 0 Z " fill="#8AABCD" transform="translate(460,159)"/>
<path d="M0 0 C0.33 0.99 0.66 1.98 1 3 C-0.29296875 4.97265625 -0.29296875 4.97265625 -2.1875 7.0625 C-2.79980469 7.75472656 -3.41210938 8.44695312 -4.04296875 9.16015625 C-5.96141597 10.96372639 -7.65280287 11.86876062 -10 13 C-11.26804566 15.0335948 -11.26804566 15.0335948 -12 17 C-12.66 16.67 -13.32 16.34 -14 16 C-11.85478186 13.52030041 -9.70872226 11.04133053 -7.5625 8.5625 C-6.95083984 7.85544922 -6.33917969 7.14839844 -5.70898438 6.41992188 C-5.12568359 5.74638672 -4.54238281 5.07285156 -3.94140625 4.37890625 C-3.13231812 3.44413452 -3.13231812 3.44413452 -2.30688477 2.49047852 C-1.5608583 1.63964878 -0.80014584 0.80014584 0 0 Z " fill="#E6F3FB" transform="translate(193,265)"/>
<path d="M0 0 C1.89646998 0.11493757 3.79218332 0.24239642 5.6875 0.375 C6.74324219 0.44460938 7.79898437 0.51421875 8.88671875 0.5859375 C11.90677269 0.98760089 14.24078054 1.74069019 17 3 C16.67 3.99 16.34 4.98 16 6 C13.69 6 11.38 6 9 6 C8.67 4.68 8.34 3.36 8 2 C5.36 2 2.72 2 0 2 C0 1.34 0 0.68 0 0 Z " fill="#7DA0C5" transform="translate(448,318)"/>
<path d="M0 0 C-2.90499087 1.40071625 -5.82535947 2.76584957 -8.75 4.125 C-9.575 4.52332031 -10.4 4.92164063 -11.25 5.33203125 C-12.04921875 5.69941406 -12.8484375 6.06679688 -13.671875 6.4453125 C-14.4050293 6.79094238 -15.13818359 7.13657227 -15.89355469 7.49267578 C-18 8 -18 8 -20.27050781 7.09716797 C-20.84124023 6.73510254 -21.41197266 6.37303711 -22 6 C-21.45730469 5.80664062 -20.91460938 5.61328125 -20.35546875 5.4140625 C-19.64003906 5.15367187 -18.92460938 4.89328125 -18.1875 4.625 C-17.47980469 4.36976563 -16.77210938 4.11453125 -16.04296875 3.8515625 C-13.75226641 2.9734231 -13.75226641 2.9734231 -11 1 C-6.8615887 -0.42963299 -4.19141717 -1.29887873 0 0 Z " fill="#DAF0F8" transform="translate(562,764)"/>
<path d="M0 0 C1.65 0 3.3 0 5 0 C0.53122354 5.08515942 -4.99809225 8.88789969 -11 12 C-11.66 11.67 -12.32 11.34 -13 11 C-12.67 10.01 -12.34 9.02 -12 8 C-10.824375 7.8453125 -10.824375 7.8453125 -9.625 7.6875 C-6.66954819 7.22404978 -6.66954819 7.22404978 -5 4 C-3.67479497 3.31731862 -2.34187818 2.6492959 -1 2 C-0.67 1.34 -0.34 0.68 0 0 Z " fill="#134B78" transform="translate(522,600)"/>
<path d="M0 0 C-3.07393213 3.07393213 -6.92636988 3.84749009 -11 5.1875 C-11.83273437 5.47302734 -12.66546875 5.75855469 -13.5234375 6.05273438 C-14.32007813 6.31763672 -15.11671875 6.58253906 -15.9375 6.85546875 C-17.03384766 7.22128052 -17.03384766 7.22128052 -18.15234375 7.59448242 C-20 8 -20 8 -22 7 C-18.33708062 4.52214277 -15.3890815 3.51035831 -11 3 C-11 2.34 -11 1.68 -11 1 C-7.27569643 0.30710631 -3.78916254 -0.11144596 0 0 Z " fill="#739AC5" transform="translate(336,172)"/>
<path d="M0 0 C2.26014575 4.20952146 3.07757286 8.34561573 4 13 C4.19980469 13.96550781 4.39960937 14.93101562 4.60546875 15.92578125 C4.79753906 16.89902344 4.98960938 17.87226562 5.1875 18.875 C5.36667969 19.77992188 5.54585938 20.68484375 5.73046875 21.6171875 C6 24 6 24 5 27 C-0.33866995 7.95874384 -0.33866995 7.95874384 0 0 Z " fill="#DBEFFA" transform="translate(119,533)"/>
<path d="M0 0 C-0.8125 1.9375 -0.8125 1.9375 -2 4 C-2.99 4.33 -3.98 4.66 -5 5 C-5.33 4.67 -5.66 4.34 -6 4 C-8.34987262 3.76472227 -10.70556039 3.58613583 -13.0625 3.4375 C-14.35285156 3.35371094 -15.64320313 3.26992188 -16.97265625 3.18359375 C-18.47119141 3.09271484 -18.47119141 3.09271484 -20 3 C-20 2.67 -20 2.34 -20 2 C-17.04181155 1.66533626 -14.08346412 1.33220993 -11.125 1 C-10.28324219 0.90460937 -9.44148438 0.80921875 -8.57421875 0.7109375 C-7.36572266 0.57558594 -7.36572266 0.57558594 -6.1328125 0.4375 C-5.38918457 0.35371094 -4.64555664 0.26992188 -3.87939453 0.18359375 C-2 0 -2 0 0 0 Z " fill="#D0EBF4" transform="translate(460,631)"/>
<path d="M0 0 C2.64 0.66 5.28 1.32 8 2 C8 2.66 8 3.32 8 4 C8.804375 4.185625 8.804375 4.185625 9.625 4.375 C12.4638286 5.12206016 15.22223202 6.05303364 18 7 C17.67 7.99 17.34 8.98 17 10 C14.35043907 8.71554544 11.70546207 7.42290321 9.0625 6.125 C8.30775391 5.76019531 7.55300781 5.39539063 6.77539062 5.01953125 C5.69741211 4.48779297 5.69741211 4.48779297 4.59765625 3.9453125 C3.93258057 3.62062988 3.26750488 3.29594727 2.58227539 2.96142578 C1 2 1 2 0 0 Z " fill="#216697" transform="translate(672,613)"/>
<path d="M0 0 C1.39035371 4.17106112 -0.09769194 7.18206859 -1.4375 11.1875 C-1.68048828 11.93708984 -1.92347656 12.68667969 -2.17382812 13.45898438 C-2.77465056 15.30857501 -3.38629678 17.15464327 -4 19 C-5.0219601 15.81815261 -4.94954615 13.67756672 -4.1875 10.4375 C-4.01605469 9.67308594 -3.84460938 8.90867187 -3.66796875 8.12109375 C-3 6 -3 6 -1 3 C-1.66 2.67 -2.32 2.34 -3 2 C-2.01 1.34 -1.02 0.68 0 0 Z " fill="#769AC1" transform="translate(128,374)"/>
<path d="M0 0 C-1.72497364 2.29996485 -3.04635934 3.81771456 -5.94140625 4.37109375 C-11.38106379 4.5413961 -11.38106379 4.5413961 -13.74609375 2.47265625 C-14.15988281 1.98667969 -14.57367188 1.50070312 -15 1 C-13.43784452 0.83013455 -11.8752548 0.66426036 -10.3125 0.5 C-9.44238281 0.4071875 -8.57226562 0.314375 -7.67578125 0.21875 C-5.10276661 0.00840136 -2.58015636 -0.03719144 0 0 Z " fill="#12416C" transform="translate(446,792)"/>
<path d="M0 0 C0 0.66 0 1.32 0 2 C-1.98 2.33 -3.96 2.66 -6 3 C-6.33 3.99 -6.66 4.98 -7 6 C-9.875 7.3125 -9.875 7.3125 -13 8 C-13.99 7.34 -14.98 6.68 -16 6 C-13.7101766 4.9955866 -11.4183401 3.99632388 -9.125 3 C-8.14853516 2.57074219 -8.14853516 2.57074219 -7.15234375 2.1328125 C-2.2265625 0 -2.2265625 0 0 0 Z " fill="#194D79" transform="translate(560,765)"/>
<path d="M0 0 C0 4.07211906 -1.5535064 5.1414603 -4.25 8.125 C-5.43335938 9.45917969 -5.43335938 9.45917969 -6.640625 10.8203125 C-8.90987032 12.9167345 -9.99179674 13.65502256 -13 14 C-8.88380164 9.08064098 -4.59589638 4.47352044 0 0 Z " fill="#E2F2FB" transform="translate(207,250)"/>
<path d="M0 0 C0.66 0.33 1.32 0.66 2 1 C1.45730469 1.45890625 0.91460937 1.9178125 0.35546875 2.390625 C-0.35996094 3.00421875 -1.07539063 3.6178125 -1.8125 4.25 C-2.52019531 4.85328125 -3.22789062 5.4565625 -3.95703125 6.078125 C-6.05327496 7.93124557 -6.05327496 7.93124557 -7.59375 10.1875 C-9 12 -9 12 -11.6875 12.75 C-12.450625 12.8325 -13.21375 12.915 -14 13 C-9.55618306 8.41283413 -4.79771501 4.21237287 0 0 Z " fill="#E5F6FC" transform="translate(235,225)"/>
<path d="M0 0 C0.33 0 0.66 0 1 0 C1 1.65 1 3.3 1 5 C0.01 4.67 -0.98 4.34 -2 4 C-2.2475 4.928125 -2.495 5.85625 -2.75 6.8125 C-4.06454245 10.16458325 -4.97963384 11.1877803 -8 13 C-8.66 12.67 -9.32 12.34 -10 12 C-8.35767739 9.99702215 -6.71138756 7.99756092 -5.0625 6 C-4.59392578 5.42765625 -4.12535156 4.8553125 -3.64257812 4.265625 C-2.45065672 2.82502935 -1.22767412 1.41025129 0 0 Z " fill="#184C77" transform="translate(679,671)"/>
<path d="M0 0 C0.66 0 1.32 0 2 0 C2.33 0.66 2.66 1.32 3 2 C3.804375 2.474375 4.60875 2.94875 5.4375 3.4375 C8 5 8 5 10 8 C8.515 10.475 8.515 10.475 7 13 C6.34 12.67 5.68 12.34 5 12 C5.66 10.35 6.32 8.7 7 7 C4.03 5.35 1.06 3.7 -2 2 C-1.34 1.34 -0.68 0.68 0 0 Z " fill="#205E93" transform="translate(697,625)"/>
<path d="M0 0 C3.91211733 1.15585285 6.8745041 2.35534962 10 5 C9.11248047 4.82210937 9.11248047 4.82210937 8.20703125 4.640625 C2.82034784 3.70518746 2.82034784 3.70518746 -2.0625 5.9375 C-3.0215625 6.9584375 -3.0215625 6.9584375 -4 8 C-2.87548273 5.0280615 -1.77706209 2.66559313 0 0 Z " fill="#DDF3FA" transform="translate(566,556)"/>
<path d="M0 0 C5.96652354 1.57013777 10.82909025 4.75029782 16 8 C15.01 8.33 14.02 8.66 13 9 C11.09765625 8.0390625 11.09765625 8.0390625 9.0625 6.625 C6.14270173 4.6103859 6.14270173 4.6103859 2.80859375 3.5234375 C1.91333984 3.26433594 1.91333984 3.26433594 1 3 C0.67 2.01 0.34 1.02 0 0 Z " fill="#7A9EC6" transform="translate(496,332)"/>
<path d="M0 0 C-2.64 3.3 -5.28 6.6 -8 10 C-9.06826637 5.72693453 -9.13619149 4.68978531 -7 1 C-2.71428571 -1.35714286 -2.71428571 -1.35714286 0 0 Z " fill="#799AC9" transform="translate(195,263)"/>
<path d="M0 0 C0 3.68072261 -0.73731743 4.19508747 -3.25 6.75 C-3.85328125 7.38421875 -4.4565625 8.0184375 -5.078125 8.671875 C-5.71234375 9.11015625 -6.3465625 9.5484375 -7 10 C-8.32 9.67 -9.64 9.34 -11 9 C-7.37 6.03 -3.74 3.06 0 0 Z " fill="#E1F3FA" transform="translate(537,592)"/>
<path d="M0 0 C-6.93 3.465 -6.93 3.465 -14 7 C-13.34 5.68 -12.68 4.36 -12 3 C-11.01 3 -10.02 3 -9 3 C-9 2.34 -9 1.68 -9 1 C-3.375 -1.125 -3.375 -1.125 0 0 Z " fill="#DBF4FB" transform="translate(584,383)"/>
<path d="M0 0 C0.66 0 1.32 0 2 0 C1.52591957 4.26672384 -0.88307122 6.2455048 -4 9 C-5.3173 9.69781297 -6.64818622 10.37165159 -8 11 C-7.04454634 9.53977837 -6.08553322 8.08188532 -5.125 6.625 C-4.59132813 5.81289063 -4.05765625 5.00078125 -3.5078125 4.1640625 C-2 2 -2 2 0 0 Z " fill="#1B507B" transform="translate(689,658)"/>
<path d="M0 0 C1.20220203 3.53094302 0.79532349 6.12898982 0.0625 9.75 C-0.13214844 10.73484375 -0.32679687 11.7196875 -0.52734375 12.734375 C-0.68332031 13.48203125 -0.83929688 14.2296875 -1 15 C-1.33 15 -1.66 15 -2 15 C-3.09644404 9.05542387 -3.41029848 5.32006564 0 0 Z " fill="#759BC1" transform="translate(119,406)"/>
<path d="M0 0 C0.99 0.33 1.98 0.66 3 1 C2.29875 1.391875 1.5975 1.78375 0.875 2.1875 C-2.36074432 4.22742577 -5.10257782 6.50686929 -8 9 C-8.66 8.34 -9.32 7.68 -10 7 C-6.81516089 4.36113331 -3.7101179 1.85505895 0 0 Z " fill="#065991" transform="translate(549,401)"/>
<path d="M0 0 C0 0.99 0 1.98 0 3 C-0.99 3.33 -1.98 3.66 -3 4 C-4.68538601 5.99665314 -4.68538601 5.99665314 -6 8 C-7.65 7.67 -9.3 7.34 -11 7 C-7.54319097 4.23455278 -3.85658398 2.15078722 0 0 Z " fill="#1D6396" transform="translate(673,331)"/>
<path d="M0 0 C1.65 0.99 3.3 1.98 5 3 C3.92598892 5.91517292 3.22189824 7.77810176 1 10 C0 2.25 0 2.25 0 0 Z " fill="#DDF4F9" transform="translate(700,629)"/>
<path d="M0 0 C1.66392986 2.54483391 2.01746843 3.79911303 1.75 6.875 C1.00153496 9.99360432 0.07835802 12.98059756 -1 16 C-1.33 16 -1.66 16 -2 16 C-2.20674944 10.21101581 -1.59162079 5.57067277 0 0 Z " fill="#DBF1F9" transform="translate(121,402)"/>
<path d="M0 0 C0.99 0.33 1.98 0.66 3 1 C1.57084149 2.34227046 0.13137328 3.67357096 -1.3125 5 C-2.11300781 5.7425 -2.91351563 6.485 -3.73828125 7.25 C-6 9 -6 9 -9 9 C-9 8.34 -9 7.68 -9 7 C-8.01 6.67 -7.02 6.34 -6 6 C-5.505 5.319375 -5.01 4.63875 -4.5 3.9375 C-4.005 3.298125 -3.51 2.65875 -3 2 C-2.01 2 -1.02 2 0 2 C0 1.34 0 0.68 0 0 Z " fill="#769BC7" transform="translate(232,225)"/>
<path d="M0 0 C0.33 0.66 0.66 1.32 1 2 C-0.40552299 3.03612271 -1.82491694 4.05344925 -3.25 5.0625 C-4.43335938 5.91521484 -4.43335938 5.91521484 -5.640625 6.78515625 C-8 8 -8 8 -12 7 C-8.04 4.69 -4.08 2.38 0 0 Z " fill="#1C507F" transform="translate(589,749)"/>
<path d="M0 0 C0.99 0.33 1.98 0.66 3 1 C-0.42388092 4.82669043 -3.00724943 6.72278474 -8 8 C-5.33333333 5.33333333 -2.66666667 2.66666667 0 0 Z " fill="#184B7C" transform="translate(633,718)"/>
<path d="M0 0 C0.33 0.66 0.66 1.32 1 2 C-4.75 6 -4.75 6 -7 6 C-7 6.66 -7 7.32 -7 8 C-8.98 8 -10.96 8 -13 8 C-10.20375042 5.81302498 -7.36692128 4.00847187 -4.25 2.3125 C-3.45078125 1.87550781 -2.6515625 1.43851563 -1.828125 0.98828125 C-1.22484375 0.66214844 -0.6215625 0.33601562 0 0 Z " fill="#D7ECF4" transform="translate(511,611)"/>
<path d="M0 0 C0 0.66 0 1.32 0 2 C0.66 2.33 1.32 2.66 2 3 C-1.28696233 3.79953138 -2.71023192 4.09658936 -6 3 C-6 3.66 -6 4.32 -6 5 C-7.65 5.33 -9.3 5.66 -11 6 C-9.68 5.34 -8.36 4.68 -7 4 C-7 3.34 -7 2.68 -7 2 C-2.25 0 -2.25 0 0 0 Z " fill="#125892" transform="translate(425,473)"/>
<path d="M0 0 C-3.41016497 2.86453858 -6.90694544 4.34703566 -11 6 C-10.8125 4.125 -10.8125 4.125 -10 2 C-6.62176024 0.12320013 -3.82367701 -0.21849583 0 0 Z " fill="#194E7C" transform="translate(502,616)"/>
<path d="M0 0 C5.05483038 -0.29734296 7.8619391 0.04424221 12 3 C12.66 3.33 13.32 3.66 14 4 C13.67 4.66 13.34 5.32 13 6 C8.71 4.35 4.42 2.7 0 1 C0 0.67 0 0.34 0 0 Z " fill="#E3F4FB" transform="translate(481,325)"/>
<path d="M0 0 C3.56660516 0.61141803 6.65415459 1.64357619 10 3 C10.66 3 11.32 3 12 3 C12.33 4.32 12.66 5.64 13 7 C8.1725201 5.58707905 4.2837641 3.57025846 0 1 C0 0.67 0 0.34 0 0 Z " fill="#1C6191" transform="translate(657,605)"/>
<path d="M0 0 C2.9719385 1.12451727 5.33440687 2.22293791 8 4 C8.66 3.34 9.32 2.68 10 2 C10 3.98 10 5.96 10 8 C6.25718301 5.61820737 3.02272532 3.25524265 0 0 Z " fill="#1D4C82" transform="translate(329,597)"/>
<path d="M0 0 C0 0.99 0 1.98 0 3 C-1.2065625 3.4640625 -1.2065625 3.4640625 -2.4375 3.9375 C-4.89080405 4.76335345 -4.89080405 4.76335345 -6 6 C-7.66617115 6.04063832 -9.33388095 6.042721 -11 6 C-3.28571429 0 -3.28571429 0 0 0 Z " fill="#1C649B" transform="translate(603,372)"/>
<path d="M0 0 C0.99 0.33 1.98 0.66 3 1 C1.35 4.3 -0.3 7.6 -2 11 C-2.33 11 -2.66 11 -3 11 C-3 9.02 -3 7.04 -3 5 C-2.34 4.67 -1.68 4.34 -1 4 C-0.34786708 1.97536745 -0.34786708 1.97536745 0 0 Z " fill="#7A9FC6" transform="translate(145,331)"/>
<path d="M0 0 C-3.78756477 3.61139896 -3.78756477 3.61139896 -6 5 C-8.875 4.8125 -8.875 4.8125 -11 4 C-4.14893617 -1.38297872 -4.14893617 -1.38297872 0 0 Z " fill="#0D5B96" transform="translate(826,246)"/>
<path d="M0 0 C0.33 0.99 0.66 1.98 1 3 C-0.97420135 5.52259061 -1.96745642 5.9929808 -5.1875 6.6875 C-6.5796875 6.8421875 -6.5796875 6.8421875 -8 7 C-8 6.34 -8 5.68 -8 5 C-6.25 3.7109375 -6.25 3.7109375 -4 2.375 C-3.2575 1.92898437 -2.515 1.48296875 -1.75 1.0234375 C-1.1725 0.68570313 -0.595 0.34796875 0 0 Z " fill="#0E5B98" transform="translate(848,230)"/>
<path d="M0 0 C0.75 1.5625 0.75 1.5625 1 4 C-0.36068323 7.22897886 -1.76639367 10.38319684 -5 12 C-3.68938409 7.76570244 -2.05643741 3.92592596 0 0 Z " fill="#88A8C9" transform="translate(291,398)"/>
<path d="M0 0 C0.33 0.66 0.66 1.32 1 2 C-1.06756277 4.7972908 -2.14440371 5.02692273 -5.6875 5.6875 C-6.780625 5.790625 -7.87375 5.89375 -9 6 C-6.11912454 3.59927045 -3.43595166 1.52708963 0 0 Z " fill="#1C6194" transform="translate(589,379)"/>
<path d="M0 0 C0.99 0.33 1.98 0.66 3 1 C0.36 3.64 -2.28 6.28 -5 9 C-5.33 8.01 -5.66 7.02 -6 6 C-5.34 6 -4.68 6 -4 6 C-3.34 4.68 -2.68 3.36 -2 2 C-1.34 2 -0.68 2 0 2 C0 1.34 0 0.68 0 0 Z " fill="#759DC4" transform="translate(201,253)"/>
<path d="M0 0 C-2.125 2.0625 -2.125 2.0625 -5 4 C-8.3125 3.75 -8.3125 3.75 -11 3 C-8.15930939 0.15930939 -3.81147953 -1.90573977 0 0 Z " fill="#E0F2FA" transform="translate(333,175)"/>
<path d="M0 0 C0 3 0 3 -1.6875 5.25 C-4 7 -4 7 -6.75 6.75 C-7.4925 6.5025 -8.235 6.255 -9 6 C-6.11964908 3.75972706 -3.15133488 1.83827868 0 0 Z " fill="#6C98C0" transform="translate(390,13)"/>
<path d="M0 0 C4.56278027 -0.36995516 4.56278027 -0.36995516 6.625 1.375 C7.07875 1.91125 7.5325 2.4475 8 3 C8.99 3.66 9.98 4.32 11 5 C10.67 5.66 10.34 6.32 10 7 C8.33073546 6.02526874 6.66464358 5.04510211 5 4.0625 C4.071875 3.51722656 3.14375 2.97195313 2.1875 2.41015625 C1.465625 1.94480469 0.74375 1.47945312 0 1 C0 0.67 0 0.34 0 0 Z " fill="#0C3F6F" transform="translate(271,869)"/>
<path d="M0 0 C1.26457031 0.12761719 2.52914063 0.25523437 3.83203125 0.38671875 C5.74048828 0.56654297 5.74048828 0.56654297 7.6875 0.75 C8.66332031 0.85699219 9.63914062 0.96398437 10.64453125 1.07421875 C10.64453125 1.40421875 10.64453125 1.73421875 10.64453125 2.07421875 C2.22953125 2.56921875 2.22953125 2.56921875 -6.35546875 3.07421875 C-3.35546875 0.07421875 -3.35546875 0.07421875 0 0 Z " fill="#DAF4FD" transform="translate(452.35546875,788.92578125)"/>
<path d="M0 0 C1.62418745 -0.08090971 3.24951745 -0.13914995 4.875 -0.1875 C5.77992188 -0.22230469 6.68484375 -0.25710938 7.6171875 -0.29296875 C8.79667969 -0.14794922 8.79667969 -0.14794922 10 0 C10.66 0.99 11.32 1.98 12 3 C3.96428571 2.19642857 3.96428571 2.19642857 0 0 Z " fill="#CEE7F3" transform="translate(351,782)"/>
<path d="M0 0 C3.58588324 0.38766305 6.69987921 1.58566252 10 3 C5.47907032 4.45606519 2.48351204 3.27032841 -2 2 C-1.34 1.34 -0.68 0.68 0 0 Z " fill="#2B5886" transform="translate(402,629)"/>
<path d="M0 0 C0.66 0 1.32 0 2 0 C3.6875 1.6875 3.6875 1.6875 5 4 C4.6875 6.75 4.6875 6.75 4 9 C3.34 8.34 2.68 7.68 2 7 C2 5.68 2 4.36 2 3 C1.34 3 0.68 3 0 3 C0 2.01 0 1.02 0 0 Z " fill="#E1F1F9" transform="translate(135,591)"/>
<path d="M0 0 C0.66 0.33 1.32 0.66 2 1 C0.6875 2.5 0.6875 2.5 -1 4 C-1.99 4 -2.98 4 -4 4 C-4.33 4.99 -4.66 5.98 -5 7 C-6.32 6.34 -7.64 5.68 -9 5 C-7.54735962 4.1361871 -6.0876837 3.28419546 -4.625 2.4375 C-3.40683594 1.72400391 -3.40683594 1.72400391 -2.1640625 0.99609375 C-1.44992187 0.66738281 -0.73578125 0.33867187 0 0 Z " fill="#7EA6CB" transform="translate(361,332)"/>
<path d="M0 0 C-1.1875 1.5 -1.1875 1.5 -3 3 C-5.6875 3.1875 -5.6875 3.1875 -8 3 C-8 2.01 -8 1.02 -8 0 C-2.25 -1.125 -2.25 -1.125 0 0 Z " fill="#6A96C1" transform="translate(377,329)"/>
<path d="M0 0 C0.66 0.33 1.32 0.66 2 1 C0.02 1.99 0.02 1.99 -2 3 C-2 3.66 -2 4.32 -2 5 C-4.31 5.33 -6.62 5.66 -9 6 C-3.30379747 1.25316456 -3.30379747 1.25316456 0 0 Z " fill="#6A99C5" transform="translate(269,81)"/>
<path d="M0 0 C0.66 0 1.32 0 2 0 C2 0.66 2 1.32 2 2 C2.66 2.33 3.32 2.66 4 3 C-1.625 5.125 -1.625 5.125 -5 4 C-3.35 3.34 -1.7 2.68 0 2 C0 1.34 0 0.68 0 0 Z " fill="#E8FCFD" transform="translate(501,780)"/>
<path d="M0 0 C0.99 0.33 1.98 0.66 3 1 C4.54613006 5.09724467 5.29227216 7.81857651 4 12 C3.3291288 10.3767313 2.66342971 8.75132422 2 7.125 C1.62875 6.22007812 1.2575 5.31515625 0.875 4.3828125 C0 2 0 2 0 0 Z " fill="#759DC4" transform="translate(279,523)"/>
<path d="M0 0 C0.66 0.33 1.32 0.66 2 1 C-0.41556126 4.19199167 -2.68003538 6.74716687 -6 9 C-6.66 8.67 -7.32 8.34 -8 8 C-6.37660195 6.29115995 -4.70680947 4.62553283 -3 3 C-2.34 3 -1.68 3 -1 3 C-0.67 2.01 -0.34 1.02 0 0 Z " fill="#82A8C9" transform="translate(326,355)"/>
<path d="M0 0 C0.66 1.32 1.32 2.64 2 4 C0.35 5.65 -1.3 7.3 -3 9 C-3.66 8.67 -4.32 8.34 -5 8 C-3.35 5.36 -1.7 2.72 0 0 Z " fill="#E7F6FB" transform="translate(169,295)"/>
<path d="M0 0 C2.475 0.99 2.475 0.99 5 2 C4.01 2.495 4.01 2.495 3 3 C2.67 3.99 2.34 4.98 2 6 C1.01 6 0.02 6 -1 6 C-0.67 4.02 -0.34 2.04 0 0 Z " fill="#6B99C1" transform="translate(659,120)"/>
<path d="M0 0 C-1.61594832 2.04119788 -3.2856382 4.04072937 -5 6 C-5.66 6 -6.32 6 -7 6 C-6.75 3.625 -6.75 3.625 -6 1 C-2.69333333 -1.34666667 -2.69333333 -1.34666667 0 0 Z " fill="#6C95CB" transform="translate(403,8)"/>
<path d="M0 0 C0.66 0.33 1.32 0.66 2 1 C1 3 0 5 -1 7 C-1.99 7 -2.98 7 -4 7 C-2.79618552 4.50638429 -1.54571278 2.31856917 0 0 Z " fill="#DEF4FA" transform="translate(561,564)"/>
<path d="M0 0 C0.66 0.33 1.32 0.66 2 1 C1.67 1.99 1.34 2.98 1 4 C-1.5625 5.1875 -1.5625 5.1875 -4 6 C-4.66 5.34 -5.32 4.68 -6 4 C-4.02 2.68 -2.04 1.36 0 0 Z " fill="#145C99" transform="translate(510,423)"/>
<path d="M0 0 C1.98 1.65 3.96 3.3 6 5 C5.01 5.66 4.02 6.32 3 7 C2.34 6.67 1.68 6.34 1 6 C1.33 5.34 1.66 4.68 2 4 C1.34 4 0.68 4 0 4 C0 2.68 0 1.36 0 0 Z " fill="#769ECB" transform="translate(538,360)"/>
<path d="M0 0 C0.99 0.33 1.98 0.66 3 1 C1.35 2.98 -0.3 4.96 -2 7 C-2.6875 5.1875 -2.6875 5.1875 -3 3 C-1.5625 1.25 -1.5625 1.25 0 0 Z " fill="#7195C9" transform="translate(181,275)"/>
<path d="M0 0 C-4.625 4 -4.625 4 -8 4 C-8 3.01 -8 2.02 -8 1 C-5.07175348 0.02391783 -3.04386724 -0.08226668 0 0 Z " fill="#729BC1" transform="translate(274,199)"/>
<path d="M0 0 C0 0.33 0 0.66 0 1 C-1.98 1 -3.96 1 -6 1 C-6 1.66 -6 2.32 -6 3 C-8.97 2.505 -8.97 2.505 -12 2 C-8.09971775 -0.60018816 -4.52565431 -0.15085514 0 0 Z " fill="#3B668E" transform="translate(458,791)"/>
<path d="M0 0 C0 3.90838866 -1.50567876 5.11594107 -4 8 C-4.99 7.67 -5.98 7.34 -7 7 C-4.66666667 4.66666667 -2.33333333 2.33333333 0 0 Z " fill="#174E7D" transform="translate(649,704)"/>
<path d="M0 0 C0.33 0.99 0.66 1.98 1 3 C3.00016466 4.20882096 3.00016466 4.20882096 5 5 C4.67 6.32 4.34 7.64 4 9 C3.34 9 2.68 9 2 9 C0.50178941 5.62902617 0 3.79557881 0 0 Z " fill="#3770A6" transform="translate(1,699)"/>
<path d="M0 0 C0.66 1.65 1.32 3.3 2 5 C-0.31 4.34 -2.62 3.68 -5 3 C-2.25 0 -2.25 0 0 0 Z " fill="#1B558B" transform="translate(153,628)"/>
<path d="M0 0 C3.91211733 1.15585285 6.8745041 2.35534962 10 5 C5.75776898 5.3636198 3.41831915 4.5393228 0 2 C0 1.34 0 0.68 0 0 Z " fill="#D5F1F9" transform="translate(584,566)"/>
<path d="M0 0 C0.66 0.33 1.32 0.66 2 1 C0.35 2.65 -1.3 4.3 -3 6 C-3.99 5.34 -4.98 4.68 -6 4 C-4.02 2.68 -2.04 1.36 0 0 Z " fill="#165F9A" transform="translate(454,455)"/>
<path d="M0 0 C1.65 0 3.3 0 5 0 C3.71502463 2.56995074 2.50087627 2.90434463 -0.0625 4.125 C-0.79597656 4.47820312 -1.52945312 4.83140625 -2.28515625 5.1953125 C-2.85105469 5.46085937 -3.41695313 5.72640625 -4 6 C-3.67 5.01 -3.34 4.02 -3 3 C-2.34 3 -1.68 3 -1 3 C-0.67 2.01 -0.34 1.02 0 0 Z " fill="#5593CE" transform="translate(509,421)"/>
<path d="M0 0 C-6.75 4 -6.75 4 -9 4 C-8.1875 2.0625 -8.1875 2.0625 -7 0 C-3.86650268 -1.04449911 -3.01031744 -0.93423645 0 0 Z " fill="#D9F3FA" transform="translate(640,351)"/>
<path d="M0 0 C0.33 0.99 0.66 1.98 1 3 C0.67 3.66 0.34 4.32 0 5 C-2.97 4.505 -2.97 4.505 -6 4 C-4.03617993 2.49440461 -2.21736634 1.10868317 0 0 Z " fill="#0F5F98" transform="translate(765,278)"/>
<path d="M0 0 C1.32 0.33 2.64 0.66 4 1 C1.03 2.65 -1.94 4.3 -5 6 C-4.34 4.68 -3.68 3.36 -3 2 C-2.01 2 -1.02 2 0 2 C0 1.34 0 0.68 0 0 Z " fill="#D2EDF6" transform="translate(609,734)"/>
<path d="M0 0 C0.99 0.495 0.99 0.495 2 1 C2 1.66 2 2.32 2 3 C3.32 3.66 4.64 4.32 6 5 C5.01 5.99 4.02 6.98 3 8 C0 3.375 0 3.375 0 0 Z " fill="#094177" transform="translate(4,708)"/>
<path d="M0 0 C0.99 0.66 1.98 1.32 3 2 C1.02 3.32 -0.96 4.64 -3 6 C-3.66 5.67 -4.32 5.34 -5 5 C-3.35 3.35 -1.7 1.7 0 0 Z " fill="#0F4472" transform="translate(660,693)"/>
<path d="M0 0 C0.33 0.99 0.66 1.98 1 3 C0.01 4.485 0.01 4.485 -1 6 C-2.32 5.67 -3.64 5.34 -5 5 C-3.35 3.35 -1.7 1.7 0 0 Z " fill="#255884" transform="translate(668,684)"/>
<path d="M0 0 C0.99 0 1.98 0 3 0 C3 0.66 3 1.32 3 2 C4.65 2.33 6.3 2.66 8 3 C7.01 3.99 6.02 4.98 5 6 C3.35 4.02 1.7 2.04 0 0 Z " fill="#1D527F" transform="translate(312,581)"/>
<path d="M0 0 C0.66 0.66 1.32 1.32 2 2 C0.35 3.98 -1.3 5.96 -3 8 C-3.33 7.34 -3.66 6.68 -4 6 C-2.68 4.02 -1.36 2.04 0 0 Z " fill="#E6F6FE" transform="translate(162,306)"/>
<path d="M0 0 C0.33 2.31 0.66 4.62 1 7 C-0.7074998 5.71937515 -2.37373596 4.38232443 -4 3 C-4 2.34 -4 1.68 -4 1 C-2 0 -2 0 0 0 Z " fill="#6A99C2" transform="translate(672,264)"/>
<path d="M0 0 C1.2065625 0.0309375 1.2065625 0.0309375 2.4375 0.0625 C0.6875 3.9375 0.6875 3.9375 -1.5625 5.0625 C-1.5625 4.0725 -1.5625 3.0825 -1.5625 2.0625 C-2.2225 1.7325 -2.8825 1.4025 -3.5625 1.0625 C-2.5625 0.0625 -2.5625 0.0625 0 0 Z " fill="#729CC0" transform="translate(205.5625,247.9375)"/>
</svg>
