<?xml version="1.0" encoding="UTF-8"?>
<svg version="1.1" xmlns="http://www.w3.org/2000/svg" width="270" height="270">
<path d="M0 0 C21.51668709 21.21410868 35.40371885 51.38984433 36.6875 81.625 C36.72439941 82.49326416 36.76129883 83.36152832 36.79931641 84.25610352 C37.94950698 116.4113031 27.87850186 147.36841397 7 172 C6.57493164 172.50869629 6.14986328 173.01739258 5.71191406 173.54150391 C-1.30636828 181.87208359 -9.17964042 188.63441272 -18 195 C-18.89203125 195.64710938 -19.7840625 196.29421875 -20.703125 196.9609375 C-32.78694703 205.15273096 -46.84152538 210.66755703 -61 214 C-61.85980469 214.21269531 -62.71960938 214.42539062 -63.60546875 214.64453125 C-89.61917419 220.2505856 -117.91443378 216.99797544 -142 206 C-143.04671875 205.525625 -144.0934375 205.05125 -145.171875 204.5625 C-174.0753687 190.78466881 -197.7211191 165.43736764 -208.99072266 135.35546875 C-213.07079451 123.31143167 -216.14668777 111.11201664 -216.6875 98.375 C-216.72439941 97.50673584 -216.76129883 96.63847168 -216.79931641 95.74389648 C-217.95029607 63.56663676 -207.86173478 32.66053323 -187 8 C-186.18144531 7.00613281 -185.36289063 6.01226562 -184.51953125 4.98828125 C-163.3876085 -19.4684826 -132.60551177 -34.12149305 -100.5625 -36.6875 C-62.35101084 -38.91956535 -28.07641887 -26.10465424 0 0 Z " fill="#020202" transform="translate(225,45)"/>
<path d="M0 0 C0.75989227 -0.00208466 1.51978455 -0.00416931 2.30270386 -0.00631714 C11.0660967 -0.00359724 19.48556913 0.39418456 28.0625 2.375 C29.14402344 2.59800781 30.22554688 2.82101563 31.33984375 3.05078125 C49.67385791 7.43909888 67.0854765 16.762134 81.0625 29.375 C82.31740234 30.43460938 82.31740234 30.43460938 83.59765625 31.515625 C94.18349547 40.61257493 102.22441181 51.25293457 109.0625 63.375 C109.59617188 64.31730469 110.12984375 65.25960937 110.6796875 66.23046875 C113.79897002 72.08922478 116.1701797 78.10743404 118.3125 84.375 C118.55887207 85.08615967 118.80524414 85.79731934 119.05908203 86.5300293 C122.47222981 96.95227773 123.38428485 107.27054839 123.25 118.1875 C123.2399292 119.32751465 123.2298584 120.4675293 123.21948242 121.64208984 C123.18186026 124.88682779 123.1248404 128.13065762 123.0625 131.375 C123.04944824 132.55956787 123.04944824 132.55956787 123.03613281 133.76806641 C122.8952958 144.03217092 120.55403266 152.83336215 117.0625 162.375 C116.83401367 163.01469727 116.60552734 163.65439453 116.37011719 164.31347656 C111.19324873 178.65786878 104.15401149 190.85675758 94.0625 202.375 C93.37671875 203.22835937 92.6909375 204.08171875 91.984375 204.9609375 C82.45114016 216.43612758 68.41308987 225.17639124 53.36572266 226.63671875 C35.1593278 227.7369877 19.38313285 225.01628069 5.11328125 212.86328125 C-8.43432648 199.90711069 -15.72657932 184.81461495 -16.25 166.0625 C-15.89020667 148.19981928 -9.14526567 134.01215543 3.10546875 121.24609375 C14.7163265 109.05132439 19.60673522 94.0924756 19.5 77.5 C19.51998047 76.40558594 19.53996094 75.31117187 19.56054688 74.18359375 C19.5510276 58.09601673 12.6709483 44.38206283 1.69140625 32.87890625 C-12.14277793 19.70251389 -27.85579179 14.98173801 -46.5 15.25 C-48.29920898 15.26353516 -48.29920898 15.26353516 -50.13476562 15.27734375 C-53.06922309 15.30072588 -56.00325234 15.3334972 -58.9375 15.375 C-52.40602171 9.5236167 -44.10957665 7.15758875 -35.9375 4.375 C-34.93106445 4.02526123 -34.93106445 4.02526123 -33.90429688 3.66845703 C-22.82474504 0.01378289 -11.54546594 0.01299913 0 0 Z " fill="#FCFCFC" transform="translate(133.9375,12.625)"/>
<path d="M0 0 C6.94878203 -1.40926937 14.19098003 -2.4342405 21 0 C26.62661048 4.83880503 29.45973701 12.18957778 32.49511719 18.80517578 C34.45788703 22.97208139 36.70011176 26.95040921 38.95947266 30.96191406 C52.48519547 55.12660325 64.21942077 80.58483544 72.15039062 107.15649414 C73.77942842 112.60862149 75.58123107 117.96464291 77.6875 123.25 C79 127 79 127 79 132 C72.07 132 65.14 132 58 132 C57.29875 129.215625 56.5975 126.43125 55.875 123.5625 C52.25220622 109.56407339 47.28279056 96.10837311 41.64453125 82.80078125 C40.95423828 81.16689453 40.95423828 81.16689453 40.25 79.5 C39.82203125 78.4996875 39.3940625 77.499375 38.953125 76.46875 C38 74 38 74 38 72 C37.34 72 36.68 72 36 72 C35.84144531 72.58483154 35.68289062 73.16966309 35.51953125 73.7722168 C33.54786948 80.71456317 30.93111559 87.22421742 28 93.8125 C27.28457031 95.42934692 27.28457031 95.42934692 26.5546875 97.07885742 C13.57943987 126.01204623 13.57943987 126.01204623 8 132 C5.82348633 132.45410156 5.82348633 132.45410156 3.33203125 132.390625 C2.43935547 132.37773437 1.54667969 132.36484375 0.62695312 132.3515625 C-0.76620117 132.30128906 -0.76620117 132.30128906 -2.1875 132.25 C-3.12787109 132.23195312 -4.06824219 132.21390625 -5.03710938 132.1953125 C-7.35909889 132.1481655 -9.6790369 132.08238231 -12 132 C-11.39837641 126.93492031 -9.0826259 122.9139699 -6.73828125 118.47265625 C-6.31000534 117.64728867 -5.88172943 116.82192108 -5.44047546 115.97154236 C-4.07038033 113.3320754 -2.69229111 110.69690977 -1.3125 108.0625 C9.98140661 87.52855201 9.98140661 87.52855201 17.375 65.4375 C17.53218506 64.69991455 17.68937012 63.9623291 17.85131836 63.20239258 C20.55078068 49.1302905 20.84096243 34.88926926 14 22 C13.45730469 20.95328125 12.91460937 19.9065625 12.35546875 18.828125 C9.22076818 13.13896188 5.78502424 8.21121207 1.28515625 3.5234375 C0 2 0 2 0 0 Z " fill="#050505" transform="translate(155,58)"/>
<path d="M0 0 C6.27 0 12.54 0 19 0 C19.556875 1.959375 20.11375 3.91875 20.6875 5.9375 C21.05675266 7.22541507 21.42648032 8.51319415 21.796875 9.80078125 C22.60958739 12.62862069 23.40957782 15.45969713 24.203125 18.29296875 C26.61422449 26.81116108 29.43754274 34.88275754 33 43 C34.28539476 46.03567512 35.55018935 49.0796676 36.8125 52.125 C37.12687012 52.87265625 37.44124023 53.6203125 37.76513672 54.390625 C40 59.77117313 40 59.77117313 40 62 C40.66 62 41.32 62 42 62 C42.13035645 61.26765137 42.26071289 60.53530273 42.39501953 59.78076172 C43.35800611 55.35444325 45.1528072 51.30390414 46.875 47.125 C47.26993652 46.16480957 47.66487305 45.20461914 48.07177734 44.21533203 C52.28327414 34.1178879 56.91038488 24.24960803 61.81298828 14.47119141 C62.85573429 12.30034091 63.7618519 10.13453157 64.62109375 7.88671875 C67.02568643 2.34116761 67.02568643 2.34116761 70 0 C75.9388327 -1.35385014 82.01119446 -0.68443492 88 0 C87.39586041 4.17114418 85.9765672 7.23640975 83.9375 10.91015625 C83.30956543 12.05508545 82.68163086 13.20001465 82.03466797 14.37963867 C81.70223083 14.98053314 81.3697937 15.58142761 81.02728271 16.20053101 C59.81057657 53.65673132 59.81057657 53.65673132 57.57861328 95.51806641 C60.53010272 105.52500249 64.89527737 114.53307701 71 123 C72.33824866 124.99671438 73.67267866 126.99600503 75 129 C69.32059813 129.94876319 63.59217229 130.76952589 58 129 C53.66625545 125.69291329 51.51982956 120.32110296 49.22753906 115.515625 C47.94627178 112.88989347 46.55449468 110.35593758 45.1171875 107.8125 C34.11373802 88.30984659 24.41209257 68.37315968 16.05322266 47.6015625 C15.16291398 45.4024134 14.25246619 43.2145522 13.32421875 41.03125 C7.83893236 27.90204699 2.79227968 13.9613984 0 0 Z " fill="#F9F9F9" transform="translate(37,81)"/>
<path d="M0 0 C0.66 0.33 1.32 0.66 2 1 C1.67 1.33 1.34 1.66 1 2 C4.96 2.33 8.92 2.66 13 3 C13 3.33 13 3.66 13 4 C2.605 4.495 2.605 4.495 -8 5 C-3 1 -3 1 0 0 Z " fill="#B0B0B0" transform="translate(83,23)"/>
</svg>
