<?xml version="1.0" encoding="UTF-8"?>
<svg version="1.1" xmlns="http://www.w3.org/2000/svg" width="500" height="500">
<path d="M0 0 C0.8240332 0.4031543 1.64806641 0.80630859 2.49707031 1.22167969 C31.21326691 15.39548501 57.65733671 33.52412656 83 53 C83.60537598 53.4650293 84.21075195 53.93005859 84.83447266 54.40917969 C96.17962981 63.15599899 107.13675709 72.31271129 117.734375 81.953125 C119.81761127 83.83522121 121.93218933 85.67162312 124.0625 87.5 C127.81588446 90.76249917 131.28539364 94.26661107 134.7734375 97.80859375 C136.82399377 99.82677281 138.93102831 101.70313017 141.125 103.5625 C144.52243267 106.47554623 147.40383627 109.63209677 150.29296875 113.04296875 C151.91260807 114.89980925 153.60123291 116.60397492 155.375 118.3125 C159.99374879 122.86966548 163.95865515 127.93381651 168 133 C168.88866481 134.08647612 169.77800657 135.17239884 170.66796875 136.2578125 C190.96671183 161.24530975 201.06679381 185.74466266 197.75683594 218.39892578 C194.87544959 238.59240404 181.65443791 253.84926428 168.3359375 268.41796875 C167.08185637 269.8041688 165.83344807 271.19621631 164.6237793 272.62133789 C159.32742729 278.83256613 153.58152458 284.5700462 147.80297852 290.32739258 C146.066064 292.058947 144.33456111 293.79578359 142.60351562 295.53320312 C136.90247171 301.23766955 131.1429543 306.76818857 125 312 C123.22429779 313.61967817 121.45291693 315.24411718 119.6875 316.875 C114.81067418 321.31818194 109.78485299 325.51848437 104.65039062 329.65869141 C102.751612 331.20187037 100.86744261 332.76190797 98.984375 334.32421875 C85.14569284 345.80310749 70.90613032 356.63524097 56.39355469 367.24609375 C54.15543598 368.8861024 51.92476839 370.53574607 49.6953125 372.1875 C-13.47647613 418.71866658 -106.91454979 481.57694762 -190.05957031 469.17993164 C-214.62293921 464.81020703 -235.66763804 452.81278652 -251 433 C-266.16279957 410.9575273 -271.23876267 386.9767814 -267.64990234 360.40820312 C-266.68746768 355.69925953 -265.03291002 351.35065714 -263 347 C-262.54125488 345.99549805 -262.54125488 345.99549805 -262.07324219 344.97070312 C-258.18393307 336.65350597 -253.4852949 328.90948002 -248.25 321.375 C-247.60792603 320.44602905 -247.60792603 320.44602905 -246.95288086 319.49829102 C-237.91267249 306.92291326 -227.04860794 295.73246719 -216.06860352 284.86279297 C-214.16546782 282.97818228 -212.27072539 281.08542153 -210.37695312 279.19140625 C-204.4186251 273.25050606 -198.42579548 267.43896627 -192 262 C-190.39231627 260.54554483 -188.78760285 259.08779105 -187.1875 257.625 C-182.85171653 253.70688374 -178.36544926 250.01872825 -173.8203125 246.34765625 C-169.82478474 243.0217391 -166.021537 239.5078278 -162.21484375 235.96875 C-160 234 -160 234 -158 233 C-158 232.34 -158 231.68 -158 231 C-159.00861084 230.5035498 -159.00861084 230.5035498 -160.03759766 229.99707031 C-242.18583336 189.47376816 -242.18583336 189.47376816 -256.03515625 153.89453125 C-263.27613627 132.17159118 -256.94359651 109.94901687 -247.1171875 90.15625 C-233.07259065 62.65936131 -211.24384292 37.77632806 -186 20 C-185.40944824 19.58105469 -184.81889648 19.16210938 -184.21044922 18.73046875 C-129.11994798 -19.9952141 -61.29876701 -30.27896211 0 0 Z M-59.95703125 137.52734375 C-60.30121094 138.01332031 -60.64539063 138.49929687 -61 139 C-47.25102372 146.42363364 -35.69046827 149.57874678 -20 149 C-19.54441589 145.17994666 -19.54441589 145.17994666 -21.2578125 143.65625 C-30.28976205 138.06324358 -40.13743727 135.66458963 -50.6875 135.5625 C-51.37070313 135.5524292 -52.05390625 135.5423584 -52.7578125 135.53198242 C-55.73539539 135.5847791 -57.56952342 135.66403923 -59.95703125 137.52734375 Z " fill="#DEDDEC" transform="translate(285,24)"/>
<path d="M0 0 C3.44026433 1.26859512 6.30507629 2.72728216 9.30078125 4.8359375 C10.10499512 5.39949951 10.90920898 5.96306152 11.73779297 6.54370117 C12.58744629 7.14802979 13.43709961 7.7523584 14.3125 8.375 C15.19824707 9.00059814 16.08399414 9.62619629 16.99658203 10.27075195 C25.11327712 16.0291294 33.10936742 21.93603743 41 28 C41.60537598 28.4650293 42.21075195 28.93005859 42.83447266 29.40917969 C54.17962981 38.15599899 65.13675709 47.31271129 75.734375 56.953125 C77.81761127 58.83522121 79.93218933 60.67162312 82.0625 62.5 C85.81588446 65.76249917 89.28539364 69.26661107 92.7734375 72.80859375 C94.82399377 74.82677281 96.93102831 76.70313017 99.125 78.5625 C102.52243267 81.47554623 105.40383627 84.63209677 108.29296875 88.04296875 C109.91260807 89.89980925 111.60123291 91.60397492 113.375 93.3125 C117.99374879 97.86966548 121.95865515 102.93381651 126 108 C126.88866481 109.08647612 127.77800657 110.17239884 128.66796875 111.2578125 C148.96671183 136.24530975 159.06679381 160.74466266 155.75683594 193.39892578 C152.87544959 213.59240404 139.65443791 228.84926428 126.3359375 243.41796875 C125.08185637 244.8041688 123.83344807 246.19621631 122.6237793 247.62133789 C117.32742729 253.83256613 111.58152458 259.5700462 105.80297852 265.32739258 C104.066064 267.058947 102.33456111 268.79578359 100.60351562 270.53320312 C94.90247171 276.23766955 89.1429543 281.76818857 83 287 C81.22429779 288.61967817 79.45291693 290.24411718 77.6875 291.875 C72.81067418 296.31818194 67.78485299 300.51848437 62.65039062 304.65869141 C60.751612 306.20187037 58.86744261 307.76190797 56.984375 309.32421875 C43.14569284 320.80310749 28.90613032 331.63524097 14.39355469 342.24609375 C12.15543598 343.8861024 9.92476839 345.53574607 7.6953125 347.1875 C-55.47647613 393.71866658 -148.91454979 456.57694762 -232.05957031 444.17993164 C-256.62293921 439.81020703 -277.66763804 427.81278652 -293 408 C-308.16279957 385.9575273 -313.23876267 361.9767814 -309.64990234 335.40820312 C-308.68746768 330.69925953 -307.03291002 326.35065714 -305 322 C-304.54125488 320.99549805 -304.54125488 320.99549805 -304.07324219 319.97070312 C-300.18393307 311.65350597 -295.4852949 303.90948002 -290.25 296.375 C-289.60792603 295.44602905 -289.60792603 295.44602905 -288.95288086 294.49829102 C-279.91267249 281.92291326 -269.04860794 270.73246719 -258.06860352 259.86279297 C-256.16546782 257.97818228 -254.27072539 256.08542153 -252.37695312 254.19140625 C-246.4186251 248.25050606 -240.42579548 242.43896627 -234 237 C-232.39231627 235.54554483 -230.78760285 234.08779105 -229.1875 232.625 C-225.72469918 229.49577173 -222.19320997 226.49499651 -218.5625 223.5625 C-213.66475317 219.60395178 -209.02603683 215.44683829 -204.41015625 211.1640625 C-202.33652497 209.30216342 -200.25494811 207.6313352 -198 206 C-197.29359375 205.47019531 -196.5871875 204.94039062 -195.859375 204.39453125 C-193.90625 202.9296875 -191.953125 201.46484375 -190 200 C-189.34 200.33 -188.68 200.66 -188 201 C-192.99374862 205.58211642 -198.02676318 210.06836426 -203.3125 214.3125 C-208.7666455 218.72371399 -213.88259136 223.44013646 -219.0078125 228.22265625 C-221.32240262 230.38077719 -223.66895746 232.4917381 -226.0625 234.5625 C-234.51769045 241.89500956 -242.65574297 249.58936375 -250.8125 257.25 C-251.51753662 257.9112085 -252.22257324 258.57241699 -252.94897461 259.25366211 C-259.99322658 265.88594038 -266.71729636 272.64062335 -273 280 C-273.763125 280.86238281 -274.52625 281.72476562 -275.3125 282.61328125 C-292.39869855 302.34250114 -301.70329482 322.64529507 -300 349 C-297.88786992 366.26637484 -287.12247836 386.06993324 -273.5625 396.95703125 C-251.56864783 411.97961778 -221.12607471 410.25735102 -195.97802734 405.58642578 C-167.53509284 399.98551344 -140.61786545 391.41997507 -114 380 C-112.54826027 379.38652186 -111.09644189 378.77322978 -109.64453125 378.16015625 C-74.39440524 363.14457295 -40.77439574 343.30357169 -9 322 C-7.67258789 321.11296387 -7.67258789 321.11296387 -6.31835938 320.20800781 C6.71254459 311.47941428 19.47361742 302.43793006 32 293 C32.60102539 292.54818359 33.20205078 292.09636719 33.82128906 291.63085938 C46.66060753 281.9511879 59.13375371 271.85107312 71 261 C76.62352941 256 76.62352941 256 79 256 C79 255.34 79 254.68 79 254 C80.64453125 252.37890625 80.64453125 252.37890625 82.8125 250.5625 C85.82463265 248.02660668 85.82463265 248.02660668 88.63671875 245.27734375 C90 244 90 244 92 244 C92 243.34 92 242.68 92 242 C92.66 242 93.32 242 94 242 C94.2693335 241.40324463 94.53866699 240.80648926 94.81616211 240.19165039 C96.00012188 237.99977436 97.1504662 236.64442964 98.94140625 234.93359375 C99.52043701 234.3715625 100.09946777 233.80953125 100.69604492 233.23046875 C101.3119751 232.63878906 101.92790527 232.04710937 102.5625 231.4375 C108.5054096 225.60723428 113.88024665 219.57351048 119 213 C119.91381908 211.86333909 120.82927112 210.72798966 121.74609375 209.59375 C130.67495367 198.49111799 139.44512555 186.66462334 144 173 C144.66 173 145.32 173 146 173 C149.3713078 156.89264052 143.57404283 142.24841128 135.00170898 128.89575195 C128.84370619 119.58378763 121.8926861 110.95352786 114.6875 102.4375 C114.19588379 101.85339355 113.70426758 101.26928711 113.19775391 100.66748047 C110.36398633 97.36928719 107.44462461 94.68043899 104 92 C103.00614204 90.90625682 102.04355556 89.78270612 101.125 88.625 C98.47587233 85.41707196 95.5799652 82.8369855 92.3203125 80.26171875 C91.88460938 79.84535156 91.44890625 79.42898437 91 79 C91 78.34 91 77.68 91 77 C89.68 76.34 88.36 75.68 87 75 C87 74.34 87 73.68 87 73 C86.195625 72.62875 86.195625 72.62875 85.375 72.25 C82.4033276 70.6859619 79.68831383 69.01623538 77 67 C77 66.01 77 65.02 77 64 C76.4225 63.9175 75.845 63.835 75.25 63.75 C72.2933011 62.7644337 71.15566646 61.2754257 69 59 C67.09521638 57.29046754 65.16032766 55.61806031 63.2265625 53.94140625 C60.11427689 51.22771161 57.04830102 48.46298269 53.98046875 45.69921875 C51.90580959 43.84995118 51.90580959 43.84995118 49 42 C49 41.34 49 40.68 49 40 C48.071875 39.731875 47.14375 39.46375 46.1875 39.1875 C43.04186082 38.01559521 42.19421678 37.33559673 40 35 C38.86447861 33.98830577 37.71829228 32.98847268 36.5625 32 C35.9540625 31.47921875 35.345625 30.9584375 34.71875 30.421875 C33.37592365 29.31099138 31.97819291 28.26639491 30.5625 27.25 C30.046875 26.8375 29.53125 26.425 29 26 C29 25.34 29 24.68 29 24 C27.7625 23.690625 27.7625 23.690625 26.5 23.375 C22.66538272 21.86854321 20.01316586 19.90608449 16.83203125 17.33984375 C14.93345432 15.80849826 14.93345432 15.80849826 12 15 C10.31237149 13.3545622 8.6459651 11.68711423 7 10 C6.01 9.34 5.02 8.68 4 8 C4 7.34 4 6.68 4 6 C3.34 6 2.68 6 2 6 C1.34 4.02 0.68 2.04 0 0 Z " fill="#736E98" transform="translate(327,49)"/>
<path d="M0 0 C11.3232005 0 22.76465109 6.54621296 31.32421875 13.67578125 C33.05616673 15.10872031 33.05616673 15.10872031 35.40625 16.3984375 C45.04993888 22.35312491 53.78096158 33.58253025 56.69921875 44.65234375 C57.90391347 54.0552207 56.58571597 61.75321364 51 69.5625 C42.13774602 80.17874174 25.68171342 89.91415206 11.6953125 91.3359375 C-8.33333841 91.55506935 -27.33350841 84.51600882 -43 72 C-44.07314453 71.17048828 -44.07314453 71.17048828 -45.16796875 70.32421875 C-50.22171597 66.19967833 -53.75937552 61.64593272 -57 56 C-57.52980469 55.08541016 -57.52980469 55.08541016 -58.0703125 54.15234375 C-60.46548499 49.4159441 -59.96910372 46.02171927 -59 41 C-58.67 41.66 -58.34 42.32 -58 43 C-57.34 43 -56.68 43 -56 43 C-56 43.66 -56 44.32 -56 45 C-54.88625 45.185625 -54.88625 45.185625 -53.75 45.375 C-50.41881472 46.13208756 -47.87751647 46.85922858 -45.75 49.625 C-42.80758046 51.93690107 -39.64351176 51.1791891 -36 51 C-35.91363281 50.17757812 -35.82726562 49.35515625 -35.73828125 48.5078125 C-34.62455268 39.65929012 -32.93147762 31.83787101 -26.375 25.4375 C-22.2275325 22.92719072 -18.95432482 22.86484702 -14.1875 22.875 C-12.98480469 22.87242188 -11.78210938 22.86984375 -10.54296875 22.8671875 C-7.26839682 22.98993882 -4.21327402 23.37998082 -1 24 C0.28332064 21.43335871 0.02830743 19.67490819 -0.0625 16.8125 C-0.1184045 12.09167584 0.4243009 8.43165371 2 4 C1.34 4 0.68 4 0 4 C0 2.68 0 1.36 0 0 Z M-22.95703125 64.52734375 C-23.30121094 65.01332031 -23.64539063 65.49929687 -24 66 C-10.25102372 73.42363364 1.30953173 76.57874678 17 76 C17.45558411 72.17994666 17.45558411 72.17994666 15.7421875 70.65625 C6.71023795 65.06324358 -3.13743727 62.66458963 -13.6875 62.5625 C-14.37070313 62.5524292 -15.05390625 62.5423584 -15.7578125 62.53198242 C-18.73539539 62.5847791 -20.56952342 62.66403923 -22.95703125 64.52734375 Z " fill="#9691C0" transform="translate(248,97)"/>
<path d="M0 0 C2.68830235 0.37141019 3.83740183 0.83704526 5.78125 2.78515625 C12.82165698 12.11369549 17.03200685 20.08324162 16 32 C13.9778261 42.7601914 6.9318503 50.02275222 -1.82421875 56.078125 C-16.84225701 65.16653192 -31.43771468 69.66818933 -48.875 65.5 C-58.76663768 62.92499518 -71.15406399 58.90458591 -78 51 C-76.68644531 50.95101562 -75.37289062 50.90203125 -74.01953125 50.8515625 C-72.28383405 50.77650532 -70.54815797 50.70095877 -68.8125 50.625 C-67.94818359 50.5940625 -67.08386719 50.563125 -66.19335938 50.53125 C-61.62257194 50.32109885 -58.25036655 49.75903269 -54 48 C-51.5 48.20703125 -51.5 48.20703125 -49 48.8125 C-47.7625 49.10060547 -47.7625 49.10060547 -46.5 49.39453125 C-45.675 49.59433594 -44.85 49.79414063 -44 50 C-39.79742711 51.00861749 -35.82042573 51.16589787 -31.5 51.1875 C-30.2109375 51.20167969 -28.921875 51.21585938 -27.59375 51.23046875 C-21.6785038 50.85112144 -18.72645139 49.21096375 -14.8125 44.8125 C-10.17632538 39.32941589 -8.90491584 34.98729847 -9.0625 27.875 C-9.14630013 23.59474744 -8.58700788 21.51093927 -6 18 C-2.57393262 12.21112752 -1.03180793 6.62529301 0 0 Z " fill="#544E77" transform="translate(289,121)"/>
<path d="M0 0 C3.44026433 1.26859512 6.30507629 2.72728216 9.30078125 4.8359375 C10.10499512 5.39949951 10.90920898 5.96306152 11.73779297 6.54370117 C12.58744629 7.14802979 13.43709961 7.7523584 14.3125 8.375 C15.19824707 9.00059814 16.08399414 9.62619629 16.99658203 10.27075195 C25.11327712 16.0291294 33.10936742 21.93603743 41 28 C41.60537598 28.4650293 42.21075195 28.93005859 42.83447266 29.40917969 C54.17962981 38.15599899 65.13675709 47.31271129 75.734375 56.953125 C77.81761127 58.83522121 79.93218933 60.67162312 82.0625 62.5 C85.81588446 65.76249917 89.28539364 69.26661107 92.7734375 72.80859375 C94.82399377 74.82677281 96.93102831 76.70313017 99.125 78.5625 C102.52243267 81.47554623 105.40383627 84.63209677 108.29296875 88.04296875 C109.91260807 89.89980925 111.60123291 91.60397492 113.375 93.3125 C117.99374879 97.86966548 121.95865515 102.93381651 126 108 C126.88866481 109.08647612 127.77800657 110.17239884 128.66796875 111.2578125 C133.71642316 117.47074488 138.43946035 123.8544993 142.8125 130.5625 C143.26359131 131.22918701 143.71468262 131.89587402 144.17944336 132.58276367 C147.15169429 137.28210918 147.15169429 137.28210918 146.38671875 140.90234375 C145 143 145 143 143 144 C142.67128906 143.28457031 142.34257812 142.56914062 142.00390625 141.83203125 C132.67140743 122.28183724 117.3966853 101.98444498 100.4921875 88.234375 C98.17007205 86.31346274 96.0995934 84.15791543 94 82 C93.401875 81.443125 92.80375 80.88625 92.1875 80.3125 C91 79 91 79 91 77 C89.02 76.01 89.02 76.01 87 75 C87 74.34 87 73.68 87 73 C86.46375 72.7525 85.9275 72.505 85.375 72.25 C82.4033276 70.6859619 79.68831383 69.01623538 77 67 C77 66.01 77 65.02 77 64 C76.4225 63.9175 75.845 63.835 75.25 63.75 C72.2933011 62.7644337 71.15566646 61.2754257 69 59 C67.09521638 57.29046754 65.16032766 55.61806031 63.2265625 53.94140625 C60.11427689 51.22771161 57.04830102 48.46298269 53.98046875 45.69921875 C51.90580959 43.84995118 51.90580959 43.84995118 49 42 C49 41.34 49 40.68 49 40 C48.071875 39.731875 47.14375 39.46375 46.1875 39.1875 C43.04186082 38.01559521 42.19421678 37.33559673 40 35 C38.86447861 33.98830577 37.71829228 32.98847268 36.5625 32 C35.9540625 31.47921875 35.345625 30.9584375 34.71875 30.421875 C33.37592365 29.31099138 31.97819291 28.26639491 30.5625 27.25 C30.046875 26.8375 29.53125 26.425 29 26 C29 25.34 29 24.68 29 24 C27.7625 23.690625 27.7625 23.690625 26.5 23.375 C22.66538272 21.86854321 20.01316586 19.90608449 16.83203125 17.33984375 C14.93345432 15.80849826 14.93345432 15.80849826 12 15 C10.31237149 13.3545622 8.6459651 11.68711423 7 10 C6.01 9.34 5.02 8.68 4 8 C4 7.34 4 6.68 4 6 C3.34 6 2.68 6 2 6 C1.34 4.02 0.68 2.04 0 0 Z " fill="#938DBB" transform="translate(327,49)"/>
<path d="M0 0 C0.99 0.495 0.99 0.495 2 1 C-2.99374862 5.58211642 -8.02676318 10.06836426 -13.3125 14.3125 C-18.7666455 18.72371399 -23.88259136 23.44013646 -29.0078125 28.22265625 C-31.32240262 30.38077719 -33.66895746 32.4917381 -36.0625 34.5625 C-44.51769045 41.89500956 -52.65574297 49.58936375 -60.8125 57.25 C-61.51753662 57.9112085 -62.22257324 58.57241699 -62.94897461 59.25366211 C-69.99322658 65.88594038 -76.71729636 72.64062335 -83 80 C-83.763125 80.86238281 -84.52625 81.72476563 -85.3125 82.61328125 C-95.02210737 93.82484351 -102.95884767 105.990903 -108 120 C-108.33 119.34 -108.66 118.68 -109 118 C-109.66 118 -110.32 118 -111 118 C-111.28875 118.804375 -111.5775 119.60875 -111.875 120.4375 C-113 123 -113 123 -115 124 C-107.58071629 98.95991749 -86.09400375 77.70706886 -68.06860352 59.86279297 C-66.16546782 57.97818228 -64.27072539 56.08542153 -62.37695312 54.19140625 C-56.4186251 48.25050606 -50.42579548 42.43896627 -44 37 C-42.39231627 35.54554483 -40.78760285 34.08779105 -39.1875 32.625 C-35.72469918 29.49577173 -32.19320997 26.49499651 -28.5625 23.5625 C-23.66475317 19.60395178 -19.02603683 15.44683829 -14.41015625 11.1640625 C-12.33652497 9.30216342 -10.25494811 7.6313352 -8 6 C-7.29359375 5.47019531 -6.5871875 4.94039062 -5.859375 4.39453125 C-3.90625 2.9296875 -1.953125 1.46484375 0 0 Z " fill="#A39DBF" transform="translate(137,249)"/>
<path d="M0 0 C4.55226842 3.71613749 8.45751208 7.53190311 12.2578125 12.0078125 C13.89073643 13.87505735 15.58929139 15.59262396 17.375 17.3125 C21.99374879 21.86966548 25.95865515 26.93381651 30 32 C30.88866481 33.08647612 31.77800657 34.17239884 32.66796875 35.2578125 C37.71642316 41.47074488 42.43946035 47.8544993 46.8125 54.5625 C47.26359131 55.22918701 47.71468262 55.89587402 48.17944336 56.58276367 C51.15169429 61.28210918 51.15169429 61.28210918 50.38671875 64.90234375 C49 67 49 67 47 68 C46.67128906 67.28457031 46.34257812 66.56914062 46.00390625 65.83203125 C36.6619913 46.26211185 21.38968663 26.01527067 4.4921875 12.23046875 C0.84017035 9.21898864 -2.28019078 5.86499205 -5 2 C-3.35 1.34 -1.7 0.68 0 0 Z " fill="#9891BE" transform="translate(423,125)"/>
<path d="M0 0 C3.44026433 1.26859512 6.30507629 2.72728216 9.30078125 4.8359375 C10.10604248 5.40022461 10.91130371 5.96451172 11.7409668 6.54589844 C13.01387573 7.45130371 13.01387573 7.45130371 14.3125 8.375 C15.1888208 8.99407227 16.0651416 9.61314453 16.96801758 10.25097656 C22.75300193 14.35594236 28.4958742 18.51653764 34.1875 22.75 C34.86401611 23.25063965 35.54053223 23.7512793 36.23754883 24.26708984 C40.87878597 27.75757194 40.87878597 27.75757194 42 30 C41.67 30.66 41.34 31.32 41 32 C36.03533083 30.83184255 32.7615584 29.64757179 29 26 C29 25.34 29 24.68 29 24 C27.7625 23.690625 27.7625 23.690625 26.5 23.375 C22.66538272 21.86854321 20.01316586 19.90608449 16.83203125 17.33984375 C14.93345432 15.80849826 14.93345432 15.80849826 12 15 C10.31237149 13.3545622 8.6459651 11.68711423 7 10 C6.01 9.34 5.02 8.68 4 8 C4 7.34 4 6.68 4 6 C3.34 6 2.68 6 2 6 C1.34 4.02 0.68 2.04 0 0 Z " fill="#8983B4" transform="translate(327,49)"/>
<path d="M0 0 C1.32 0 2.64 0 4 0 C4 0.66 4 1.32 4 2 C4.66 2 5.32 2 6 2 C6 3.32 6 4.64 6 6 C7.27875 5.979375 8.5575 5.95875 9.875 5.9375 C14.96207017 5.92941245 19.9516147 6.40979211 25 7 C25.02687279 8.81242052 25.04633715 10.62495233 25.0625 12.4375 C25.07410156 13.44683594 25.08570313 14.45617187 25.09765625 15.49609375 C25 18 25 18 24 19 C18.71462292 19.35235847 15.29005241 19.48566759 11 16 C11 15.34 11 14.68 11 14 C8.69 13.34 6.38 12.68 4 12 C3.855625 10.906875 3.71125 9.81375 3.5625 8.6875 C3.11711896 5.06877013 3.11711896 5.06877013 2 2 C1.34 2 0.68 2 0 2 C0 1.34 0 0.68 0 0 Z " fill="#E7E6F0" transform="translate(188,130)"/>
<path d="M0 0 C0.66 0 1.32 0 2 0 C1.61287246 4.25840298 -0.1203491 6.68893134 -2.67578125 10.03515625 C-4.12042654 12.17868599 -5.03636415 14.2921766 -6 16.6875 C-7.68734994 20.70339285 -9.5139268 22.34394423 -13 25 C-14.62487507 27.21268517 -16.09928346 29.49480277 -17.58203125 31.8046875 C-19.23252083 34.35999092 -20.95982828 36.74123845 -23 39 C-23.66 39 -24.32 39 -25 39 C-25.33 39.99 -25.66 40.98 -26 42 C-26.66 42 -27.32 42 -28 42 C-28.2475 42.78375 -28.495 43.5675 -28.75 44.375 C-30.1824048 47.38305008 -31.0309239 47.75490357 -34 49 C-34.33 49.66 -34.66 50.32 -35 51 C-35.66 51 -36.32 51 -37 51 C-36.67 51.99 -36.34 52.98 -36 54 C-38.25 56.0625 -38.25 56.0625 -41 58 C-43.171875 57.62109375 -43.171875 57.62109375 -45 57 C-44.09378906 56.11699219 -43.18757813 55.23398437 -42.25390625 54.32421875 C-35.01428483 47.21510379 -28.2430276 40.01573913 -22 32 C-21.08618092 30.86333909 -20.17072888 29.72798966 -19.25390625 28.59375 C-11.97766683 19.54296885 -5.64484854 10.16072738 0 0 Z " fill="#9995B3" transform="translate(468,230)"/>
<path d="M0 0 C0.66 0.33 1.32 0.66 2 1 C-1.16133674 5.55232491 -4.19979136 7.4689809 -9 10 C-9.99 10.66 -10.98 11.32 -12 12 C-12.598125 12.28875 -13.19625 12.5775 -13.8125 12.875 C-16.70129447 14.36066573 -19.31660133 16.17300516 -22 18 C-22.99 18.66 -23.98 19.32 -25 20 C-25.103125 20.66 -25.20625 21.32 -25.3125 22 C-25.539375 22.66 -25.76625 23.32 -26 24 C-27.99541868 24.68025637 -29.99617991 25.34490497 -32 26 C-34.56249975 28.31232422 -34.56249975 28.31232422 -37 31 C-38.96320566 32.71605625 -40.97723731 34.35356525 -43 36 C-43.495 34.515 -43.495 34.515 -44 33 C-33.32678997 21.43183137 -20.29439824 12.31038953 -7 4 C-6.36433105 3.60151855 -5.72866211 3.20303711 -5.07373047 2.79248047 C-3.42070041 1.79536727 -1.71343994 0.88930686 0 0 Z " fill="#948EBE" transform="translate(121,30)"/>
<path d="M0 0 C20.96251409 -0.42562372 40.72661751 0.18994526 61 6 C61 6.99 61 7.98 61 9 C59.9996875 8.690625 58.999375 8.38125 57.96875 8.0625 C54.17593828 6.97883951 50.4213078 6.45370503 46.5 6 C42.76435661 5.5677768 39.34243467 5.10627017 35.74780273 3.99072266 C31.81492192 2.95107505 28.37777018 2.68380169 24.31640625 2.5859375 C23.61603745 2.56657135 22.91566864 2.5472052 22.19407654 2.5272522 C19.98367019 2.46805109 17.77321005 2.42131275 15.5625 2.375 C14.05271319 2.33676524 12.5429469 2.29771042 11.03320312 2.2578125 C7.35565801 2.1624003 3.67795706 2.07815301 0 2 C0 1.34 0 0.68 0 0 Z " fill="#938EBA" transform="translate(195,6)"/>
<path d="M0 0 C1.9375 0.375 1.9375 0.375 4 1 C4.33 1.66 4.66 2.32 5 3 C4.34 3 3.68 3 3 3 C3.12375 4.423125 3.12375 4.423125 3.25 5.875 C3.26111878 11.32320142 1.24421922 17.66040146 -2.5625 21.62890625 C-3.2740625 22.30759766 -3.2740625 22.30759766 -4 23 C-5.19027984 25.59915538 -5.19027984 25.59915538 -6 28 C-8 25 -8 25 -7.6796875 23.01953125 C-7.41414063 22.29121094 -7.14859375 21.56289062 -6.875 20.8125 C-6.441875 19.61753906 -6.441875 19.61753906 -6 18.3984375 C-5.06794531 16.16296259 -4.02092957 14.06926604 -2.875 11.9375 C-0.77575051 7.95533589 -0.31930652 4.47029134 0 0 Z " fill="#77729C" transform="translate(286,118)"/>
<path d="M0 0 C0.99 0.33 1.98 0.66 3 1 C2.32904297 2.09054687 2.32904297 2.09054687 1.64453125 3.203125 C-2.5951102 10.25412784 -6.0463884 17.32333205 -9 25 C-9.33 24.34 -9.66 23.68 -10 23 C-10.66 23 -11.32 23 -12 23 C-12.28875 23.804375 -12.5775 24.60875 -12.875 25.4375 C-14 28 -14 28 -16 29 C-14.51800014 23.9199898 -12.29801863 19.62335651 -9.6875 15.0625 C-9.30916016 14.38509766 -8.93082031 13.70769531 -8.54101562 13.00976562 C-5.95830853 8.45179016 -3.10707636 4.2179249 0 0 Z " fill="#9893B5" transform="translate(38,344)"/>
<path d="M0 0 C0.66 0.33 1.32 0.66 2 1 C-2.74144487 7.04942966 -2.74144487 7.04942966 -5 9 C-5.66 9 -6.32 9 -7 9 C-7.33 9.99 -7.66 10.98 -8 12 C-8.99 12.33 -9.98 12.66 -11 13 C-11.28875 13.5775 -11.5775 14.155 -11.875 14.75 C-14.53562122 20.07124243 -19.92544404 24.02924629 -25 27 C-27.9375 27.8125 -27.9375 27.8125 -30 28 C-26.71529745 24.60580737 -23.29302848 21.38092265 -19.8125 18.1875 C-18.95269531 17.39730469 -18.09289062 16.60710937 -17.20703125 15.79296875 C-15 14 -15 14 -13 14 C-13 13.34 -13 12.68 -13 12 C-11.35546875 10.37890625 -11.35546875 10.37890625 -9.1875 8.5625 C-6.17536735 6.02660668 -6.17536735 6.02660668 -3.36328125 3.27734375 C-2 2 -2 2 0 2 C0 1.34 0 0.68 0 0 Z " fill="#8E89A7" transform="translate(419,291)"/>
<path d="M0 0 C1.98 0 3.96 0 6 0 C6.33 0.66 6.66 1.32 7 2 C10.0399648 2.69337792 10.0399648 2.69337792 13.5625 3.125 C15.35880859 3.37636719 15.35880859 3.37636719 17.19140625 3.6328125 C18.11824219 3.75398437 19.04507813 3.87515625 20 4 C20.33 3.34 20.66 2.68 21 2 C21.04254356 3.99954746 21.04080783 6.00041636 21 8 C20 9 20 9 16.25 9.25 C12.41975605 9.20866643 10.03881883 8.4690403 7 6 C7 5.34 7 4.68 7 4 C4.69 3.34 2.38 2.68 0 2 C0 1.34 0 0.68 0 0 Z " fill="#C1BDDC" transform="translate(192,140)"/>
<path d="M0 0 C1.32 0.33 2.64 0.66 4 1 C3.35623413 1.61331177 3.35623413 1.61331177 2.69946289 2.23901367 C-1.82359103 6.64110722 -5.76470466 11.27744481 -9.5625 16.3125 C-10.12606201 17.05363037 -10.68962402 17.79476074 -11.27026367 18.55834961 C-15.22934897 23.82468547 -18.87380136 29.19012398 -22 35 C-23.04449911 31.86650268 -22.93423645 31.01031744 -22 28 C-21.34 28 -20.68 28 -20 28 C-19.87625 27.360625 -19.7525 26.72125 -19.625 26.0625 C-19.41875 25.381875 -19.2125 24.70125 -19 24 C-18.34 23.67 -17.68 23.34 -17 23 C-14.83152429 19.40846211 -12.81595138 15.78323204 -11 12 C-10.34 12 -9.68 12 -9 12 C-8.566875 11.278125 -8.13375 10.55625 -7.6875 9.8125 C-5.82051458 6.70085763 -3.59035133 4.52218419 -1 2 C-0.67 1.34 -0.34 0.68 0 0 Z " fill="#9A95BA" transform="translate(80,72)"/>
<path d="M0 0 C-2.3560412 2.79065074 -4.11772337 3.50855506 -7.6875 4.125 C-9.00814453 4.35896484 -9.00814453 4.35896484 -10.35546875 4.59765625 C-12.73429933 4.95957582 -15.11077569 5.27858852 -17.5 5.5625 C-20.84399057 5.78332024 -20.84399057 5.78332024 -23 7 C-25.01920337 5.69593116 -27.01924973 4.36176581 -29 3 C-29 2.67 -29 2.34 -29 2 C-27.68644531 1.95101562 -26.37289062 1.90203125 -25.01953125 1.8515625 C-23.28383405 1.77650532 -21.54815797 1.70095877 -19.8125 1.625 C-18.94818359 1.5940625 -18.08386719 1.563125 -17.19335938 1.53125 C-11.17818529 1.25469027 -5.73324401 -1.63806972 0 0 Z " fill="#706B93" transform="translate(240,170)"/>
<path d="M0 0 C-3.41987307 2.81051387 -6.91844043 5.33224416 -10.625 7.75 C-15.74668002 11.12651497 -20.71088367 14.6649756 -25.625 18.3359375 C-27.70100486 19.7905067 -29.70106178 20.94631998 -32 22 C-31.63641494 19.32992218 -31.35223126 18.27480111 -29.1875 16.5859375 C-28.465625 16.18632813 -27.74375 15.78671875 -27 15.375 C-23.90833391 13.76772106 -23.90833391 13.76772106 -22 11 C-20.02111039 10.27306096 -18.02045442 9.60183749 -16 9 C-16 8.34 -16 7.68 -16 7 C-15.01 7 -14.02 7 -13 7 C-13 6.34 -13 5.68 -13 5 C-12.34 5 -11.68 5 -11 5 C-11 4.34 -11 3.68 -11 3 C-9.73581754 2.30034557 -8.46334598 1.61565237 -7.1875 0.9375 C-6.47980469 0.55464844 -5.77210938 0.17179687 -5.04296875 -0.22265625 C-3 -1 -3 -1 0 0 Z " fill="#A19EBD" transform="translate(136,34)"/>
<path d="M0 0 C0.66 0 1.32 0 2 0 C1.61287246 4.25840298 -0.1203491 6.68893134 -2.67578125 10.03515625 C-4.12042654 12.17868599 -5.03636415 14.2921766 -6 16.6875 C-7.65908623 20.63451966 -9.39950864 22.56966833 -13 25 C-14.35147138 26.31494512 -15.69112542 27.64264858 -17 29 C-17.66 28.67 -18.32 28.34 -19 28 C-18.50371094 27.40574219 -18.00742187 26.81148438 -17.49609375 26.19921875 C-10.76513562 17.9866835 -5.15114612 9.27206302 0 0 Z " fill="#9F9ABB" transform="translate(468,230)"/>
<path d="M0 0 C1.15224028 0.92961422 2.29659176 1.8690125 3.4375 2.8125 C4.39462891 3.59560547 4.39462891 3.59560547 5.37109375 4.39453125 C7 6 7 6 8 9 C7.01 9.495 7.01 9.495 6 10 C6.66 10.61875 7.32 11.2375 8 11.875 C10 14 10 14 10 16 C9.34 16 8.68 16 8 16 C6.73828125 14.6796875 6.73828125 14.6796875 5.3125 12.875 C2.21640431 9.12146177 -1.22271536 6.05088375 -5 3 C-2 1 -2 1 0 0 Z " fill="#9D99BD" transform="translate(423,125)"/>
<path d="M0 0 C0.99 0.33 1.98 0.66 3 1 C-4.21183031 7.1640528 -11.43306092 13.27102545 -19 19 C-19.66 18.67 -20.32 18.34 -21 18 C-19.8125 15.0625 -19.8125 15.0625 -18 12 C-15.5 11.1875 -15.5 11.1875 -13 11 C-12.01 10.67 -11.02 10.34 -10 10 C-10 9.34 -10 8.68 -10 8 C-9.34 8 -8.68 8 -8 8 C-7.67 7.01 -7.34 6.02 -7 5 C-5.66666667 4.66666667 -4.33333333 4.33333333 -3 4 C-2.67 3.01 -2.34 2.02 -2 1 C-1.34 0.67 -0.68 0.34 0 0 Z " fill="#B2B0C9" transform="translate(351,311)"/>
<path d="M0 0 C1.32 0.33 2.64 0.66 4 1 C3.01 1.33 2.02 1.66 1 2 C1.12375 3.670625 1.12375 3.670625 1.25 5.375 C1.26226521 12.2803132 -1.94977645 19.47696789 -6 25 C-6.66 25 -7.32 25 -8 25 C-8.33 25.66 -8.66 26.32 -9 27 C-8.57169518 21.5391135 -7.44019232 19.14846721 -4 15 C-1.63879582 10.14354948 -0.55653264 5.3427133 0 0 Z " fill="#66618C" transform="translate(289,121)"/>
<path d="M0 0 C5.28 0 10.56 0 16 0 C12.91409445 2.05727037 10.0065132 3.32318603 6.5625 4.6875 C5.42941406 5.14511719 4.29632813 5.60273438 3.12890625 6.07421875 C0.09890216 6.97073681 -1.13270113 7.16241846 -4 6 C-3.34 6 -2.68 6 -2 6 C-1.34 4.02 -0.68 2.04 0 0 Z " fill="#A2A0BC" transform="translate(144,24)"/>
<path d="M0 0 C0.33 0.99 0.66 1.98 1 3 C-5.0268557 7.03848732 -9.67639103 9.72875522 -17 10 C-17.33 9.34 -17.66 8.68 -18 8 C-12.06 5.36 -6.12 2.72 0 0 Z " fill="#9690BF" transform="translate(146,18)"/>
<path d="M0 0 C0.33 0.99 0.66 1.98 1 3 C0.67 3.66 0.34 4.32 0 5 C-5.21979128 5.1799928 -9.07262981 4.97094808 -14 3 C-14 2.34 -14 1.68 -14 1 C-9.38 0.67 -4.76 0.34 0 0 Z " fill="#D5D1E9" transform="translate(212,139)"/>
<path d="M0 0 C0.57975586 0.21712646 1.15951172 0.43425293 1.75683594 0.65795898 C-2.66513349 4.69014996 -6.9977952 7.78785149 -12.24316406 10.65795898 C-13.59703695 11.62997029 -14.94171605 12.61680057 -16.24316406 13.65795898 C-16.90316406 12.99795898 -17.56316406 12.33795898 -18.24316406 11.65795898 C-15.67565064 9.61634868 -13.08691442 7.60359616 -10.49316406 5.59545898 C-9.76355469 5.01473633 -9.03394531 4.43401367 -8.28222656 3.83569336 C-7.21875 3.01875 -7.21875 3.01875 -6.13378906 2.18530273 C-5.48442383 1.67733154 -4.83505859 1.16936035 -4.16601562 0.64599609 C-2.24316406 -0.34204102 -2.24316406 -0.34204102 0 0 Z " fill="#8582A0" transform="translate(362.2431640625,341.342041015625)"/>
<path d="M0 0 C0 3 0 3 -1.37695312 4.7175293 C-2.00537109 5.33023682 -2.63378906 5.94294434 -3.28125 6.57421875 C-3.95800781 7.24130859 -4.63476562 7.90839844 -5.33203125 8.59570312 C-6.04746094 9.28599609 -6.76289063 9.97628906 -7.5 10.6875 C-8.57314453 11.7403418 -8.57314453 11.7403418 -9.66796875 12.81445312 C-11.43879577 14.54986361 -13.21623456 16.2779073 -15 18 C-15 14.32128201 -14.24690298 13.81914672 -11.8125 11.1875 C-9.53958096 8.69876845 -7.33899336 6.20728059 -5.25 3.5625 C-3 1 -3 1 0 0 Z " fill="#8884A5" transform="translate(449,295)"/>
<path d="M0 0 C0.99 0 1.98 0 3 0 C3 0.66 3 1.32 3 2 C1.1640625 3.296875 1.1640625 3.296875 -1.375 4.75 C-2.27734375 5.27335937 -3.1796875 5.79671875 -4.109375 6.3359375 C-5.06328125 6.88507813 -6.0171875 7.43421875 -7 8 C-8.87723464 9.12126718 -10.75236459 10.24606837 -12.625 11.375 C-14.08333333 12.25 -15.54166667 13.125 -17 14 C-17 13.01 -17 12.02 -17 11 C-16.01 10.67 -15.02 10.34 -14 10 C-13.34 9.34 -12.68 8.68 -12 8 C-10.16152813 6.7883435 -8.30506509 5.6038151 -6.4375 4.4375 C-3.04009437 2.45281864 -3.04009437 2.45281864 0 0 Z " fill="#C0BFD4" transform="translate(272,367)"/>
<path d="M0 0 C0.99 0.33 1.98 0.66 3 1 C3 1.66 3 2.32 3 3 C-8.88 5.475 -8.88 5.475 -21 8 C-21 7.01 -21 6.02 -21 5 C-19.9275 4.896875 -18.855 4.79375 -17.75 4.6875 C-8.19699978 3.8399406 -8.19699978 3.8399406 0 0 Z " fill="#5D597F" transform="translate(240,170)"/>
<path d="M0 0 C0.66 0.66 1.32 1.32 2 2 C1.43410156 2.40992188 0.86820312 2.81984375 0.28515625 3.2421875 C-0.44832031 3.78101563 -1.18179687 4.31984375 -1.9375 4.875 C-3.03384766 5.67550781 -3.03384766 5.67550781 -4.15234375 6.4921875 C-6.11098235 7.88012104 -6.11098235 7.88012104 -7 10 C-7.66 10 -8.32 10 -9 10 C-9 10.66 -9 11.32 -9 12 C-11.31 12.66 -13.62 13.32 -16 14 C-12.56846086 10.46808678 -9.02624938 7.2862495 -5.1875 4.1875 C-4.21167969 3.39730469 -3.23585938 2.60710937 -2.23046875 1.79296875 C-1.49441406 1.20128906 -0.75835937 0.60960937 0 0 Z " fill="#8983A3" transform="translate(387,320)"/>
<path d="M0 0 C0.66 0.33 1.32 0.66 2 1 C-3.4511097 6.03432465 -8.84108352 10.84942585 -15 15 C-14.67 13.35 -14.34 11.7 -14 10 C-13.34 10 -12.68 10 -12 10 C-10.97895449 9.02149805 -9.9793879 8.02019573 -9 7 C-8.34 6.67 -7.68 6.34 -7 6 C-6.67 5.01 -6.34 4.02 -6 3 C-3.0625 1.25 -3.0625 1.25 0 0 Z " fill="#AFAEC6" transform="translate(370,296)"/>
<path d="M0 0 C0.99 0 1.98 0 3 0 C3 0.66 3 1.32 3 2 C4.32 1.67 5.64 1.34 7 1 C8.5625 3.375 8.5625 3.375 10 6 C9.67 6.66 9.34 7.32 9 8 C8.34 7.67 7.68 7.34 7 7 C7.33 7.99 7.66 8.98 8 10 C7.01 10.495 7.01 10.495 6 11 C4.02 7.37 2.04 3.74 0 0 Z " fill="#A29BC2" transform="translate(460,174)"/>
<path d="M0 0 C0.99 0 1.98 0 3 0 C3 0.66 3 1.32 3 2 C4.65 1.67 6.3 1.34 8 1 C10.29013653 4.4352048 10.17842973 5.985331 10 10 C8.68 9.34 7.36 8.68 6 8 C6 7.34 6 6.68 6 6 C5.34 6 4.68 6 4 6 C4 5.34 4 4.68 4 4 C3.34 4 2.68 4 2 4 C1.34 2.68 0.68 1.36 0 0 Z " fill="#EAE9F2" transform="translate(228,92)"/>
<path d="M0 0 C1.32 0.33 2.64 0.66 4 1 C0.5798883 4.84762566 -3.46774256 7.60634022 -8 10 C-8.66 10 -9.32 10 -10 10 C-10 10.66 -10 11.32 -10 12 C-11.32 12.33 -12.64 12.66 -14 13 C-13.9375 11.1875 -13.9375 11.1875 -13 9 C-11.30373947 8.21711052 -9.59993517 7.44349411 -7.8515625 6.78515625 C-4.47231029 5.35218221 -1.64866043 3.29732087 0 0 Z " fill="#BCBBD4" transform="translate(292,353)"/>
<path d="M0 0 C0.33 0 0.66 0 1 0 C1.50068405 6.75923474 0.19036621 11.99272183 -3 18 C-4.63671875 19.79296875 -4.63671875 19.79296875 -6 21 C-5.62326774 17.23267737 -4.77532657 14.36229177 -3 11.0625 C-1.00547271 7.3119215 -0.35147481 4.21769767 0 0 Z M-7 21 C-6.67 21 -6.34 21 -6 21 C-6 22.98 -6 24.96 -6 27 C-6.66 26.01 -7.32 25.02 -8 24 C-7.67 23.01 -7.34 22.02 -7 21 Z " fill="#837EAB" transform="translate(286,119)"/>
<path d="M0 0 C0.33 0.66 0.66 1.32 1 2 C0.236875 2.7425 -0.52625 3.485 -1.3125 4.25 C-3.46232434 6.44982025 -5.20319789 8.52939709 -7 11 C-8.64786519 13.0162701 -10.32399795 15.00691648 -12 17 C-12.66 16.67 -13.32 16.34 -14 16 C-9.59802297 10.34669955 -5.19861358 4.9386829 0 0 Z " fill="#8E86B6" transform="translate(71,69)"/>
<path d="M0 0 C0 4.15560231 -2.2820452 5.84099329 -5 8.6875 C-5.47695313 9.19861328 -5.95390625 9.70972656 -6.4453125 10.23632812 C-7.62359915 11.49709484 -8.81095253 12.74937686 -10 14 C-11 11 -11 11 -9.75 8.3125 C-9.1725 7.549375 -8.595 6.78625 -8 6 C-7.01 6 -6.02 6 -5 6 C-5 5.01 -5 4.02 -5 3 C-2.5 1.3125 -2.5 1.3125 0 0 Z " fill="#A19EBF" transform="translate(438,230)"/>
<path d="M0 0 C0.33 0.66 0.66 1.32 1 2 C-3.73898266 4.45153075 -8.12062333 4.23154206 -13.3125 4.125 C-14.14845703 4.11597656 -14.98441406 4.10695312 -15.84570312 4.09765625 C-17.89725969 4.07420989 -19.94866777 4.03834266 -22 4 C-22 3.67 -22 3.34 -22 3 C-11.11 1.515 -11.11 1.515 0 0 Z " fill="#8884AE" transform="translate(234,168)"/>
<path d="M0 0 C2.97 0.495 2.97 0.495 6 1 C4.70700306 3.88437779 3.34058637 5.87219421 1 8 C0.01 7.67 -0.98 7.34 -2 7 C-1.34 4.69 -0.68 2.38 0 0 Z " fill="#9F99BB" transform="translate(148,234)"/>
<path d="M0 0 C0.66 0.33 1.32 0.66 2 1 C0.04594482 2.50587739 -1.91281284 4.00478644 -3.875 5.5 C-4.43058594 5.92925781 -4.98617188 6.35851562 -5.55859375 6.80078125 C-9.7734375 10 -9.7734375 10 -12 10 C-12 9.34 -12 8.68 -12 8 C-11.34 8 -10.68 8 -10 8 C-9.34 6.68 -8.68 5.36 -8 4 C-7.34 4 -6.68 4 -6 4 C-6 3.34 -6 2.68 -6 2 C-5.38125 1.855625 -4.7625 1.71125 -4.125 1.5625 C-1.96741678 1.06847775 -1.96741678 1.06847775 0 0 Z " fill="#B9B7CE" transform="translate(321,335)"/>
<path d="M0 0 C0.66 0.33 1.32 0.66 2 1 C-2.29 5.29 -6.58 9.58 -11 14 C-11.33 13.01 -11.66 12.02 -12 11 C-11.01 10.67 -10.02 10.34 -9 10 C-8.31558691 8.6756885 -7.65095851 7.34107242 -7 6 C-5.2734375 4.296875 -5.2734375 4.296875 -3.375 2.75 C-2.74335938 2.22921875 -2.11171875 1.7084375 -1.4609375 1.171875 C-0.73777344 0.59179688 -0.73777344 0.59179688 0 0 Z " fill="#A8A5C3" transform="translate(412,257)"/>
<path d="M0 0 C0.99 0.33 1.98 0.66 3 1 C1.40423801 2.50893816 -0.20189911 4.00691076 -1.8125 5.5 C-2.70582031 6.3353125 -3.59914063 7.170625 -4.51953125 8.03125 C-7 10 -7 10 -10 10 C-10 9.34 -10 8.68 -10 8 C-7.91796875 6.01953125 -7.91796875 6.01953125 -5.1875 3.8125 C-4.29417969 3.07644531 -3.40085937 2.34039062 -2.48046875 1.58203125 C-1.66191406 1.05996094 -0.84335938 0.53789062 0 0 Z " fill="#A9A3C6" transform="translate(121,262)"/>
<path d="M0 0 C2.35953094 2.35953094 2.49141413 3.77895617 3 7 C1.68 7 0.36 7 -1 7 C-3.25 4.5 -3.25 4.5 -5 2 C-3.35 1.34 -1.7 0.68 0 0 Z " fill="#A49FC8" transform="translate(423,125)"/>
<path d="M0 0 C0.99 0 1.98 0 3 0 C2.67 2.31 2.34 4.62 2 7 C1.67 6.34 1.34 5.68 1 5 C0.34 5 -0.32 5 -1 5 C-1.28875 5.804375 -1.5775 6.60875 -1.875 7.4375 C-3 10 -3 10 -5 11 C-3.78310457 6.97488434 -2.50546238 3.40742883 0 0 Z " fill="#908AB0" transform="translate(27,362)"/>
<path d="M0 0 C0.99 0.33 1.98 0.66 3 1 C0.36 3.64 -2.28 6.28 -5 9 C-5.99 8.67 -6.98 8.34 -8 8 C-7.67 7.01 -7.34 6.02 -7 5 C-6.01 5.33 -5.02 5.66 -4 6 C-3.67 4.68 -3.34 3.36 -3 2 C-2.01 2 -1.02 2 0 2 C0 1.34 0 0.68 0 0 Z " fill="#ACA9C8" transform="translate(388,279)"/>
<path d="M0 0 C0.99 0.33 1.98 0.66 3 1 C-0.3 4.3 -3.6 7.6 -7 11 C-7.66 10.67 -8.32 10.34 -9 10 C-6.03 6.7 -3.06 3.4 0 0 Z " fill="#837E9F" transform="translate(425,318)"/>
<path d="M0 0 C0.33 0.66 0.66 1.32 1 2 C-1.39831431 6.88887148 -4.00175912 10.33494586 -8 14 C-7.39816251 11.97954558 -6.72693904 9.97888961 -6 8 C-5.34 7.67 -4.68 7.34 -4 7 C-2.96708324 5.01679982 -1.9662501 3.01652194 -1 1 C-0.67 0.67 -0.34 0.34 0 0 Z " fill="#9E9ABF" transform="translate(447,216)"/>
<path d="M0 0 C0.66 0 1.32 0 2 0 C2.80464705 3.72063292 3.3250578 7.39833154 3.6875 11.1875 C3.79449219 12.23292969 3.90148437 13.27835938 4.01171875 14.35546875 C4 17 4 17 2 19 C1.34 12.73 0.68 6.46 0 0 Z " fill="#9C99BE" transform="translate(472,195)"/>
<path d="M0 0 C0.66 1.32 1.32 2.64 2 4 C1.2575 4.53625 0.515 5.0725 -0.25 5.625 C-3.17674961 8.15264739 -4.98621339 10.71827368 -7 14 C-7 10.11708254 -5.62139506 8.53247465 -3.5 5.3125 C-2.8503125 4.31863281 -2.200625 3.32476562 -1.53125 2.30078125 C-0.77328125 1.16189453 -0.77328125 1.16189453 0 0 Z " fill="#9088B5" transform="translate(52,91)"/>
<path d="M0 0 C-4.455 3.465 -4.455 3.465 -9 7 C-9.66 6.67 -10.32 6.34 -11 6 C-9.8125 3.0625 -9.8125 3.0625 -8 0 C-4.68204004 -1.24423499 -3.38718527 -1.12906176 0 0 Z " fill="#B8B6CF" transform="translate(341,323)"/>
<path d="M0 0 C0.66 0 1.32 0 2 0 C2 2.64 2 5.28 2 8 C2.66 8.33 3.32 8.66 4 9 C2.02 9 0.04 9 -2 9 C-1.34 6.03 -0.68 3.06 0 0 Z " fill="#EFEDF8" transform="translate(242,111)"/>
<path d="M0 0 C3.36704285 -0.2295711 5.41370268 -0.33943529 8.375 1.375 C8.91125 1.91125 9.4475 2.4475 10 3 C10 3.66 10 4.32 10 5 C7.69 4.67 5.38 4.34 3 4 C3 3.34 3 2.68 3 2 C2.01 1.67 1.02 1.34 0 1 C0 0.67 0 0.34 0 0 Z " fill="#B3AFD5" transform="translate(96,209)"/>
<path d="M0 0 C3.55007718 3.9050849 4.81819916 6.97734643 6 12 C5.01 11.67 4.02 11.34 3 11 C3 10.01 3 9.02 3 8 C2.34 8 1.68 8 1 8 C0.67 5.36 0.34 2.72 0 0 Z " fill="#A3A1BE" transform="translate(441,182)"/>
<path d="M0 0 C1.10758667 0.08640747 1.10758667 0.08640747 2.23754883 0.17456055 C3.03999023 0.2293457 3.84243164 0.28413086 4.66918945 0.34057617 C5.50256836 0.4134082 6.33594727 0.48624023 7.19458008 0.5612793 C8.46205078 0.653125 8.46205078 0.653125 9.75512695 0.74682617 C11.84020103 0.89996721 13.92383284 1.07252087 16.00708008 1.2487793 C16.00708008 1.5787793 16.00708008 1.9087793 16.00708008 2.2487793 C5.61208008 2.7437793 5.61208008 2.7437793 -4.99291992 3.2487793 C-1.99291992 0.2487793 -1.99291992 0.2487793 0 0 Z " fill="#A19CBF" transform="translate(198.992919921875,15.751220703125)"/>
<path d="M0 0 C2.10546875 0.42578125 2.10546875 0.42578125 4 1 C3.0479279 2.00596297 2.08812654 3.00461563 1.125 4 C0.59132813 4.556875 0.05765625 5.11375 -0.4921875 5.6875 C-2 7 -2 7 -4 7 C-3.59316505 4.64035727 -3.10185661 3.14065912 -1.6875 1.1875 C-1.130625 0.795625 -0.57375 0.40375 0 0 Z " fill="#ADABC6" transform="translate(395,272)"/>
<path d="M0 0 C-1.25535985 3.76607955 -2.52883585 4.26441793 -6 6 C-6.99 6 -7.98 6 -9 6 C-7.8803014 4.99406757 -6.7540588 3.9954151 -5.625 3 C-4.68527344 2.1646875 -4.68527344 2.1646875 -3.7265625 1.3125 C-2 0 -2 0 0 0 Z M-11 7 C-10.34 7 -9.68 7 -9 7 C-9.33 7.99 -9.66 8.98 -10 10 C-10.66 10 -11.32 10 -12 10 C-11.67 9.01 -11.34 8.02 -11 7 Z " fill="#EEEBFA" transform="translate(152,240)"/>
<path d="M0 0 C0.66 0 1.32 0 2 0 C1.5206753 4.31392226 0.2542015 6.16569547 -3 9 C-3.33 8.34 -3.66 7.68 -4 7 C-3.22265625 5.2734375 -3.22265625 5.2734375 -2.0625 3.375 C-1.381875 2.26125 -0.70125 1.1475 0 0 Z " fill="#A6A1BF" transform="translate(468,230)"/>
<path d="M0 0 C5.28 0 10.56 0 16 0 C16 0.33 16 0.66 16 1 C14.95199219 1.07347656 14.95199219 1.07347656 13.8828125 1.1484375 C12.97273437 1.22320312 12.06265625 1.29796875 11.125 1.375 C10.22007812 1.44460937 9.31515625 1.51421875 8.3828125 1.5859375 C5.82058097 1.79568132 5.82058097 1.79568132 4 4 C2.68 2.68 1.36 1.36 0 0 Z " fill="#7B789C" transform="translate(211,172)"/>
<path d="M0 0 C0.33 0 0.66 0 1 0 C1.56561146 5.65611463 -0.28608722 9.22642128 -3 14 C-4.25955231 10.22134307 -3.48087189 8.96588214 -2.0625 5.3125 C-1.68222656 4.31863281 -1.30195313 3.32476562 -0.91015625 2.30078125 C-0.60980469 1.54152344 -0.30945313 0.78226562 0 0 Z " fill="#8D89B5" transform="translate(285,120)"/>
<path d="M0 0 C3.63 0 7.26 0 11 0 C8 3 8 3 5.95703125 3.07421875 C2.97851562 2.53710938 2.97851562 2.53710938 0 2 C0 1.34 0 0.68 0 0 Z " fill="#8D8BAA" transform="translate(229,120)"/>
<path d="M0 0 C0.66 0.33 1.32 0.66 2 1 C-0.20979308 3.81939117 -2.40062046 6.53058944 -5 9 C-5.99 8.67 -6.98 8.34 -8 8 C-7.0479279 6.99403703 -6.08812654 5.99538437 -5.125 5 C-4.59132813 4.443125 -4.05765625 3.88625 -3.5078125 3.3125 C-2 2 -2 2 0 2 C0 1.34 0 0.68 0 0 Z " fill="#948FAC" transform="translate(419,291)"/>
<path d="M0 0 C1.98 0 3.96 0 6 0 C6.33 0.66 6.66 1.32 7 2 C9.01669827 3.13350534 9.01669827 3.13350534 11 4 C6.78121808 4.19622241 3.82989106 3.80230168 0 2 C0 1.34 0 0.68 0 0 Z " fill="#CBC8E3" transform="translate(192,140)"/>
<path d="M0 0 C1.37562854 1.28965176 2.70766393 2.62689293 4 4 C4 4.66 4 5.32 4 6 C3.01 6 2.02 6 1 6 C1 5.34 1 4.68 1 4 C-0.32 3.67 -1.64 3.34 -3 3 C-3 2.34 -3 1.68 -3 1 C-2.01 0.67 -1.02 0.34 0 0 Z " fill="#948DBA" transform="translate(462,170)"/>
<path d="M0 0 C1.65 0 3.3 0 5 0 C5 1.32 5 2.64 5 4 C4.34 4.66 3.68 5.32 3 6 C0 2.25 0 2.25 0 0 Z " fill="#9E98C6" transform="translate(445,153)"/>
<path d="M0 0 C0.33 0.99 0.66 1.98 1 3 C0.34 3.66 -0.32 4.32 -1 5 C-1 4.34 -1 3.68 -1 3 C-3.31 3 -5.62 3 -8 3 C-8 2.34 -8 1.68 -8 1 C-5.36 0.67 -2.72 0.34 0 0 Z " fill="#DDDAEC" transform="translate(212,139)"/>
<path d="M0 0 C1.32 0 2.64 0 4 0 C4 0.66 4 1.32 4 2 C4.66 2 5.32 2 6 2 C6 3.32 6 4.64 6 6 C4.68 5.34 3.36 4.68 2 4 C2 3.34 2 2.68 2 2 C1.34 2 0.68 2 0 2 C0 1.34 0 0.68 0 0 Z " fill="#EFEFF2" transform="translate(188,130)"/>
<path d="M0 0 C0.66 0 1.32 0 2 0 C0.74194623 4.50802601 -0.90407165 7.4912812 -4 11 C-3.67 8.69 -3.34 6.38 -3 4 C-2.34 4 -1.68 4 -1 4 C-0.67 2.68 -0.34 1.36 0 0 Z " fill="#9590B8" transform="translate(61,96)"/>
<path d="M0 0 C0.99 0.33 1.98 0.66 3 1 C-0.96 4.465 -0.96 4.465 -5 8 C-5.33 7.34 -5.66 6.68 -6 6 C-5.01 5.34 -4.02 4.68 -3 4 C-2.67 3.01 -2.34 2.02 -2 1 C-1.34 0.67 -0.68 0.34 0 0 Z " fill="#AEABCD" transform="translate(378,288)"/>
<path d="M0 0 C2.9719385 1.12451727 5.33440687 2.22293791 8 4 C8 4.66 8 5.32 8 6 C8.99 6.33 9.98 6.66 11 7 C10.01 7.495 10.01 7.495 9 8 C8.34 7.67 7.68 7.34 7 7 C7 6.34 7 5.68 7 5 C6.21625 4.731875 5.4325 4.46375 4.625 4.1875 C2 3 2 3 0 0 Z " fill="#A7A3CD" transform="translate(65,189)"/>
<path d="M0 0 C1.98 0 3.96 0 6 0 C6 0.66 6 1.32 6 2 C3 4 3 4 -1 4 C-0.67 2.68 -0.34 1.36 0 0 Z " fill="#9A96C4" transform="translate(144,24)"/>
<path d="M0 0 C1.45742463 -0.08096803 2.91612807 -0.13917774 4.375 -0.1875 C5.18710938 -0.22230469 5.99921875 -0.25710937 6.8359375 -0.29296875 C7.55007812 -0.19628906 8.26421875 -0.09960938 9 0 C9.66 0.99 10.32 1.98 11 3 C7.37 2.67 3.74 2.34 0 2 C0 1.34 0 0.68 0 0 Z " fill="#9F99BB" transform="translate(218,17)"/>
<path d="M0 0 C0.33 0.66 0.66 1.32 1 2 C-0.3125 4.625 -0.3125 4.625 -2 7 C-2.66 7 -3.32 7 -4 7 C-4 6.34 -4 5.68 -4 5 C-4.66 4.67 -5.32 4.34 -6 4 C-4.02 2.68 -2.04 1.36 0 0 Z " fill="#7F7A9B" transform="translate(310,376)"/>
<path d="M0 0 C0.99 0.33 1.98 0.66 3 1 C-0.465 3.97 -0.465 3.97 -4 7 C-4.33 6.34 -4.66 5.68 -5 5 C-3.35 3.35 -1.7 1.7 0 0 Z " fill="#A29EC0" transform="translate(144,242)"/>
<path d="M0 0 C6.875 3.75 6.875 3.75 8 6 C5.03 5.01 2.06 4.02 -1 3 C-0.67 2.01 -0.34 1.02 0 0 Z " fill="#B4B0CA" transform="translate(67,169)"/>
<path d="M0 0 C1.65 1.65 3.3 3.3 5 5 C4.34 6.32 3.68 7.64 3 9 C0 2.25 0 2.25 0 0 Z " fill="#B3B1CB" transform="translate(188,144)"/>
<path d="M0 0 C0.33 0.66 0.66 1.32 1 2 C-3.75 6.875 -3.75 6.875 -6 8 C-6.33 6.68 -6.66 5.36 -7 4 C-4.69 2.68 -2.38 1.36 0 0 Z " fill="#827DA0" transform="translate(323,368)"/>
<path d="M0 0 C0.33 0.99 0.66 1.98 1 3 C-0.28965176 4.37562854 -1.62689293 5.70766393 -3 7 C-3.66 7 -4.32 7 -5 7 C-3.70700306 4.11562221 -2.34058637 2.12780579 0 0 Z " fill="#9A93BB" transform="translate(91,288)"/>
<path d="M0 0 C5.875 3.75 5.875 3.75 7 6 C4.625 5.8125 4.625 5.8125 2 5 C0.6875 2.4375 0.6875 2.4375 0 0 Z " fill="#B0AEC5" transform="translate(59,163)"/>
<path d="M0 0 C3.41158256 1.13719419 4.11854601 2.04342944 6 5 C6 5.66 6 6.32 6 7 C5.34 7 4.68 7 4 7 C3.67 6.34 3.34 5.68 3 5 C2.01 4.67 1.02 4.34 0 4 C0 2.68 0 1.36 0 0 Z " fill="#A9A7C4" transform="translate(423,158)"/>
<path d="M0 0 C1.32 0 2.64 0 4 0 C4 1.32 4 2.64 4 4 C3.34 4 2.68 4 2 4 C1.34 4.99 0.68 5.98 0 7 C0 4.69 0 2.38 0 0 Z " fill="#CFCDDE" transform="translate(188,136)"/>
<path d="M0 0 C0.33 0 0.66 0 1 0 C1.08096803 1.45742463 1.13917774 2.91612807 1.1875 4.375 C1.22230469 5.18710938 1.25710937 5.99921875 1.29296875 6.8359375 C1.19628906 7.55007812 1.09960938 8.26421875 1 9 C0.01 9.66 -0.98 10.32 -2 11 C-1 3.57142857 -1 3.57142857 0 0 Z " fill="#938DBF" transform="translate(37,126)"/>
<path d="M0 0 C3.37462715 0.54723683 5.08235 1.0549 8 3 C7.34 3.66 6.68 4.32 6 5 C3.98079663 3.69593116 1.98075027 2.36176581 0 1 C0 0.67 0 0.34 0 0 Z " fill="#B0ADC8" transform="translate(254,98)"/>
</svg>
