<?xml version="1.0" encoding="UTF-8"?>
<svg version="1.1" xmlns="http://www.w3.org/2000/svg" width="500" height="500">
<path d="M0 0 C1.96549805 -0.0299707 1.96549805 -0.0299707 3.97070312 -0.06054688 C5.87045898 -0.05958008 5.87045898 -0.05958008 7.80859375 -0.05859375 C8.96029053 -0.06044678 10.1119873 -0.0622998 11.29858398 -0.06420898 C15.3067907 0.55190776 17.44389358 1.8772061 20.5625 4.4375 C20.8715715 5.06174606 21.180643 5.68599212 21.4990803 6.32915473 C22.76329326 8.83559449 24.29129274 10.40984783 26.28009605 12.39001846 C27.05840857 13.16984628 27.83672108 13.9496741 28.63861883 14.75313306 C29.49774613 15.6037062 30.35687344 16.45427935 31.24203491 17.33062744 C32.60631306 18.69323547 32.60631306 18.69323547 33.99815238 20.08337092 C36.52401098 22.60593603 39.05604308 25.12222453 41.58908176 27.63757682 C44.31946962 30.35111588 47.04404284 33.07048144 49.76924133 35.78923035 C54.4933032 40.50068959 59.22078899 45.20869038 63.95038986 49.91458893 C70.79498477 56.72524255 77.63216209 63.54330514 84.4671535 70.3635951 C95.56485328 81.43739429 106.66554596 92.50818708 117.76953125 103.57568359 C118.76662152 104.5695035 118.76662152 104.5695035 119.78385504 105.58340058 C129.21426165 114.98259638 138.64764721 124.37879677 148.0822403 133.77379009 C148.74636077 134.43512393 149.41048123 135.09645777 150.09472656 135.77783203 C150.75803952 136.43835793 151.42135247 137.09888382 152.10476582 137.77942565 C163.16814815 148.79672351 174.22379411 159.8217471 185.27313769 170.85312438 C192.08826067 177.65654533 198.90982677 184.45337691 205.73982443 191.24186555 C210.42106145 195.89566543 215.09503736 200.55667535 219.76338433 205.22340521 C222.45647677 207.91509097 225.15273669 210.6033911 227.85787773 213.28297234 C230.79249385 216.19000593 233.71134966 219.11237497 236.6289978 222.03643799 C237.48366367 222.87808825 238.33832953 223.71973851 239.21889436 224.58689332 C247.71974092 233.1607653 250.86580091 240.82475132 250.87719727 252.88842773 C250.61383215 267.58856472 240.30044392 275.85728052 230.45132446 285.6554718 C229.55583464 286.55040492 228.66034482 287.44533803 227.73771894 288.36739033 C225.27215977 290.83131641 222.80351067 293.29212556 220.33432794 295.75241959 C217.66451556 298.41375542 214.99766006 301.07805135 212.33047485 303.74201965 C207.71523774 308.35097652 203.09828117 312.95820497 198.48024368 317.56435585 C191.80134445 324.22624392 185.12618786 330.89187244 178.45212023 337.55860057 C167.61954084 348.37925108 156.78545515 359.19839179 145.94970703 370.01586914 C145.30197383 370.66251222 144.65424063 371.30915529 143.98687916 371.97539362 C134.7795691 381.16706853 125.57077829 390.35725855 116.36140685 399.54686805 C115.7118545 400.19502708 115.06230216 400.84318611 114.39306641 401.51098633 C113.74430584 402.15835337 113.09554527 402.80572041 112.42712529 403.47270463 C101.6214959 414.25532377 90.81970804 425.04178175 80.02108037 435.83141297 C73.36098936 442.48564464 66.69765121 449.13659193 60.03013591 455.78338464 C55.46821816 460.33162542 50.90988428 464.88343699 46.35439451 469.43811593 C43.72392144 472.06788307 41.09180847 474.69595469 38.45533752 477.31970978 C35.6020934 480.15926387 32.75657007 483.00642912 29.91177368 485.85444641 C29.07123463 486.68847766 28.23069558 487.5225089 27.36468565 488.38181382 C26.60763126 489.14223361 25.85057687 489.9026534 25.07058144 490.68611622 C24.41252341 491.34287273 23.75446538 491.99962925 23.0764662 492.67628747 C21.34133941 494.46995655 21.34133941 494.46995655 20.5625 497.4375 C14.7566266 501.92400665 8.13063804 500.91279403 1.125 500.875 C-0.18533203 500.89498047 -1.49566406 500.91496094 -2.84570312 500.93554688 C-4.11220703 500.93490234 -5.37871094 500.93425781 -6.68359375 500.93359375 C-7.83529053 500.93544678 -8.9869873 500.9372998 -10.17358398 500.93920898 C-14.1817907 500.32309224 -16.31889358 498.9977939 -19.4375 496.4375 C-19.90119367 495.50087165 -19.90119367 495.50087165 -20.37425488 494.54532152 C-21.63769868 492.04061778 -23.16326824 490.47055571 -25.15230274 488.49336147 C-25.92999856 487.71538375 -26.70769437 486.93740603 -27.50895673 486.13585323 C-28.36740192 485.28732644 -29.22584711 484.43879966 -30.11030579 483.56455994 C-31.01911898 482.65827128 -31.92793218 481.75198263 -32.86428517 480.81823069 C-35.3882285 478.30146603 -37.91833121 475.79097317 -40.44942272 473.28140032 C-43.17781138 470.57397114 -45.90036454 467.86068608 -48.62350464 465.14797974 C-53.34442925 460.44648492 -58.06866349 455.74833732 -62.7948246 451.05210686 C-70.26831992 443.62535612 -77.73144627 436.18823369 -85.19291687 428.74940491 C-87.74640184 426.20392312 -90.29995381 423.65850854 -92.85352612 421.11311436 C-93.81081495 420.15888321 -93.81081495 420.15888321 -94.78744296 419.18537466 C-102.05309395 411.94321212 -109.32087344 404.70318731 -116.58959961 397.46411133 C-117.58629642 396.47147182 -117.58629642 396.47147182 -118.60312852 395.45877898 C-129.36385175 384.7423877 -140.13224593 374.03373025 -150.90261302 363.32703274 C-161.96407484 352.33040243 -173.01395525 341.32222352 -184.05404919 330.3041411 C-190.86135508 323.51126675 -197.67796487 316.72800696 -204.50690796 309.95688386 C-209.1897418 305.31211554 -213.86153282 300.65642791 -218.52488295 295.99209892 C-221.21358649 293.30352113 -223.90689682 290.62003721 -226.61367226 287.94964409 C-229.55352075 285.049079 -232.46940323 282.12551901 -235.38374329 279.19932556 C-236.23549631 278.36641383 -237.08724933 277.53350209 -237.96481305 276.67535061 C-244.7775805 269.76967077 -250.00778818 261.88182049 -250.08178711 251.88256836 C-250.05479736 251.1994458 -250.02780762 250.51632324 -250 249.8125 C-249.98267822 249.0810376 -249.96535645 248.3495752 -249.94750977 247.59594727 C-249.22942983 231.17877612 -235.13283431 220.99568931 -224.25634766 210.17456055 C-222.81830106 208.74007451 -221.38049205 207.30535027 -219.94290161 205.8704071 C-216.85976744 202.7937977 -213.77513219 199.71870418 -210.68935013 196.6447506 C-205.81261204 191.786361 -200.9402715 186.92357735 -196.06869507 182.06001282 C-182.21995281 168.23538419 -168.36525955 154.41672838 -154.50634766 140.60229492 C-146.84246951 132.96293563 -139.18216628 125.32000977 -131.5257076 117.67321426 C-126.68043685 112.83449534 -121.83068882 108.00032275 -116.97761083 103.16943491 C-113.96762834 100.17115047 -110.96180466 97.16872419 -107.95716476 94.16508675 C-106.55963811 92.7697141 -105.16038166 91.37607153 -103.75930786 89.98426056 C-101.85271007 88.08978582 -99.95230939 86.18930687 -98.05337524 84.28715515 C-97.49298447 83.73327218 -96.9325937 83.17938921 -96.35522139 82.60872191 C-93.99070234 80.22848424 -92.51409892 78.66729677 -91.4375 75.4375 C-90.7775 75.4375 -90.1175 75.4375 -89.4375 75.4375 C-89.4375 76.4275 -89.4375 77.4175 -89.4375 78.4375 C-88.4475 78.1075 -87.4575 77.7775 -86.4375 77.4375 C-79.50654722 84.20619583 -72.59471511 90.99368112 -65.7064743 97.80584049 C-62.50729766 100.96849989 -59.30194591 104.12432636 -56.08154297 107.26538086 C-52.97333375 110.29748021 -49.88258784 113.34641052 -46.80314636 116.40771294 C-45.6258741 117.57206033 -44.44246143 118.73023307 -43.25288391 119.88200569 C-41.58610386 121.49789423 -39.94261314 123.13446646 -38.30273438 124.77758789 C-37.55935066 125.48322121 -37.55935066 125.48322121 -36.8009491 126.20310974 C-34.16636917 128.89453826 -33.45060031 130.30647996 -33.07092285 134.10374451 C-33.4375 137.4375 -33.4375 137.4375 -34.4375 140.4375 C-35.41711735 153.2984764 -34.36411404 163.76974451 -25.875 174.125 C-23.43638362 176.84521181 -21.94950302 177.65634924 -18.4375 178.4375 C-16.4575 179.4275 -14.4775 180.4175 -12.4375 181.4375 C-12.4375 228.6275 -12.4375 275.8175 -12.4375 324.4375 C-13.7575 324.7675 -15.0775 325.0975 -16.4375 325.4375 C-17.2625 326.2625 -18.0875 327.0875 -18.9375 327.9375 C-21.4375 330.4375 -21.4375 330.4375 -23.40234375 330.83984375 C-27.58523866 332.06821788 -29.38314894 336.85245599 -31.4375 340.4375 C-35.87769654 348.72586687 -35.91776239 359.64849261 -33.60546875 368.69140625 C-31.31466651 374.61393342 -31.31466651 374.61393342 -26.4375 378.4375 C-26.31375 379.05625 -26.19 379.675 -26.0625 380.3125 C-25.21347733 383.19917709 -23.97659462 383.88583107 -21.4375 385.4375 C-19.7898962 386.14997732 -18.11986471 386.81150383 -16.4375 387.4375 C-15.16420162 387.9733464 -13.89343173 388.51523308 -12.625 389.0625 C-11.0471875 389.743125 -11.0471875 389.743125 -9.4375 390.4375 C-9.4375 391.0975 -9.4375 391.7575 -9.4375 392.4375 C-5.67449626 393.69183458 -2.16539091 393.54445422 1.75 393.5 C2.87438477 393.49323242 2.87438477 393.49323242 4.02148438 393.48632812 C5.86852383 393.47456354 7.71552213 393.45662865 9.5625 393.4375 C9.5625 392.7775 9.5625 392.1175 9.5625 391.4375 C11.8725 391.4375 14.1825 391.4375 16.5625 391.4375 C16.5625 390.7775 16.5625 390.1175 16.5625 389.4375 C19.20142176 387.65444476 21.53428863 386.44690379 24.5625 385.4375 C25.94099103 384.15090837 27.26779025 382.80836915 28.5625 381.4375 C29.3875 380.73625 30.2125 380.035 31.0625 379.3125 C36.78512027 372.73148669 38.96920952 363.70766716 38.83984375 355.09765625 C37.91571332 346.23381372 34.87030819 337.84623312 28.5625 331.4375 C25.75490127 329.40165723 25.75490127 329.40165723 23.0625 328.5 C20.43309702 327.38250373 19.28537115 326.68655464 17.5625 324.4375 C17.19335651 321.91315937 17.19335651 321.91315937 17.20173645 318.83772278 C17.19555046 317.0898069 17.19555046 317.0898069 17.1892395 315.30657959 C17.20002533 314.0269635 17.21081116 312.74734741 17.22192383 311.42895508 C17.22276998 310.06892414 17.2222952 308.70889183 17.22059631 307.34886169 C17.21973445 303.65482255 17.23739094 299.96107477 17.25831819 296.26710343 C17.2770532 292.40738792 17.27883291 288.54766596 17.28239441 284.68791199 C17.29172424 277.37809172 17.31635064 270.06840582 17.34644288 262.75864476 C17.37995777 254.43710798 17.39646556 246.11556483 17.41152918 237.79397738 C17.44289943 220.67507382 17.49567807 203.55630111 17.5625 186.4375 C21.20772395 188.1528013 23.63077494 190.2120487 26.53051758 193.03564453 C27.01063293 193.5010112 27.49074829 193.96637787 27.9854126 194.44584656 C29.56527251 195.9813377 31.13702307 197.52475248 32.70703125 199.0703125 C33.24520666 199.59908871 33.78338207 200.12786491 34.33786583 200.67266464 C37.18288424 203.47019531 40.02097327 206.27456339 42.85424805 209.08398438 C45.77936771 211.98134357 48.72929717 214.85202468 51.68546009 217.71765327 C53.95746925 219.9298522 56.20930592 222.16177692 58.456213 224.39944077 C59.53514226 225.46679213 60.62168833 226.52650165 61.71589088 227.57818985 C70.26844487 235.81765542 70.26844487 235.81765542 70.99064636 239.79600525 C70.73242188 241.92211914 70.73242188 241.92211914 69.5625 245.4375 C68.74359268 258.07015226 70.26255058 267.64286024 77.90234375 277.87890625 C79.96794104 279.81813759 81.90424332 280.48416687 84.5625 281.4375 C86.258719 282.25293964 87.9463421 283.08649569 89.625 283.9375 C90.46160156 284.3603125 91.29820312 284.783125 92.16015625 285.21875 C92.95292969 285.6209375 93.74570312 286.023125 94.5625 286.4375 C95.89538197 287.10506863 97.22855109 287.7720659 98.5625 288.4375 C98.5625 288.7675 98.5625 289.0975 98.5625 289.4375 C107.12924915 289.77078851 114.51323076 289.55334616 122.5625 286.4375 C122.5625 285.7775 122.5625 285.1175 122.5625 284.4375 C123.305 284.210625 124.0475 283.98375 124.8125 283.75 C128.10565164 282.17826853 129.33728157 280.28856111 131.5625 277.4375 C132.37203125 276.99921875 133.1815625 276.5609375 134.015625 276.109375 C139.11442602 272.7623093 140.88983999 266.02465389 142.375 260.3125 C143.09852316 249.21847816 141.64001221 239.97648243 135.5625 230.4375 C132.09913341 226.58579253 128.50691871 224.04443608 123.5625 222.4375 C122.428125 221.921875 121.29375 221.40625 120.125 220.875 C116.8619812 219.55834329 114.03861149 218.86141604 110.5625 218.4375 C110.5625 217.7775 110.5625 217.1175 110.5625 216.4375 C109.06261039 216.4098381 107.56256131 216.3908139 106.0625 216.375 C104.80953125 216.35759766 104.80953125 216.35759766 103.53125 216.33984375 C100.39780658 216.35649126 100.39780658 216.35649126 96.7502594 217.24313354 C93.2397704 217.68046587 92.70741327 217.52791482 89.50572205 215.53030396 C88.51114559 214.59186581 87.5401353 213.62804058 86.58959961 212.64501953 C86.05037872 212.12317581 85.51115784 211.60133209 84.95559692 211.06367493 C83.18528861 209.33795789 81.44992489 207.5813929 79.71484375 205.8203125 C78.49200671 204.606082 77.26791146 203.39311742 76.0426178 202.18136597 C73.48186583 199.63837998 70.93832321 197.07960098 68.40551758 194.50878906 C65.1621204 191.21972886 61.87786054 187.97534044 58.57919979 184.7418232 C56.04326072 182.2459701 53.53144279 179.72690003 51.02612495 177.20034409 C49.82434861 175.99442065 48.61500519 174.79598851 47.39802361 173.60541153 C37.91284559 164.28880075 37.91284559 164.28880075 37.06008911 159.78265381 C37.30483555 157.48656082 37.81888612 155.61408123 38.5625 153.4375 C39.64708383 143.19474488 36.56248307 133.03530501 30.125 125.0234375 C26.93184136 121.78238148 23.79819556 120.01357277 19.5625 118.4375 C18.28920162 117.9016536 17.01843173 117.35976692 15.75 116.8125 C14.1721875 116.131875 14.1721875 116.131875 12.5625 115.4375 C12.5625 114.7775 12.5625 114.1175 12.5625 113.4375 C5.6325 113.4375 -1.2975 113.4375 -8.4375 113.4375 C-8.4375 114.0975 -8.4375 114.7575 -8.4375 115.4375 C-10.3125 115.1875 -10.3125 115.1875 -12.4375 114.4375 C-12.83785965 113.5917038 -12.83785965 113.5917038 -13.24630737 112.7288208 C-14.85146583 109.64121525 -17.16929373 107.44322941 -19.62158203 105.02636719 C-20.14856689 104.49909027 -20.67555176 103.97181335 -21.21850586 103.42855835 C-22.95607476 101.69237928 -24.70061314 99.963386 -26.4453125 98.234375 C-27.65358322 97.02983563 -28.86141222 95.82485303 -30.06881714 94.6194458 C-33.24387077 91.45201894 -36.42488522 88.29064487 -39.60717773 85.13049316 C-42.85502076 81.90312911 -46.09719133 78.67007772 -49.33984375 75.4375 C-55.70018982 69.09858697 -62.06684753 62.76605376 -68.4375 56.4375 C-66.9126727 52.82905855 -64.77885348 50.54764454 -62.00366211 47.80834961 C-61.08608627 46.89738022 -60.16851044 45.98641083 -59.22312927 45.0478363 C-58.7329022 44.56584715 -58.24267513 44.08385799 -57.7375927 43.58726311 C-56.19916956 42.07443029 -54.66713709 40.55538123 -53.13661194 39.03456116 C-49.88829981 35.80907047 -46.6322202 32.59149147 -43.375 29.375 C-39.59668108 25.64387017 -35.82161062 21.90957389 -32.05487251 18.16674995 C-30.54491735 16.66976638 -29.02906808 15.17892873 -27.51292419 13.68821716 C-26.14128868 12.32649132 -26.14128868 12.32649132 -24.74194336 10.93725586 C-23.93301132 10.13879745 -23.12407928 9.34033905 -22.29063416 8.51768494 C-20.23374862 6.4844548 -20.23374862 6.4844548 -19.4375 3.4375 C-13.6316266 -1.04900665 -7.00563804 -0.03779403 0 0 Z M-72.4375 93.4375 C-71.4375 95.4375 -71.4375 95.4375 -71.4375 95.4375 Z M-4.4375 111.4375 C-4.4375 111.7675 -4.4375 112.0975 -4.4375 112.4375 C-0.4775 112.4375 3.4825 112.4375 7.5625 112.4375 C7.5625 112.1075 7.5625 111.7775 7.5625 111.4375 C3.6025 111.4375 -0.3575 111.4375 -4.4375 111.4375 Z " fill="#DE4B36" transform="translate(249.4375,-0.4375)"/>
<path d="M0 0 C0.33 0 0.66 0 1 0 C1 45.87 1 91.74 1 139 C0.67 139 0.34 139 0 139 C0 93.13 0 47.26 0 0 Z " fill="#AF554C" transform="translate(238,183)"/>
<path d="M0 0 C0.33 0 0.66 0 1 0 C1 44.55 1 89.1 1 135 C0.67 135 0.34 135 0 135 C0 90.45 0 45.9 0 0 Z " fill="#E80713" transform="translate(265,187)"/>
<path d="M0 0 C0.33 0.99 0.66 1.98 1 3 C-0.21484375 4.82421875 -0.21484375 4.82421875 -1.9375 6.6875 C-2.50339844 7.31011719 -3.06929688 7.93273437 -3.65234375 8.57421875 C-4.09707031 9.04472656 -4.54179688 9.51523438 -5 10 C-6.32 9.67 -7.64 9.34 -9 9 C-6.03 6.03 -3.06 3.06 0 0 Z " fill="#D24F2C" transform="translate(107,128)"/>
<path d="M0 0 C1.12894876 0.93274109 2.25300876 1.87140122 3.375 2.8125 C4.00148437 3.33457031 4.62796875 3.85664062 5.2734375 4.39453125 C7 6 7 6 9 9 C5.40094092 8.44449305 4.00090201 7.25112752 1.75 4.4375 C1.22921875 3.79683594 0.7084375 3.15617187 0.171875 2.49609375 C-0.21484375 2.00238281 -0.6015625 1.50867188 -1 1 C-0.67 0.67 -0.34 0.34 0 0 Z " fill="#C7160B" transform="translate(169,84)"/>
<path d="M0 0 C0 3 0 3 -1.75 5.04296875 C-2.4925 5.75066406 -3.235 6.45835937 -4 7.1875 C-4.7425 7.90292969 -5.485 8.61835938 -6.25 9.35546875 C-7.11625 10.16951172 -7.11625 10.16951172 -8 11 C-8.66 10.67 -9.32 10.34 -10 10 C-6.7 6.7 -3.4 3.4 0 0 Z " fill="#C7321D" transform="translate(385,380)"/>
<path d="M0 0 C0.66 0.33 1.32 0.66 2 1 C-1.3 4.3 -4.6 7.6 -8 11 C-8 8 -8 8 -6.25 5.95703125 C-5.5075 5.24933594 -4.765 4.54164062 -4 3.8125 C-2.88625 2.73935547 -2.88625 2.73935547 -1.75 1.64453125 C-1.1725 1.10183594 -0.595 0.55914062 0 0 Z " fill="#BC2F1D" transform="translate(123,109)"/>
<path d="M0 0 C0 3 0 3 -1.53125 4.82421875 C-2.1809375 5.43910156 -2.830625 6.05398438 -3.5 6.6875 C-4.1496875 7.31011719 -4.799375 7.93273437 -5.46875 8.57421875 C-5.9740625 9.04472656 -6.479375 9.51523437 -7 10 C-7.66 9.67 -8.32 9.34 -9 9 C-6.03 6.03 -3.06 3.06 0 0 Z " fill="#C7321A" transform="translate(363,402)"/>
<path d="M0 0 C0 3 0 3 -1.53125 4.82421875 C-2.1809375 5.43910156 -2.830625 6.05398438 -3.5 6.6875 C-4.1496875 7.31011719 -4.799375 7.93273437 -5.46875 8.57421875 C-5.9740625 9.04472656 -6.479375 9.51523437 -7 10 C-7.66 9.67 -8.32 9.34 -9 9 C-6.03 6.03 -3.06 3.06 0 0 Z " fill="#B4331C" transform="translate(426,339)"/>
<path d="M0 0 C0 3 0 3 -1.53125 4.82421875 C-2.1809375 5.43910156 -2.830625 6.05398438 -3.5 6.6875 C-4.1496875 7.31011719 -4.799375 7.93273437 -5.46875 8.57421875 C-5.9740625 9.04472656 -6.479375 9.51523437 -7 10 C-7.66 9.67 -8.32 9.34 -9 9 C-6.03 6.03 -3.06 3.06 0 0 Z " fill="#AD321C" transform="translate(467,298)"/>
<path d="M0 0 C0 3 0 3 -1.53125 4.82421875 C-2.1809375 5.43910156 -2.830625 6.05398438 -3.5 6.6875 C-4.1496875 7.31011719 -4.799375 7.93273437 -5.46875 8.57421875 C-5.9740625 9.04472656 -6.479375 9.51523437 -7 10 C-7.66 9.67 -8.32 9.34 -9 9 C-6.03 6.03 -3.06 3.06 0 0 Z " fill="#BD3419" transform="translate(488,277)"/>
<path d="M0 0 C0.66 0.33 1.32 0.66 2 1 C-0.97 3.97 -3.94 6.94 -7 10 C-7 7 -7 7 -5.46875 5.17578125 C-4.8190625 4.56089844 -4.169375 3.94601563 -3.5 3.3125 C-2.8503125 2.68988281 -2.200625 2.06726563 -1.53125 1.42578125 C-0.77328125 0.72001953 -0.77328125 0.72001953 0 0 Z " fill="#A4361A" transform="translate(19,213)"/>
<path d="M0 0 C0.66 0.33 1.32 0.66 2 1 C-0.97 3.97 -3.94 6.94 -7 10 C-7 7 -7 7 -5.46875 5.17578125 C-4.8190625 4.56089844 -4.169375 3.94601563 -3.5 3.3125 C-2.8503125 2.68988281 -2.200625 2.06726563 -1.53125 1.42578125 C-0.77328125 0.72001953 -0.77328125 0.72001953 0 0 Z " fill="#AE3019" transform="translate(40,192)"/>
<path d="M0 0 C0.66 0.33 1.32 0.66 2 1 C-0.97 3.97 -3.94 6.94 -7 10 C-7 7 -7 7 -5.46875 5.17578125 C-4.8190625 4.56089844 -4.169375 3.94601563 -3.5 3.3125 C-2.8503125 2.68988281 -2.200625 2.06726563 -1.53125 1.42578125 C-0.77328125 0.72001953 -0.77328125 0.72001953 0 0 Z " fill="#B1311F" transform="translate(144,88)"/>
<path d="M0 0 C0.33 0 0.66 0 1 0 C1 1.98 1 3.96 1 6 C-0.32 6 -1.64 6 -3 6 C-3 4.68 -3 3.36 -3 2 C-2.01 2 -1.02 2 0 2 C0 1.34 0 0.68 0 0 Z " fill="#E84931" transform="translate(213,144)"/>
<path d="M0 0 C0 3 0 3 -1.3125 4.60546875 C-1.869375 5.12753906 -2.42625 5.64960938 -3 6.1875 C-3.556875 6.71730469 -4.11375 7.24710937 -4.6875 7.79296875 C-5.120625 8.19128906 -5.55375 8.58960938 -6 9 C-6.66 8.67 -7.32 8.34 -8 8 C-5.36 5.36 -2.72 2.72 0 0 Z " fill="#C7321B" transform="translate(405,360)"/>
<path d="M0 0 C0.33 0 0.66 0 1 0 C1 5.61 1 11.22 1 17 C0.67 17 0.34 17 0 17 C0 11.39 0 5.78 0 0 Z " fill="#C63B2C" transform="translate(215,348)"/>
<path d="M0 0 C0 3 0 3 -1.3125 4.60546875 C-1.869375 5.12753906 -2.42625 5.64960938 -3 6.1875 C-3.556875 6.71730469 -4.11375 7.24710937 -4.6875 7.79296875 C-5.120625 8.19128906 -5.55375 8.58960938 -6 9 C-6.66 8.67 -7.32 8.34 -8 8 C-5.36 5.36 -2.72 2.72 0 0 Z " fill="#B43423" transform="translate(446,319)"/>
<path d="M0 0 C0.66 0.33 1.32 0.66 2 1 C-0.64 3.64 -3.28 6.28 -6 9 C-6 6 -6 6 -4.6875 4.39453125 C-4.130625 3.87246094 -3.57375 3.35039062 -3 2.8125 C-2.443125 2.28269531 -1.88625 1.75289062 -1.3125 1.20703125 C-0.6628125 0.60955078 -0.6628125 0.60955078 0 0 Z " fill="#B3301E" transform="translate(60,172)"/>
<path d="M0 0 C0.66 0.33 1.32 0.66 2 1 C-0.64 3.64 -3.28 6.28 -6 9 C-6 6 -6 6 -4.6875 4.39453125 C-4.130625 3.87246094 -3.57375 3.35039062 -3 2.8125 C-2.443125 2.28269531 -1.88625 1.75289062 -1.3125 1.20703125 C-0.6628125 0.60955078 -0.6628125 0.60955078 0 0 Z " fill="#BB2F1E" transform="translate(80,152)"/>
<path d="M0 0 C0.33 0 0.66 0 1 0 C1 5.61 1 11.22 1 17 C0.67 17 0.34 17 0 17 C0 11.39 0 5.78 0 0 Z " fill="#B03C2B" transform="translate(215,140)"/>
<path d="M0 0 C4.95 0 9.9 0 15 0 C15 0.33 15 0.66 15 1 C10.05 1 5.1 1 0 1 C0 0.67 0 0.34 0 0 Z " fill="#C84830" transform="translate(244,392)"/>
<path d="M0 0 C0.33 0 0.66 0 1 0 C1 4.95 1 9.9 1 15 C0.67 15 0.34 15 0 15 C0 10.05 0 5.1 0 0 Z " fill="#C05A37" transform="translate(319,245)"/>
<path d="M0 0 C0.66 0.33 1.32 0.66 2 1 C-0.31 3.31 -2.62 5.62 -5 8 C-5 5 -5 5 -2.5 2.3125 C-1.675 1.549375 -0.85 0.78625 0 0 Z " fill="#C83623" transform="translate(101,131)"/>
<path d="M0 0 C4.62 0 9.24 0 14 0 C14 0.33 14 0.66 14 1 C9.38 1 4.76 1 0 1 C0 0.67 0 0.34 0 0 Z " fill="#C26C42" transform="translate(348,288)"/>
<path d="M0 0 C0 3 0 3 -2 5.1875 C-2.66 5.785625 -3.32 6.38375 -4 7 C-4.66 6.67 -5.32 6.34 -6 6 C-4.02 4.02 -2.04 2.04 0 0 Z " fill="#702E1E" transform="translate(415,350)"/>
<path d="M0 0 C0 3 0 3 -2 5.1875 C-2.66 5.785625 -3.32 6.38375 -4 7 C-4.66 6.67 -5.32 6.34 -6 6 C-4.02 4.02 -2.04 2.04 0 0 Z " fill="#79351D" transform="translate(436,329)"/>
<path d="M0 0 C0.66 0.33 1.32 0.66 2 1 C-1.465 3.97 -1.465 3.97 -5 7 C-3.38262276 3.76524552 -2.52370777 2.29427979 0 0 Z " fill="#7D3717" transform="translate(68,164)"/>
<path d="M0 0 C0.66 0.33 1.32 0.66 2 1 C-1.465 3.97 -1.465 3.97 -5 7 C-3.38262276 3.76524552 -2.52370777 2.29427979 0 0 Z " fill="#763115" transform="translate(89,143)"/>
<path d="M0 0 C0 3 0 3 -1.5 4.6875 C-1.995 5.120625 -2.49 5.55375 -3 6 C-3.66 5.67 -4.32 5.34 -5 5 C-3.35 3.35 -1.7 1.7 0 0 Z " fill="#983C1D" transform="translate(477,288)"/>
<path d="M0 0 C0.66 0.33 1.32 0.66 2 1 C-0.97 3.475 -0.97 3.475 -4 6 C-2.84826645 3.53199953 -1.95216435 1.95216435 0 0 Z " fill="#8A3D25" transform="translate(26,206)"/>
<path d="M0 0 C0.66 0.33 1.32 0.66 2 1 C-0.97 3.475 -0.97 3.475 -4 6 C-2.84826645 3.53199953 -1.95216435 1.95216435 0 0 Z " fill="#AA3011" transform="translate(151,81)"/>
<path d="M0 0 C3.3 0 6.6 0 10 0 C10 0.33 10 0.66 10 1 C6.7 1 3.4 1 0 1 C0 0.67 0 0.34 0 0 Z " fill="#C44D4D" transform="translate(350,216)"/>
<path d="M0 0 C0 0.99 0 1.98 0 3 C-1.98 3.99 -1.98 3.99 -4 5 C-2.68 3.35 -1.36 1.7 0 0 Z " fill="#C33815" transform="translate(372,393)"/>
<path d="M0 0 C0 0.99 0 1.98 0 3 C-1.98 3.99 -1.98 3.99 -4 5 C-2.68 3.35 -1.36 1.7 0 0 Z " fill="#C43519" transform="translate(394,371)"/>
<path d="M0 0 C0 0.99 0 1.98 0 3 C-1.98 3.99 -1.98 3.99 -4 5 C-2.68 3.35 -1.36 1.7 0 0 Z " fill="#864021" transform="translate(455,310)"/>
<path d="M0 0 C1.65 1.65 3.3 3.3 5 5 C3.0625 4.1875 3.0625 4.1875 1 3 C0.67 2.01 0.34 1.02 0 0 Z " fill="#A13721" transform="translate(34,299)"/>
<path d="M0 0 C1.65 1.65 3.3 3.3 5 5 C3.0625 4.1875 3.0625 4.1875 1 3 C0.67 2.01 0.34 1.02 0 0 Z " fill="#B33824" transform="translate(12,277)"/>
<path d="M0 0 C0.33 0 0.66 0 1 0 C1 2.97 1 5.94 1 9 C0.67 9 0.34 9 0 9 C0 6.03 0 3.06 0 0 Z " fill="#ED602D" transform="translate(391,248)"/>
<path d="M0 0 C1.98 0.99 1.98 0.99 4 2 C4 2.99 4 3.98 4 5 C2.68 3.35 1.36 1.7 0 0 Z " fill="#B63918" transform="translate(483,218)"/>
<path d="M0 0 C1.98 0.99 1.98 0.99 4 2 C4 2.99 4 3.98 4 5 C2.68 3.35 1.36 1.7 0 0 Z " fill="#A13C26" transform="translate(461,196)"/>
<path d="M0 0 C0.66 0.33 1.32 0.66 2 1 C0.35 2.32 -1.3 3.64 -3 5 C-1.125 1.125 -1.125 1.125 0 0 Z " fill="#8F3A1E" transform="translate(47,185)"/>
<path d="M0 0 C0.66 0.33 1.32 0.66 2 1 C0.35 2.32 -1.3 3.64 -3 5 C-1.125 1.125 -1.125 1.125 0 0 Z " fill="#CA3417" transform="translate(108,124)"/>
<path d="M0 0 C1.98 0.99 1.98 0.99 4 2 C4 2.99 4 3.98 4 5 C2.68 3.35 1.36 1.7 0 0 Z " fill="#B53C33" transform="translate(380,115)"/>
<path d="M0 0 C0.66 0.33 1.32 0.66 2 1 C0.35 2.32 -1.3 3.64 -3 5 C-1.125 1.125 -1.125 1.125 0 0 Z " fill="#A4361F" transform="translate(130,102)"/>
<path d="M0 0 C1.98 0.99 1.98 0.99 4 2 C4 2.99 4 3.98 4 5 C2.68 3.35 1.36 1.7 0 0 Z " fill="#C0352D" transform="translate(358,93)"/>
<path d="M0 0 C1.98 0.99 1.98 0.99 4 2 C4 2.99 4 3.98 4 5 C2.68 3.35 1.36 1.7 0 0 Z " fill="#A42F24" transform="translate(336,71)"/>
<path d="M0 0 C0.33 0 0.66 0 1 0 C1 2.64 1 5.28 1 8 C0.67 8 0.34 8 0 8 C0 5.36 0 2.72 0 0 Z " fill="#DB5038" transform="translate(287,353)"/>
<path d="M0 0 C1.98 0.99 1.98 0.99 4 2 C3.67 2.66 3.34 3.32 3 4 C2.01 2.68 1.02 1.36 0 0 Z " fill="#872E22" transform="translate(432,167)"/>
<path d="M0 0 C0.33 0 0.66 0 1 0 C1 2.31 1 4.62 1 7 C0.67 7 0.34 7 0 7 C0 4.69 0 2.38 0 0 Z " fill="#D74130" transform="translate(287,145)"/>
<path d="M0 0 C1.98 0.99 1.98 0.99 4 2 C3.67 2.66 3.34 3.32 3 4 C2.01 2.68 1.02 1.36 0 0 Z " fill="#AE3E2D" transform="translate(400,135)"/>
<path d="M0 0 C1.98 0.99 1.98 0.99 4 2 C3.67 2.66 3.34 3.32 3 4 C2.01 2.68 1.02 1.36 0 0 Z " fill="#902C17" transform="translate(369,104)"/>
<path d="M0 0 C1.98 0.99 1.98 0.99 4 2 C3.67 2.66 3.34 3.32 3 4 C2.01 2.68 1.02 1.36 0 0 Z " fill="#863219" transform="translate(307,42)"/>
<path d="M0 0 C1.98 0.99 1.98 0.99 4 2 C3.67 2.66 3.34 3.32 3 4 C2.01 2.68 1.02 1.36 0 0 Z " fill="#C13C1E" transform="translate(275,10)"/>
<path d="M0 0 C0.33 0 0.66 0 1 0 C1 1.98 1 3.96 1 6 C0.67 6 0.34 6 0 6 C0 4.02 0 2.04 0 0 Z " fill="#AB342F" transform="translate(390,257)"/>
<path d="M0 0 C0.33 0 0.66 0 1 0 C1 1.65 1 3.3 1 5 C0.67 5 0.34 5 0 5 C0 3.35 0 1.7 0 0 Z " fill="#A4332D" transform="translate(286,347)"/>
<path d="M0 0 C1.65 0 3.3 0 5 0 C5 0.33 5 0.66 5 1 C3.35 1 1.7 1 0 1 C0 0.67 0 0.34 0 0 Z " fill="#E62F2F" transform="translate(362,287)"/>
<path d="M0 0 C0.33 0 0.66 0 1 0 C1 1.65 1 3.3 1 5 C0.67 5 0.34 5 0 5 C0 3.35 0 1.7 0 0 Z " fill="#CD4F35" transform="translate(390,243)"/>
<path d="M0 0 C1.65 0 3.3 0 5 0 C5 0.33 5 0.66 5 1 C3.35 1 1.7 1 0 1 C0 0.67 0 0.34 0 0 Z " fill="#DD4940" transform="translate(345,217)"/>
<path d="M0 0 C0.99 0.33 1.98 0.66 3 1 C2.67 1.66 2.34 2.32 2 3 C1.34 2.01 0.68 1.02 0 0 Z " fill="#873418" transform="translate(275,191)"/>
<path d="M0 0 C0.99 0.33 1.98 0.66 3 1 C2.67 1.66 2.34 2.32 2 3 C1.34 2.01 0.68 1.02 0 0 Z " fill="#93331B" transform="translate(441,176)"/>
<path d="M0 0 C0.33 0 0.66 0 1 0 C1 1.65 1 3.3 1 5 C0.67 5 0.34 5 0 5 C0 3.35 0 1.7 0 0 Z " fill="#A83532" transform="translate(286,153)"/>
<path d="M0 0 C0.99 0.33 1.98 0.66 3 1 C2.67 1.66 2.34 2.32 2 3 C1.34 2.01 0.68 1.02 0 0 Z " fill="#9D3C20" transform="translate(419,154)"/>
<path d="M0 0 C0.99 0.33 1.98 0.66 3 1 C2.67 1.66 2.34 2.32 2 3 C1.34 2.01 0.68 1.02 0 0 Z " fill="#BB3C29" transform="translate(412,147)"/>
<path d="M0 0 C0.33 0 0.66 0 1 0 C1 1.65 1 3.3 1 5 C0.67 5 0.34 5 0 5 C0 3.35 0 1.7 0 0 Z " fill="#A74B30" transform="translate(286,139)"/>
<path d="M0 0 C0.33 0 0.66 0 1 0 C1 1.65 1 3.3 1 5 C0.67 5 0.34 5 0 5 C0 3.35 0 1.7 0 0 Z " fill="#974F39" transform="translate(217,132)"/>
<path d="M0 0 C0.99 0.33 1.98 0.66 3 1 C2.67 1.66 2.34 2.32 2 3 C1.34 2.01 0.68 1.02 0 0 Z " fill="#AD4028" transform="translate(397,132)"/>
<path d="M0 0 C0.99 0.33 1.98 0.66 3 1 C2.67 1.66 2.34 2.32 2 3 C1.34 2.01 0.68 1.02 0 0 Z " fill="#963C3D" transform="translate(390,125)"/>
<path d="M0 0 C0.99 0.33 1.98 0.66 3 1 C2.67 1.66 2.34 2.32 2 3 C1.34 2.01 0.68 1.02 0 0 Z " fill="#9D3A29" transform="translate(316,51)"/>
<path d="M0 0 C0.99 0.33 1.98 0.66 3 1 C2.67 1.66 2.34 2.32 2 3 C1.34 2.01 0.68 1.02 0 0 Z " fill="#A53619" transform="translate(294,29)"/>
<path d="M0 0 C0.99 0.33 1.98 0.66 3 1 C2.67 1.66 2.34 2.32 2 3 C1.34 2.01 0.68 1.02 0 0 Z " fill="#AE4021" transform="translate(287,22)"/>
<path d="M0 0 C0.99 0.33 1.98 0.66 3 1 C2.67 1.66 2.34 2.32 2 3 C1.34 2.01 0.68 1.02 0 0 Z " fill="#BB3E2A" transform="translate(272,7)"/>
<path d="M0 0 C1 4 1 4 1 4 Z " fill="#DC5B4E" transform="translate(286,362)"/>
<path d="M0 0 C0.99 0.495 0.99 0.495 2 1 C1.67 1.66 1.34 2.32 1 3 C0.67 2.01 0.34 1.02 0 0 Z " fill="#7D2217" transform="translate(279,333)"/>
<path d="M0 0 C0 3 0 3 0 3 Z " fill="#B0623B" transform="translate(223,332)"/>
<path d="M0 0 C0.99 0.495 0.99 0.495 2 1 C1.67 1.66 1.34 2.32 1 3 C0.67 2.01 0.34 1.02 0 0 Z " fill="#9E331C" transform="translate(326,274)"/>
<path d="M0 0 C0.99 0.495 0.99 0.495 2 1 C1.67 1.66 1.34 2.32 1 3 C0.67 2.01 0.34 1.02 0 0 Z " fill="#9C4527" transform="translate(1,264)"/>
<path d="M0 0 C1 4 1 4 1 4 Z " fill="#9B3533" transform="translate(320,260)"/>
<path d="M0 0 C1 4 1 4 1 4 Z " fill="#C83027" transform="translate(320,241)"/>
<path d="M0 0 C1 4 1 4 1 4 Z " fill="#9A4A39" transform="translate(321,237)"/>
<path d="M0 0 C1 4 1 4 1 4 Z " fill="#DB5528" transform="translate(285,158)"/>
<path d="M0 0 C4 1 4 1 4 1 Z " fill="#C04844" transform="translate(258,113)"/>
<path d="M0 0 C4 1 4 1 4 1 Z " fill="#C55035" transform="translate(241,113)"/>
<path d="M0 0 C3 1 3 1 3 1 Z " fill="#BB402D" transform="translate(240,391)"/>
<path d="M0 0 C3 1 3 1 3 1 Z " fill="#BA322B" transform="translate(263,390)"/>
<path d="" fill="#D04B31" transform="translate(0,0)"/>
<path d="" fill="#D94A29" transform="translate(0,0)"/>
<path d="" fill="#BE4B3F" transform="translate(0,0)"/>
<path d="" fill="#F1552D" transform="translate(0,0)"/>
<path d="" fill="#AD4543" transform="translate(0,0)"/>
<path d="" fill="#CB3823" transform="translate(0,0)"/>
<path d="M0 0 C0.66 0.66 1.32 1.32 2 2 C1.34 2 0.68 2 0 2 C0 1.34 0 0.68 0 0 Z " fill="#E44934" transform="translate(44,309)"/>
<path d="M0 0 C0.33 0.66 0.66 1.32 1 2 C0.34 1.67 -0.32 1.34 -1 1 C-0.67 0.67 -0.34 0.34 0 0 Z " fill="#7C391A" transform="translate(457,308)"/>
<path d="M0 0 C0.66 0.66 1.32 1.32 2 2 C1.34 2 0.68 2 0 2 C0 1.34 0 0.68 0 0 Z " fill="#913519" transform="translate(39,304)"/>
<path d="M0 0 C0.66 0.66 1.32 1.32 2 2 C1.34 2 0.68 2 0 2 C0 1.34 0 0.68 0 0 Z " fill="#BC4A44" transform="translate(32,297)"/>
<path d="M0 0 C0.66 0.66 1.32 1.32 2 2 C1.34 2 0.68 2 0 2 C0 1.34 0 0.68 0 0 Z " fill="#983A25" transform="translate(24,289)"/>
<path d="M0 0 C0.66 0.66 1.32 1.32 2 2 C1.34 2 0.68 2 0 2 C0 1.34 0 0.68 0 0 Z " fill="#BB4C23" transform="translate(17,282)"/>
<path d="M0 0 C0.66 0.66 1.32 1.32 2 2 C1.34 2 0.68 2 0 2 C0 1.34 0 0.68 0 0 Z " fill="#8E3630" transform="translate(10,275)"/>
<path d="" fill="#9C4840" transform="translate(0,0)"/>
<path d="" fill="#C94E38" transform="translate(0,0)"/>
<path d="" fill="#D4524B" transform="translate(0,0)"/>
<path d="" fill="#D6552E" transform="translate(0,0)"/>
<path d="" fill="#C74E3F" transform="translate(0,0)"/>
<path d="" fill="#BE4D39" transform="translate(0,0)"/>
<path d="M0 0 C0.66 0 1.32 0 2 0 C1.67 0.66 1.34 1.32 1 2 C0.67 1.34 0.34 0.68 0 0 Z " fill="#EE3F22" transform="translate(317,233)"/>
<path d="M0 0 C0.66 0 1.32 0 2 0 C1.67 0.66 1.34 1.32 1 2 C0.67 1.34 0.34 0.68 0 0 Z " fill="#803932" transform="translate(488,223)"/>
<path d="M0 0 C3 1 3 1 3 1 Z " fill="#D9472A" transform="translate(342,218)"/>
<path d="M0 0 C0.66 0 1.32 0 2 0 C1.67 0.66 1.34 1.32 1 2 C0.67 1.34 0.34 0.68 0 0 Z " fill="#C0461A" transform="translate(481,216)"/>
<path d="M0 0 C0.66 0 1.32 0 2 0 C1.67 0.66 1.34 1.32 1 2 C0.67 1.34 0.34 0.68 0 0 Z " fill="#97381C" transform="translate(295,211)"/>
<path d="M0 0 C0.66 0 1.32 0 2 0 C1.67 0.66 1.34 1.32 1 2 C0.67 1.34 0.34 0.68 0 0 Z " fill="#95381B" transform="translate(474,209)"/>
<path d="M0 0 C0.66 0 1.32 0 2 0 C1.67 0.66 1.34 1.32 1 2 C0.67 1.34 0.34 0.68 0 0 Z " fill="#B24A43" transform="translate(466,201)"/>
<path d="M0 0 C0.66 0 1.32 0 2 0 C1.67 0.66 1.34 1.32 1 2 C0.67 1.34 0.34 0.68 0 0 Z " fill="#8E321A" transform="translate(459,194)"/>
<path d="M0 0 C0.99 0.495 0.99 0.495 2 1 C1.01 1.495 1.01 1.495 0 2 C0 1.34 0 0.68 0 0 Z " fill="#773916" transform="translate(42,190)"/>
<path d="M0 0 C0.66 0 1.32 0 2 0 C1.67 0.66 1.34 1.32 1 2 C0.67 1.34 0.34 0.68 0 0 Z " fill="#E2482C" transform="translate(454,189)"/>
<path d="M0 0 C0.66 0 1.32 0 2 0 C1.67 0.66 1.34 1.32 1 2 C0.67 1.34 0.34 0.68 0 0 Z " fill="#A43F14" transform="translate(273,189)"/>
<path d="M0 0 C0.66 0 1.32 0 2 0 C1.67 0.66 1.34 1.32 1 2 C0.67 1.34 0.34 0.68 0 0 Z " fill="#AE3E21" transform="translate(452,187)"/>
<path d="M0 0 C0.66 0 1.32 0 2 0 C1.67 0.66 1.34 1.32 1 2 C0.67 1.34 0.34 0.68 0 0 Z " fill="#93392E" transform="translate(446,181)"/>
<path d="M0 0 C0.66 0 1.32 0 2 0 C1.67 0.66 1.34 1.32 1 2 C0.67 1.34 0.34 0.68 0 0 Z " fill="#BE4931" transform="translate(444,179)"/>
<path d="M0 0 C0.66 0 1.32 0 2 0 C1.67 0.66 1.34 1.32 1 2 C0.67 1.34 0.34 0.68 0 0 Z " fill="#802F19" transform="translate(439,174)"/>
<path d="M0 0 C0.66 0 1.32 0 2 0 C1.67 0.66 1.34 1.32 1 2 C0.67 1.34 0.34 0.68 0 0 Z " fill="#8E3720" transform="translate(437,172)"/>
<path d="" fill="#A74730" transform="translate(0,0)"/>
<path d="M0 0 C0.66 0 1.32 0 2 0 C1.67 0.66 1.34 1.32 1 2 C0.67 1.34 0.34 0.68 0 0 Z " fill="#C0433A" transform="translate(424,159)"/>
<path d="" fill="#D94A2C" transform="translate(0,0)"/>
<path d="M0 0 C0.66 0 1.32 0 2 0 C1.67 0.66 1.34 1.32 1 2 C0.67 1.34 0.34 0.68 0 0 Z " fill="#B9462A" transform="translate(422,157)"/>
<path d="M0 0 C0.66 0 1.32 0 2 0 C1.67 0.66 1.34 1.32 1 2 C0.67 1.34 0.34 0.68 0 0 Z " fill="#943924" transform="translate(417,152)"/>
<path d="" fill="#D94D43" transform="translate(0,0)"/>
<path d="" fill="#E34333" transform="translate(0,0)"/>
<path d="" fill="#DD493E" transform="translate(0,0)"/>
<path d="M0 0 C0.66 0 1.32 0 2 0 C1.67 0.66 1.34 1.32 1 2 C0.67 1.34 0.34 0.68 0 0 Z " fill="#99391D" transform="translate(395,130)"/>
<path d="M0 0 C0.66 0 1.32 0 2 0 C1.67 0.66 1.34 1.32 1 2 C0.67 1.34 0.34 0.68 0 0 Z " fill="#D53D24" transform="translate(393,128)"/>
<path d="M0 0 C0.66 0 1.32 0 2 0 C1.67 0.66 1.34 1.32 1 2 C0.67 1.34 0.34 0.68 0 0 Z " fill="#E24229" transform="translate(378,113)"/>
<path d="M0 0 C0.66 0 1.32 0 2 0 C1.67 0.66 1.34 1.32 1 2 C0.67 1.34 0.34 0.68 0 0 Z " fill="#A3361E" transform="translate(376,111)"/>
<path d="M0 0 C0.66 0 1.32 0 2 0 C1.67 0.66 1.34 1.32 1 2 C0.67 1.34 0.34 0.68 0 0 Z " fill="#A73020" transform="translate(363,98)"/>
<path d="M0 0 C0.66 0 1.32 0 2 0 C1.67 0.66 1.34 1.32 1 2 C0.67 1.34 0.34 0.68 0 0 Z " fill="#D1350C" transform="translate(356,91)"/>
<path d="M0 0 C0.66 0 1.32 0 2 0 C1.67 0.66 1.34 1.32 1 2 C0.67 1.34 0.34 0.68 0 0 Z " fill="#853E1C" transform="translate(349,84)"/>
<path d="M0 0 C0.66 0 1.32 0 2 0 C1.67 0.66 1.34 1.32 1 2 C0.67 1.34 0.34 0.68 0 0 Z " fill="#E03E33" transform="translate(341,76)"/>
<path d="M0 0 C0.66 0 1.32 0 2 0 C1.67 0.66 1.34 1.32 1 2 C0.67 1.34 0.34 0.68 0 0 Z " fill="#863815" transform="translate(334,69)"/>
<path d="M0 0 C0.66 0 1.32 0 2 0 C1.67 0.66 1.34 1.32 1 2 C0.67 1.34 0.34 0.68 0 0 Z " fill="#DB4123" transform="translate(329,64)"/>
<path d="M0 0 C0.66 0 1.32 0 2 0 C1.67 0.66 1.34 1.32 1 2 C0.67 1.34 0.34 0.68 0 0 Z " fill="#9E3827" transform="translate(327,62)"/>
<path d="M0 0 C0.66 0 1.32 0 2 0 C1.67 0.66 1.34 1.32 1 2 C0.67 1.34 0.34 0.68 0 0 Z " fill="#A6341E" transform="translate(321,56)"/>
<path d="M0 0 C0.66 0 1.32 0 2 0 C1.67 0.66 1.34 1.32 1 2 C0.67 1.34 0.34 0.68 0 0 Z " fill="#CD3320" transform="translate(319,54)"/>
<path d="M0 0 C0.66 0 1.32 0 2 0 C1.67 0.66 1.34 1.32 1 2 C0.67 1.34 0.34 0.68 0 0 Z " fill="#81341D" transform="translate(314,49)"/>
<path d="M0 0 C0.66 0 1.32 0 2 0 C1.67 0.66 1.34 1.32 1 2 C0.67 1.34 0.34 0.68 0 0 Z " fill="#87300E" transform="translate(312,47)"/>
<path d="M0 0 C0.66 0 1.32 0 2 0 C1.67 0.66 1.34 1.32 1 2 C0.67 1.34 0.34 0.68 0 0 Z " fill="#E03F1B" transform="translate(299,34)"/>
<path d="M0 0 C0.66 0 1.32 0 2 0 C1.67 0.66 1.34 1.32 1 2 C0.67 1.34 0.34 0.68 0 0 Z " fill="#D93A19" transform="translate(297,32)"/>
<path d="M0 0 C0.66 0 1.32 0 2 0 C1.67 0.66 1.34 1.32 1 2 C0.67 1.34 0.34 0.68 0 0 Z " fill="#9C3415" transform="translate(292,27)"/>
<path d="" fill="#B34A20" transform="translate(0,0)"/>
<path d="" fill="#FC3132" transform="translate(0,0)"/>
<path d="" fill="#C33F2E" transform="translate(0,0)"/>
<path d="" fill="#BB4A39" transform="translate(0,0)"/>
<path d="" fill="#652923" transform="translate(0,0)"/>
<path d="" fill="#BA6744" transform="translate(0,0)"/>
<path d="" fill="#A6723C" transform="translate(0,0)"/>
<path d="" fill="#B33730" transform="translate(0,0)"/>
<path d="" fill="#FD7B1B" transform="translate(0,0)"/>
<path d="" fill="#D14A3F" transform="translate(0,0)"/>
<path d="" fill="#CC541B" transform="translate(0,0)"/>
<path d="" fill="#BB1A1A" transform="translate(0,0)"/>
<path d="M0 0 C2 1 2 1 2 1 Z " fill="#DC6F19" transform="translate(233,324)"/>
<path d="M0 0 C2 1 2 1 2 1 Z " fill="#CA2D25" transform="translate(367,286)"/>
<path d="M0 0 C2 1 2 1 2 1 Z " fill="#F05A29" transform="translate(370,285)"/>
<path d="" fill="#AC432C" transform="translate(0,0)"/>
<path d="" fill="#E83112" transform="translate(0,0)"/>
<path d="" fill="#D33E37" transform="translate(0,0)"/>
<path d="" fill="#C4432E" transform="translate(0,0)"/>
<path d="" fill="#DB4510" transform="translate(0,0)"/>
<path d="" fill="#D83935" transform="translate(0,0)"/>
<path d="" fill="#CD2A17" transform="translate(0,0)"/>
<path d="" fill="#E03B02" transform="translate(0,0)"/>
<path d="" fill="#A36644" transform="translate(0,0)"/>
<path d="" fill="#E3341F" transform="translate(0,0)"/>
<path d="" fill="#F02626" transform="translate(0,0)"/>
<path d="" fill="#D55E3B" transform="translate(0,0)"/>
<path d="" fill="#BE692D" transform="translate(0,0)"/>
<path d="" fill="#742E2B" transform="translate(0,0)"/>
<path d="" fill="#B3432A" transform="translate(0,0)"/>
<path d="" fill="#DF2D2B" transform="translate(0,0)"/>
<path d="" fill="#D92C07" transform="translate(0,0)"/>
<path d="" fill="#A63A23" transform="translate(0,0)"/>
<path d="" fill="#D64C07" transform="translate(0,0)"/>
<path d="" fill="#C34017" transform="translate(0,0)"/>
<path d="" fill="#F93720" transform="translate(0,0)"/>
<path d="" fill="#C13829" transform="translate(0,0)"/>
<path d="" fill="#D92716" transform="translate(0,0)"/>
<path d="" fill="#FC7809" transform="translate(0,0)"/>
<path d="" fill="#EF7A31" transform="translate(0,0)"/>
<path d="" fill="#C41C19" transform="translate(0,0)"/>
<path d="" fill="#DF575E" transform="translate(0,0)"/>
<path d="" fill="#E27B45" transform="translate(0,0)"/>
<path d="" fill="#FF7C69" transform="translate(0,0)"/>
<path d="" fill="#DB5420" transform="translate(0,0)"/>
<path d="" fill="#E55848" transform="translate(0,0)"/>
<path d="" fill="#D8542A" transform="translate(0,0)"/>
<path d="" fill="#EF4944" transform="translate(0,0)"/>
<path d="" fill="#CA5C1D" transform="translate(0,0)"/>
<path d="" fill="#E35339" transform="translate(0,0)"/>
<path d="" fill="#C95C21" transform="translate(0,0)"/>
<path d="" fill="#F65022" transform="translate(0,0)"/>
<path d="" fill="#BD5E31" transform="translate(0,0)"/>
<path d="" fill="#ED5229" transform="translate(0,0)"/>
<path d="" fill="#BF6025" transform="translate(0,0)"/>
<path d="" fill="#FB4C2E" transform="translate(0,0)"/>
<path d="" fill="#BB632A" transform="translate(0,0)"/>
<path d="" fill="#EA5830" transform="translate(0,0)"/>
<path d="" fill="#BD6029" transform="translate(0,0)"/>
<path d="" fill="#EF522A" transform="translate(0,0)"/>
<path d="" fill="#D75A0E" transform="translate(0,0)"/>
<path d="" fill="#E2573F" transform="translate(0,0)"/>
<path d="" fill="#D85A19" transform="translate(0,0)"/>
<path d="" fill="#F04944" transform="translate(0,0)"/>
<path d="" fill="#E1512D" transform="translate(0,0)"/>
<path d="" fill="#E44F56" transform="translate(0,0)"/>
<path d="" fill="#E1512D" transform="translate(0,0)"/>
<path d="" fill="#E3555A" transform="translate(0,0)"/>
<path d="" fill="#D85A19" transform="translate(0,0)"/>
<path d="" fill="#CF4B48" transform="translate(0,0)"/>
<path d="" fill="#D95A11" transform="translate(0,0)"/>
<path d="" fill="#CA4944" transform="translate(0,0)"/>
<path d="" fill="#BF6030" transform="translate(0,0)"/>
<path d="" fill="#DA544F" transform="translate(0,0)"/>
<path d="" fill="#C15F35" transform="translate(0,0)"/>
<path d="" fill="#F5655D" transform="translate(0,0)"/>
<path d="" fill="#E0533A" transform="translate(0,0)"/>
<path d="" fill="#E7553B" transform="translate(0,0)"/>
<path d="" fill="#DC503D" transform="translate(0,0)"/>
<path d="" fill="#F84E1D" transform="translate(0,0)"/>
<path d="" fill="#D25920" transform="translate(0,0)"/>
<path d="" fill="#F15437" transform="translate(0,0)"/>
<path d="" fill="#D25B18" transform="translate(0,0)"/>
<path d="" fill="#F95133" transform="translate(0,0)"/>
<path d="" fill="#D95227" transform="translate(0,0)"/>
<path d="" fill="#C83E2B" transform="translate(0,0)"/>
<path d="" fill="#D7551F" transform="translate(0,0)"/>
<path d="" fill="#C94B43" transform="translate(0,0)"/>
<path d="" fill="#BA6227" transform="translate(0,0)"/>
<path d="" fill="#D14B38" transform="translate(0,0)"/>
<path d="" fill="#B6622A" transform="translate(0,0)"/>
<path d="" fill="#D84F25" transform="translate(0,0)"/>
<path d="" fill="#B85F29" transform="translate(0,0)"/>
<path d="" fill="#DA5227" transform="translate(0,0)"/>
<path d="" fill="#BB5B33" transform="translate(0,0)"/>
<path d="" fill="#EF4C0D" transform="translate(0,0)"/>
<path d="" fill="#D4551E" transform="translate(0,0)"/>
<path d="" fill="#D6461C" transform="translate(0,0)"/>
<path d="" fill="#D7561B" transform="translate(0,0)"/>
<path d="" fill="#F4572F" transform="translate(0,0)"/>
<path d="" fill="#D95229" transform="translate(0,0)"/>
<path d="" fill="#EA582E" transform="translate(0,0)"/>
<path d="" fill="#DA5522" transform="translate(0,0)"/>
<path d="" fill="#F64C2F" transform="translate(0,0)"/>
<path d="" fill="#BF612C" transform="translate(0,0)"/>
<path d="" fill="#E85840" transform="translate(0,0)"/>
<path d="" fill="#C16031" transform="translate(0,0)"/>
<path d="" fill="#FD5A56" transform="translate(0,0)"/>
<path d="" fill="#DC5636" transform="translate(0,0)"/>
<path d="" fill="#CF3E2F" transform="translate(0,0)"/>
<path d="" fill="#DA5444" transform="translate(0,0)"/>
<path d="" fill="#E74238" transform="translate(0,0)"/>
<path d="" fill="#E25037" transform="translate(0,0)"/>
<path d="" fill="#D95846" transform="translate(0,0)"/>
<path d="" fill="#E2522E" transform="translate(0,0)"/>
<path d="" fill="#B34335" transform="translate(0,0)"/>
<path d="" fill="#DA5A28" transform="translate(0,0)"/>
<path d="" fill="#E25D48" transform="translate(0,0)"/>
<path d="" fill="#D35C19" transform="translate(0,0)"/>
<path d="" fill="#F4442B" transform="translate(0,0)"/>
<path d="" fill="#B76626" transform="translate(0,0)"/>
<path d="" fill="#E25B36" transform="translate(0,0)"/>
<path d="" fill="#BD6228" transform="translate(0,0)"/>
<path d="" fill="#B4441A" transform="translate(0,0)"/>
<path d="" fill="#D75421" transform="translate(0,0)"/>
<path d="" fill="#DD6537" transform="translate(0,0)"/>
<path d="" fill="#D55427" transform="translate(0,0)"/>
<path d="" fill="#DC5218" transform="translate(0,0)"/>
<path d="" fill="#D95617" transform="translate(0,0)"/>
<path d="" fill="#CF533D" transform="translate(0,0)"/>
<path d="" fill="#D5561B" transform="translate(0,0)"/>
<path d="" fill="#C75549" transform="translate(0,0)"/>
<path d="" fill="#CD5631" transform="translate(0,0)"/>
<path d="" fill="#DA5535" transform="translate(0,0)"/>
<path d="" fill="#D0582C" transform="translate(0,0)"/>
<path d="" fill="#F94924" transform="translate(0,0)"/>
<path d="" fill="#CA5F2A" transform="translate(0,0)"/>
<path d="" fill="#EC4F22" transform="translate(0,0)"/>
<path d="" fill="#C8622C" transform="translate(0,0)"/>
<path d="" fill="#F04B27" transform="translate(0,0)"/>
<path d="" fill="#D45B19" transform="translate(0,0)"/>
<path d="" fill="#E34E2C" transform="translate(0,0)"/>
<path d="" fill="#D8591B" transform="translate(0,0)"/>
<path d="" fill="#EE4D12" transform="translate(0,0)"/>
<path d="" fill="#E1541B" transform="translate(0,0)"/>
<path d="" fill="#E85429" transform="translate(0,0)"/>
<path d="" fill="#E15323" transform="translate(0,0)"/>
<path d="" fill="#F5522E" transform="translate(0,0)"/>
<path d="" fill="#D85433" transform="translate(0,0)"/>
<path d="" fill="#E95343" transform="translate(0,0)"/>
<path d="" fill="#D65535" transform="translate(0,0)"/>
<path d="" fill="#E85253" transform="translate(0,0)"/>
<path d="" fill="#D25844" transform="translate(0,0)"/>
<path d="" fill="#DA524C" transform="translate(0,0)"/>
<path d="" fill="#D4583E" transform="translate(0,0)"/>
<path d="" fill="#EC4849" transform="translate(0,0)"/>
<path d="" fill="#D45621" transform="translate(0,0)"/>
<path d="" fill="#D94D41" transform="translate(0,0)"/>
<path d="" fill="#D5561D" transform="translate(0,0)"/>
<path d="" fill="#CE4D38" transform="translate(0,0)"/>
<path d="" fill="#D95617" transform="translate(0,0)"/>
<path d="" fill="#DA522E" transform="translate(0,0)"/>
<path d="" fill="#D55719" transform="translate(0,0)"/>
<path d="" fill="#F25528" transform="translate(0,0)"/>
<path d="" fill="#CD5A1F" transform="translate(0,0)"/>
<path d="" fill="#D94C20" transform="translate(0,0)"/>
<path d="" fill="#CB5D1E" transform="translate(0,0)"/>
<path d="" fill="#FA4B29" transform="translate(0,0)"/>
<path d="" fill="#C25F2A" transform="translate(0,0)"/>
<path d="" fill="#E95124" transform="translate(0,0)"/>
<path d="" fill="#C75E26" transform="translate(0,0)"/>
<path d="" fill="#F04C21" transform="translate(0,0)"/>
<path d="" fill="#DA5812" transform="translate(0,0)"/>
<path d="" fill="#E24C38" transform="translate(0,0)"/>
<path d="" fill="#D35618" transform="translate(0,0)"/>
<path d="" fill="#E5473F" transform="translate(0,0)"/>
<path d="" fill="#B2612D" transform="translate(0,0)"/>
<path d="" fill="#D35438" transform="translate(0,0)"/>
<path d="" fill="#B3602D" transform="translate(0,0)"/>
<path d="" fill="#DB5621" transform="translate(0,0)"/>
<path d="" fill="#D15516" transform="translate(0,0)"/>
<path d="" fill="#E4521F" transform="translate(0,0)"/>
<path d="" fill="#D1590E" transform="translate(0,0)"/>
<path d="" fill="#FA4A21" transform="translate(0,0)"/>
<path d="" fill="#AF6827" transform="translate(0,0)"/>
<path d="" fill="#E95B29" transform="translate(0,0)"/>
<path d="" fill="#B9652B" transform="translate(0,0)"/>
<path d="" fill="#E25B29" transform="translate(0,0)"/>
<path d="" fill="#D8552F" transform="translate(0,0)"/>
<path d="" fill="#E25837" transform="translate(0,0)"/>
<path d="" fill="#DA5442" transform="translate(0,0)"/>
<path d="" fill="#F44E1D" transform="translate(0,0)"/>
<path d="" fill="#E6543A" transform="translate(0,0)"/>
<path d="" fill="#EC5848" transform="translate(0,0)"/>
<path d="" fill="#E55431" transform="translate(0,0)"/>
<path d="" fill="#FB565C" transform="translate(0,0)"/>
<path d="" fill="#D95826" transform="translate(0,0)"/>
<path d="" fill="#D54743" transform="translate(0,0)"/>
<path d="" fill="#D85818" transform="translate(0,0)"/>
<path d="" fill="#E5524F" transform="translate(0,0)"/>
<path d="" fill="#C7612A" transform="translate(0,0)"/>
<path d="" fill="#E0534E" transform="translate(0,0)"/>
<path d="" fill="#B5582A" transform="translate(0,0)"/>
<path d="" fill="#F04E51" transform="translate(0,0)"/>
<path d="" fill="#B6541C" transform="translate(0,0)"/>
<path d="" fill="#CF4436" transform="translate(0,0)"/>
<path d="" fill="#AF4E0F" transform="translate(0,0)"/>
<path d="" fill="#D04D27" transform="translate(0,0)"/>
<path d="" fill="#CB472B" transform="translate(0,0)"/>
<path d="" fill="#F94C2E" transform="translate(0,0)"/>
<path d="" fill="#EC4D2C" transform="translate(0,0)"/>
<path d="" fill="#F7482A" transform="translate(0,0)"/>
<path d="" fill="#E05325" transform="translate(0,0)"/>
<path d="" fill="#EB4E21" transform="translate(0,0)"/>
<path d="" fill="#D9512D" transform="translate(0,0)"/>
<path d="" fill="#D15524" transform="translate(0,0)"/>
<path d="" fill="#D7502C" transform="translate(0,0)"/>
<path d="" fill="#E94C1F" transform="translate(0,0)"/>
<path d="" fill="#C5574C" transform="translate(0,0)"/>
<path d="" fill="#DD5121" transform="translate(0,0)"/>
<path d="" fill="#B85744" transform="translate(0,0)"/>
<path d="" fill="#F74B2A" transform="translate(0,0)"/>
<path d="" fill="#D38A55" transform="translate(0,0)"/>
<path d="" fill="#ED593E" transform="translate(0,0)"/>
<path d="" fill="#AA5220" transform="translate(0,0)"/>
<path d="" fill="#F5675C" transform="translate(0,0)"/>
<path d="" fill="#E55A50" transform="translate(0,0)"/>
<path d="" fill="#ED494A" transform="translate(0,0)"/>
<path d="" fill="#CC4036" transform="translate(0,0)"/>
<path d="" fill="#F4665B" transform="translate(0,0)"/>
<path d="" fill="#ED563B" transform="translate(0,0)"/>
<path d="" fill="#AB5519" transform="translate(0,0)"/>
<path d="" fill="#FC4C2A" transform="translate(0,0)"/>
<path d="" fill="#B75B38" transform="translate(0,0)"/>
<path d="" fill="#D74E23" transform="translate(0,0)"/>
<path d="" fill="#BD4E1F" transform="translate(0,0)"/>
<path d="" fill="#CA5521" transform="translate(0,0)"/>
<path d="" fill="#E45113" transform="translate(0,0)"/>
<path d="" fill="#CF562F" transform="translate(0,0)"/>
<path d="" fill="#D75624" transform="translate(0,0)"/>
<path d="" fill="#C84F33" transform="translate(0,0)"/>
<path d="" fill="#E25528" transform="translate(0,0)"/>
<path d="" fill="#CE503B" transform="translate(0,0)"/>
<path d="" fill="#F9472A" transform="translate(0,0)"/>
<path d="" fill="#B84D06" transform="translate(0,0)"/>
<path d="" fill="#D9422A" transform="translate(0,0)"/>
<path d="" fill="#B64D03" transform="translate(0,0)"/>
<path d="" fill="#ED5F54" transform="translate(0,0)"/>
<path d="" fill="#E46C15" transform="translate(0,0)"/>
<path d="" fill="#E0544C" transform="translate(0,0)"/>
<path d="" fill="#FFD18D" transform="translate(0,0)"/>
<path d="" fill="#D95A3E" transform="translate(0,0)"/>
<path d="" fill="#E94739" transform="translate(0,0)"/>
<path d="" fill="#BC6550" transform="translate(0,0)"/>
<path d="" fill="#C36812" transform="translate(0,0)"/>
<path d="" fill="#E15137" transform="translate(0,0)"/>
<path d="" fill="#B45E40" transform="translate(0,0)"/>
<path d="" fill="#C45711" transform="translate(0,0)"/>
<path d="" fill="#F1522F" transform="translate(0,0)"/>
<path d="" fill="#CC7648" transform="translate(0,0)"/>
<path d="" fill="#DB4C38" transform="translate(0,0)"/>
<path d="" fill="#B4511E" transform="translate(0,0)"/>
<path d="" fill="#EF5655" transform="translate(0,0)"/>
<path d="" fill="#E95B56" transform="translate(0,0)"/>
<path d="" fill="#EA624C" transform="translate(0,0)"/>
<path d="" fill="#F35359" transform="translate(0,0)"/>
<path d="" fill="#E84C51" transform="translate(0,0)"/>
<path d="" fill="#F24B41" transform="translate(0,0)"/>
<path d="" fill="#DB5034" transform="translate(0,0)"/>
<path d="" fill="#AB5923" transform="translate(0,0)"/>
<path d="" fill="#EC4E28" transform="translate(0,0)"/>
<path d="" fill="#BF5D33" transform="translate(0,0)"/>
<path d="" fill="#DB4C23" transform="translate(0,0)"/>
<path d="" fill="#F84A2A" transform="translate(0,0)"/>
<path d="" fill="#F2552A" transform="translate(0,0)"/>
<path d="" fill="#F85429" transform="translate(0,0)"/>
<path d="" fill="#E6512A" transform="translate(0,0)"/>
<path d="" fill="#EE4D12" transform="translate(0,0)"/>
<path d="" fill="#E65030" transform="translate(0,0)"/>
<path d="" fill="#F24A43" transform="translate(0,0)"/>
<path d="" fill="#E34B45" transform="translate(0,0)"/>
<path d="" fill="#EF5559" transform="translate(0,0)"/>
<path d="" fill="#A35339" transform="translate(0,0)"/>
<path d="" fill="#E95A5A" transform="translate(0,0)"/>
<path d="" fill="#A7523C" transform="translate(0,0)"/>
<path d="" fill="#FF6063" transform="translate(0,0)"/>
<path d="" fill="#C6634B" transform="translate(0,0)"/>
<path d="" fill="#E9573E" transform="translate(0,0)"/>
<path d="" fill="#F04B18" transform="translate(0,0)"/>
<path d="" fill="#D7452B" transform="translate(0,0)"/>
<path d="" fill="#FC585B" transform="translate(0,0)"/>
<path d="" fill="#ED5E5C" transform="translate(0,0)"/>
<path d="" fill="#EE575A" transform="translate(0,0)"/>
<path d="" fill="#E45A54" transform="translate(0,0)"/>
<path d="" fill="#E6604F" transform="translate(0,0)"/>
<path d="" fill="#A64F0D" transform="translate(0,0)"/>
<path d="" fill="#DD5536" transform="translate(0,0)"/>
<path d="" fill="#D84E2B" transform="translate(0,0)"/>
<path d="" fill="#D54634" transform="translate(0,0)"/>
<path d="" fill="#F94E2F" transform="translate(0,0)"/>
<path d="" fill="#F0502B" transform="translate(0,0)"/>
<path d="" fill="#FE4A2E" transform="translate(0,0)"/>
<path d="" fill="#E15832" transform="translate(0,0)"/>
<path d="" fill="#B8421A" transform="translate(0,0)"/>
<path d="" fill="#DC5241" transform="translate(0,0)"/>
<path d="" fill="#E74B45" transform="translate(0,0)"/>
<path d="" fill="#D85745" transform="translate(0,0)"/>
<path d="" fill="#DE7945" transform="translate(0,0)"/>
<path d="" fill="#E96259" transform="translate(0,0)"/>
<path d="" fill="#A75521" transform="translate(0,0)"/>
<path d="" fill="#D75644" transform="translate(0,0)"/>
<path d="" fill="#A45625" transform="translate(0,0)"/>
<path d="" fill="#C74D47" transform="translate(0,0)"/>
<path d="" fill="#C74A2C" transform="translate(0,0)"/>
<path d="" fill="#DB4F45" transform="translate(0,0)"/>
<path d="" fill="#D8552F" transform="translate(0,0)"/>
<path d="" fill="#E55D2F" transform="translate(0,0)"/>
<path d="" fill="#D0482B" transform="translate(0,0)"/>
<path d="" fill="#B14B3B" transform="translate(0,0)"/>
<path d="" fill="#EA483C" transform="translate(0,0)"/>
<path d="" fill="#DA5935" transform="translate(0,0)"/>
<path d="" fill="#C9643F" transform="translate(0,0)"/>
<path d="" fill="#E14C4F" transform="translate(0,0)"/>
<path d="" fill="#ED6342" transform="translate(0,0)"/>
<path d="" fill="#BA4D2B" transform="translate(0,0)"/>
<path d="" fill="#FF5961" transform="translate(0,0)"/>
<path d="" fill="#D75635" transform="translate(0,0)"/>
<path d="" fill="#D1403D" transform="translate(0,0)"/>
<path d="" fill="#AA5124" transform="translate(0,0)"/>
<path d="" fill="#E95352" transform="translate(0,0)"/>
<path d="" fill="#DF533E" transform="translate(0,0)"/>
<path d="" fill="#EC4E2A" transform="translate(0,0)"/>
<path d="" fill="#DF4E2D" transform="translate(0,0)"/>
<path d="" fill="#EF4B13" transform="translate(0,0)"/>
<path d="" fill="#DC5223" transform="translate(0,0)"/>
<path d="" fill="#DB5326" transform="translate(0,0)"/>
<path d="" fill="#E25328" transform="translate(0,0)"/>
<path d="" fill="#FA492A" transform="translate(0,0)"/>
<path d="" fill="#E34D32" transform="translate(0,0)"/>
<path d="" fill="#A75D49" transform="translate(0,0)"/>
<path d="" fill="#E05247" transform="translate(0,0)"/>
<path d="" fill="#CF7856" transform="translate(0,0)"/>
<path d="" fill="#DC5049" transform="translate(0,0)"/>
<path d="" fill="#A44C2D" transform="translate(0,0)"/>
<path d="" fill="#E94739" transform="translate(0,0)"/>
<path d="" fill="#C15F35" transform="translate(0,0)"/>
<path d="" fill="#DC5437" transform="translate(0,0)"/>
<path d="" fill="#D85023" transform="translate(0,0)"/>
<path d="" fill="#D3532C" transform="translate(0,0)"/>
<path d="" fill="#BF4A24" transform="translate(0,0)"/>
<path d="" fill="#DF5A35" transform="translate(0,0)"/>
<path d="" fill="#E6493C" transform="translate(0,0)"/>
<path d="" fill="#D3533A" transform="translate(0,0)"/>
<path d="" fill="#DE552A" transform="translate(0,0)"/>
<path d="" fill="#B55327" transform="translate(0,0)"/>
<path d="" fill="#D47440" transform="translate(0,0)"/>
<path d="" fill="#BF4B47" transform="translate(0,0)"/>
<path d="" fill="#AB5A3A" transform="translate(0,0)"/>
<path d="" fill="#CC504A" transform="translate(0,0)"/>
<path d="" fill="#A05135" transform="translate(0,0)"/>
<path d="" fill="#D74B46" transform="translate(0,0)"/>
<path d="" fill="#DD4A35" transform="translate(0,0)"/>
<path d="" fill="#E64611" transform="translate(0,0)"/>
<path d="" fill="#D5552C" transform="translate(0,0)"/>
<path d="" fill="#FA4A31" transform="translate(0,0)"/>
<path d="" fill="#AE5723" transform="translate(0,0)"/>
<path d="" fill="#EE502D" transform="translate(0,0)"/>
<path d="" fill="#F94E2F" transform="translate(0,0)"/>
<path d="" fill="#D8482B" transform="translate(0,0)"/>
<path d="" fill="#EB4E18" transform="translate(0,0)"/>
<path d="" fill="#BE4E32" transform="translate(0,0)"/>
<path d="" fill="#E84A3D" transform="translate(0,0)"/>
<path d="" fill="#E2562F" transform="translate(0,0)"/>
<path d="" fill="#EC510D" transform="translate(0,0)"/>
<path d="" fill="#DB6C42" transform="translate(0,0)"/>
<path d="" fill="#AA5814" transform="translate(0,0)"/>
<path d="" fill="#D5632A" transform="translate(0,0)"/>
<path d="" fill="#CF8440" transform="translate(0,0)"/>
<path d="" fill="#E1663D" transform="translate(0,0)"/>
<path d="" fill="#B65543" transform="translate(0,0)"/>
<path d="" fill="#CD5B19" transform="translate(0,0)"/>
<path d="" fill="#F08157" transform="translate(0,0)"/>
<path d="" fill="#CB4D35" transform="translate(0,0)"/>
<path d="" fill="#DC591A" transform="translate(0,0)"/>
<path d="" fill="#F1432E" transform="translate(0,0)"/>
<path d="" fill="#F45343" transform="translate(0,0)"/>
<path d="" fill="#D5481F" transform="translate(0,0)"/>
<path d="" fill="#CF2F15" transform="translate(0,0)"/>
<path d="" fill="#E76126" transform="translate(0,0)"/>
<path d="" fill="#D43003" transform="translate(0,0)"/>
<path d="" fill="#FF5D26" transform="translate(0,0)"/>
<path d="" fill="#E15F37" transform="translate(0,0)"/>
<path d="" fill="#D65A24" transform="translate(0,0)"/>
<path d="" fill="#E68950" transform="translate(0,0)"/>
<path d="" fill="#B94710" transform="translate(0,0)"/>
<path d="" fill="#D45D28" transform="translate(0,0)"/>
<path d="" fill="#F66A0E" transform="translate(0,0)"/>
<path d="" fill="#E4512E" transform="translate(0,0)"/>
<path d="" fill="#BC1C05" transform="translate(0,0)"/>
<path d="" fill="#E15235" transform="translate(0,0)"/>
<path d="" fill="#EE4F17" transform="translate(0,0)"/>
<path d="" fill="#C7595A" transform="translate(0,0)"/>
<path d="" fill="#E05033" transform="translate(0,0)"/>
<path d="" fill="#C63613" transform="translate(0,0)"/>
<path d="" fill="#D8462A" transform="translate(0,0)"/>
<path d="" fill="#CB5A57" transform="translate(0,0)"/>
<path d="" fill="#E4532E" transform="translate(0,0)"/>
<path d="" fill="#E44F2D" transform="translate(0,0)"/>
<path d="" fill="#DD463C" transform="translate(0,0)"/>
<path d="" fill="#F07C33" transform="translate(0,0)"/>
<path d="" fill="#D15B23" transform="translate(0,0)"/>
<path d="" fill="#CE5318" transform="translate(0,0)"/>
<path d="" fill="#CE4E45" transform="translate(0,0)"/>
<path d="" fill="#EA7A2E" transform="translate(0,0)"/>
<path d="" fill="#DB6539" transform="translate(0,0)"/>
<path d="" fill="#D05712" transform="translate(0,0)"/>
<path d="" fill="#AA4336" transform="translate(0,0)"/>
<path d="" fill="#E86D42" transform="translate(0,0)"/>
<path d="" fill="#DA6148" transform="translate(0,0)"/>
<path d="" fill="#D07345" transform="translate(0,0)"/>
<path d="" fill="#E1663D" transform="translate(0,0)"/>
<path d="" fill="#D25940" transform="translate(0,0)"/>
<path d="" fill="#AB5026" transform="translate(0,0)"/>
<path d="" fill="#E45851" transform="translate(0,0)"/>
<path d="" fill="#C46037" transform="translate(0,0)"/>
<path d="" fill="#E35857" transform="translate(0,0)"/>
<path d="" fill="#E15A44" transform="translate(0,0)"/>
<path d="" fill="#E56039" transform="translate(0,0)"/>
<path d="" fill="#D46037" transform="translate(0,0)"/>
<path d="" fill="#DB6548" transform="translate(0,0)"/>
<path d="" fill="#B4310D" transform="translate(0,0)"/>
<path d="" fill="#DD674B" transform="translate(0,0)"/>
<path d="" fill="#E35F33" transform="translate(0,0)"/>
<path d="" fill="#D05E33" transform="translate(0,0)"/>
<path d="" fill="#FA4D1F" transform="translate(0,0)"/>
<path d="" fill="#D5603A" transform="translate(0,0)"/>
<path d="" fill="#D55628" transform="translate(0,0)"/>
<path d="" fill="#D04713" transform="translate(0,0)"/>
<path d="" fill="#D4603E" transform="translate(0,0)"/>
<path d="" fill="#D25935" transform="translate(0,0)"/>
<path d="" fill="#E85815" transform="translate(0,0)"/>
<path d="" fill="#D56230" transform="translate(0,0)"/>
<path d="" fill="#BC623F" transform="translate(0,0)"/>
<path d="" fill="#E44E23" transform="translate(0,0)"/>
<path d="" fill="#D6612B" transform="translate(0,0)"/>
<path d="" fill="#A35011" transform="translate(0,0)"/>
<path d="" fill="#EB4C10" transform="translate(0,0)"/>
<path d="" fill="#DF5237" transform="translate(0,0)"/>
<path d="" fill="#DC533B" transform="translate(0,0)"/>
<path d="" fill="#CC562A" transform="translate(0,0)"/>
<path d="" fill="#DC5530" transform="translate(0,0)"/>
<path d="" fill="#CF582E" transform="translate(0,0)"/>
<path d="" fill="#D04F2E" transform="translate(0,0)"/>
<path d="" fill="#E15428" transform="translate(0,0)"/>
<path d="" fill="#CE552A" transform="translate(0,0)"/>
<path d="" fill="#F64330" transform="translate(0,0)"/>
<path d="" fill="#D05B27" transform="translate(0,0)"/>
<path d="" fill="#C1562C" transform="translate(0,0)"/>
<path d="" fill="#DA4734" transform="translate(0,0)"/>
<path d="" fill="#CE5B2D" transform="translate(0,0)"/>
<path d="" fill="#C45B31" transform="translate(0,0)"/>
<path d="" fill="#E55B57" transform="translate(0,0)"/>
<path d="" fill="#CD592C" transform="translate(0,0)"/>
<path d="" fill="#DA5515" transform="translate(0,0)"/>
<path d="" fill="#A9520D" transform="translate(0,0)"/>
<path d="" fill="#B74643" transform="translate(0,0)"/>
<path d="" fill="#CF592A" transform="translate(0,0)"/>
<path d="" fill="#DE6119" transform="translate(0,0)"/>
<path d="" fill="#AF5811" transform="translate(0,0)"/>
<path d="" fill="#B55750" transform="translate(0,0)"/>
<path d="" fill="#DB5331" transform="translate(0,0)"/>
<path d="" fill="#DB5B34" transform="translate(0,0)"/>
<path d="" fill="#C47132" transform="translate(0,0)"/>
<path d="" fill="#D95239" transform="translate(0,0)"/>
<path d="" fill="#ED6047" transform="translate(0,0)"/>
<path d="" fill="#A34F15" transform="translate(0,0)"/>
<path d="" fill="#DC5139" transform="translate(0,0)"/>
<path d="" fill="#E0615F" transform="translate(0,0)"/>
<path d="" fill="#E05131" transform="translate(0,0)"/>
<path d="" fill="#D55A59" transform="translate(0,0)"/>
<path d="" fill="#D05928" transform="translate(0,0)"/>
<path d="" fill="#DF5A40" transform="translate(0,0)"/>
<path d="" fill="#D05A2D" transform="translate(0,0)"/>
<path d="" fill="#D95F42" transform="translate(0,0)"/>
<path d="" fill="#D15B2E" transform="translate(0,0)"/>
<path d="" fill="#D85D42" transform="translate(0,0)"/>
<path d="" fill="#D25C30" transform="translate(0,0)"/>
<path d="" fill="#DC5A36" transform="translate(0,0)"/>
<path d="" fill="#E0523C" transform="translate(0,0)"/>
<path d="" fill="#E25729" transform="translate(0,0)"/>
<path d="" fill="#DE5347" transform="translate(0,0)"/>
<path d="" fill="#DB542B" transform="translate(0,0)"/>
<path d="" fill="#FD5031" transform="translate(0,0)"/>
<path d="" fill="#E15649" transform="translate(0,0)"/>
<path d="" fill="#EC5141" transform="translate(0,0)"/>
<path d="" fill="#E45340" transform="translate(0,0)"/>
<path d="" fill="#E94F4C" transform="translate(0,0)"/>
<path d="" fill="#D15939" transform="translate(0,0)"/>
<path d="" fill="#D96246" transform="translate(0,0)"/>
<path d="" fill="#D96538" transform="translate(0,0)"/>
<path d="" fill="#C65321" transform="translate(0,0)"/>
<path d="" fill="#D74F12" transform="translate(0,0)"/>
<path d="" fill="#A94C22" transform="translate(0,0)"/>
<path d="" fill="#E1432F" transform="translate(0,0)"/>
<path d="" fill="#DB4E25" transform="translate(0,0)"/>
<path d="" fill="#BD643C" transform="translate(0,0)"/>
<path d="" fill="#BD211B" transform="translate(0,0)"/>
<path d="" fill="#F34724" transform="translate(0,0)"/>
<path d="" fill="#D55A34" transform="translate(0,0)"/>
<path d="" fill="#9A302D" transform="translate(0,0)"/>
<path d="" fill="#E4503E" transform="translate(0,0)"/>
<path d="" fill="#CF5729" transform="translate(0,0)"/>
<path d="" fill="#520504" transform="translate(0,0)"/>
<path d="" fill="#C95641" transform="translate(0,0)"/>
<path d="" fill="#E9504F" transform="translate(0,0)"/>
<path d="" fill="#D45527" transform="translate(0,0)"/>
<path d="" fill="#AB5431" transform="translate(0,0)"/>
<path d="" fill="#DA5129" transform="translate(0,0)"/>
<path d="" fill="#DF8C6A" transform="translate(0,0)"/>
<path d="" fill="#CF592C" transform="translate(0,0)"/>
<path d="" fill="#AA5741" transform="translate(0,0)"/>
<path d="" fill="#CF592A" transform="translate(0,0)"/>
<path d="" fill="#DD5612" transform="translate(0,0)"/>
<path d="" fill="#DA5814" transform="translate(0,0)"/>
<path d="" fill="#DB581B" transform="translate(0,0)"/>
<path d="" fill="#E25819" transform="translate(0,0)"/>
<path d="" fill="#E9494D" transform="translate(0,0)"/>
<path d="" fill="#D15C26" transform="translate(0,0)"/>
<path d="" fill="#F2473F" transform="translate(0,0)"/>
<path d="" fill="#DB673C" transform="translate(0,0)"/>
<path d="" fill="#E15139" transform="translate(0,0)"/>
<path d="" fill="#DB644A" transform="translate(0,0)"/>
<path d="" fill="#EF4D26" transform="translate(0,0)"/>
<path d="" fill="#D25C3B" transform="translate(0,0)"/>
<path d="" fill="#E04C21" transform="translate(0,0)"/>
<path d="" fill="#DC430E" transform="translate(0,0)"/>
<path d="" fill="#DF5E3F" transform="translate(0,0)"/>
<path d="" fill="#9B4A0C" transform="translate(0,0)"/>
<path d="" fill="#DB5F45" transform="translate(0,0)"/>
<path d="" fill="#DB6041" transform="translate(0,0)"/>
<path d="" fill="#F87F56" transform="translate(0,0)"/>
<path d="" fill="#E05C32" transform="translate(0,0)"/>
<path d="" fill="#D45C20" transform="translate(0,0)"/>
<path d="" fill="#C24A1E" transform="translate(0,0)"/>
<path d="" fill="#D16A34" transform="translate(0,0)"/>
<path d="" fill="#DD5A27" transform="translate(0,0)"/>
<path d="" fill="#A4572A" transform="translate(0,0)"/>
<path d="" fill="#D95227" transform="translate(0,0)"/>
<path d="" fill="#B5572E" transform="translate(0,0)"/>
<path d="" fill="#EB5113" transform="translate(0,0)"/>
<path d="" fill="#B94F38" transform="translate(0,0)"/>
<path d="" fill="#AE452B" transform="translate(0,0)"/>
<path d="" fill="#EE6642" transform="translate(0,0)"/>
<path d="" fill="#6A1000" transform="translate(0,0)"/>
<path d="" fill="#D3674E" transform="translate(0,0)"/>
<path d="" fill="#F36654" transform="translate(0,0)"/>
<path d="" fill="#E8735F" transform="translate(0,0)"/>
<path d="" fill="#F2462E" transform="translate(0,0)"/>
<path d="" fill="#E26114" transform="translate(0,0)"/>
<path d="" fill="#CD4E20" transform="translate(0,0)"/>
<path d="" fill="#D1570C" transform="translate(0,0)"/>
<path d="" fill="#E85738" transform="translate(0,0)"/>
<path d="" fill="#F67133" transform="translate(0,0)"/>
<path d="" fill="#F25C31" transform="translate(0,0)"/>
<path d="" fill="#FC482C" transform="translate(0,0)"/>
<path d="" fill="#DB4D29" transform="translate(0,0)"/>
<path d="" fill="#B85B3D" transform="translate(0,0)"/>
<path d="" fill="#E46539" transform="translate(0,0)"/>
<path d="" fill="#A44F2C" transform="translate(0,0)"/>
<path d="" fill="#DD6542" transform="translate(0,0)"/>
<path d="" fill="#A5552E" transform="translate(0,0)"/>
<path d="" fill="#C1523F" transform="translate(0,0)"/>
<path d="" fill="#A15339" transform="translate(0,0)"/>
<path d="" fill="#3F0000" transform="translate(0,0)"/>
<path d="" fill="#DB521C" transform="translate(0,0)"/>
<path d="" fill="#B65A29" transform="translate(0,0)"/>
<path d="" fill="#C84506" transform="translate(0,0)"/>
<path d="" fill="#D34D59" transform="translate(0,0)"/>
<path d="" fill="#D05543" transform="translate(0,0)"/>
<path d="" fill="#CD5252" transform="translate(0,0)"/>
<path d="" fill="#DF6113" transform="translate(0,0)"/>
<path d="" fill="#E5782E" transform="translate(0,0)"/>
<path d="" fill="#D45911" transform="translate(0,0)"/>
<path d="" fill="#D25721" transform="translate(0,0)"/>
<path d="" fill="#EA812E" transform="translate(0,0)"/>
<path d="" fill="#FB7C3C" transform="translate(0,0)"/>
<path d="" fill="#E9481F" transform="translate(0,0)"/>
<path d="" fill="#AE5B2C" transform="translate(0,0)"/>
<path d="" fill="#CF533F" transform="translate(0,0)"/>
<path d="" fill="#E54631" transform="translate(0,0)"/>
<path d="" fill="#B15B31" transform="translate(0,0)"/>
<path d="" fill="#CA5349" transform="translate(0,0)"/>
<path d="" fill="#E02B24" transform="translate(0,0)"/>
<path d="" fill="#CB5C22" transform="translate(0,0)"/>
<path d="" fill="#D04620" transform="translate(0,0)"/>
<path d="" fill="#E37E48" transform="translate(0,0)"/>
<path d="" fill="#F64E23" transform="translate(0,0)"/>
<path d="" fill="#FA6C57" transform="translate(0,0)"/>
<path d="" fill="#E74A22" transform="translate(0,0)"/>
<path d="" fill="#D6472C" transform="translate(0,0)"/>
<path d="" fill="#BD6324" transform="translate(0,0)"/>
<path d="" fill="#D16E1E" transform="translate(0,0)"/>
<path d="" fill="#9D4913" transform="translate(0,0)"/>
<path d="" fill="#DF7F2E" transform="translate(0,0)"/>
<path d="" fill="#BB2F16" transform="translate(0,0)"/>
<path d="" fill="#EE6148" transform="translate(0,0)"/>
<path d="" fill="#C04B45" transform="translate(0,0)"/>
<path d="" fill="#C97247" transform="translate(0,0)"/>
<path d="" fill="#C25246" transform="translate(0,0)"/>
<path d="" fill="#A14B1F" transform="translate(0,0)"/>
<path d="" fill="#C15833" transform="translate(0,0)"/>
<path d="" fill="#DD7942" transform="translate(0,0)"/>
<path d="" fill="#A35011" transform="translate(0,0)"/>
<path d="" fill="#C8502D" transform="translate(0,0)"/>
<path d="" fill="#DA7734" transform="translate(0,0)"/>
<path d="" fill="#D17D43" transform="translate(0,0)"/>
<path d="" fill="#DA7C1C" transform="translate(0,0)"/>
<path d="" fill="#AE4F4B" transform="translate(0,0)"/>
<path d="" fill="#DB852E" transform="translate(0,0)"/>
<path d="" fill="#BC5D5B" transform="translate(0,0)"/>
<path d="" fill="#EA8D64" transform="translate(0,0)"/>
<path d="" fill="#DA764B" transform="translate(0,0)"/>
<path d="" fill="#D5754A" transform="translate(0,0)"/>
<path d="" fill="#E7825D" transform="translate(0,0)"/>
<path d="" fill="#EE8552" transform="translate(0,0)"/>
<path d="" fill="#DB7638" transform="translate(0,0)"/>
<path d="" fill="#DD7721" transform="translate(0,0)"/>
<path d="" fill="#D4572F" transform="translate(0,0)"/>
<path d="" fill="#DE8025" transform="translate(0,0)"/>
<path d="" fill="#C3602F" transform="translate(0,0)"/>
<path d="" fill="#DC7D22" transform="translate(0,0)"/>
<path d="" fill="#D45A2C" transform="translate(0,0)"/>
<path d="" fill="#DB7924" transform="translate(0,0)"/>
<path d="" fill="#F44A2A" transform="translate(0,0)"/>
<path d="" fill="#F06345" transform="translate(0,0)"/>
<path d="" fill="#AB4E14" transform="translate(0,0)"/>
<path d="" fill="#DC5C2A" transform="translate(0,0)"/>
<path d="" fill="#B72C10" transform="translate(0,0)"/>
<path d="" fill="#DD7940" transform="translate(0,0)"/>
<path d="" fill="#DC7435" transform="translate(0,0)"/>
<path d="" fill="#BC5740" transform="translate(0,0)"/>
<path d="" fill="#CF742A" transform="translate(0,0)"/>
<path d="" fill="#CA5644" transform="translate(0,0)"/>
<path d="" fill="#AC5C18" transform="translate(0,0)"/>
<path d="" fill="#B64E3B" transform="translate(0,0)"/>
<path d="" fill="#D1813D" transform="translate(0,0)"/>
<path d="" fill="#C95A3D" transform="translate(0,0)"/>
<path d="" fill="#C1661E" transform="translate(0,0)"/>
<path d="" fill="#B85A38" transform="translate(0,0)"/>
<path d="" fill="#BD4B26" transform="translate(0,0)"/>
<path d="" fill="#CD6D2E" transform="translate(0,0)"/>
<path d="" fill="#B2541F" transform="translate(0,0)"/>
<path d="" fill="#D74C30" transform="translate(0,0)"/>
<path d="" fill="#DD7D47" transform="translate(0,0)"/>
<path d="" fill="#C46F3C" transform="translate(0,0)"/>
<path d="" fill="#E78C7B" transform="translate(0,0)"/>
<path d="" fill="#E56B2D" transform="translate(0,0)"/>
<path d="" fill="#D67765" transform="translate(0,0)"/>
<path d="" fill="#D9191C" transform="translate(0,0)"/>
<path d="" fill="#F2784D" transform="translate(0,0)"/>
<path d="" fill="#E46F49" transform="translate(0,0)"/>
<path d="" fill="#E98373" transform="translate(0,0)"/>
<path d="" fill="#E37362" transform="translate(0,0)"/>
<path d="" fill="#DB7636" transform="translate(0,0)"/>
<path d="" fill="#E28038" transform="translate(0,0)"/>
<path d="" fill="#E08138" transform="translate(0,0)"/>
<path d="" fill="#CA5F28" transform="translate(0,0)"/>
<path d="" fill="#D6772C" transform="translate(0,0)"/>
<path d="" fill="#EA490B" transform="translate(0,0)"/>
<path d="" fill="#E06B0F" transform="translate(0,0)"/>
<path d="" fill="#EB5837" transform="translate(0,0)"/>
<path d="" fill="#EB7725" transform="translate(0,0)"/>
<path d="" fill="#FF6C4F" transform="translate(0,0)"/>
<path d="" fill="#E2441E" transform="translate(0,0)"/>
<path d="" fill="#CD6A29" transform="translate(0,0)"/>
<path d="" fill="#D97943" transform="translate(0,0)"/>
<path d="" fill="#B95545" transform="translate(0,0)"/>
<path d="" fill="#D27951" transform="translate(0,0)"/>
<path d="" fill="#C4533C" transform="translate(0,0)"/>
<path d="" fill="#B95F2E" transform="translate(0,0)"/>
<path d="" fill="#C4563E" transform="translate(0,0)"/>
<path d="" fill="#D67018" transform="translate(0,0)"/>
<path d="" fill="#CA6245" transform="translate(0,0)"/>
<path d="" fill="#E9882E" transform="translate(0,0)"/>
<path d="" fill="#F6763F" transform="translate(0,0)"/>
<path d="" fill="#BF4012" transform="translate(0,0)"/>
<path d="" fill="#E36E2D" transform="translate(0,0)"/>
<path d="" fill="#E8792D" transform="translate(0,0)"/>
<path d="" fill="#CD5E30" transform="translate(0,0)"/>
<path d="" fill="#CD5B26" transform="translate(0,0)"/>
<path d="" fill="#BB642F" transform="translate(0,0)"/>
<path d="" fill="#BA642A" transform="translate(0,0)"/>
<path d="" fill="#D95627" transform="translate(0,0)"/>
<path d="" fill="#C65827" transform="translate(0,0)"/>
<path d="" fill="#DC5636" transform="translate(0,0)"/>
<path d="" fill="#DA5822" transform="translate(0,0)"/>
<path d="" fill="#DA5824" transform="translate(0,0)"/>
<path d="" fill="#DC5928" transform="translate(0,0)"/>
<path d="" fill="#DA5920" transform="translate(0,0)"/>
<path d="" fill="#F75853" transform="translate(0,0)"/>
<path d="" fill="#D4583E" transform="translate(0,0)"/>
<path d="" fill="#E1605C" transform="translate(0,0)"/>
<path d="" fill="#D45746" transform="translate(0,0)"/>
<path d="" fill="#BA5059" transform="translate(0,0)"/>
<path d="" fill="#D6563B" transform="translate(0,0)"/>
<path d="" fill="#D85D4E" transform="translate(0,0)"/>
<path d="" fill="#D65735" transform="translate(0,0)"/>
<path d="" fill="#F9712B" transform="translate(0,0)"/>
<path d="" fill="#DF5620" transform="translate(0,0)"/>
<path d="" fill="#EF5A34" transform="translate(0,0)"/>
<path d="" fill="#DF5818" transform="translate(0,0)"/>
<path d="" fill="#D65C1E" transform="translate(0,0)"/>
<path d="" fill="#D45A1D" transform="translate(0,0)"/>
<path d="" fill="#CF5A17" transform="translate(0,0)"/>
<path d="" fill="#CC5A18" transform="translate(0,0)"/>
<path d="" fill="#BF5D2A" transform="translate(0,0)"/>
<path d="" fill="#BE5D2E" transform="translate(0,0)"/>
<path d="" fill="#DB5112" transform="translate(0,0)"/>
<path d="" fill="#DE5214" transform="translate(0,0)"/>
<path d="" fill="#D75421" transform="translate(0,0)"/>
<path d="" fill="#CD5B2D" transform="translate(0,0)"/>
<path d="" fill="#D7551F" transform="translate(0,0)"/>
<path d="" fill="#B04817" transform="translate(0,0)"/>
<path d="" fill="#CB562E" transform="translate(0,0)"/>
<path d="" fill="#CA5735" transform="translate(0,0)"/>
<path d="" fill="#D25534" transform="translate(0,0)"/>
<path d="" fill="#D45631" transform="translate(0,0)"/>
<path d="" fill="#DC5223" transform="translate(0,0)"/>
<path d="" fill="#DE561D" transform="translate(0,0)"/>
<path d="" fill="#F26549" transform="translate(0,0)"/>
<path d="" fill="#DE5715" transform="translate(0,0)"/>
<path d="" fill="#E8493A" transform="translate(0,0)"/>
<path d="" fill="#D45B1B" transform="translate(0,0)"/>
<path d="" fill="#DC5248" transform="translate(0,0)"/>
<path d="" fill="#D45923" transform="translate(0,0)"/>
<path d="" fill="#D25F4A" transform="translate(0,0)"/>
<path d="" fill="#D45842" transform="translate(0,0)"/>
<path d="" fill="#D7622C" transform="translate(0,0)"/>
<path d="" fill="#D45842" transform="translate(0,0)"/>
<path d="" fill="#E26927" transform="translate(0,0)"/>
<path d="" fill="#DD5123" transform="translate(0,0)"/>
<path d="" fill="#E24E30" transform="translate(0,0)"/>
<path d="" fill="#E24F21" transform="translate(0,0)"/>
<path d="" fill="#E85217" transform="translate(0,0)"/>
<path d="" fill="#E15517" transform="translate(0,0)"/>
<path d="" fill="#C9592F" transform="translate(0,0)"/>
<path d="" fill="#CB5B2A" transform="translate(0,0)"/>
<path d="" fill="#CF5D16" transform="translate(0,0)"/>
<path d="" fill="#CF6016" transform="translate(0,0)"/>
<path d="" fill="#DA5C19" transform="translate(0,0)"/>
<path d="" fill="#C64447" transform="translate(0,0)"/>
<path d="" fill="#DE5C24" transform="translate(0,0)"/>
<path d="" fill="#FF8276" transform="translate(0,0)"/>
<path d="" fill="#FF895D" transform="translate(0,0)"/>
</svg>
