<?xml version="1.0" encoding="UTF-8"?>
<svg version="1.1" xmlns="http://www.w3.org/2000/svg" width="250" height="205">
<path d="M0 0 C10.37885605 7.04866195 17.40473127 17.06217738 20.625 29.25 C23.14614575 43.64912107 20.5808706 57.74954088 12.25 69.8125 C4.62373338 79.39097852 -6.22601254 86.5616287 -18.48828125 88.6015625 C-33.84751017 90.03402945 -47.25281397 86.691134 -59.5 77.0625 C-68.5624906 68.71718491 -74.2162233 57.29167421 -74.98828125 45.02734375 C-75.37422721 30.14756253 -71.89589071 17.24114013 -61.5 6.0625 C-44.41195704 -9.93160643 -19.77473477 -11.63219693 0 0 Z " fill="#000080" transform="translate(152.75,116.1875)"/>
<path d="M0 0 C8.52904932 9.70728913 13.30475967 22.64367402 13.109375 35.5390625 C11.93403995 49.85678033 6.4360151 61.43858227 -4.10546875 71.15625 C-15.84128558 79.99129143 -29.5073761 83.3958821 -44.04296875 81.65625 C-56.34315087 79.24189064 -67.21336313 72.53107513 -74.73046875 62.59375 C-82.93260537 50.07762278 -84.8208127 37.85835023 -83.10546875 23.15625 C-80.31606316 10.53994765 -72.74545766 0.06101052 -62.09765625 -7.12109375 C-41.50240747 -18.97814951 -17.31489402 -16.70453597 0 0 Z " fill="#000080" transform="translate(83.10546875,27.84375)"/>
<path d="M0 0 C10.61390944 11.9766356 14.134428 24.25723423 13.4765625 39.9609375 C12.56927669 52.19333868 6.55241938 63.2509053 -2.64453125 71.3203125 C-14.63052551 80.40619906 -26.75413567 84.10092804 -41.8359375 82.53515625 C-55.40937069 80.23940274 -66.97053706 73.16141407 -75 62 C-82.80793682 48.37372911 -84.83385399 35.43289174 -81.03515625 20.2734375 C-76.62363989 6.32305747 -67.90618389 -2.44368839 -55.46484375 -9.37109375 C-36.51491193 -18.27991176 -15.22325614 -13.78434563 0 0 Z " fill="#000080" transform="translate(237,27)"/>
<path d="M0 0 C4.6314797 2.53420588 8.31032562 4.93097685 10 10 C10.41110876 14.22177069 10.47543683 17.87396541 8.8125 21.8125 C5.05195106 26.35109355 1.67197966 28.74307888 -4.25 29.3125 C-9.06700781 28.91108268 -11.0666205 27.7987508 -15 25 C-18.03242008 21.26001524 -18.83782324 17.78421445 -19 13 C-18.08010165 8.61405607 -16.72430207 5.70619452 -13.5 2.5625 C-9.1884168 -0.1322395 -4.99497633 -0.7000535 0 0 Z " fill="#00007F" transform="translate(130,75)"/>
<path d="M0 0 C4.42977671 2.1357852 7.19613671 4.39012714 9 9 C9.68426057 14.04325384 9.5739862 17.83076884 7.3125 22.4375 C4.28115306 25.79656012 2.25860352 27.69355631 -2.33203125 28.31640625 C-8.07269186 28.58321356 -11.54031967 27.91581688 -16 24 C-18.97875506 21.12396063 -19.69921398 18.19968891 -20.05859375 14.0859375 C-19.91745859 9.0615259 -17.66279969 5.77878964 -14.5 2.0625 C-10.19972506 -1.18420758 -5.10992635 -0.82123816 0 0 Z " fill="#00007F" transform="translate(160,0)"/>
<path d="M0 0 C4.0978357 2.11806428 6.3858792 4.82293512 8.5 8.875 C9.23706132 13.48163327 9.38941311 17.64629272 6.953125 21.7734375 C4.02732101 25.47584379 1.31269461 27.67179581 -3.3671875 28.3359375 C-9.09465733 28.42515043 -12.56447399 28.00279176 -17 24 C-20.38570467 20.16286804 -20.51291172 16.36598538 -20.3515625 11.4375 C-19.68186218 6.79424443 -17.30185478 4.18350434 -13.9375 1.125 C-9.27500358 -0.66063693 -4.91201179 -0.86434542 0 0 Z " fill="#000080" transform="translate(101,0)"/>
<path d="M0 0 C3.62011046 2.33296007 5.89022378 4.96794755 7.8125 8.8125 C8.29738482 13.7583252 7.78073345 17.10688151 5.140625 21.234375 C1.85734377 25.13568563 -1.77757137 26.61461528 -6.75 27.3125 C-11.72135281 26.58939414 -14.71265145 24.49077593 -18 20.75 C-20.46508128 16.72802528 -21.08859395 12.41060559 -20.1875 7.8125 C-15.50776835 -0.02262074 -8.91473028 -3.32117402 0 0 Z " fill="#F9F9FC" transform="translate(132.1875,116.1875)"/>
<path d="M0 0 C3.2277235 2.12736321 4.89407493 3.38617679 6.75 6.8125 C7.54448427 12.12257343 7.39735479 16.41819737 5.125 21.3125 C1.48098616 25.14830404 -1.50654457 26.59456807 -6.75 27.25 C-12.23136378 26.56482953 -15.03053294 24.19242325 -18.625 20.125 C-20.7246637 15.8449163 -21.08081358 12.49526744 -20.25 7.8125 C-15.91326445 -0.86097109 -8.95063053 -3.27042269 0 0 Z " fill="#F9F9FC" transform="translate(189.25,29.1875)"/>
<path d="M0 0 C3.28763709 2.38514848 4.76334986 3.54269082 6.1875 7.3125 C6.88187753 11.99954832 6.66479321 15.33955615 4.5625 19.625 C0.99291157 23.66427112 -1.82934431 26.02404099 -7.25 26.8125 C-12.54941668 26.06872222 -16.01794658 24.22283106 -19.75 20.25 C-21.43020477 15.60472799 -21.58373069 11.18267899 -20.8125 6.3125 C-19.19985434 3.0744099 -16.87509073 1.11860332 -14 -1.0625 C-8.97210151 -2.49904243 -4.60838805 -2.4115929 0 0 Z " fill="#F9F9FC" transform="translate(74.8125,29.6875)"/>
</svg>
