<?xml version="1.0" encoding="UTF-8"?>
<svg version="1.1" xmlns="http://www.w3.org/2000/svg" width="499" height="512">
<path d="M0 0 C6.48273779 4.49800609 11.79895134 9.69932729 16.89453125 15.703125 C19.09121846 18.09951104 21.45816406 19.98112552 24 22 C25.15906655 23.26118695 26.28628296 24.5526071 27.375 25.875 C29.6094234 28.49633654 31.83791928 30.81542255 34.5 33 C37.84018389 35.74238812 40.52542336 38.84064356 43.31640625 42.12890625 C45.11306898 44.2152649 45.11306898 44.2152649 48 46.5 C50.48018227 48.56681856 52.36674406 50.49778977 54.4375 52.9375 C57.15535101 56.13321492 60.00346119 58.77525411 63.2421875 61.42578125 C65.85645637 63.76700426 68.0232561 66.4433923 70.2265625 69.16796875 C72.27292415 71.28194147 74.46432151 72.52953449 77 74 C78.32971581 72.66029144 78.32971581 72.66029144 79.68629456 71.29351807 C88.04969918 62.86924524 96.42105435 54.45294542 104.80021763 46.04434586 C109.1075627 41.72135849 113.41207802 37.39563059 117.71020508 33.06347656 C121.85978974 28.88124805 126.01670266 24.70643352 130.17875481 20.53661346 C131.76376365 18.94607021 133.34613376 17.35289279 134.92578316 15.75702667 C137.14219994 13.51876964 139.36789387 11.29014208 141.59594727 9.06347656 C142.24403351 8.40460449 142.89211975 7.74573242 143.55984497 7.06689453 C149.15341828 1.51080301 154.64718318 -2.55410041 162.73828125 -3.08984375 C169.67513744 -2.81428642 173.96291426 0.41022529 178.65234375 5.28125 C181.17351939 8.49666241 181.24357138 11.73958647 181.375 15.6875 C181.44847656 17.17830078 181.44847656 17.17830078 181.5234375 18.69921875 C180.29242966 26.46191742 174.32212299 32.10874603 168.91479492 37.42578125 C168.22156128 38.11945297 167.52832764 38.81312469 166.81408691 39.52781677 C164.54325911 41.79657089 162.26202536 44.05453999 159.98046875 46.3125 C158.39512178 47.89224599 156.81044013 49.47265991 155.22639465 51.05371094 C151.07213163 55.19656486 146.90893621 59.33032678 142.74377441 63.46221924 C138.4884328 67.68677511 134.24165816 71.91992394 129.99414062 76.15234375 C121.67109223 84.44329745 113.33857581 92.72466511 105 101 C106.66413011 105.63409639 108.99976642 108.16042745 112.6875 111.3125 C116.96365688 115.08423087 120.82337946 118.92693104 124.4921875 123.3046875 C126.14204931 125.24425267 126.14204931 125.24425267 129 127.5 C131.48018227 129.56681856 133.36674406 131.49778977 135.4375 133.9375 C137.65069463 136.53982775 139.86020713 138.83265328 142.5 141 C145.8169684 143.72465261 148.47848806 146.79607522 151.25 150.0625 C153.40086127 152.44381069 155.77123078 154.40165928 158.24609375 156.43359375 C160.86996919 158.7769658 163.05187362 161.45882614 165.3203125 164.140625 C167.08954174 166.20404088 167.08954174 166.20404088 169.9375 168.3125 C175.56593413 172.83045929 181.08886831 179.45962761 182.125 186.75 C182.26039765 194.37288745 179.66557452 198.9009161 174.65625 204.3984375 C170.77359286 208.1528937 165.62394301 207.46470195 160.53637695 207.5300293 C155.84567658 207.42921276 152.84371318 207.02300338 149.1875 203.8125 C147.41796875 201.86328125 147.41796875 201.86328125 146 200 C145.34 199.175 144.68 198.35 144 197.5 C143.34 196.675 142.68 195.85 142 195 C140.7243428 193.85687862 139.43073383 192.73364193 138.125 191.625 C135.50366346 189.3905766 133.18457745 187.16208072 131 184.5 C128.25761188 181.15981611 125.15935644 178.47457664 121.87109375 175.68359375 C119.29045406 173.36155678 117.2204056 170.66448672 115 168 C113.70482822 166.83461579 112.3908278 165.68994647 111.0625 164.5625 C107.86489168 161.84303872 105.22340878 158.99009189 102.56640625 155.75390625 C100.22575876 153.1330815 97.54591668 150.95390659 94.87109375 148.68359375 C92.29045406 146.36155678 90.2204056 143.66448672 88 141 C86.02923667 139.1838841 84.01317642 137.43883793 81.96484375 135.7109375 C79.87846256 133.89416819 77.94741674 131.96387949 76 130 C75.61015993 130.39076186 75.22031986 130.78152372 74.81866646 131.18412685 C65.34068128 140.68417913 55.85991026 150.18144331 46.3761158 159.67569637 C41.78994447 164.26709483 37.20471149 168.85942241 32.62158203 173.45385742 C28.20176103 177.88451329 23.77952894 182.31274918 19.35558701 186.73929024 C17.66495848 188.43177192 15.97521291 190.12513603 14.28635025 191.81937981 C11.92774244 194.18520595 9.56606516 196.54792544 7.20361328 198.90991211 C6.50014771 199.61697296 5.79668213 200.32403381 5.07189941 201.05252075 C4.10856186 202.01379631 4.10856186 202.01379631 3.12576294 202.99449158 C2.56715639 203.55401992 2.00854984 204.11354826 1.43301582 204.69003201 C-2.73747714 208.50241999 -9.41240727 207.5955472 -14.76171875 207.484375 C-19.61627838 207.1487721 -22.33153243 205.46205654 -25.65234375 201.921875 C-28.62825662 197.67796447 -29.38376249 194.55354512 -29.5625 189.3125 C-29.62566406 188.15363281 -29.68882813 186.99476563 -29.75390625 185.80078125 C-27.64199716 175.15369552 -15.74914348 166.51568633 -8.296175 159.14584541 C-5.9678459 156.84324436 -3.64599923 154.53427652 -1.32566833 152.22361755 C3.5897704 147.33090844 8.51307928 142.44616657 13.4375 137.5625 C19.16988494 131.87729861 24.89900821 126.18888789 30.61982918 120.49204826 C32.9114995 118.2133752 35.20908905 115.94078531 37.50694275 113.66835022 C38.90002165 112.28253045 40.29282385 110.89643244 41.68530273 109.51000977 C42.65063431 108.56017715 42.65063431 108.56017715 43.63546753 107.59115601 C45.12874193 106.09824531 46.57037711 104.55397207 48 103 C48 102.34 48 101.68 48 101 C46.41262601 99.43351142 46.41262601 99.43351142 44.375 97.8125 C41.66533223 95.5164131 39.24703284 93.24982196 37 90.5 C34.25761188 87.15981611 31.15935644 84.47457664 27.87109375 81.68359375 C25.29045406 79.36155678 23.2204056 76.66448672 21 74 C19.70482822 72.83461579 18.3908278 71.68994647 17.0625 70.5625 C13.86489168 67.84303872 11.22340878 64.99009189 8.56640625 61.75390625 C6.22575876 59.1330815 3.54591668 56.95390659 0.87109375 54.68359375 C-1.70954594 52.36155678 -3.7795944 49.66448672 -6 47 C-7.29517178 45.83461579 -8.6091722 44.68994647 -9.9375 43.5625 C-13.1787803 40.8077158 -15.8719714 37.90799684 -18.55859375 34.62109375 C-19.99543602 33.00513293 -21.47648925 31.75333873 -23.1875 30.4375 C-27.14394768 27.00857868 -28.76591808 24.39283739 -29.28125 19.125 C-29.44890894 13.42459591 -29.43427048 9.73802131 -26 5 C-18.5733625 -2.79620951 -9.87780597 -5.90283375 0 0 Z " fill="#292C31" transform="translate(29,305)"/>
<path d="M0 0 C5.45255077 2.46325035 7.6857644 6.6358622 10 12 C10.36076355 15.53085327 10.36076355 15.53085327 10.34057617 19.47412109 C10.34123329 20.55808167 10.34123329 20.55808167 10.34190369 21.66394043 C10.3398266 24.03405512 10.31654777 26.40344758 10.29296875 28.7734375 C10.28736893 30.42395644 10.28310065 32.07448038 10.28010559 33.7250061 C10.26868717 38.05533778 10.23924613 42.38536445 10.20599365 46.71557617 C10.17522778 51.13976924 10.16158636 55.56401189 10.14648438 59.98828125 C10.11437329 68.65899366 10.06321364 77.32945882 10 86 C11.35183884 85.99000725 11.35183884 85.99000725 12.73098755 85.97981262 C21.23502131 85.91963641 29.73898328 85.87399248 38.24318123 85.84456348 C42.6150129 85.82892497 46.98666824 85.80771999 51.35839844 85.77368164 C55.57943321 85.74102325 59.80029865 85.72313333 64.02145004 85.71536827 C65.62976623 85.70983637 67.23807342 85.69903385 68.84631729 85.68280983 C71.10363859 85.66094893 73.36026521 85.65803661 75.61767578 85.65942383 C76.90118927 85.65276199 78.18470276 85.64610016 79.5071106 85.63923645 C84.73639223 86.1793435 88.67622324 88.23630653 92.3125 92 C92.80363281 92.495 93.29476562 92.99 93.80078125 93.5 C97.51436863 98.14500832 96.58401926 105.44197399 96 111 C94.37545878 115.36132021 92.12866007 118.14662287 88.4375 120.9375 C83.84467421 122.93950099 79.95604223 123.12230077 74.93652344 123.11352539 C73.88226166 123.11374443 73.88226166 123.11374443 72.80670166 123.1139679 C70.49089437 123.11327299 68.17516819 123.10550038 65.859375 123.09765625 C64.25083459 123.09579057 62.64229362 123.09436737 61.03375244 123.09336853 C56.80544458 123.08955516 52.57717121 123.07973495 48.34887695 123.06866455 C44.03206855 123.05842506 39.71525456 123.05386547 35.3984375 123.04882812 C26.93227586 123.03811162 18.46614222 123.02104937 10 123 C10.00444122 123.91597458 10.00888245 124.83194916 10.01345825 125.77568054 C10.05355053 134.4124885 10.08399236 143.04926516 10.10362434 151.68614483 C10.11405666 156.12633424 10.12820582 160.56644668 10.15087891 165.0065918 C10.17262691 169.29245064 10.18457278 173.5782355 10.18975449 177.86414528 C10.19344672 179.49839251 10.20065674 181.13263574 10.21146011 182.76685143 C10.22600111 185.05779105 10.22797686 187.34842586 10.22705078 189.6394043 C10.231492 190.94290329 10.23593323 192.24640228 10.24050903 193.58940125 C10.01047657 196.85143439 9.41258768 199.07689286 8 202 C7.34 202 6.68 202 6 202 C5.773125 202.598125 5.54625 203.19625 5.3125 203.8125 C3.34690872 207.08848546 0.65299853 208.39390054 -2.875 209.6875 C-9.85068255 210.71333567 -15.01810462 209.64066667 -21 206 C-24.646689 202.84587326 -26.33981699 199.76380528 -27 195 C-27.08622681 192.60892099 -27.11771564 190.21562763 -27.11352539 187.82299805 C-27.11367142 187.12001083 -27.11381744 186.41702362 -27.1139679 185.69273376 C-27.11327441 183.38236341 -27.10550857 181.07207492 -27.09765625 178.76171875 C-27.09579006 177.15460759 -27.09436711 175.54749585 -27.09336853 173.94038391 C-27.08955915 169.72031063 -27.07974239 165.50027203 -27.06866455 161.2802124 C-27.05841643 156.97001616 -27.05386363 152.6598143 -27.04882812 148.34960938 C-27.03811867 139.89972371 -27.02106127 131.44986617 -27 123 C-27.8864772 123.00444122 -28.77295441 123.00888245 -29.68629456 123.01345825 C-38.05758833 123.05360191 -46.42884957 123.08401841 -54.80021763 123.10362434 C-59.1035887 123.11404292 -63.40687994 123.12816683 -67.71020508 123.15087891 C-71.86639626 123.17267613 -76.02251086 123.18458311 -80.17875481 123.18975449 C-81.76110984 123.19343792 -83.34346089 123.20063067 -84.92578316 123.21146011 C-87.14926195 123.22606667 -89.37242789 123.22797415 -91.59594727 123.22705078 C-92.85947525 123.231492 -94.12300323 123.23593323 -95.42481995 123.24050903 C-100.10344299 122.92576933 -104.35670711 122.24818422 -108.14453125 119.37109375 C-112.94619708 113.80475982 -115.20576914 109.10136004 -114.90625 101.67578125 C-113.97819651 95.46415048 -110.92921427 91.75410623 -106 88 C-102.36263884 85.642595 -98.85642698 85.72903393 -94.66113281 85.77294922 C-93.92903091 85.77265717 -93.19692902 85.77236511 -92.44264221 85.77206421 C-90.02934811 85.77345453 -87.61636499 85.78900152 -85.203125 85.8046875 C-83.52732512 85.80841869 -81.85152306 85.81126516 -80.17572021 85.81326294 C-75.76981561 85.82089103 -71.36404333 85.84053244 -66.95819092 85.8626709 C-62.46042674 85.88314707 -57.96264113 85.89226845 -53.46484375 85.90234375 C-44.6431711 85.92377911 -35.82159656 85.95790513 -27 86 C-27.00444122 85.1135228 -27.00888245 84.22704559 -27.01345825 83.31370544 C-27.05360191 74.94241167 -27.08401841 66.57115043 -27.10362434 58.19978237 C-27.11404292 53.8964113 -27.12816683 49.59312006 -27.15087891 45.28979492 C-27.17267613 41.13360374 -27.18458311 36.97748914 -27.18975449 32.82124519 C-27.19343792 31.23889016 -27.20063067 29.65653911 -27.21146011 28.07421684 C-27.22606667 25.85073805 -27.22797415 23.62757211 -27.22705078 21.40405273 C-27.231492 20.14052475 -27.23593323 18.87699677 -27.24050903 17.57518005 C-26.87161104 12.09149107 -25.90407065 7.04714159 -21.9375 3.0625 C-15.89266096 -1.84893172 -7.34044294 -1.46423027 0 0 Z " fill="#292C31" transform="translate(403,0)"/>
<path d="M0 0 C0.75464149 -0.00382555 1.50928298 -0.00765109 2.2867924 -0.01159257 C4.81704895 -0.02191645 7.34707831 -0.0179316 9.87734985 -0.01396179 C11.69084381 -0.01830864 13.50433593 -0.02349169 15.31782532 -0.02944946 C20.24554076 -0.04285443 25.17317958 -0.04341641 30.10090971 -0.04088616 C34.21376941 -0.03981736 38.32661356 -0.04469756 42.43946993 -0.04949158 C52.14257062 -0.06059219 61.8456326 -0.06102122 71.54873657 -0.05497742 C81.55984367 -0.04893764 91.57081021 -0.0612475 101.58189332 -0.08254749 C110.17563631 -0.10015981 118.76933455 -0.10616538 127.36309493 -0.10290974 C132.49632755 -0.10109598 137.62945995 -0.10374224 142.76267624 -0.11762428 C147.59062555 -0.1301918 152.41835574 -0.12826868 157.24630165 -0.11521339 C159.01759858 -0.11284563 160.78891088 -0.11558945 162.5601902 -0.12383652 C164.97975311 -0.13428901 167.39857878 -0.12621569 169.81811523 -0.11352539 C170.51773514 -0.12089968 171.21735505 -0.12827396 171.93817556 -0.13587171 C177.36048131 -0.07611391 181.42537717 1.27392875 185.39932251 5.01460266 C185.8775647 5.6114386 186.35580688 6.20827454 186.84854126 6.82319641 C187.33967407 7.42261047 187.83080688 8.02202454 188.33682251 8.63960266 C191.89726156 13.45257402 191.12446977 19.54357855 190.53604126 25.26069641 C188.46514799 30.96457916 184.88343674 34.41633711 179.53604126 37.26069641 C175.8186286 38.52652816 172.16892215 38.39231279 168.26863098 38.40113831 C167.16835374 38.40559499 167.16835374 38.40559499 166.04584867 38.41014171 C163.58708295 38.41881572 161.12836599 38.42033585 158.66958618 38.42182922 C156.90697628 38.42645829 155.14436738 38.43148307 153.38175964 38.43687439 C148.59242342 38.44999129 143.80310121 38.45644189 139.01374984 38.46088505 C136.02127821 38.46381674 133.02881041 38.46792172 130.03634071 38.47238922 C120.67270494 38.48606189 111.30907791 38.49572984 101.94543284 38.49959111 C91.13798099 38.50407233 80.33065558 38.52162415 69.52324218 38.55059171 C61.16812925 38.57220868 52.8130519 38.58229539 44.45791131 38.58363223 C39.468277 38.58468019 34.47876159 38.59058613 29.48915672 38.60845184 C24.79500171 38.6249329 20.10105497 38.62708785 15.40688133 38.61831284 C13.68598879 38.6175425 11.96508505 38.62188475 10.24422073 38.63177109 C7.89070076 38.64449692 5.53791778 38.63861077 3.18440247 38.62818909 C1.86866839 38.62965565 0.55293432 38.63112221 -0.80267048 38.63263321 C-6.6223129 38.04143716 -11.33823593 36.11807648 -15.27645874 31.63569641 C-19.16689456 26.85151182 -20.64937359 22.34754865 -20.37020874 16.19429016 C-19.36120165 10.33516943 -15.8045213 6.16170833 -11.46395874 2.26069641 C-7.82206059 -0.14123775 -4.21715029 -0.02263655 0 0 Z " fill="#292C31" transform="translate(308.4639587402344,460.7393035888672)"/>
<path d="M0 0 C0.75449263 -0.00297112 1.50898526 -0.00594224 2.28634131 -0.0090034 C4.82197836 -0.01769546 7.35756822 -0.01919907 9.89321899 -0.02069092 C11.70818686 -0.02531869 13.52315375 -0.03034329 15.33811951 -0.03573608 C20.2740702 -0.04886498 25.2100073 -0.05530586 30.14597273 -0.05974674 C33.22837603 -0.06267633 36.3107756 -0.06678089 39.39317703 -0.07125092 C49.03339095 -0.08492637 58.67359635 -0.09459312 68.31381929 -0.09845281 C79.4495725 -0.10293555 90.58520309 -0.1204933 101.72091901 -0.1494534 C110.32396141 -0.17105197 118.92696925 -0.18115609 127.53003848 -0.18249393 C132.67052904 -0.18354315 137.81090435 -0.18947604 142.95136642 -0.20731354 C147.78585284 -0.22376294 152.62013696 -0.22596498 157.45464134 -0.21717453 C159.22958733 -0.21640251 161.00454406 -0.22076857 162.77946281 -0.23063278 C165.2016062 -0.24330522 167.62302798 -0.23750148 170.04516602 -0.22705078 C170.74838088 -0.23510719 171.45159575 -0.24316359 172.17612016 -0.25146413 C177.4322899 -0.19838279 180.4456249 1.26485264 184.3800354 4.61309814 C188.65729143 9.2802381 190.51345713 13.7724608 190.64956665 20.14044189 C189.70092226 26.24855016 187.40269929 30.11856043 182.64956665 34.14044189 C181.65956665 35.13044189 181.65956665 35.13044189 180.64956665 36.14044189 C176.54222573 37.31278959 172.43070048 37.2862202 168.19270325 37.28088379 C167.07995206 37.28534047 167.07995206 37.28534047 165.94472104 37.28988719 C163.46375638 37.29854538 160.98284013 37.30007999 158.50186157 37.30157471 C156.72102252 37.30620488 154.94018445 37.31122981 153.15934753 37.31661987 C148.32455028 37.3297257 143.48976691 37.33618515 138.65495467 37.34063053 C135.63315568 37.34356387 132.61136046 37.34766914 129.58956337 37.3521347 C120.13142228 37.36580413 110.67328985 37.37547381 101.21513957 37.3793366 C90.30356735 37.38381773 79.39212037 37.40137058 68.48058623 37.43033719 C60.04136181 37.45196177 51.60217261 37.46204127 43.16292077 37.46337771 C38.12464442 37.46442507 33.08648589 37.47031844 28.04823875 37.48819733 C23.30810456 37.50469166 18.5681766 37.50682688 13.82802391 37.49805832 C12.09142504 37.49728871 10.35481502 37.50162065 8.61824417 37.51151657 C6.24104593 37.52426536 3.86457496 37.51834384 1.48738098 37.50793457 C0.80594172 37.51599097 0.12450246 37.52404738 -0.57758647 37.53234792 C-5.57500426 37.48143413 -9.9257503 36.42584091 -14.35043335 34.14044189 C-19.03399972 29.33362377 -20.63979304 25.37506323 -20.66293335 18.70294189 C-20.67969116 17.59048096 -20.69644897 16.47802002 -20.7137146 15.33184814 C-20.12839914 10.18988328 -17.74759516 7.13807673 -13.85043335 3.89044189 C-13.26262085 3.39028564 -12.67480835 2.89012939 -12.06918335 2.37481689 C-8.32059899 -0.31734824 -4.40479479 -0.00539325 0 0 Z " fill="#292C31" transform="translate(20.350433349609375,85.85955810546875)"/>
<path d="M0 0 C0.75635034 -0.0055344 1.51270068 -0.01106879 2.29197073 -0.0167709 C4.81628264 -0.03034088 7.33959952 -0.01542873 9.8638916 -0.00050354 C11.67768269 -0.00428806 13.49147089 -0.00978919 15.30525208 -0.01687622 C20.2246873 -0.03083079 25.14377277 -0.01966099 30.06318855 -0.00316501 C35.21335241 0.0106923 40.3634961 0.00422463 45.51367188 0.0007019 C54.16220735 -0.00199968 62.810604 0.01147094 71.45910645 0.03465271 C81.45550107 0.06126208 91.45166359 0.06300933 101.44808149 0.05126435 C111.06749406 0.04048209 120.68682273 0.04667717 130.30622864 0.06081963 C134.39860519 0.06657553 138.49092028 0.06649984 142.58329773 0.06175423 C147.40309234 0.05697906 152.22263305 0.06710859 157.04237938 0.08870888 C158.81044343 0.09426954 160.57853192 0.09474865 162.34659767 0.08975601 C164.76170091 0.08379193 167.17603082 0.09632932 169.59106445 0.11352539 C170.28932012 0.10751535 170.98757579 0.1015053 171.70699072 0.09531313 C178.53298695 0.18358228 183.3442947 2.96257105 188.29553223 7.50120544 C191.74387101 12.78865824 190.92880753 19.4783531 190.29553223 25.50120544 C189.02586602 29.53208748 187.08427823 32.21618622 183.64329624 34.68815708 C175.79918744 38.69181385 167.35481596 38.0551683 158.78552246 38.00291443 C157.01394218 38.00670189 155.24236486 38.01220544 153.47079468 38.01928711 C148.67949403 38.03320226 143.88855406 38.02210014 139.09727359 38.0055759 C134.07351855 37.99168413 129.04978357 37.99819009 124.02601624 38.00170898 C115.59211441 38.0044076 107.15835519 37.99096466 98.7244873 37.96775818 C88.98425284 37.94114205 79.2442566 37.93940541 69.50399822 37.95114654 C60.11898349 37.96193795 50.73405463 37.9557271 41.34904671 37.94159126 C37.36159285 37.93584416 33.37420211 37.93590407 29.38674736 37.94065666 C24.68920002 37.9454406 19.99191248 37.93526617 15.29441452 37.91370201 C13.57395237 37.90815357 11.85346515 37.90765094 10.13300133 37.91265488 C7.77787121 37.91864407 5.42352581 37.90603412 3.06846619 37.8888855 C1.75277366 37.8864556 0.43708113 37.88402571 -0.91848087 37.88152218 C-6.52677977 37.3181473 -12.32018041 35.87431229 -16.07946777 31.37620544 C-19.66486965 26.71322377 -20.93491059 21.95222709 -20.54431152 16.10276794 C-19.3966197 9.39489921 -16.29497507 6.52846791 -11.01412201 2.39581203 C-7.19517395 0.20966096 -4.27484752 -0.05880359 0 0 Z " fill="#292C31" transform="translate(308.7044677734375,316.49879455566406)"/>
</svg>
