<?xml version="1.0" encoding="UTF-8"?>
<svg version="1.1" xmlns="http://www.w3.org/2000/svg" width="500" height="610">
<path d="M0 0 C3.12608732 3.85252346 5.90239492 7.81719995 8.5625 12 C9.5420894 13.52660629 10.52263303 15.0526005 11.50390625 16.578125 C12.05320801 17.43212891 12.60250977 18.28613281 13.16845703 19.16601562 C16.75231653 24.71139566 20.37866332 30.22905643 24 35.75 C24.8202548 37.00104242 25.64048569 38.25210051 26.46069336 39.50317383 C28.13602462 42.05840328 29.81158715 44.61348088 31.48730469 47.16845703 C35.53501446 53.34028427 39.58004757 59.51386542 43.625 65.6875 C44.21655884 66.59030701 44.21655884 66.59030701 44.82006836 67.51135254 C51.08307464 77.06983512 57.33845505 86.63328329 63.59082031 96.19873047 C71.24927158 107.91385094 78.92097901 119.62027567 86.59277344 131.32666016 C90.16719119 136.78095018 93.74082485 142.23575392 97.31451416 147.69052124 C99.29297699 150.71036875 101.2714911 153.73018267 103.25 156.75 C104.04166691 157.95833317 104.83333358 159.16666651 105.625 160.375 C106.016875 160.973125 106.40875 161.57125 106.8125 162.1875 C186.37499985 283.62499977 186.37499985 283.62499977 187.56246948 285.43745422 C188.35423689 286.64594079 189.14600528 287.85442671 189.93777466 289.06291199 C191.91540799 292.08139561 193.89302434 295.09989037 195.87060547 298.1184082 C199.45069372 303.58290621 203.03090325 309.04732454 206.61175537 314.51132202 C208.2292755 316.97950857 209.84669596 319.44776043 211.46411133 321.91601562 C212.54824532 323.57037445 213.63251589 325.22464376 214.71679688 326.87890625 C220.09049777 335.07957697 225.4565808 343.28521967 230.82177734 351.49145508 C231.61732251 352.7082255 232.41286998 353.92499441 233.2084198 355.14176178 C235.13897307 358.0944905 237.06949523 361.04723957 239 364 C239.06653031 317.91993201 238.98973476 271.84137339 238.78125 225.76171875 C238.77303411 223.93942489 238.77303411 223.93942489 238.76465225 222.08031702 C238.69116929 205.8212325 238.61432829 189.56216451 238.53643799 173.30310059 C238.44536588 154.28883255 238.35598598 135.27455679 238.26903296 116.26026946 C238.23675851 109.2214743 238.20324304 102.18268664 238.16868162 95.14390236 C238.01414153 63.42909038 237.97186942 31.71517034 238 0 C238.4404915 0.39678886 238.88098299 0.79357772 239.33482271 1.20239049 C242.91173494 4.35756367 246.31153691 6.95722819 250.58726501 9.13200378 C271.12688269 19.92391814 289.87098366 32.63184601 307.9375 47.1875 C309.04166748 48.07330026 309.04166748 48.07330026 310.16814137 48.97699547 C349.12655402 80.48564931 370.71956307 118.239245 376.14192681 167.74210386 C380.76936051 212.05846727 380.70996426 256.72688226 380.00986178 301.22706289 C379.89998206 308.25036277 379.82029255 315.27350827 379.75559616 322.29735947 C379.52179399 346.56195716 378.9607114 370.79453365 377.94573798 395.03944537 C377.71995559 400.48683056 377.53022994 405.93386729 377.37119612 411.38359703 C375.4159227 477.78231029 375.4159227 477.78231029 355.74117303 496.63503981 C350.91367814 500.94608663 345.84216287 504.81784959 340.51398945 508.4854126 C336.95220772 510.95503846 334.22064636 513.7034051 331.52587509 517.09859085 C328.38340454 521.01445676 324.68155594 524.44798917 321.12719727 527.98632812 C320.26786087 528.84581055 319.40852448 529.70529297 318.52314758 530.59082031 C316.19072885 532.92266611 313.85612277 535.25229367 311.5204823 537.58091164 C309.07100328 540.0240943 306.6243991 542.47015257 304.17747498 544.91589355 C299.55439068 549.53588292 294.92876566 554.15331959 290.30219835 558.76982069 C285.0304944 564.0303061 279.76166569 569.29366735 274.49306405 574.55725956 C263.66521515 585.37468574 252.83380184 596.18853558 242 607 C238.58118798 603.68571944 235.96218286 600.17054055 233.38671875 596.18359375 C232.94466599 595.5079538 232.50261322 594.83231384 232.04716492 594.13619995 C230.58949547 591.90616851 229.13857076 589.6718296 227.6875 587.4375 C226.65952626 585.86254179 225.63103443 584.28792163 224.60205078 582.71362305 C222.46267781 579.43961567 220.32554879 576.16416007 218.18994141 572.88769531 C213.7465877 566.07454173 209.27509652 559.27992902 204.80410767 552.4848938 C202.40705314 548.84111908 200.01210358 545.19596171 197.6171875 541.55078125 C197.1472084 540.83548752 196.67722931 540.12019379 196.19300842 539.38322449 C190.86049285 531.26663874 185.5329557 523.14678732 180.20544434 515.0269165 C173.34948229 504.57769174 166.48885295 494.13154305 159.625 483.6875 C159.14774475 482.96130463 158.6704895 482.23510925 158.17877197 481.48690796 C154.7859935 476.32450966 151.39301905 471.16224018 148 466 C144.12486552 460.10425505 140.24981761 454.20845322 136.375 448.3125 C135.65887543 447.22284439 135.65887543 447.22284439 134.92828369 446.11117554 C127.68279011 435.0860705 120.44266622 424.05745265 113.20544434 413.0269165 C103.44702176 398.15402921 93.67753772 383.28841896 83.90722656 368.42333984 C78.62595455 360.38803707 73.34559173 352.35213677 68.06506348 344.31634521 C66.62931884 342.13146599 65.19356811 339.94659077 63.7578125 337.76171875 C63.28384033 337.040448 62.80986816 336.31917725 62.3215332 335.5760498 C59.42666434 331.17082526 56.53158377 326.76573992 53.63633728 322.36076355 C51.69757991 319.41102452 49.75889309 316.46123913 47.82022095 313.51144409 C46.85977766 312.05010277 45.89930826 310.5887786 44.93881226 309.12747192 C39.72462983 301.19444275 34.51317172 293.25964676 29.30859375 285.3203125 C28.37516572 283.89672658 27.44173476 282.47314257 26.50830078 281.04956055 C24.78844607 278.42653484 23.06946937 275.80293712 21.35107422 273.17895508 C14.95135464 263.41752271 8.47524873 253.71287309 2 244 C1.67 363.46 1.34 482.92 1 606 C-23.19560476 593.90219762 -45.23112967 579.67939724 -66.25 562.625 C-67.36379485 561.72372863 -67.36379485 561.72372863 -68.5000906 560.80424976 C-111.30924074 525.85290543 -131.1512241 484.78242291 -136.798673 430.79802909 C-140.84025514 390.27311863 -140.98930094 349.51671044 -140.67422971 308.83316185 C-140.62513604 301.87534021 -140.63137139 294.91911317 -140.6688385 287.96125031 C-140.79259585 263.85990457 -140.47525179 239.82431718 -139.5572051 215.73937982 C-139.32861686 209.47604832 -139.22724562 203.21914953 -139.17765427 196.95212555 C-138.780417 157.61613021 -133.90478153 130.08927153 -105.08729618 101.63237915 C-94.9758777 91.85445689 -84.35513703 82.70864314 -73.46377984 73.81756279 C-69.71855347 70.71513749 -66.43928419 67.44829669 -63.3705731 63.68077123 C-60.95971339 60.72426812 -58.21766201 58.08660852 -55.51391602 55.40039062 C-54.90817245 54.79450104 -54.30242889 54.18861145 -53.67832947 53.56436157 C-51.70588664 51.59260693 -49.72994234 49.62440297 -47.75390625 47.65625 C-46.3736363 46.27784813 -44.9935892 44.89922309 -43.61375427 43.52038574 C-40.0042193 39.91464527 -36.39169001 36.31191967 -32.77850342 32.70983887 C-29.08292473 29.02454066 -25.39022095 25.33636419 -21.69726562 21.6484375 C-14.46763572 14.42949074 -7.23483544 7.21372951 0 0 Z " fill="#60A442" transform="translate(130,1)"/>
<path d="M0 0 C0.66 2.97 1.32 5.94 2 9 C2.66 9 3.32 9 4 9 C4 9.66 4 10.32 4 11 C4.66 11 5.32 11 6 11 C6.2475 11.94875 6.495 12.8975 6.75 13.875 C8.20737809 17.51844521 8.66958785 17.43274723 12 19 C15.78216441 23.92827483 18.04544941 29.13634823 20 35 C20.66 35 21.32 35 22 35 C22.33 35.99 22.66 36.98 23 38 C23.721875 38.680625 24.44375 39.36125 25.1875 40.0625 C28.3941265 43.10230778 30.33957489 46.76283685 32.47265625 50.59765625 C33.91397529 53.06197773 33.91397529 53.06197773 36 54.9765625 C38.25323485 57.25620245 39.4828364 59.46361589 40.9375 62.3125 C43.33330734 66.85606392 45.94877162 70.87671841 49 75 C49.69609375 76.18916016 49.69609375 76.18916016 50.40625 77.40234375 C52.02741564 80.04468481 53.82280031 82.31320352 55.8125 84.6875 C59.19858385 88.8516362 62.02588344 93.11143964 64.67578125 97.7734375 C65.98666497 99.97757827 67.44018992 101.96713277 69 104 C70.59444835 106.48733943 71.92506357 108.80797541 73 111.5625 C74.02903617 114.07077566 75.37122419 115.85297734 77 118 C77 118.66 77 119.32 77 120 C78.485 120.495 78.485 120.495 80 121 C81.03291676 122.98320018 82.0337499 124.98347806 83 127 C83.66 127.33 84.32 127.66 85 128 C85.12375 128.598125 85.2475 129.19625 85.375 129.8125 C85.85734239 132.17098678 85.85734239 132.17098678 87.9375 133.9375 C90.21753828 136.21753828 90.94523094 137.98637411 92 141 C92.51445673 141.8757623 92.51445673 141.8757623 93.03930652 142.76921678 C94.29589766 145.68709069 94.2482741 148.01636663 94.24609566 151.19253159 C94.25007775 152.47193516 94.25405985 153.75133874 94.25816262 155.06951213 C94.25245649 156.49228534 94.24656529 157.91505782 94.24050903 159.33782959 C94.24138091 160.84683468 94.24313157 162.35583948 94.24568737 163.86484265 C94.25016835 168.01741831 94.24214692 172.16989118 94.23213124 176.32245374 C94.22350985 180.79822621 94.22641597 185.27399268 94.22793579 189.74977112 C94.22898547 197.50633878 94.22270018 205.26287285 94.21146011 213.01943207 C94.19521935 224.23416781 94.18999857 235.44888727 94.18748413 246.6636335 C94.18310479 264.85795889 94.1697892 283.05226637 94.15087891 301.24658203 C94.13252629 318.92268789 94.11836676 336.59878888 94.10986328 354.27490234 C94.10933783 355.36410484 94.10881239 356.45330733 94.10827102 357.57551596 C94.10566098 363.0396194 94.10313355 368.50372287 94.10064721 373.96782637 C94.07990727 419.31189665 94.04467523 464.6559474 94 510 C69.79462141 497.90699756 47.79743335 483.6481057 26.75 466.625 C25.63362152 465.72631227 25.63362152 465.72631227 24.49468994 464.80946922 C-15.70969096 432.19223227 -37.12140786 393.47609942 -42.49804688 342.43457031 C-46.91461827 298.89081597 -46.82181517 255.00599311 -46.13450213 211.29343427 C-46.02461996 204.25440801 -45.94618927 197.21556632 -45.88356018 190.17597198 C-45.65706139 165.85346064 -45.09901988 141.5641112 -44.07931037 117.26148509 C-43.85269691 111.8022443 -43.66356212 106.34343003 -43.50641252 100.88176175 C-41.57581215 34.36056001 -41.57581215 34.36056001 -21.0293045 14.47852278 C-5.06965469 0 -5.06965469 0 0 0 Z " fill="#117CC9" transform="translate(37,97)"/>
<path d="M0 0 C0.66 2.97 1.32 5.94 2 9 C2.66 9 3.32 9 4 9 C4 9.66 4 10.32 4 11 C4.66 11 5.32 11 6 11 C6.2475 11.94875 6.495 12.8975 6.75 13.875 C8.20737809 17.51844521 8.66958785 17.43274723 12 19 C15.78216441 23.92827483 18.04544941 29.13634823 20 35 C20.66 35 21.32 35 22 35 C22.33 35.99 22.66 36.98 23 38 C23.721875 38.680625 24.44375 39.36125 25.1875 40.0625 C28.3941265 43.10230778 30.33957489 46.76283685 32.47265625 50.59765625 C33.93076185 53.08329701 33.93076185 53.08329701 36.10546875 55.10546875 C38.500023 57.500023 39.11979561 59.77258391 40 63 C39.34 63 38.68 63 38 63 C36.64721885 61.01310269 35.31431695 59.01254782 34 57 C33.34 56.67 32.68 56.34 32 56 C31.4225 54.88625 30.845 53.7725 30.25 52.625 C28.2063259 48.88338614 26.04676719 47.4955444 22 46 C21.34 46 20.68 46 20 46 C20 47.98 20 49.96 20 52 C19.01 51.505 19.01 51.505 18 51 C18 50.01 18 49.02 18 48 C17.401875 47.78085938 16.80375 47.56171875 16.1875 47.3359375 C13.28184674 45.56141354 12.49654533 43.65875764 11 40.625 C9.4759998 37.55215178 8.25898652 35.25621166 5.8125 32.8359375 C4 31 4 31 4 28 C3.34 27.67 2.68 27.34 2 27 C0.375 25.6875 0.375 25.6875 -1 24 C-1 22.68 -1 21.36 -1 20 C-1.99 20 -2.98 20 -4 20 C-4.33 19.01 -4.66 18.02 -5 17 C-6.62652316 15.29413425 -8.29006566 13.6222454 -10 12 C-13.24849977 13.72226496 -13.24849977 13.72226496 -14 17 C-15.33333333 17.66666667 -16.66666667 18.33333333 -18 19 C-18.33 19.99 -18.66 20.98 -19 22 C-19.99 22 -20.98 22 -22 22 C-22 22.99 -22 23.98 -22 25 C-23.64333504 26.03789581 -25.31243867 27.03567924 -27 28 C-29.18490007 30.67642489 -29.18490007 30.67642489 -29 33 C-32 35 -32 35 -35 35 C-35.33 36.32 -35.66 37.64 -36 39 C-36.24316401 36.14192928 -36.35542361 34.52647785 -34.72268677 32.10795593 C-34.12471283 31.51505264 -33.52673889 30.92214935 -32.91064453 30.3112793 C-32.23639435 29.63095139 -31.56214417 28.95062347 -30.86746216 28.24967957 C-30.13002777 27.5317775 -29.39259338 26.81387543 -28.6328125 26.07421875 C-27.88289032 25.32662796 -27.13296814 24.57903717 -26.36032104 23.80879211 C-24.77389174 22.23210291 -23.18144501 20.66144866 -21.58349609 19.09643555 C-19.12922546 16.69164028 -16.69419366 14.26861716 -14.26171875 11.84179688 C-12.71984131 10.31400201 -11.17690799 8.78727186 -9.6328125 7.26171875 C-8.89942657 6.53369553 -8.16604065 5.8056723 -7.41043091 5.05558777 C-6.7298764 4.39102066 -6.0493219 3.72645355 -5.34814453 3.04174805 C-4.74857941 2.45282272 -4.14901428 1.8638974 -3.53128052 1.25712585 C-2 0 -2 0 0 0 Z " fill="#1387BE" transform="translate(37,97)"/>
<path d="M0 0 C2.54477409 3.15931275 4.98599735 6.32008191 7.25 9.6875 C8.03117187 10.83798828 8.03117187 10.83798828 8.828125 12.01171875 C10 14 10 14 10 16 C9.34 16 8.68 16 8 16 C8 15.34 8 14.68 8 14 C7.34 14 6.68 14 6 14 C4.375 12 4.375 12 3 10 C2.525625 10.4125 2.05125 10.825 1.5625 11.25 C-1.38093526 13.26015091 -4.3684379 14.46224907 -7.68359375 15.7421875 C-13.70718898 19.01300987 -18.03740129 25.38641085 -22.5 30.4765625 C-25 33 -25 33 -27.75 34.6484375 C-30.31346442 35.85638707 -30.31346442 35.85638707 -31 39 C-35.45714286 43 -35.45714286 43 -38 43 C-38.2475 43.5775 -38.495 44.155 -38.75 44.75 C-40.18299988 47.32939979 -41.78424676 49.06121592 -44 51 C-44.66 51 -45.32 51 -46 51 C-46.2475 51.5775 -46.495 52.155 -46.75 52.75 C-48.18299988 55.32939979 -49.78424676 57.06121592 -52 59 C-52.66 59 -53.32 59 -54 59 C-54.226875 59.928125 -54.45375 60.85625 -54.6875 61.8125 C-56.25386138 65.6165205 -57.51412577 66.04450958 -61 68 C-61.474375 68.845625 -61.94875 69.69125 -62.4375 70.5625 C-64.49749108 73.77608608 -66.45205025 73.86767561 -70 75 C-71.12516085 76.83284443 -71.12516085 76.83284443 -72 79 C-74.46968766 81.5778176 -77.03110376 84.02903325 -79.640625 86.46484375 C-80.93226562 87.68880859 -80.93226562 87.68880859 -82.25 88.9375 C-83.55710937 90.15759766 -83.55710937 90.15759766 -84.890625 91.40234375 C-87.3110576 94.38306167 -87.83234128 96.1962428 -88 100 C-86.77148372 102.52066803 -86.77148372 102.52066803 -85 105 C-83.98034573 107.32481174 -82.97940398 109.65794699 -82 112 C-81.34711373 113.34013497 -80.68774405 114.67741528 -80 116 C-83.26460973 114.19587357 -84.88929795 113.16605307 -87 110 C-87 109.01 -87 108.02 -87 107 C-87.66 107 -88.32 107 -89 107 C-89 106.34 -89 105.68 -89 105 C-89.66 105 -90.32 105 -91 105 C-91.99 101.7 -92.98 98.4 -94 95 C-93.2793335 94.28457031 -92.55866699 93.56914063 -91.81616211 92.83203125 C-89.10927088 90.14342116 -86.40583901 87.45135438 -83.70336914 84.75830078 C-82.53957726 83.59949681 -81.37488451 82.44159678 -80.20922852 81.28466797 C-78.52114356 79.60889423 -76.83646862 77.92975246 -75.15234375 76.25 C-74.64162827 75.7444458 -74.13091278 75.2388916 -73.60472107 74.71801758 C-70.95363787 72.06733487 -68.43408315 69.36237448 -66.00585938 66.50585938 C-60.27419832 59.89372744 -53.95009381 53.82771875 -47.75390625 47.65625 C-46.3736363 46.27784813 -44.9935892 44.89922309 -43.61375427 43.52038574 C-40.0042193 39.91464527 -36.39169001 36.31191967 -32.77850342 32.70983887 C-29.08292473 29.02454066 -25.39022095 25.33636419 -21.69726562 21.6484375 C-14.46763572 14.42949074 -7.23483544 7.21372951 0 0 Z " fill="#64B96F" transform="translate(130,1)"/>
<path d="M0 0 C2.38447361 3.57671041 2.24527507 5.10411733 2.23377991 9.34991455 C2.23478319 9.99682369 2.23578647 10.64373283 2.23682016 11.31024528 C2.23777418 13.48201722 2.22442012 15.65346693 2.21118164 17.82519531 C2.20898076 19.38076175 2.20767501 20.93632967 2.2071991 22.49189758 C2.20426304 25.84443537 2.19500626 29.19687586 2.18089485 32.54938507 C2.15864433 37.85272612 2.15054079 43.15603094 2.14439392 48.45941162 C2.13300445 56.85166774 2.11227569 65.2438704 2.08749622 73.63609672 C2.04322543 88.65309302 2.0099534 103.6701074 1.98725218 118.68715167 C1.97885572 123.95636266 1.96484058 129.22552009 1.94627964 134.49470472 C1.93561074 137.77823152 1.9290434 141.06175784 1.92347908 144.34529686 C1.92001832 145.86461837 1.91481496 147.38393709 1.90771103 148.90324593 C1.89820411 150.98290034 1.89497633 153.06247751 1.89320374 155.14215088 C1.88792459 156.88540838 1.88792459 156.88540838 1.8825388 158.66388321 C2.00592636 162.16831977 2.50058258 165.53203139 3 169 C2.66015625 172.30859375 2.66015625 172.30859375 2.0625 175.4375 C1.86785156 176.48808594 1.67320312 177.53867188 1.47265625 178.62109375 C1.31667969 179.40613281 1.16070312 180.19117188 1 181 C0.67 181 0.34 181 0 181 C-1.78601851 55.01032022 -1.78601851 55.01032022 0 0 Z " fill="#74BB50" transform="translate(130,14)"/>
<path d="M0 0 C10 11.92307692 10 11.92307692 10 16 C9.34 16 8.68 16 8 16 C8 15.34 8 14.68 8 14 C7.34 14 6.68 14 6 14 C4.375 12 4.375 12 3 10 C2.525625 10.4125 2.05125 10.825 1.5625 11.25 C-1.38093526 13.26015091 -4.3684379 14.46224907 -7.68359375 15.7421875 C-13.70718898 19.01300987 -18.03740129 25.38641085 -22.5 30.4765625 C-25 33 -25 33 -27.75 34.6484375 C-30.31346442 35.85638707 -30.31346442 35.85638707 -31 39 C-35.45714286 43 -35.45714286 43 -38 43 C-38.2475 43.5775 -38.495 44.155 -38.75 44.75 C-40.16683317 47.3002997 -41.87627537 49.01785701 -44 51 C-44.66 50.67 -45.32 50.34 -46 50 C-44.7260411 47.96166576 -43.38938077 45.96147874 -42 44 C-41.34 44 -40.68 44 -40 44 C-39.34 42.68 -38.68 41.36 -38 40 C-37.34 40 -36.68 40 -36 40 C-35.64035156 39.11828125 -35.64035156 39.11828125 -35.2734375 38.21875 C-33.7469286 35.55906577 -32.09326485 34.3040474 -29.625 32.5 C-24.02922605 28.51957708 -24.02922605 28.51957708 -20.0625 23.0625 C-18.55049122 20.12742414 -16.43758391 18.19382552 -14 16 C-13.34 16 -12.68 16 -12 16 C-11.7525 15.46375 -11.505 14.9275 -11.25 14.375 C-8.25386514 8.68234377 -4.61264101 4.40297551 0 0 Z M-47 51 C-47 51.99 -47 52.98 -47 54 C-49.5 56.1875 -49.5 56.1875 -52 58 C-51.60196439 55.11424181 -51.20990931 54.17810487 -48.9375 52.25 C-48.298125 51.8375 -47.65875 51.425 -47 51 Z " fill="#67BC78" transform="translate(130,1)"/>
<path d="M0 0 C3.76258936 4.59872033 7.41805405 9.2862198 10.4140625 14.42578125 C12.03445817 17.05593086 13.8296044 19.3213228 15.8125 21.6875 C19.19858385 25.8516362 22.02588344 30.11143964 24.67578125 34.7734375 C25.98666497 36.97757827 27.44018992 38.96713277 29 41 C30.59444835 43.48733943 31.92506357 45.80797541 33 48.5625 C34.02903617 51.07077566 35.37122419 52.85297734 37 55 C37 55.66 37 56.32 37 57 C37.99 57.33 38.98 57.66 40 58 C41.03291676 59.98320018 42.0337499 61.98347806 43 64 C43.99 64.495 43.99 64.495 45 65 C45.12375 65.598125 45.2475 66.19625 45.375 66.8125 C45.85734239 69.17098678 45.85734239 69.17098678 47.9375 70.9375 C50.23039039 73.23039039 50.96112817 74.95758963 52 78 C52.37125 78.928125 52.7425 79.85625 53.125 80.8125 C53.41375 81.534375 53.7025 82.25625 54 83 C53.34 83 52.68 83 52 83 C51.67 82.01 51.34 81.02 51 80 C50.01 79.505 50.01 79.505 49 79 C49 78.34 49 77.68 49 77 C48.34 77 47.68 77 47 77 C46.31640625 75.27473958 45.6328125 73.54947917 44.94921875 71.82421875 C43.89167811 69.79182584 42.61835091 68.61025916 41 67 C40.0561681 65.50847973 39.16145329 63.98499142 38.3125 62.4375 C37.87550781 61.65246094 37.43851563 60.86742187 36.98828125 60.05859375 C36 58 36 58 36 56 C35.34 56 34.68 56 34 56 C33.8453125 55.0409375 33.8453125 55.0409375 33.6875 54.0625 C33.460625 53.381875 33.23375 52.70125 33 52 C32.01 51.67 31.02 51.34 30 51 C28.6484375 48.85546875 28.6484375 48.85546875 27.375 46.1875 C26.94960937 45.31480469 26.52421875 44.44210938 26.0859375 43.54296875 C25.14988121 41.35098083 24.48788343 39.32557769 24 37 C23.34 37 22.68 37 22 37 C20.48779297 35.11987305 20.48779297 35.11987305 18.7421875 32.51171875 C18.11699219 31.57779297 17.49179688 30.64386719 16.84765625 29.68164062 C16.19667969 28.69357422 15.54570313 27.70550781 14.875 26.6875 C13.88693359 25.22280273 13.88693359 25.22280273 12.87890625 23.72851562 C11.94498047 22.32182617 11.94498047 22.32182617 10.9921875 20.88671875 C10.41839355 20.02264404 9.84459961 19.15856934 9.25341797 18.26831055 C8 16 8 16 8 13 C7.01 13 6.02 13 5 13 C4.15930585 11.39967863 3.32768495 9.79458829 2.5 8.1875 C1.80390625 6.84751953 1.80390625 6.84751953 1.09375 5.48046875 C0 3 0 3 0 0 Z " fill="#258096" transform="translate(77,160)"/>
<path d="M0 0 C3 1 3 1 4.25 3.4375 C4.8275 4.613125 5.405 5.78875 6 7 C7.69632701 9.52761165 9.46294783 11.99831212 11.23046875 14.4765625 C14.03030339 18.46926268 16.55766747 22.62713035 19.08984375 26.79296875 C21.26886469 30.30011735 21.26886469 30.30011735 25 32 C25 32.99 25 33.98 25 35 C25.66 35.33 26.32 35.66 27 36 C27.3403125 37.2065625 27.3403125 37.2065625 27.6875 38.4375 C29.25902869 42.70307787 31.57576796 45.88436527 34.24609375 49.53515625 C35.96929043 51.95684245 37.47797567 54.44900148 39 57 C39.86625 58.051875 39.86625 58.051875 40.75 59.125 C41.1625 59.74375 41.575 60.3625 42 61 C41.67 61.99 41.34 62.98 41 64 C36.86115393 60.06809623 34.09280056 56.29355436 32 51 C30.85213195 49.038509 29.63400443 47.13262281 28.40234375 45.22265625 C27.46196173 43.73219005 26.55823255 42.21800569 25.69140625 40.68359375 C22.86014805 35.68678395 19.68317088 31.2851783 15.9375 26.9375 C12.44489649 22.88190581 9.52574882 18.87411068 7.08984375 14.09765625 C5.59055783 11.21193389 3.81027401 8.53323007 2.015625 5.82421875 C0.94200028 3.89582358 0.43764569 2.15492934 0 0 Z " fill="#4DA472" transform="translate(75,154)"/>
<path d="M0 0 C0 3 0 3 -2.1875 5.375 C-3.5796875 6.674375 -3.5796875 6.674375 -5 8 C-9.20646843 11.99819022 -9.20646843 11.99819022 -12 17 C-12.66 17 -13.32 17 -14 17 C-14.23074219 17.58007812 -14.46148437 18.16015625 -14.69921875 18.7578125 C-16.32569822 21.56141375 -18.22076067 22.93993825 -20.8125 24.875 C-24.83934788 27.99218584 -27.8992818 30.98730586 -31 35 C-32.33333333 36.33333333 -33.66666667 37.66666667 -35 39 C-35.880952 40.07849881 -36.7556919 41.16209396 -37.625 42.25 C-38.800625 43.61125 -38.800625 43.61125 -40 45 C-40.66 45 -41.32 45 -42 45 C-42.4021875 46.175625 -42.4021875 46.175625 -42.8125 47.375 C-44 50 -44 50 -47 52 C-48.32 51.67 -49.64 51.34 -51 51 C-34.17 34.17 -17.34 17.34 0 0 Z " fill="#51AD98" transform="translate(121,10)"/>
<path d="M0 0 C0.495 1.98 0.495 1.98 1 4 C0.56244385 4.37044434 0.1248877 4.74088867 -0.32592773 5.12255859 C-6.25831289 10.2229767 -11.91206206 15.59352461 -17.48510742 21.08007812 C-18.54673491 22.11985196 -19.61459301 23.15329804 -20.68823242 24.18066406 C-22.25596171 25.68177731 -23.80334279 27.20141552 -25.34765625 28.7265625 C-26.26554932 29.61939941 -27.18344238 30.51223633 -28.12915039 31.43212891 C-30.2792901 33.82722876 -30.2792901 33.82722876 -29.90185547 36.64379883 C-28.69762025 39.79000189 -26.99132413 42.30354903 -25.0625 45.0625 C-20.62939313 51.44263384 -20.62939313 51.44263384 -19 55 C-22.26460973 53.19587357 -23.88929795 52.16605307 -26 49 C-26 48.01 -26 47.02 -26 46 C-26.66 46 -27.32 46 -28 46 C-28 45.34 -28 44.68 -28 44 C-28.66 44 -29.32 44 -30 44 C-30.99 40.7 -31.98 37.4 -33 34 C-31.91900024 32.92685547 -31.91900024 32.92685547 -30.81616211 31.83203125 C-28.10927088 29.14342116 -25.40583901 26.45135438 -22.70336914 23.75830078 C-21.53957726 22.59949681 -20.37488451 21.44159678 -19.20922852 20.28466797 C-12.91359333 14.0349469 -6.72744376 7.78384688 -1 1 C-0.67 0.67 -0.34 0.34 0 0 Z " fill="#43AEA0" transform="translate(69,62)"/>
<path d="M0 0 C1.32 0 2.64 0 4 0 C5.03789581 1.64333504 6.03567924 3.31243867 7 5 C8.32467746 5.6837045 9.65863633 6.34964186 11 7 C15 11.44444444 15 11.44444444 15 14 C16.32 14.66 17.64 15.32 19 16 C19 16.66 19 17.32 19 18 C19.66 18 20.32 18 21 18 C21 18.66 21 19.32 21 20 C21.680625 20.165 22.36125 20.33 23.0625 20.5 C27.39632353 22.71301627 29.97802936 26.25519489 33 30 C33.66 29.67 34.32 29.34 35 29 C35 30.65 35 32.3 35 34 C32.05495226 32.67185252 29.97753345 31.2264428 27.70019531 28.94311523 C27.07985413 28.32585068 26.45951294 27.70858612 25.82037354 27.07261658 C25.16293152 26.40798904 24.5054895 25.74336151 23.828125 25.05859375 C23.1457074 24.37571793 22.46328979 23.6928421 21.76019287 22.98927307 C20.32229178 21.54835568 18.88681713 20.10501339 17.45361328 18.65942383 C15.24956582 16.43706221 13.03756307 14.2228644 10.82421875 12.00976562 C9.42921346 10.60984722 8.03466603 9.20947237 6.640625 7.80859375 C5.97508606 7.14194199 5.30954712 6.47529022 4.62384033 5.78843689 C4.01610779 5.17432449 3.40837524 4.5602121 2.78222656 3.92749023 C2.24357971 3.38503159 1.70493286 2.84257294 1.14996338 2.28367615 C0 1 0 1 0 0 Z " fill="#1142C1" transform="translate(96,573)"/>
<path d="M0 0 C3.76470588 3.51372549 3.76470588 3.51372549 4.9375 5.9375 C6.43381954 8.84212029 8.6704113 10.7258777 11 13 C19 22.21212121 19 22.21212121 19 27 C19.66 27 20.32 27 21 27 C21.33 28.65 21.66 30.3 22 32 C21.34 31.67 20.68 31.34 20 31 C20 30.34 20 29.68 20 29 C19.01 28.67 18.02 28.34 17 28 C15.56536328 25.87407663 14.26460129 23.78506054 13 21.5625 C10.23247479 16.67146147 10.23247479 16.67146147 6 13 C6 12.01 6 11.02 6 10 C5.34 10 4.68 10 4 10 C1.1605948 6.32547562 0 4.73113419 0 0 Z " fill="#50A774" transform="translate(53,122)"/>
<path d="M0 0 C1.32 0.99 2.64 1.98 4 3 C2.515 8.445 2.515 8.445 1 14 C1.66 14 2.32 14 3 14 C3 13.01 3 12.02 3 11 C3.66 11 4.32 11 5 11 C3.125 15.875 3.125 15.875 2 17 C1.83996512 19.66426685 1.74057111 22.30560428 1.68359375 24.97265625 C1.66281265 25.77029892 1.64203156 26.56794159 1.62062073 27.38975525 C1.55503842 29.94724611 1.49620033 32.5048428 1.4375 35.0625 C1.39432301 36.79232882 1.35070899 38.52214679 1.30664062 40.25195312 C1.19934828 44.5011926 1.09810574 48.7505389 1 53 C0.67 53 0.34 53 0 53 C0 35.51 0 18.02 0 0 Z " fill="#83AB5B" transform="translate(368,1)"/>
<path d="M0 0 C0.99 0.33 1.98 0.66 3 1 C2.01 1.66 1.02 2.32 0 3 C-0.33 3.99 -0.66 4.98 -1 6 C-2.33333333 6.66666667 -3.66666667 7.33333333 -5 8 C-5.33 8.99 -5.66 9.98 -6 11 C-6.99 11 -7.98 11 -9 11 C-9 11.99 -9 12.98 -9 14 C-10.64333504 15.03789581 -12.31243867 16.03567924 -14 17 C-16.18490007 19.67642489 -16.18490007 19.67642489 -16 22 C-19 24 -19 24 -22 24 C-22.33 25.32 -22.66 26.64 -23 28 C-23.31445312 25.8449707 -23.31445312 25.8449707 -23 23 C-21.37729093 20.94102837 -19.85192537 19.26704637 -17.96875 17.48046875 C-17.45824097 16.97703445 -16.94773193 16.47360016 -16.42175293 15.95491028 C-14.79254691 14.35363679 -13.14681251 12.77064088 -11.5 11.1875 C-10.39079073 10.10337497 -9.28270349 9.01810068 -8.17578125 7.93164062 C-5.46334831 5.27426155 -2.73596061 2.63314063 0 0 Z " fill="#199CDF" transform="translate(24,108)"/>
<path d="M0 0 C3.58806317 3.38872633 6.45684799 6.76141332 9 11 C9 11.66 9 12.32 9 13 C8.34 13 7.68 13 7 13 C7 12.34 7 11.68 7 11 C6.34 11 5.68 11 5 11 C3.375 9 3.375 9 2 7 C1.38125 7.495 0.7625 7.99 0.125 8.5 C-2 10 -2 10 -4 10 C-4.8125 7.8125 -4.8125 7.8125 -5 5 C-2.5625 2.1875 -2.5625 2.1875 0 0 Z " fill="#7AC457" transform="translate(131,4)"/>
<path d="M0 0 C3.94960116 1.49962781 5.4687403 3.72693688 7.6875 7.25 C8.28949219 8.18328125 8.89148438 9.1165625 9.51171875 10.078125 C11.06019927 13.1181865 11.62577511 15.62698634 12 19 C9 17 9 17 8 13.4375 C7.67 12.303125 7.34 11.16875 7 10 C6.01 9.67 5.02 9.34 4 9 C4 7.68 4 6.36 4 5 C3.01 4.67 2.02 4.34 1 4 C0.3125 1.9375 0.3125 1.9375 0 0 Z " fill="#4EA071" transform="translate(118,220)"/>
<path d="M0 0 C1.88581069 1.70620967 3.13605066 3.23069459 4.4375 5.4375 C5.88095432 8.06019357 5.88095432 8.06019357 8.0625 9.9375 C10.41468968 12.44144386 11.10505318 14.71852832 12 18 C11.34 18 10.68 18 10 18 C8.64721885 16.01310269 7.31431695 14.01254782 6 12 C5.34 11.67 4.68 11.34 4 11 C1.42926228 7.40096719 0.50864727 4.37436651 0 0 Z " fill="#248A96" transform="translate(65,142)"/>
<path d="M0 0 C2.79433578 3.39136347 5.27930326 6.84761904 7.625 10.5625 C8.51058594 11.95662109 8.51058594 11.95662109 9.4140625 13.37890625 C10.72816701 15.55073907 11.91131632 17.70945266 13 20 C9.73539027 18.19587357 8.11070205 17.16605307 6 14 C6 13.01 6 12.02 6 11 C5.34 11 4.68 11 4 11 C4 10.34 4 9.68 4 9 C3.34 9 2.68 9 2 9 C0.50178941 5.62902617 0 3.79557881 0 0 Z " fill="#33958B" transform="translate(37,97)"/>
<path d="M0 0 C0.99 0.33 1.98 0.66 3 1 C-0.96 4.96 -4.92 8.92 -9 13 C-9.33 11.68 -9.66 10.36 -10 9 C-4.25 4 -4.25 4 -2 4 C-2 3.34 -2 2.68 -2 2 C-1.34 2 -0.68 2 0 2 C0 1.34 0 0.68 0 0 Z " fill="#478E3F" transform="translate(396,580)"/>
<path d="M0 0 C0.99 0.33 1.98 0.66 3 1 C3 1.66 3 2.32 3 3 C4.65 3 6.3 3 8 3 C7.67 5.64 7.34 8.28 7 11 C5.66104368 9.33784732 4.32869858 7.67036393 3 6 C2.4225 5.278125 1.845 4.55625 1.25 3.8125 C0 2 0 2 0 0 Z " fill="#6EA44E" transform="translate(166,295)"/>
<path d="M0 0 C0.99 0.33 1.98 0.66 3 1 C4.03101947 3.31979381 5.02936517 5.65429915 6 8 C7.53951047 9.88029239 7.53951047 9.88029239 9 11 C6 11 6 11 4.4296875 9.828125 C3.91664062 9.30734375 3.40359375 8.7865625 2.875 8.25 C2.35679688 7.73953125 1.83859375 7.2290625 1.3046875 6.703125 C-0.15915471 4.79224115 -0.67085795 3.37381238 -1 1 C-0.67 0.67 -0.34 0.34 0 0 Z " fill="#0C61B5" transform="translate(69,542)"/>
<path d="M0 0 C0.99 0 1.98 0 3 0 C1.59155282 3.21524305 -0.10344786 5.32183868 -2.625 7.75 C-3.57246094 8.67039062 -3.57246094 8.67039062 -4.5390625 9.609375 C-5.02117187 10.06828125 -5.50328125 10.5271875 -6 11 C-6.33 10.01 -6.66 9.02 -7 8 C-6.34 8 -5.68 8 -5 8 C-5 7.34 -5 6.68 -5 6 C-4.34 6 -3.68 6 -3 6 C-2.690625 5.195625 -2.38125 4.39125 -2.0625 3.5625 C-1 1 -1 1 0 0 Z " fill="#44923D" transform="translate(413,562)"/>
<path d="M0 0 C0.99 0 1.98 0 3 0 C3.86883706 1.57533086 4.71959068 3.16064509 5.5625 4.75 C6.03816406 5.63171875 6.51382813 6.5134375 7.00390625 7.421875 C8.07998186 10.20701188 8.06528748 11.26980214 7 14 C6.74605469 13.46890625 6.49210937 12.9378125 6.23046875 12.390625 C4.40249254 8.63882365 2.55135689 5.31676395 0 2 C0 1.34 0 0.68 0 0 Z " fill="#5BB273" transform="translate(45,108)"/>
<path d="M0 0 C-0.33 0.99 -0.66 1.98 -1 3 C-1.66 3 -2.32 3 -3 3 C-3.12375 4.134375 -3.2475 5.26875 -3.375 6.4375 C-3.58125 7.613125 -3.7875 8.78875 -4 10 C-4.99 10.495 -4.99 10.495 -6 11 C-6 10.01 -6 9.02 -6 8 C-6.99 7.67 -7.98 7.34 -9 7 C-7.88121617 5.82737096 -6.75476949 4.66204862 -5.625 3.5 C-4.68527344 2.52546875 -4.68527344 2.52546875 -3.7265625 1.53125 C-2 0 -2 0 0 0 Z " fill="#198ECC" transform="translate(34,100)"/>
<path d="M0 0 C0.99 0.495 0.99 0.495 2 1 C1.01 1.495 1.01 1.495 0 2 C0 1.34 0 0.68 0 0 Z M-2 2 C-1.34 2.33 -0.68 2.66 0 3 C-1.09655288 4.31886772 -2.20253423 5.62990057 -3.3125 6.9375 C-3.92738281 7.66839844 -4.54226562 8.39929688 -5.17578125 9.15234375 C-7 11 -7 11 -10 12 C-8.44303593 8.17836093 -5.96591316 5.81381505 -3 3 C-2.67 2.67 -2.34 2.34 -2 2 Z " fill="#72C164" transform="translate(112,23)"/>
<path d="M0 0 C1.32 0 2.64 0 4 0 C5.03789581 1.64333504 6.03567924 3.31243867 7 5 C7.70125 5.350625 8.4025 5.70125 9.125 6.0625 C11 7 11 7 11.75 9.125 C11.87375 10.053125 11.87375 10.053125 12 11 C8.57472113 9.52651292 6.35044942 7.59092154 3.75 4.9375 C3.04359375 4.22464844 2.3371875 3.51179687 1.609375 2.77734375 C0 1 0 1 0 0 Z " fill="#0A609E" transform="translate(96,573)"/>
<path d="M0 0 C0.433125 0.474375 0.86625 0.94875 1.3125 1.4375 C3.02309613 3.23686957 3.02309613 3.23686957 6 4 C6 4.99 6 5.98 6 7 C6.66 7.33 7.32 7.66 8 8 C8 9.65 8 11.3 8 13 C3.96566451 9.24389454 1.02092243 5.51298111 0 0 Z " fill="#5BAD66" transform="translate(94,182)"/>
<path d="M0 0 C3.83520308 3.28731693 6.32465344 7.25147171 8 12 C7.67 12.66 7.34 13.32 7 14 C6.67 12.68 6.34 11.36 6 10 C5.34 10 4.68 10 4 10 C1.1605948 6.32547562 0 4.73113419 0 0 Z " fill="#329290" transform="translate(53,122)"/>
<path d="M0 0 C0.66 0 1.32 0 2 0 C0.40907948 4.13639336 -2.60474918 7.23213248 -6 10 C-6.66 10 -7.32 10 -8 10 C-8 9.34 -8 8.68 -8 8 C-7.34 8 -6.68 8 -6 8 C-6 7.01 -6 6.02 -6 5 C-5.34 5 -4.68 5 -4 5 C-3.67 4.34 -3.34 3.68 -3 3 C-2.01 2.67 -1.02 2.34 0 2 C0 1.34 0 0.68 0 0 Z " fill="#47933F" transform="translate(426,550)"/>
<path d="M0 0 C7 8.44827586 7 8.44827586 7 13 C6.34 13 5.68 13 5 13 C4.15930585 11.39967863 3.32768495 9.79458829 2.5 8.1875 C1.80390625 6.84751953 1.80390625 6.84751953 1.09375 5.48046875 C0 3 0 3 0 0 Z " fill="#1C83A5" transform="translate(77,160)"/>
<path d="M0 0 C0.75 1.75 0.75 1.75 1 4 C-0.75 6.25 -0.75 6.25 -3 8 C-3.99 8 -4.98 8 -6 8 C-6 8.66 -6 9.32 -6 10 C-6.66 10 -7.32 10 -8 10 C-6.75794193 6.27382578 -4.8889325 4.60708543 -2 2 C-1.34 2 -0.68 2 0 2 C0 1.34 0 0.68 0 0 Z " fill="#6EBE76" transform="translate(118,15)"/>
<path d="M0 0 C3 1 3 1 4.5625 3.8125 C5.036875 4.864375 5.51125 5.91625 6 7 C6.5878125 8.175625 6.5878125 8.175625 7.1875 9.375 C7.455625 9.91125 7.72375 10.4475 8 11 C3.49413822 8.80795913 1.86918556 6.62377481 0 2 C0 1.34 0 0.68 0 0 Z " fill="#55AA6E" transform="translate(75,154)"/>
<path d="M0 0 C3.33557632 2.9905167 5.15083921 5.93184627 7 10 C5.02 9.34 3.04 8.68 1 8 C1.33 6.68 1.66 5.36 2 4 C1.34 3.67 0.68 3.34 0 3 C0 2.01 0 1.02 0 0 Z " fill="#78C24A" transform="translate(155,40)"/>
<path d="M0 0 C1.33895632 1.66215268 2.67130142 3.32963607 4 5 C4.5775 5.721875 5.155 6.44375 5.75 7.1875 C7 9 7 9 7 11 C6.34 11 5.68 11 5 11 C5 10.34 5 9.68 5 9 C4.34 9 3.68 9 3 9 C0.56839395 5.63316085 0 4.26649636 0 0 Z " fill="#8BC257" transform="translate(133,6)"/>
<path d="M0 0 C2.475 0.495 2.475 0.495 5 1 C5.66 3.97 6.32 6.94 7 10 C4.3513141 6.80331012 2.06007659 3.60513403 0 0 Z " fill="#44893C" transform="translate(346,570)"/>
<path d="M0 0 C1.66832577 2.50248865 2.62381674 4.41149187 3.625 7.1875 C4.01558594 8.26064453 4.01558594 8.26064453 4.4140625 9.35546875 C4.60742188 9.89816406 4.80078125 10.44085938 5 11 C4.34 11.66 3.68 12.32 3 13 C0.89172945 9.83759418 0.66182535 8.49342531 0.375 4.8125 C0.30023438 3.91144531 0.22546875 3.01039063 0.1484375 2.08203125 C0.09945312 1.39496094 0.05046875 0.70789063 0 0 Z " fill="#5AAC5D" transform="translate(129,232)"/>
<path d="M0 0 C3.48191452 1.88211596 6.03178994 3.5009599 8 7 C7.67 7.99 7.34 8.98 7 10 C4.39841136 7.5284908 2.14130392 4.87968458 0 2 C0 1.34 0 0.68 0 0 Z " fill="#439B76" transform="translate(109,208)"/>
<path d="M0 0 C3.2910841 3.60957611 4.54663921 6.12637153 5 11 C4.67 10.34 4.34 9.68 4 9 C3.34 9 2.68 9 2 9 C0.50178941 5.62902617 0 3.79557881 0 0 Z " fill="#2A9291" transform="translate(37,97)"/>
<path d="M0 0 C3.36591427 2.72478774 4.44226276 6.06856792 6 10 C5.01 10.495 5.01 10.495 4 11 C1.52214277 7.33708062 0.51035831 4.3890815 0 0 Z " fill="#1B86A2" transform="translate(65,142)"/>
<path d="M0 0 C0.33 0.66 0.66 1.32 1 2 C-1.25 4.5625 -1.25 4.5625 -4 7 C-6.3125 6.8125 -6.3125 6.8125 -8 6 C-4.25 3 -4.25 3 -2 3 C-1.34 2.01 -0.68 1.02 0 0 Z " fill="#59BA98" transform="translate(78,55)"/>
<path d="M0 0 C1.32 0.33 2.64 0.66 4 1 C2.37660195 2.70884005 0.70680947 4.37446717 -1 6 C-1.66 6 -2.32 6 -3 6 C-2.67 4.68 -2.34 3.36 -2 2 C-1.34 2 -0.68 2 0 2 C0 1.34 0 0.68 0 0 Z " fill="#419041" transform="translate(377,598)"/>
<path d="M0 0 C0.66 0.99 1.32 1.98 2 3 C1.34 3.66 0.68 4.32 0 5 C-2.0625 4.75 -2.0625 4.75 -4 4 C-4.33 3.34 -4.66 2.68 -5 2 C-3.35 1.34 -1.7 0.68 0 0 Z " fill="#1165B3" transform="translate(65,535)"/>
<path d="M0 0 C2.125 0.375 2.125 0.375 4 1 C2.35 2.65 0.7 4.3 -1 6 C-1.625 4.125 -1.625 4.125 -2 2 C-1.34 1.34 -0.68 0.68 0 0 Z " fill="#498F3C" transform="translate(464,510)"/>
<path d="M0 0 C4.39158329 1.4638611 4.87947433 3.97831338 7 8 C6.01 8.495 6.01 8.495 5 9 C4.67 8.01 4.34 7.02 4 6 C3.34 5.67 2.68 5.34 2 5 C2 4.34 2 3.68 2 3 C1.34 3 0.68 3 0 3 C0 2.01 0 1.02 0 0 Z " fill="#1D759B" transform="translate(124,234)"/>
<path d="M0 0 C1.32 1.65 2.64 3.3 4 5 C0.25 6.125 0.25 6.125 -2 5 C-1.34 3.35 -0.68 1.7 0 0 Z " fill="#78B456" transform="translate(253,189)"/>
<path d="M0 0 C0.66 0.33 1.32 0.66 2 1 C-2.39453125 5.00390625 -2.39453125 5.00390625 -4 6 C-4.99 5.67 -5.98 5.34 -7 5 C-7 4.34 -7 3.68 -7 3 C-5.5459375 2.5359375 -5.5459375 2.5359375 -4.0625 2.0625 C-1.15934208 1.30476658 -1.15934208 1.30476658 0 0 Z " fill="#4A7B43" transform="translate(481,495)"/>
<path d="M0 0 C2.79872437 2.52788007 4.45773019 4.20411134 5 8 C3.0625 7.375 3.0625 7.375 1 6 C0.25 2.875 0.25 2.875 0 0 Z " fill="#77C246" transform="translate(195,101)"/>
<path d="M0 0 C1.32 0 2.64 0 4 0 C4.33 0.99 4.66 1.98 5 3 C4.01 4.485 4.01 4.485 3 6 C0 2.25 0 2.25 0 0 Z " fill="#4F8C45" transform="translate(360,590)"/>
<path d="M0 0 C0.66 0 1.32 0 2 0 C2.33 1.98 2.66 3.96 3 6 C1.0625 5.6875 1.0625 5.6875 -1 5 C-1.33 4.01 -1.66 3.02 -2 2 C-1.34 1.34 -0.68 0.68 0 0 Z " fill="#178EAF" transform="translate(35,97)"/>
<path d="M0 0 C0 4.38968456 -2.12805101 5.76905739 -5 9 C-5.33 8.01 -5.66 7.02 -6 6 C-4.02 4.02 -2.04 2.04 0 0 Z " fill="#3FA79F" transform="translate(80,51)"/>
</svg>
