<?xml version="1.0" encoding="UTF-8"?>
<svg version="1.1" xmlns="http://www.w3.org/2000/svg" width="512" height="512">
<path d="M0 0 C1.54392946 -0.00549126 3.08785142 -0.01360403 4.63175505 -0.02408731 C8.84421383 -0.04513181 13.05581583 -0.02908946 17.26823652 -0.00658631 C21.82243038 0.01117624 26.37651683 -0.00581154 30.93070984 -0.01831055 C39.83902413 -0.03724295 48.74701338 -0.0241267 57.65530346 0.00021534 C68.03240171 0.02751114 78.40942331 0.0241749 88.78654834 0.01994868 C107.30012289 0.01357568 125.81354329 0.0368683 144.32707214 0.07608032 C162.2887084 0.11411336 180.25016413 0.12824741 198.21183777 0.11709595 C217.78247364 0.10498146 237.35303022 0.10533035 256.9236595 0.12806761 C259.01002641 0.13048216 261.09639332 0.13289413 263.18276024 0.1353035 C264.72249268 0.13711411 264.72249268 0.13711411 266.29333082 0.13896131 C273.52626992 0.14671915 280.75917949 0.14593267 287.99212074 0.14213181 C296.80298406 0.13788861 305.6136893 0.14833132 314.42450807 0.17735891 C318.91959539 0.19184865 323.41445244 0.19999946 327.90955925 0.19087219 C332.02435301 0.18272025 336.13867127 0.19304651 340.2533929 0.21812434 C341.74169768 0.22398055 343.23004731 0.22311363 344.71834061 0.21483819 C353.52652523 0.17030814 359.51006235 0.22425721 366.18571472 6.34609985 C371.3541638 13.02943918 371.07788331 19.5576875 370.44352722 27.7484436 C369.59710185 33.23017191 368.35225489 38.5919723 367.06413269 43.98184204 C366.69712197 45.56823311 366.33147424 47.15494002 365.967062 48.74193001 C364.9743729 53.04752635 363.96282102 57.34849117 362.94789982 61.64889288 C361.86361109 66.25863287 360.79741789 70.8725583 359.72911072 75.48602295 C357.6598394 84.40990173 355.57484377 93.33003092 353.48431873 102.24895179 C350.83207332 113.56757514 348.19904155 124.89065261 345.56608582 136.21377563 C344.60154611 140.36081405 343.63683311 144.50781212 342.67201233 148.65478516 C342.43305288 149.68190916 342.19409343 150.70903316 341.94789279 151.76728213 C340.2524051 159.05350291 338.55361169 166.33894842 336.85346985 173.62408447 C331.24999122 197.63927212 325.68946679 221.66363922 320.19808578 245.70471191 C319.13329425 250.36631384 318.06675842 255.02751541 316.99983215 259.68862915 C316.31843826 262.66591768 315.63708215 265.64321486 314.95573425 268.62051392 C314.79114755 269.33967452 314.62656085 270.05883512 314.45698667 270.79978848 C312.53359996 279.20496122 310.61566489 287.61133925 308.7055645 296.01954138 C307.39005273 301.80726761 306.06392953 307.59252934 304.73381805 313.37691879 C304.20010716 315.70609996 303.66998779 318.03610763 303.14383698 320.36700821 C302.43362872 323.5118545 301.71091528 326.65357133 300.98503113 329.79483032 C300.78477766 330.69615566 300.58452419 331.597481 300.37820244 332.52611923 C298.16337129 341.97951933 294.33441161 350.81505855 286.02363759 356.36422098 C277.59947107 360.97892404 270.3468007 361.59923948 260.88705444 361.49688721 C259.34312498 361.50237847 257.79920303 361.51049124 256.25529939 361.52097452 C252.04284061 361.54201902 247.83123861 361.52597667 243.61881793 361.50347352 C239.06462407 361.48571097 234.51053761 361.50269875 229.9563446 361.51519775 C221.04803031 361.53413016 212.14004107 361.5210139 203.23175099 361.49667187 C192.85465273 361.46937607 182.47763114 361.47271231 172.1005061 361.47693853 C153.58693155 361.48331153 135.07351115 361.46001891 116.5599823 361.42080688 C98.59834604 361.38277385 80.63689032 361.36863979 62.67521667 361.37979126 C43.10458081 361.39190574 23.53402422 361.39155686 3.96339494 361.36881959 C1.87702803 361.36640505 -0.20933888 361.36399307 -2.2957058 361.36158371 C-3.32219409 361.36037663 -4.34868238 361.35916955 -5.40627638 361.3579259 C-12.63921548 361.35016806 -19.87212505 361.35095454 -27.1050663 361.3547554 C-35.91592962 361.3589986 -44.72663486 361.34855589 -53.53745363 361.3195283 C-58.03254095 361.30503856 -62.527398 361.29688774 -67.02250481 361.30601501 C-71.13729857 361.31416695 -75.25161683 361.3038407 -79.36633845 361.27876286 C-80.85464324 361.27290666 -82.34299287 361.27377357 -83.83128617 361.28204902 C-92.63947079 361.32657907 -98.62300791 361.27263 -105.29866028 355.15078735 C-110.46710936 348.46744802 -110.19082887 341.9391997 -109.55647278 333.7484436 C-108.71004741 328.26671529 -107.46520044 322.90491491 -106.17707825 317.51504517 C-105.81006753 315.92865409 -105.4444198 314.34194719 -105.08000755 312.7549572 C-104.08731846 308.44936085 -103.07576657 304.14839603 -102.06084538 299.84799433 C-100.97655665 295.23825434 -99.91036344 290.62432891 -98.84205627 286.01086426 C-96.77278496 277.08698548 -94.68778932 268.16685629 -92.59726429 259.24793541 C-89.94501888 247.92931207 -87.3119871 236.60623459 -84.67903137 225.28311157 C-83.71449166 221.13607316 -82.74977866 216.98907508 -81.78495789 212.84210205 C-81.54599844 211.81497805 -81.30703899 210.78785405 -81.06083834 209.72960508 C-79.36535066 202.4433843 -77.66655725 195.15793878 -75.96641541 187.87280273 C-70.36293677 163.85761508 -64.80241235 139.83324799 -59.31103134 115.79217529 C-58.24623981 111.13057336 -57.17970398 106.46937179 -56.11277771 101.80825806 C-55.43138382 98.83096953 -54.7500277 95.85367235 -54.06867981 92.87637329 C-53.90409311 92.15721269 -53.7395064 91.43805208 -53.56993222 90.69709873 C-51.64654551 82.29192599 -49.72861045 73.88554795 -47.81851006 65.47734582 C-46.50299829 59.68961959 -45.17687509 53.90435786 -43.84676361 48.11996841 C-43.31305272 45.79078725 -42.78293334 43.46077958 -42.25678253 41.129879 C-41.54657427 37.98503271 -40.82386084 34.84331588 -40.09797668 31.70205688 C-39.89772322 30.80073154 -39.69746975 29.8994062 -39.49114799 28.97076797 C-37.27631685 19.51736788 -33.44735717 10.68182866 -25.13658315 5.13266623 C-16.71241663 0.51796316 -9.45974626 -0.10235227 0 0 Z " fill="#172434" transform="translate(125.55647277832031,75.25155639648438)"/>
<path d="M0 0 C3.26588962 1.49642852 5.50545684 3.44337544 8 6 C8.88558594 6.82951172 8.88558594 6.82951172 9.7890625 7.67578125 C13.49702018 11.22856008 16.8351206 15.07701922 20.18359375 18.96484375 C22.05228832 21.05858541 24.00044735 23.03126897 26 25 C28.59982183 27.55990134 31.06268398 30.1677954 33.4375 32.9375 C36.00665271 35.92801716 38.69317256 38.73116684 41.5 41.5 C44.9071879 44.86114482 48.07458174 48.33701203 51.1875 51.96875 C53.92777083 55.03974317 56.87946902 57.88786876 59.80859375 60.77734375 C62.42101068 63.4270144 64.83302621 66.21172803 67.25390625 69.03515625 C69.09615675 71.10820324 71.02401662 73.05435802 73 75 C75.59982183 77.55990134 78.06268398 80.1677954 80.4375 82.9375 C83.00665271 85.92801716 85.69317256 88.73116684 88.5 91.5 C91.9288279 94.88241399 95.12048518 98.38070442 98.25390625 102.03515625 C100.09615675 104.10820324 102.02401662 106.05435802 104 108 C121.21158382 124.97809334 121.21158382 124.97809334 121.4375 134.1875 C121.25619995 141.37270733 118.84952851 145.89503567 114.0390625 151.13671875 C107.11522937 157.71790485 99.13089197 162.97439364 91.29833984 168.39550781 C87.43593805 171.09188603 83.62523831 173.85905534 79.8125 176.625 C73.99687175 180.83674441 68.16901072 185.02992839 62.32080078 189.19628906 C57.59388603 192.56744302 52.8901856 195.97015949 48.1875 199.375 C42.31868597 203.62242981 36.42575593 207.83239752 30.5 212 C21.609287 218.25440541 12.80167137 224.6211543 4 231 C-5.49130774 237.87864668 -14.99659596 244.73219322 -24.59033203 251.4675293 C-29.12265662 254.65532394 -33.61369356 257.89483846 -38.08813477 261.16333008 C-58.57387645 276.08856493 -58.57387645 276.08856493 -65.70703125 275.5078125 C-72.53425681 273.99582047 -77.55995391 271.24023429 -81.5625 265.4375 C-84.15365569 261.20209821 -85.14590169 257.56966952 -85.25 252.625 C-85.27578125 251.89539063 -85.3015625 251.16578125 -85.328125 250.4140625 C-84.23475829 242.37000744 -78.0067414 237.69862232 -72 233 C-67.17760485 229.41201508 -62.22242207 226.01180619 -57.28076172 222.59130859 C-53.50903161 219.95973753 -49.78594765 217.26175608 -46.0625 214.5625 C-45.31677734 214.02270508 -44.57105469 213.48291016 -43.80273438 212.92675781 C-42.29030866 211.83184497 -40.77810178 210.7366298 -39.26611328 209.64111328 C-35.51355186 206.92351816 -31.75651207 204.21212991 -28 201.5 C-27.25685547 200.96310547 -26.51371094 200.42621094 -25.74804688 199.87304688 C-22.01246565 197.17422714 -18.27536973 194.4775533 -14.53515625 191.78515625 C-6.74084153 186.17096822 1.024536 180.52114617 8.75 174.8125 C15.26344739 169.99992463 21.81366613 165.24703002 28.4140625 160.5546875 C32.60208609 157.57606497 36.77053571 154.57048477 40.9375 151.5625 C41.69168213 151.01883789 42.44586426 150.47517578 43.22290039 149.91503906 C46.96991938 147.20910461 50.70254465 144.4862949 54.41015625 141.7265625 C55.44571655 140.95783813 55.44571655 140.95783813 56.50219727 140.17358398 C57.80657916 139.20330749 59.10799685 138.22902972 60.40600586 137.25024414 C64.77849605 134 64.77849605 134 67 134 C65.61947454 129.89494546 63.74883732 127.28876448 60.8125 124.125 C60.00683594 123.25359375 59.20117188 122.3821875 58.37109375 121.484375 C55.8493902 118.84219467 53.27806388 116.2614939 50.671875 113.703125 C48.90711374 111.90537755 47.26556483 110.0364838 45.625 108.125 C43.03365795 105.1153247 40.32745217 102.28911384 37.5 99.5 C34.0928121 96.13885518 30.92541826 92.66298797 27.8125 89.03125 C25.7890712 86.76361428 23.66346653 84.6342305 21.5 82.5 C18.0928121 79.13885518 14.92541826 75.66298797 11.8125 72.03125 C9.7890712 69.76361428 7.66346653 67.6342305 5.5 65.5 C2.0928121 62.13885518 -1.07458174 58.66298797 -4.1875 55.03125 C-6.2109288 52.76361428 -8.33653347 50.6342305 -10.5 48.5 C-28.23144544 30.9800028 -28.23144544 30.9800028 -28.4375 20.75 C-28.28530302 13.19933877 -26.44196347 9.3909174 -21.15625 4.18359375 C-14.78273232 -0.94138035 -7.90129586 -1.39159939 0 0 Z " fill="#FDFDFD" transform="translate(191,116)"/>
<path d="M0 0 C1.54392946 -0.00549126 3.08785142 -0.01360403 4.63175505 -0.02408731 C8.84421383 -0.04513181 13.05581583 -0.02908946 17.26823652 -0.00658631 C21.82243038 0.01117624 26.37651683 -0.00581154 30.93070984 -0.01831055 C39.83902413 -0.03724295 48.74701338 -0.0241267 57.65530346 0.00021534 C68.03240171 0.02751114 78.40942331 0.0241749 88.78654834 0.01994868 C107.30012289 0.01357568 125.81354329 0.0368683 144.32707214 0.07608032 C162.2887084 0.11411336 180.25016413 0.12824741 198.21183777 0.11709595 C217.78247364 0.10498146 237.35303022 0.10533035 256.9236595 0.12806761 C259.01002641 0.13048216 261.09639332 0.13289413 263.18276024 0.1353035 C264.72249268 0.13711411 264.72249268 0.13711411 266.29333082 0.13896131 C273.52626992 0.14671915 280.75917949 0.14593267 287.99212074 0.14213181 C296.80298406 0.13788861 305.6136893 0.14833132 314.42450807 0.17735891 C318.91959539 0.19184865 323.41445244 0.19999946 327.90955925 0.19087219 C332.02435301 0.18272025 336.13867127 0.19304651 340.2533929 0.21812434 C341.74169768 0.22398055 343.23004731 0.22311363 344.71834061 0.21483819 C353.52652523 0.17030814 359.51006235 0.22425721 366.18571472 6.34609985 C371.3541638 13.02943918 371.07788331 19.5576875 370.44352722 27.7484436 C369.59710185 33.23017191 368.35225489 38.5919723 367.06413269 43.98184204 C366.69712197 45.56823311 366.33147424 47.15494002 365.967062 48.74193001 C364.9743729 53.04752635 363.96282102 57.34849117 362.94789982 61.64889288 C361.86361109 66.25863287 360.79741789 70.8725583 359.72911072 75.48602295 C357.6598394 84.40990173 355.57484377 93.33003092 353.48431873 102.24895179 C350.83207332 113.56757514 348.19904155 124.89065261 345.56608582 136.21377563 C344.60154611 140.36081405 343.63683311 144.50781212 342.67201233 148.65478516 C342.43305288 149.68190916 342.19409343 150.70903316 341.94789279 151.76728213 C340.2524051 159.05350291 338.55361169 166.33894842 336.85346985 173.62408447 C331.24999122 197.63927212 325.68946679 221.66363922 320.19808578 245.70471191 C319.13329425 250.36631384 318.06675842 255.02751541 316.99983215 259.68862915 C316.31843826 262.66591768 315.63708215 265.64321486 314.95573425 268.62051392 C314.79114755 269.33967452 314.62656085 270.05883512 314.45698667 270.79978848 C312.53359996 279.20496122 310.61566489 287.61133925 308.7055645 296.01954138 C307.39005273 301.80726761 306.06392953 307.59252934 304.73381805 313.37691879 C304.20010716 315.70609996 303.66998779 318.03610763 303.14383698 320.36700821 C302.43362872 323.5118545 301.71091528 326.65357133 300.98503113 329.79483032 C300.78477766 330.69615566 300.58452419 331.597481 300.37820244 332.52611923 C298.16337129 341.97951933 294.33441161 350.81505855 286.02363759 356.36422098 C277.59947107 360.97892404 270.3468007 361.59923948 260.88705444 361.49688721 C259.34312498 361.50237847 257.79920303 361.51049124 256.25529939 361.52097452 C252.04284061 361.54201902 247.83123861 361.52597667 243.61881793 361.50347352 C239.06462407 361.48571097 234.51053761 361.50269875 229.9563446 361.51519775 C221.04803031 361.53413016 212.14004107 361.5210139 203.23175099 361.49667187 C192.85465273 361.46937607 182.47763114 361.47271231 172.1005061 361.47693853 C153.58693155 361.48331153 135.07351115 361.46001891 116.5599823 361.42080688 C98.59834604 361.38277385 80.63689032 361.36863979 62.67521667 361.37979126 C43.10458081 361.39190574 23.53402422 361.39155686 3.96339494 361.36881959 C1.87702803 361.36640505 -0.20933888 361.36399307 -2.2957058 361.36158371 C-3.32219409 361.36037663 -4.34868238 361.35916955 -5.40627638 361.3579259 C-12.63921548 361.35016806 -19.87212505 361.35095454 -27.1050663 361.3547554 C-35.91592962 361.3589986 -44.72663486 361.34855589 -53.53745363 361.3195283 C-58.03254095 361.30503856 -62.527398 361.29688774 -67.02250481 361.30601501 C-71.13729857 361.31416695 -75.25161683 361.3038407 -79.36633845 361.27876286 C-80.85464324 361.27290666 -82.34299287 361.27377357 -83.83128617 361.28204902 C-92.63947079 361.32657907 -98.62300791 361.27263 -105.29866028 355.15078735 C-110.46710936 348.46744802 -110.19082887 341.9391997 -109.55647278 333.7484436 C-108.71004741 328.26671529 -107.46520044 322.90491491 -106.17707825 317.51504517 C-105.81006753 315.92865409 -105.4444198 314.34194719 -105.08000755 312.7549572 C-104.08731846 308.44936085 -103.07576657 304.14839603 -102.06084538 299.84799433 C-100.97655665 295.23825434 -99.91036344 290.62432891 -98.84205627 286.01086426 C-96.77278496 277.08698548 -94.68778932 268.16685629 -92.59726429 259.24793541 C-89.94501888 247.92931207 -87.3119871 236.60623459 -84.67903137 225.28311157 C-83.71449166 221.13607316 -82.74977866 216.98907508 -81.78495789 212.84210205 C-81.54599844 211.81497805 -81.30703899 210.78785405 -81.06083834 209.72960508 C-79.36535066 202.4433843 -77.66655725 195.15793878 -75.96641541 187.87280273 C-70.36293677 163.85761508 -64.80241235 139.83324799 -59.31103134 115.79217529 C-58.24623981 111.13057336 -57.17970398 106.46937179 -56.11277771 101.80825806 C-55.43138382 98.83096953 -54.7500277 95.85367235 -54.06867981 92.87637329 C-53.90409311 92.15721269 -53.7395064 91.43805208 -53.56993222 90.69709873 C-51.64654551 82.29192599 -49.72861045 73.88554795 -47.81851006 65.47734582 C-46.50299829 59.68961959 -45.17687509 53.90435786 -43.84676361 48.11996841 C-43.31305272 45.79078725 -42.78293334 43.46077958 -42.25678253 41.129879 C-41.54657427 37.98503271 -40.82386084 34.84331588 -40.09797668 31.70205688 C-39.89772322 30.80073154 -39.69746975 29.8994062 -39.49114799 28.97076797 C-37.27631685 19.51736788 -33.44735717 10.68182866 -25.13658315 5.13266623 C-16.71241663 0.51796316 -9.45974626 -0.10235227 0 0 Z M-27.55647278 14.7484436 C-33.960939 23.41455301 -35.30088506 36.76906224 -37.06037903 47.1703186 C-37.77251067 50.87116023 -38.81564802 54.46026907 -39.84162903 58.0843811 C-40.49747564 60.52857448 -41.02428053 62.95031562 -41.49397278 65.4359436 C-42.3397709 69.89948329 -43.42902108 74.28693278 -44.55647278 78.6859436 C-45.94478662 84.12297978 -47.12391309 89.53446335 -48.06819153 95.0687561 C-48.80463528 99.1103594 -49.76256602 103.09436948 -50.70491028 107.0921936 C-51.69060529 111.32435198 -52.62375781 115.56686949 -53.55647278 119.8109436 C-54.65845771 124.80823274 -55.79092945 129.78943958 -57.05647278 134.7484436 C-59.08369093 142.70390512 -60.79776582 150.73032368 -62.55647278 158.7484436 C-64.52567956 167.72625314 -66.50756622 176.68605662 -68.78303528 185.5921936 C-69.73182263 189.46401271 -70.58174614 193.35389795 -71.43147278 197.2484436 C-72.79032366 203.47082392 -74.2783006 209.64411886 -75.86897278 215.8109436 C-78.57948205 226.36940984 -80.78298155 237.03491278 -82.96980286 247.71157837 C-84.59135164 255.56861651 -86.46703341 263.29598378 -88.58113098 271.03921509 C-90.2199332 277.27158606 -91.53292162 283.57051865 -92.86897278 289.8734436 C-94.66039226 298.26158268 -96.49048111 306.63202174 -98.56428528 314.95547485 C-98.72702438 315.61158752 -98.88976349 316.2677002 -99.05743408 316.94369507 C-99.83155518 320.05650896 -100.61821741 323.16535483 -101.42292786 326.27041626 C-104.45498418 337.75346459 -104.45498418 337.75346459 -101.99397278 349.0609436 C-101.55891418 349.98326782 -101.55891418 349.98326782 -101.11506653 350.92422485 C-97.83430561 354.76411295 -94.47854545 356.51391337 -89.52353013 357.11852157 C-85.64998276 357.2626791 -81.78677723 357.27730764 -77.91171265 357.24964905 C-76.40581533 357.25354381 -74.89992169 357.25918567 -73.39403671 357.26641995 C-69.26359138 357.28116767 -65.13352756 357.27099751 -61.00309455 357.25668323 C-56.54560786 357.24557332 -52.08817468 357.25751615 -47.63069153 357.26652527 C-38.9012298 357.28045994 -30.1719127 357.2728997 -21.44245786 357.25784969 C-11.27619584 357.24098979 -1.10996985 357.24419987 9.05630184 357.24794377 C27.19655529 357.25382285 45.33673933 357.2396493 63.47697449 357.21499634 C81.07791242 357.19107899 98.6787576 357.18399065 116.27970886 357.19448853 C135.44598137 357.20589954 154.61221098 357.20782524 173.77848297 357.19339043 C175.82253746 357.19186459 177.86659195 357.19034424 179.91064644 357.18882942 C181.41921089 357.1876927 181.41921089 357.1876927 182.9582514 357.18653302 C190.04388467 357.18179133 197.12949878 357.18364084 204.21513176 357.18789482 C212.85148454 357.19282312 221.48774966 357.1868299 230.12408238 357.16700052 C234.53011897 357.15713317 238.93602211 357.15201739 243.34206581 357.15989304 C247.37684538 357.16695745 251.41135587 357.16012747 255.4461 357.14228941 C256.90429559 357.13824981 258.36251576 357.13923661 259.82070213 357.14580827 C269.19530408 357.18443525 277.32914722 357.07439734 284.69352722 350.5609436 C285.31743347 350.03113892 285.94133972 349.50133423 286.58415222 348.95547485 C292.65139052 341.75381594 294.18681332 332.67726968 296.25602722 323.7484436 C296.60298053 322.28339044 296.95048407 320.81846749 297.29850769 319.35366821 C300.13183069 307.36019629 302.77088204 295.32415217 305.37223816 283.27861023 C307.68136065 272.5895891 310.14701897 261.93963748 312.623703 251.28848267 C314.03179657 245.20826924 315.42052561 239.12363659 316.80976868 233.03909302 C317.32015751 230.80380363 317.83090059 228.56859543 318.34172058 226.33340454 C319.88119442 219.596022 321.41902547 212.85827087 322.95257568 206.11953735 C323.78211151 202.47482793 324.6126198 198.83034056 325.44352722 195.1859436 C325.60801361 194.46427002 325.7725 193.74259644 325.94197083 192.99905396 C328.57301928 181.46409458 331.27976609 169.94815821 334.00990295 158.43630981 C336.60937432 147.46037755 339.0591203 136.45775282 341.43843079 125.43222046 C343.7391407 114.78677527 346.22860303 104.19622377 348.8165741 93.61709595 C351.28574574 83.49321602 353.60645254 73.33992486 355.87345886 63.16934204 C357.27464235 56.88930057 358.70323301 50.61960111 360.21696472 44.3656311 C360.49725525 43.19604858 360.77754578 42.02646606 361.06632996 40.82144165 C361.59042006 38.64357009 362.12309752 36.46773767 362.66642761 34.29458618 C364.39951337 27.04729903 366.34863695 18.86864035 362.88102722 11.8734436 C360.08901555 8.29394146 357.70404184 6.21169283 353.44352722 4.7484436 C348.55501833 4.15885122 343.67693091 4.20790967 338.76080322 4.24050903 C337.25078033 4.2358978 335.74076193 4.22954338 334.23075289 4.22160006 C330.08891467 4.20491385 325.94744549 4.21314979 321.80560601 4.22554493 C317.33584294 4.2345961 312.86614329 4.22062531 308.39639282 4.20962524 C299.6428742 4.19183572 290.88949275 4.19568207 282.13596875 4.20727581 C275.02139445 4.21630872 267.90685859 4.21753474 260.7922802 4.21318054 C259.7797562 4.21256761 258.76723219 4.21195468 257.72402565 4.21132317 C255.66710022 4.21004427 253.61017481 4.20874742 251.55324941 4.20743281 C232.26357835 4.19602559 212.97398332 4.20914264 193.68432473 4.23063427 C177.13437563 4.24850267 160.58453875 4.24540354 144.03459167 4.22695923 C124.81557713 4.20555037 105.59662923 4.19712709 86.37760442 4.20940828 C84.32793296 4.21068248 82.27826149 4.21193996 80.22859001 4.21318054 C79.22011626 4.21379764 78.21164252 4.21441475 77.17260896 4.21505055 C70.06742923 4.2185036 62.96229179 4.212676 55.85711861 4.20326233 C47.19695929 4.19204069 38.53694499 4.19508579 29.87680227 4.2163853 C25.45857501 4.22689389 21.04058948 4.23102086 16.62236404 4.2177887 C12.57641427 4.2058548 8.5309299 4.21244357 4.48502224 4.2336989 C3.02278854 4.2381608 1.56051539 4.23590791 0.09830714 4.22619575 C-11.3688181 4.1558827 -19.58074032 6.0587709 -27.55647278 14.7484436 Z " fill="#B5D3FC" transform="translate(125.55647277832031,75.25155639648438)"/>
<path d="M0 0 C0.92466064 -0.0071553 1.84932129 -0.01431061 2.80200195 -0.02168274 C5.83726467 -0.03849494 8.87103472 -0.01921071 11.90625 0.00219727 C14.02799603 0.00136788 16.14974199 -0.00109412 18.27148438 -0.00511169 C22.70983307 -0.00796459 27.14767571 0.00668227 31.5859375 0.03417969 C37.26196512 0.06826108 42.93708826 0.06223913 48.61315918 0.04351711 C52.99193804 0.03292544 57.37050811 0.04190472 61.74926758 0.05690193 C63.84154642 0.06206826 65.9338472 0.06162084 68.02612305 0.05535698 C70.95538876 0.04987864 73.88337973 0.07036403 76.8125 0.09765625 C77.66884033 0.09113037 78.52518066 0.08460449 79.4074707 0.07788086 C86.37713254 0.18774921 91.79495583 2.01980934 96.78125 7.00610352 C100.16227781 12.46776382 100.83335776 16.86872669 100 23.16625977 C98.88236513 27.80591507 96.66074683 31.09047932 92.70666504 33.79252529 C87.31887813 36.65325195 82.8572512 37.21061578 76.8125 37.16455078 C75.88783936 37.17316635 74.96317871 37.18178192 74.01049805 37.19065857 C70.97545821 37.21323059 67.94134822 37.20659625 64.90625 37.19750977 C62.78450244 37.20274886 60.66275721 37.20902639 58.54101562 37.21629333 C54.10275277 37.22668111 49.66481088 37.2221587 45.2265625 37.20751953 C39.55044708 37.19032596 33.87534341 37.21384324 28.19934082 37.24900913 C23.82057032 37.27101006 19.44204096 37.2695352 15.06323242 37.26124382 C12.97093597 37.26042595 10.87862152 37.26725783 8.78637695 37.28201485 C5.85695868 37.29951229 2.92934693 37.2848752 0 37.26220703 C-1.2845105 37.27974533 -1.2845105 37.27974533 -2.5949707 37.29763794 C-8.70115712 37.20191452 -12.88355598 35.55942629 -17.59375 31.63110352 C-21.55795016 26.54879562 -23.03301986 22.39619989 -22.9296875 16.04125977 C-22.24536869 11.13167015 -19.86664737 7.42461865 -15.9979248 4.37185764 C-10.59338404 0.65561096 -6.47671843 -0.08843106 0 0 Z " fill="#FEFEFE" transform="translate(258.59375,347.368896484375)"/>
<path d="M0 0 C0.66 0 1.32 0 2 0 C5.9295433 6.5960191 8.50029844 12.25052461 7 20 C2.1679603 33.89500412 -13.61837859 41.93182383 -25 50 C-26.7804477 51.26945692 -28.55953446 52.54079801 -30.33837891 53.8125 C-31.45080599 54.60751107 -32.56376663 55.40177605 -33.67724609 56.1953125 C-38.40529118 59.56612099 -43.10923352 62.96973892 -47.8125 66.375 C-53.68131403 70.62242981 -59.57424407 74.83239752 -65.5 79 C-73.62792476 84.717802 -81.68666241 90.52824238 -89.73388672 96.35888672 C-94.23482333 99.61845318 -98.74175435 102.8697262 -103.24755859 106.12255859 C-107.01207565 108.84069523 -110.77512708 111.56081405 -114.53515625 114.28515625 C-122.51464164 120.06340429 -130.52154199 125.79768955 -138.58154297 131.46313477 C-144.74038706 135.79902419 -150.84658354 140.206 -156.9375 144.63671875 C-173.23382433 156.46421557 -173.23382433 156.46421557 -183 155 C-186.22292179 153.63773409 -189.10494194 151.95801028 -192 150 C-191.505 149.01 -191.505 149.01 -191 148 C-190.360625 148.33 -189.72125 148.66 -189.0625 149 C-184.15041624 150.60394572 -179.71623324 151.10896573 -174.828125 149.11328125 C-166.53489457 144.35182309 -158.90140759 138.23559594 -151.18945312 132.59570312 C-148.14211285 130.37476022 -145.07303913 128.18517206 -142 126 C-136.7112072 122.23295707 -131.44691678 118.43292526 -126.1875 114.625 C-120.31868597 110.37757019 -114.42575593 106.16760248 -108.5 102 C-100.37207524 96.282198 -92.31333759 90.47175762 -84.26611328 84.64111328 C-79.76517667 81.38154682 -75.25824565 78.1302738 -70.75244141 74.87744141 C-66.98792435 72.15930477 -63.22487292 69.43918595 -59.46484375 66.71484375 C-52.17250823 61.43418699 -44.86336988 56.18125123 -37.5 51 C-34.66535087 49.00185904 -31.83214653 47.00168645 -29 45 C-28.22527344 44.45279297 -27.45054687 43.90558594 -26.65234375 43.34179688 C-9.00630233 32.45899727 -9.00630233 32.45899727 2 16 C2.63510965 10.1437941 2.43680103 5.40969829 0 0 Z " fill="#2F5690" transform="translate(309,240)"/>
<path d="M0 0 C2.75347128 2.514039 3.82748627 4.40778307 4.23828125 8.19921875 C4.42263086 14.37978199 3.63121327 18.9068697 0 24 C-5.8556597 29.70551458 -11.37508587 30.29875646 -19.17724609 30.29052734 C-20.09332138 30.29724457 -21.00939667 30.30396179 -21.95323181 30.31088257 C-24.97668913 30.32985517 -27.99992439 30.33378635 -31.0234375 30.3359375 C-33.12944632 30.34236572 -35.23545424 30.3490941 -37.34146118 30.35610962 C-41.75468008 30.36808038 -46.1678207 30.37179062 -50.58105469 30.37060547 C-56.22916233 30.37040224 -61.87676702 30.3977092 -67.52475548 30.43214989 C-71.87428075 30.45441373 -76.22368485 30.45844317 -80.57326126 30.45738602 C-82.65522623 30.45974256 -84.7371945 30.46856905 -86.81910324 30.48405075 C-89.73441306 30.50370078 -92.64863661 30.49787643 -95.56396484 30.48583984 C-96.41926285 30.49707886 -97.27456085 30.50831787 -98.15577698 30.51989746 C-103.90490394 30.45974179 -107.22972308 29.22848948 -112 26 C-112 25.01 -112 24.02 -112 23 C-111.42397915 23.32448435 -110.8479583 23.6489687 -110.25448227 23.9832859 C-107.91031133 25.04044731 -106.47399926 25.25512845 -103.92828369 25.26742554 C-102.72573944 25.28022049 -102.72573944 25.28022049 -101.49890137 25.29327393 C-100.62817993 25.29236755 -99.7574585 25.29146118 -98.86035156 25.29052734 C-97.93627502 25.29724457 -97.01219849 25.30396179 -96.06011963 25.31088257 C-93.00356677 25.32988783 -89.94723328 25.33378835 -86.890625 25.3359375 C-84.76316233 25.34236473 -82.63570055 25.34909304 -80.50823975 25.35610962 C-76.04616243 25.36808947 -71.58416257 25.37178982 -67.12207031 25.37060547 C-61.41462096 25.37040249 -55.7076707 25.39768032 -50.00033951 25.43214989 C-45.60444882 25.45443118 -41.20867788 25.45844259 -36.81273651 25.45738602 C-34.70926955 25.45974105 -32.60579924 25.46855904 -30.502388 25.48405075 C-27.55364997 25.50373085 -24.60598326 25.497864 -21.65722656 25.48583984 C-20.36328979 25.50269836 -20.36328979 25.50269836 -19.04321289 25.51989746 C-13.25044919 25.46012276 -8.83683679 24.26930349 -4 21 C0.42758123 16.2318356 0.95819687 11.28091995 1 5 C0.66838472 2.05562456 0.66838472 2.05562456 0 0 Z " fill="#2D5691" transform="translate(357,358)"/>
</svg>
