<?xml version="1.0" encoding="UTF-8"?>
<svg version="1.1" xmlns="http://www.w3.org/2000/svg" width="500" height="333">
<path d="M0 0 C1.57007813 0.84884766 1.57007813 0.84884766 3.171875 1.71484375 C14.39284458 8.0229285 24.74223064 15.46080999 34.109375 24.28515625 C35.8955419 26.06012733 35.8955419 26.06012733 38 27 C37.6875 28.9375 37.6875 28.9375 37 31 C34 32 34 32 32.15332031 31.12304688 C31.12609863 30.42791992 31.12609863 30.42791992 30.078125 29.71875 C29.30791016 29.20965088 28.53769531 28.70055176 27.74414062 28.17602539 C26.50954102 27.34639282 26.50954102 27.34639282 25.25 26.5 C3.70647467 12.53125947 -19.21034893 4.19116627 -45.19921875 8.62890625 C-62.26363124 12.60525315 -77.20745072 22.07878307 -86.875 36.8125 C-90.84640104 43.2080816 -93.81153325 49.78235082 -96 57 C-96.31839844 58.03253906 -96.63679688 59.06507813 -96.96484375 60.12890625 C-100.96861413 76.05173499 -99.79540129 93.84138835 -98 110 C-123.74 110 -149.48 110 -176 110 C-175.29663665 102.96636651 -174.44232792 96.86501622 -172.5 90.1875 C-172.23936768 89.28878174 -171.97873535 88.39006348 -171.71020508 87.46411133 C-161.91503371 54.98954634 -143.31304576 24.56607315 -116 4 C-115.236875 3.40960938 -114.47375 2.81921875 -113.6875 2.2109375 C-78.01532779 -24.18164937 -37.38859183 -20.42070903 0 0 Z " fill="#CA0000" transform="translate(240,125)"/>
<path d="M0 0 C6.22875 -0.0825 12.4575 -0.165 18.875 -0.25 C21.79255127 -0.30462402 21.79255127 -0.30462402 24.76904297 -0.36035156 C35.00644433 -0.47237923 43.77305861 -0.44846076 51.9375 6.5 C52.9584375 7.7375 52.9584375 7.7375 54 9 C54.556875 9.61875 55.11375 10.2375 55.6875 10.875 C59.79896475 17.53165721 60.03825135 25.42423359 58.34765625 32.875 C56.38540432 39.07335803 53.85739776 43.80948397 48 47 C45.27734375 47.6484375 45.27734375 47.6484375 43 48 C47.89848071 53.8959895 53.2209637 59.28796326 58.73120117 64.60620117 C60.19038478 66.03468756 61.59988994 67.51356736 63 69 C63 69.66 63 70.32 63 71 C37.27283951 73.43415638 37.27283951 73.43415638 30.0234375 67.8828125 C26.53673832 64.58683874 23.68985821 60.96400158 21 57 C20.67 61.62 20.34 66.24 20 71 C13.4 71 6.8 71 0 71 C0 47.57 0 24.14 0 0 Z M20 19 C20 23.95 20 28.9 20 34 C22.248125 34.061875 24.49625 34.12375 26.8125 34.1875 C28.70935547 34.23970703 28.70935547 34.23970703 30.64453125 34.29296875 C33.91877651 34.28443527 33.91877651 34.28443527 35.89453125 32.69921875 C37.74364169 29.85694653 37.88467762 27.34434894 38 24 C37.12674142 21.18304982 37.12674142 21.18304982 35 19 C32.16963444 18.61333804 30.10334884 18.51941242 27.3125 18.6875 C24.899375 18.790625 22.48625 18.89375 20 19 Z " fill="#CA0000" transform="translate(181,164)"/>
<path d="M0 0 C1.98615712 -0.01712412 3.97202492 -0.06100974 5.95776367 -0.10522461 C13.40464477 -0.15439142 18.55165985 0.14468038 24.82299805 4.29516602 C29.39937069 8.99196951 31.07941014 13.49988772 31.05004883 20.00341797 C31.04989777 21.12420242 31.0497467 22.24498688 31.04959106 23.3997345 C31.03926849 24.59885971 31.02894592 25.79798492 31.01831055 27.03344727 C31.01548065 28.26935104 31.01265076 29.50525482 31.00973511 30.77861023 C31.00045022 34.05181599 30.98250438 37.32482246 30.96032715 40.59796143 C30.93980622 43.9429745 30.93089073 47.28799627 30.9206543 50.63305664 C30.89861596 57.18718081 30.86409708 63.74113477 30.82299805 70.29516602 C24.55299805 70.29516602 18.28299805 70.29516602 11.82299805 70.29516602 C11.82299805 66.00516602 11.82299805 61.71516602 11.82299805 57.29516602 C6.21299805 57.29516602 0.60299805 57.29516602 -5.17700195 57.29516602 C-5.17700195 61.58516602 -5.17700195 65.87516602 -5.17700195 70.29516602 C-11.77700195 70.29516602 -18.37700195 70.29516602 -25.17700195 70.29516602 C-25.27611921 62.46642725 -25.34859018 54.63805643 -25.39672852 46.80883789 C-25.41453844 44.14706354 -25.4440648 41.48615574 -25.47875977 38.82446289 C-25.52745743 34.99167021 -25.55001312 31.15946239 -25.56762695 27.32641602 C-25.58827209 26.14277466 -25.60891724 24.9591333 -25.63018799 23.73962402 C-25.63218666 16.32667422 -24.98922496 10.28043655 -19.69390869 4.74475098 C-13.62068631 -0.58894504 -7.69940333 0.04616062 0 0 Z M-5.17700195 19.29516602 C-5.59128542 21.2259308 -5.59128542 21.2259308 -5.4699707 23.42797852 C-5.46030273 24.23364258 -5.45063477 25.03930664 -5.44067383 25.86938477 C-5.41553711 26.71114258 -5.39040039 27.55290039 -5.36450195 28.42016602 C-5.3509668 29.2696582 -5.33743164 30.11915039 -5.32348633 30.99438477 C-5.28808414 33.09491439 -5.23427596 35.19511895 -5.17700195 37.29516602 C0.10299805 37.29516602 5.38299805 37.29516602 10.82299805 37.29516602 C10.90369463 34.33629143 10.9633447 31.37960011 11.01049805 28.42016602 C11.03563477 27.5784082 11.06077148 26.73665039 11.08666992 25.86938477 C11.09633789 25.0637207 11.10600586 24.25805664 11.1159668 23.42797852 C11.13167725 22.68435059 11.1473877 21.94072266 11.16357422 21.17456055 C11.05118408 20.55436035 10.93879395 19.93416016 10.82299805 19.29516602 C7.58385576 17.13573782 6.57440072 17.02283624 2.82299805 17.04516602 C1.52362305 17.03743164 1.52362305 17.03743164 0.19799805 17.02954102 C-2.44279695 17.1410205 -2.44279695 17.1410205 -5.17700195 19.29516602 Z " fill="#C90001" transform="translate(273.177001953125,164.704833984375)"/>
<path d="M0 0 C0.77261673 0.00141495 1.54523346 0.0028299 2.34126282 0.00428772 C4.80697514 0.00988159 7.2725964 0.02243292 9.73828125 0.03515625 C11.41080598 0.04017204 13.08333213 0.04473481 14.75585938 0.04882812 C18.85422991 0.05899778 22.95240373 0.07857431 27.05078125 0.09765625 C27.05078125 6.03765625 27.05078125 11.97765625 27.05078125 18.09765625 C16.82078125 18.09765625 6.59078125 18.09765625 -3.94921875 18.09765625 C-3.94921875 20.73765625 -3.94921875 23.37765625 -3.94921875 26.09765625 C-3.34972412 26.07670898 -2.75022949 26.05576172 -2.13256836 26.03417969 C0.61587367 25.95040351 3.36404617 25.89880481 6.11328125 25.84765625 C7.05623047 25.81414062 7.99917969 25.780625 8.97070312 25.74609375 C15.27187368 25.65827256 18.90922718 26.39410938 24.05078125 30.09765625 C28.98026565 35.16036996 30.33802417 40.51853943 30.36328125 47.47265625 C30.23339744 53.81531587 29.79024839 58.93346553 25.5390625 63.84375 C19.55846258 69.44804251 12.96152268 70.41014171 4.9296875 70.29296875 C3.81254616 70.28872391 3.81254616 70.28872391 2.6728363 70.28439331 C0.31948024 70.27329542 -2.03347984 70.24821135 -4.38671875 70.22265625 C-5.992833 70.21261297 -7.59895329 70.20348949 -9.20507812 70.1953125 C-13.12006292 70.17510091 -17.0342033 70.13593451 -20.94921875 70.09765625 C-20.94921875 63.82765625 -20.94921875 57.55765625 -20.94921875 51.09765625 C-10.38921875 51.09765625 0.17078125 51.09765625 11.05078125 51.09765625 C11.05078125 48.45765625 11.05078125 45.81765625 11.05078125 43.09765625 C10.48681641 43.12384033 9.92285156 43.15002441 9.34179688 43.17700195 C6.745084 43.28200826 4.14881905 43.34629998 1.55078125 43.41015625 C0.66390625 43.45205078 -0.22296875 43.49394531 -1.13671875 43.53710938 C-7.69850509 43.65773045 -11.87151844 42.29780497 -16.94921875 38.09765625 C-22.59218561 32.02061501 -22.37280909 25.92322019 -22.22265625 18.06640625 C-21.82014988 12.2243138 -20.60028813 8.48361869 -16.23046875 4.55078125 C-10.93620715 0.55765174 -6.55601128 -0.04511067 0 0 Z " fill="#C90001" transform="translate(412.94921875,164.90234375)"/>
<path d="M0 0 C6.93 0 13.86 0 21 0 C21 16.83 21 33.66 21 51 C29.58 51 38.16 51 47 51 C47 57.27 47 63.54 47 70 C31.49 70 15.98 70 0 70 C0 46.9 0 23.8 0 0 Z " fill="#CA0001" transform="translate(339,165)"/>
<path d="M0 0 C6.6 0 13.2 0 20 0 C20 23.1 20 46.2 20 70 C13.4 70 6.8 70 0 70 C0 46.9 0 23.8 0 0 Z " fill="#C70101" transform="translate(312,165)"/>
<path d="M0 0 C1.9609375 0.26953125 1.9609375 0.26953125 4.375 0.8125 C5.56222656 1.06966797 5.56222656 1.06966797 6.7734375 1.33203125 C9 2 9 2 12 4 C11.52309796 5.62566606 11.04340334 7.25051311 10.5625 8.875 C10.16224609 10.23238281 10.16224609 10.23238281 9.75390625 11.6171875 C9 14 9 14 8 16 C3.02693484 15.50269348 -0.63799813 14.44697666 -5 12 C-4.35758106 10.186287 -3.71096881 8.37405876 -3.0625 6.5625 C-2.70285156 5.55316406 -2.34320313 4.54382813 -1.97265625 3.50390625 C-1 1 -1 1 0 0 Z " fill="#C60205" transform="translate(62,183)"/>
<path d="M0 0 C4.0675834 0.56467628 6.36104676 2.70540856 9.4375 5.3125 C10.82775391 6.48232422 10.82775391 6.48232422 12.24609375 7.67578125 C13.15488281 8.44277344 14.06367188 9.20976562 15 10 C16.66243116 11.33861055 18.32772234 12.67371082 20 14 C19.6875 15.9375 19.6875 15.9375 19 18 C16 19 16 19 14.11474609 18.16723633 C11.85971654 16.72750289 9.60877618 15.28509667 7.375 13.8125 C6.58609375 13.31685547 5.7971875 12.82121094 4.984375 12.31054688 C4.23414063 11.82263672 3.48390625 11.33472656 2.7109375 10.83203125 C2.02306152 10.38577393 1.33518555 9.9395166 0.62646484 9.47973633 C-1.29953458 7.72748738 -1.62679493 6.53799838 -2 4 C-1.34 4 -0.68 4 0 4 C0 2.68 0 1.36 0 0 Z " fill="#C60206" transform="translate(258,138)"/>
<path d="M0 0 C1.6286551 0.42369072 3.25287378 0.8644623 4.875 1.3125 C5.77992188 1.55613281 6.68484375 1.79976562 7.6171875 2.05078125 C10 3 10 3 12 6 C12.4140625 8.91796875 12.4140625 8.91796875 12.625 12.1875 C12.69976562 13.27417969 12.77453125 14.36085937 12.8515625 15.48046875 C12.92503906 16.72763672 12.92503906 16.72763672 13 18 C11.01638562 17.41060025 9.03816459 16.80302211 7.0625 16.1875 C5.96035156 15.85105469 4.85820312 15.51460937 3.72265625 15.16796875 C2.82417969 14.78253906 1.92570313 14.39710938 1 14 C-0.04976964 10.85069107 -0.10131595 8.61185544 -0.0625 5.3125 C-0.05347656 4.31863281 -0.04445312 3.32476562 -0.03515625 2.30078125 C-0.02355469 1.54152344 -0.01195312 0.78226563 0 0 Z " fill="#C2030B" transform="translate(144,214)"/>
<path d="M0 0 C1.35208914 0.62775567 2.68163705 1.30419733 4 2 C4.763125 2.350625 5.52625 2.70125 6.3125 3.0625 C8 5 8 5 8.09765625 7.0546875 C7.69701858 11.3422134 6.96535595 14.0692881 5 18 C2.36 16.02 -0.28 14.04 -3 12 C-1.125 2.25 -1.125 2.25 0 0 Z " fill="#C30207" transform="translate(148,179)"/>
<path d="M0 0 C2.64 1.98 5.28 3.96 8 6 C3.85714286 12.42857143 3.85714286 12.42857143 1 15 C-2.36591866 13.55746343 -4.51047079 11.66735273 -7 9 C-5.44499019 5.18315774 -2.96404505 2.80804268 0 0 Z " fill="#C40306" transform="translate(96,137)"/>
<path d="M0 0 C1.32 2.31 2.64 4.62 4 7 C3.04882866 8.1725131 2.08882991 9.33787015 1.125 10.5 C0.59132812 11.1496875 0.05765625 11.799375 -0.4921875 12.46875 C-1.23855469 13.22671875 -1.23855469 13.22671875 -2 14 C-2.66 14 -3.32 14 -4 14 C-5.38938077 12.03852126 -6.7260411 10.03833424 -8 8 C-6.48291727 4.46014029 -4.24676932 0 0 0 Z " fill="#C20304" transform="translate(167,152)"/>
<path d="M0 0 C1.875 1.3125 1.875 1.3125 3.875 4.3125 C3.875 5.3025 3.875 6.2925 3.875 7.3125 C-0.085 9.2925 -0.085 9.2925 -4.125 11.3125 C-5.775 9.0025 -7.425 6.6925 -9.125 4.3125 C-3.63611111 -1.17638889 -3.63611111 -1.17638889 0 0 Z " fill="#C20307" transform="translate(136.125,108.6875)"/>
<path d="M0 0 C1.25664978 2.90600261 2 4.79604584 2 8 C-2.455 9.485 -2.455 9.485 -7 11 C-7.99 8.36 -8.98 5.72 -10 3 C-3.375 0 -3.375 0 0 0 Z " fill="#C20304" transform="translate(193,137)"/>
<path d="M0 0 C3.3 0.99 6.6 1.98 10 3 C10 5.64 10 8.28 10 11 C8.35153231 10.55123384 6.70626545 10.09069512 5.0625 9.625 C4.14597656 9.36976562 3.22945312 9.11453125 2.28515625 8.8515625 C0 8 0 8 -1 6 C-0.71887936 3.99199544 -0.38932033 1.98985949 0 0 Z " fill="#BF0304" transform="translate(215,104)"/>
<path d="M0 0 C7.75 -0.125 7.75 -0.125 10 1 C10 3.31 10 5.62 10 8 C6.37 7.67 2.74 7.34 -1 7 C-0.67 4.69 -0.34 2.38 0 0 Z " fill="#CF0003" transform="translate(215,135)"/>
<path d="M0 0 C0.66 2.31 1.32 4.62 2 7 C-1.63 7.33 -5.26 7.66 -9 8 C-9.66 5.69 -10.32 3.38 -11 1 C-7.26513121 0.4254048 -3.78706732 0 0 0 Z " fill="#C50304" transform="translate(179,98)"/>
<path d="M0 0 C1.65 0.99 3.3 1.98 5 3 C4.6875 4.9375 4.6875 4.9375 4 7 C3.01 7.33 2.02 7.66 1 8 C-2.1875 6.0625 -2.1875 6.0625 -5 4 C-3.35 2.68 -1.7 1.36 0 0 Z " fill="#BD0410" transform="translate(273,149)"/>
<path d="M0 0 C6.75 0.875 6.75 0.875 9 2 C9 2.66 9 3.32 9 4 C5.86501708 5.85776765 3.62528568 6.20140476 0 6 C-1.24546405 3.50907189 -0.7767578 2.58919267 0 0 Z " fill="#CD0003" transform="translate(215,106)"/>
<path d="M0 0 C1 2 1 2 0.4375 3.8125 C-1.57503821 6.87505815 -4.14987131 8.69564063 -7 11 C-7.33 11.66 -7.66 12.32 -8 13 C-8.99 12.67 -9.98 12.34 -11 12 C-7.37 8.04 -3.74 4.08 0 0 Z " fill="#BF040C" transform="translate(112,139)"/>
<path d="M0 0 C2.80500965 4.20751447 3.12829139 7.24985414 3.0625 12.25 C3.05347656 13.14203125 3.04445312 14.0340625 3.03515625 14.953125 C3.02355469 15.62859375 3.01195312 16.3040625 3 17 C-0.55140441 13.44859559 -0.05396178 8.36951506 -0.0625 3.5625 C-0.041875 2.386875 -0.02125 1.21125 0 0 Z " fill="#AB0102" transform="translate(237,177)"/>
<path d="M0 0 C0.33 0.99 0.66 1.98 1 3 C0.67 3.66 0.34 4.32 0 5 C-0.144375 5.969375 -0.28875 6.93875 -0.4375 7.9375 C-1 11 -1 11 -3 14 C-3.32374517 8.49633208 -3.53286034 4.56327794 0 0 Z " fill="#C1020E" transform="translate(252,171)"/>
<path d="M0 0 C0.99 0 1.98 0 3 0 C2.67 1.65 2.34 3.3 2 5 C3.65 5.33 5.3 5.66 7 6 C7 6.33 7 6.66 7 7 C4.36 7 1.72 7 -1 7 C-0.67 4.69 -0.34 2.38 0 0 Z " fill="#B6080A" transform="translate(215,135)"/>
<path d="M0 0 C1.32 0 2.64 0 4 0 C3.95875 0.78375 3.9175 1.5675 3.875 2.375 C3.71271266 5.16116119 3.71271266 5.16116119 6 7 C4.68 7 3.36 7 2 7 C1.34 4.69 0.68 2.38 0 0 Z " fill="#BB0412" transform="translate(168,99)"/>
<path d="M0 0 C1.65 1.65 3.3 3.3 5 5 C3.35 5.33 1.7 5.66 0 6 C0 4.02 0 2.04 0 0 Z " fill="#BF030B" transform="translate(226,216)"/>
</svg>
