<?xml version="1.0" encoding="UTF-8"?>
<svg version="1.1" xmlns="http://www.w3.org/2000/svg" width="860" height="645">
<path d="M0 0 C0.97583542 -0.00979385 1.95167084 -0.01958771 2.95707703 -0.02967834 C24.09304195 -0.19814712 44.74752089 -0.23735832 65.5078125 4.23828125 C66.51440918 4.45258789 67.52100586 4.66689453 68.55810547 4.88769531 C91.67893731 9.99099217 115.39071465 18.50950138 133.5078125 34.23828125 C134.32636719 34.92535156 135.14492188 35.61242188 135.98828125 36.3203125 C156.39440321 53.94799123 164.82146718 76.73827659 166.79296875 103.04296875 C167.72626343 140.13128788 151.92331515 175.48050499 129.5078125 204.23828125 C128.38052734 205.68654297 128.38052734 205.68654297 127.23046875 207.1640625 C85.86093945 258.85727181 24.39589241 287.83706479 -40.83349609 295.94580078 C-79.867648 300.23991593 -122.39848706 301.42676775 -155.4921875 277.23828125 C-159.01671416 274.40790547 -162.29128025 271.42805491 -165.4921875 268.23828125 C-166.22308594 267.53058594 -166.95398438 266.82289063 -167.70703125 266.09375 C-173.69750064 259.90248275 -178.54392346 252.01031829 -178.9921875 243.17578125 C-178.4921875 240.23828125 -178.4921875 240.23828125 -177.3046875 238.30078125 C-174.84321578 236.85784955 -173.31250444 236.91972135 -170.4921875 237.23828125 C-168.75390625 238.77734375 -168.75390625 238.77734375 -167.1796875 240.86328125 C-153.62937692 257.29663663 -130.44933538 263.6308638 -110.08398438 265.99511719 C-70.04014525 269.75205613 -27.47303849 258.05912091 8.5078125 241.23828125 C9.57733154 240.74376465 9.57733154 240.74376465 10.66845703 240.23925781 C43.10262523 225.10894492 75.11991283 202.04779717 95.5078125 172.23828125 C96.13743896 171.31861572 96.13743896 171.31861572 96.77978516 170.38037109 C110.4287862 150.13833787 121.47945423 125.22100748 116.859375 100.28125 C113.77836554 87.28571009 107.32595697 77.76322979 95.9765625 70.65234375 C49.32865276 44.24533738 -11.11179029 52.80658063 -60.4921875 66.23828125 C-90.48312573 74.63608122 -118.73865939 86.2504879 -146.4921875 100.23828125 C-147.66233398 100.82544922 -148.83248047 101.41261719 -150.03808594 102.01757812 C-171.16540749 112.66062071 -191.35265305 124.35079752 -211.0546875 137.42578125 C-211.68017487 137.83967102 -212.30566223 138.25356079 -212.95010376 138.67999268 C-229.39075132 149.58804521 -245.15002785 161.66759354 -259.4921875 175.23828125 C-260.11399902 175.82609375 -260.73581055 176.41390625 -261.37646484 177.01953125 C-287.16097255 201.60291623 -308.53854363 231.44902167 -309.89282227 268.25463867 C-310.332847 297.15348153 -295.54330518 318.83924913 -276.515625 339.37109375 C-272.39137781 343.57066966 -267.96668053 347.41895525 -263.4921875 351.23828125 C-262.52152344 352.07488281 -261.55085938 352.91148437 -260.55078125 353.7734375 C-253.57660653 359.75602845 -246.43605257 365.46079846 -239.11279297 371.00878906 C-234.21714573 374.7229318 -229.3537146 378.47964657 -224.4921875 382.23828125 C-223.9235498 382.67785156 -223.35491211 383.11742187 -222.76904297 383.5703125 C-211.35149175 392.41628576 -200.29521673 401.64979376 -189.4921875 411.23828125 C-188.62207031 412.00398438 -187.75195312 412.7696875 -186.85546875 413.55859375 C-185.95183594 414.36039062 -185.04820312 415.1621875 -184.1171875 415.98828125 C-183.28445312 416.725625 -182.45171875 417.46296875 -181.59375 418.22265625 C-179.4921875 420.23828125 -179.4921875 420.23828125 -177.4921875 423.23828125 C-173.48903082 422.63515289 -170.49432523 421.36439481 -166.94921875 419.4296875 C-165.88493652 418.85275146 -164.8206543 418.27581543 -163.72412109 417.68139648 C-162.59570801 417.06079346 -161.46729492 416.44019043 -160.3046875 415.80078125 C-159.12348569 415.15712661 -157.94200514 414.51398323 -156.76025391 413.87133789 C-149.57534877 409.95749037 -142.41452338 405.99941625 -135.27416992 402.00488281 C-129.97717261 399.04566644 -124.64748776 396.15035439 -119.30615234 393.27197266 C-116.18387791 391.58677631 -113.06816671 389.88992585 -109.953125 388.19140625 C-106.89688651 386.52700509 -103.83727297 384.89196712 -100.71875 383.34765625 C-93.27103121 379.47718822 -88.76099579 374.33934073 -83.5546875 367.93359375 C-67.78545276 348.60716017 -44.25969402 329.48599595 -18.7421875 326.30078125 C-9.79040015 325.85319188 -1.6963782 327.64856126 5.12890625 333.66796875 C13.46029058 342.35255391 14.73148088 354.32200855 14.609375 365.8203125 C14.42086906 370.30820389 13.97531099 374.77200107 13.5078125 379.23828125 C14.3328125 378.74328125 15.1578125 378.24828125 16.0078125 377.73828125 C21.87815629 375.22241963 26.40141623 375.56304668 32.1953125 377.86328125 C36.57857219 380.03216061 38.98945835 382.01394525 41.5078125 386.23828125 C42.15899661 393.38809987 40.33493166 399.64705493 38.4375 406.50390625 C38.11878937 407.69135437 37.80007874 408.87880249 37.47171021 410.10223389 C36.45148816 413.90019788 35.41840782 417.69448271 34.3828125 421.48828125 C23.64606133 457.2998529 23.64606133 457.2998529 19.4453125 494.17578125 C19.45208008 495.20155273 19.45208008 495.20155273 19.45898438 496.24804688 C19.4706169 497.91149729 19.48854556 499.57490175 19.5078125 501.23828125 C22.80098268 497.41507576 25.15044979 493.39125313 27.37890625 488.89453125 C27.73713974 488.18224869 28.09537323 487.46996613 28.46446228 486.73609924 C29.6321197 484.40709199 30.78955344 482.07321369 31.9453125 479.73828125 C32.34719788 478.93019012 32.74908325 478.122099 33.16314697 477.28952026 C40.0187265 463.49225461 46.47604288 449.55972445 52.65820312 435.44677734 C54.78209926 430.60463719 56.93392748 425.77500878 59.0859375 420.9453125 C62.92625833 412.32562053 66.75745247 403.70193018 70.58340454 395.07585144 C73.19448442 389.1909936 75.81323028 383.30962575 78.43844604 377.43106079 C80.14222082 373.61350597 81.84138751 369.7939104 83.53973389 365.97393799 C84.33369834 364.19079018 85.12954645 362.40847953 85.92755127 360.62713623 C93.63899766 343.40787164 100.91078584 326.10398373 105.50195312 307.765625 C105.72689453 306.91613281 105.95183594 306.06664062 106.18359375 305.19140625 C106.4607019 304.08007324 106.4607019 304.08007324 106.7434082 302.94628906 C106.99566162 302.38264648 107.24791504 301.81900391 107.5078125 301.23828125 C108.4978125 300.90828125 109.4878125 300.57828125 110.5078125 300.23828125 C110.8378125 299.57828125 111.1678125 298.91828125 111.5078125 298.23828125 C122.98348687 292.61754279 140.0113427 291.23106089 152.38671875 294.4296875 C156.28998713 295.91767379 159.10857424 297.79416286 161.5078125 301.23828125 C161.3170969 308.65418417 159.17074894 315.43484998 157.0078125 322.48828125 C156.37055956 324.59710223 155.73507678 326.70645912 155.1015625 328.81640625 C154.81990234 329.7384082 154.53824219 330.66041016 154.24804688 331.61035156 C148.55417249 351.8243568 152.03006177 375.27817452 160.984375 393.9453125 C162.14371966 396.45128057 163.00663933 398.54955492 163.5078125 401.23828125 C166.10968664 398.87263308 167.75256703 396.36381446 169.51171875 393.328125 C170.08212891 392.3479541 170.65253906 391.3677832 171.24023438 390.35791016 C171.84416016 389.30780762 172.44808594 388.25770508 173.0703125 387.17578125 C173.69873047 386.08958496 174.32714844 385.00338867 174.97460938 383.88427734 C179.77909734 375.55739792 184.52229705 367.19997387 189.12841797 358.76171875 C190.13165622 356.92641422 191.13904892 355.09337877 192.14892578 353.26171875 C202.94501365 333.66605939 212.78414756 315.08547154 218.12670898 293.25585938 C222.16801045 276.820979 222.16801045 276.820979 227.5078125 272.23828125 C229.9609375 271.32421875 229.9609375 271.32421875 232.7578125 270.61328125 C233.67046875 270.37351562 234.583125 270.13375 235.5234375 269.88671875 C241.99956088 268.47960294 248.2815845 268.03046162 254.8828125 267.98828125 C256.08164063 267.95734375 256.08164063 267.95734375 257.3046875 267.92578125 C263.08415643 267.88837368 268.24926524 268.73708112 273.5078125 271.23828125 C276.19070736 273.92117611 277.31366843 275.65584903 278.5078125 279.23828125 C278.02636719 281.39208984 278.02636719 281.39208984 277.1796875 283.88671875 C276.87554932 284.80243652 276.57141113 285.7181543 276.25805664 286.66162109 C275.92797607 287.63566895 275.59789551 288.6097168 275.2578125 289.61328125 C274.60261461 291.63319101 273.95024753 293.6540213 273.30078125 295.67578125 C272.32712271 298.69758395 271.35176888 301.71874546 270.37109375 304.73828125 C262.67236452 332.37859693 271.52590401 359.27291356 284.22265625 383.578125 C285.5078125 386.23828125 285.5078125 386.23828125 285.5078125 388.23828125 C286.40367065 387.86860229 286.40367065 387.86860229 287.31762695 387.49145508 C300.51472592 382.08466963 313.54107532 377.21075045 327.5078125 374.23828125 C328.23838867 374.07602051 328.96896484 373.91375977 329.72167969 373.74658203 C351.96633346 368.99667689 378.37196678 368.89916828 400.5078125 374.23828125 C401.20503418 374.39925293 401.90225586 374.56022461 402.62060547 374.72607422 C430.23501256 381.30574869 456.08378679 397.24345908 471.421875 421.46044922 C482.40437832 439.44034787 486.33713743 458.34603948 482.84765625 479.1796875 C478.32776455 495.43955764 467.56214516 508.31719523 453.140625 516.86328125 C446.65556852 520.25013567 441.72486125 521.92737777 434.5078125 520.23828125 C433.6953125 518.05078125 433.6953125 518.05078125 433.5078125 515.23828125 C436.16958327 511.77797925 439.23448415 509.71845212 442.8828125 507.36328125 C453.34325381 500.52843237 460.17574151 491.20093291 463.03515625 478.94140625 C465.30896009 465.9375033 461.4408214 453.04872074 454.48828125 442.01953125 C438.9350039 420.1774534 414.68385797 409.6630846 388.98046875 404.79296875 C360.83640067 400.29751581 328.66462451 399.26273442 301.79296875 410.359375 C299.5078125 411.23828125 299.5078125 411.23828125 296.5078125 411.23828125 C296.84554687 412.24246094 297.18328125 413.24664062 297.53125 414.28125 C303.52880991 432.50917209 306.07578487 448.99675608 298.18359375 467.0859375 C285.50910755 490.9281528 261.05447175 505.96713171 236.08496094 514.1328125 C227.89538814 516.63142804 220.27170446 518.14431838 212.1328125 514.67578125 C206.86726713 511.54936368 202.84221234 507.32243903 201.1328125 501.36328125 C197.51456522 481.81728566 207.0707278 462.23902992 217.5078125 446.23828125 C225.37270446 435.04446453 237.17369805 418.40533847 249.5078125 412.23828125 C247.88316135 406.88538441 245.96142895 401.93192657 243.39892578 396.96142578 C235.26335601 381.11151173 231.1334231 363.6066825 227.5078125 346.23828125 C226.94835937 347.40359375 226.38890625 348.56890625 225.8125 349.76953125 C219.51400178 362.71332001 212.49082911 375.12480691 205.1328125 387.4921875 C203.69722904 389.91818551 202.28325124 392.35438982 200.8828125 394.80078125 C195.64585587 403.91798648 189.98547734 412.68361564 184.06445312 421.3737793 C183.48759766 422.22367432 182.91074219 423.07356934 182.31640625 423.94921875 C181.79876709 424.70509277 181.28112793 425.4609668 180.74780273 426.23974609 C179.3539047 428.31425149 179.3539047 428.31425149 178.5078125 431.23828125 C179.34801266 433.87721979 180.25738658 436.41131421 181.2578125 438.98828125 C188.68961881 459.20545938 190.66847658 479.24397957 181.5078125 499.30078125 C177.59968637 506.72787688 172.4882728 512.40979079 166.5078125 518.23828125 C165.63189453 519.12773438 165.63189453 519.12773438 164.73828125 520.03515625 C147.83904864 535.95038291 120.17503536 544.33567553 97.5703125 544.48828125 C96.43045898 544.51921875 96.43045898 544.51921875 95.26757812 544.55078125 C89.43976913 544.59059549 83.41676188 543.9363386 78.94189453 539.78588867 C75.11303177 535.29116636 74.1274417 532.40240484 74.24609375 526.65234375 C75.59975314 514.16635116 89.71987816 501.70882498 97.6328125 492.578125 C100.91951063 488.77869329 104.08839385 484.88822202 107.25 480.984375 C109.24397239 478.55918021 111.2830803 476.18071388 113.33984375 473.80883789 C118.51520277 467.81224485 123.34922014 461.5986165 128.0703125 455.23828125 C128.67834717 454.42488281 129.28638184 453.61148437 129.9128418 452.7734375 C130.48172119 451.99871094 131.05060059 451.22398437 131.63671875 450.42578125 C132.14275635 449.73871094 132.64879395 449.05164063 133.17016602 448.34375 C134.70631583 445.92583505 135.80941341 444.03343538 136.5078125 441.23828125 C135.60821004 438.15746681 135.60821004 438.15746681 133.88671875 434.99609375 C133.27764177 433.76384728 132.66876319 432.53150273 132.06005859 431.29907227 C131.57215851 430.33603683 131.57215851 430.33603683 131.07440186 429.35354614 C124.34254753 416.00993957 119.2918549 402.71625093 115.5078125 388.23828125 C114.96806491 386.21109871 114.4260487 384.18452912 113.88406372 382.15794373 C113.08949371 379.18538303 112.29866405 376.21183318 111.5078125 373.23828125 C111.14655273 374.12684814 110.78529297 375.01541504 110.41308594 375.9309082 C98.37878463 405.4954121 85.59490492 434.5907133 71.5078125 463.23828125 C70.94916504 464.37749023 70.39051758 465.51669922 69.81494141 466.69042969 C62.87027466 480.82450914 55.6869072 494.79657359 48.00927734 508.54736328 C46.98426929 510.38437771 45.96396199 512.22402094 44.94775391 514.06591797 C33.63269002 534.56198755 33.63269002 534.56198755 26.5078125 542.23828125 C25.80269531 543.03363281 25.09757812 543.82898438 24.37109375 544.6484375 C18.2215852 551.24869537 11.68355374 556.3450022 2.3828125 556.80078125 C-3.49006946 556.44178063 -7.96213705 554.72733551 -12.1796875 550.578125 C-19.29105764 541.92003186 -21.46959973 531.25325766 -21.80859375 520.30859375 C-21.85048828 519.01953125 -21.89238281 517.73046875 -21.93554688 516.40234375 C-21.97534778 515.05599216 -22.01506023 513.70963796 -22.0546875 512.36328125 C-22.09793933 510.99347792 -22.14155562 509.62368604 -22.18554688 508.25390625 C-22.29134272 504.91545968 -22.39343122 501.57694225 -22.4921875 498.23828125 C-23.1406665 499.68726807 -23.1406665 499.68726807 -23.80224609 501.16552734 C-50.34736895 560.36684713 -50.34736895 560.36684713 -67.8046875 567.61328125 C-77.35648409 569.23222982 -85.7696948 568.70163036 -94.4921875 564.23828125 C-97.3046875 561.92578125 -97.3046875 561.92578125 -99.4921875 559.23828125 C-100.15734375 558.57119141 -100.15734375 558.57119141 -100.8359375 557.890625 C-113.86089777 544.34605196 -119.35473439 523.22785054 -122.4921875 505.23828125 C-122.67652344 504.20058594 -122.86085937 503.16289062 -123.05078125 502.09375 C-125.82428176 477.86857299 -122.14946694 453.62902271 -115.90356445 430.25512695 C-115.35895054 427.92812641 -115.35895054 427.92812641 -115.4921875 424.23828125 C-129.58837076 432.07912387 -143.64163679 439.96986446 -157.4921875 448.23828125 C-157.305354 448.78645508 -157.11852051 449.33462891 -156.92602539 449.89941406 C-143.57650301 489.44668959 -144.46309901 531.41221584 -162.82714844 569.359375 C-169.5017468 582.52148487 -178.21893385 593.72436573 -188.4921875 604.23828125 C-189.27980469 605.08777344 -190.06742188 605.93726563 -190.87890625 606.8125 C-211.2161055 628.22538582 -242.19003381 644.58906991 -272.0136261 645.71908569 C-275.49947155 645.78723956 -278.98147474 645.79330013 -282.46777344 645.75976562 C-285.12266698 645.73823682 -287.77487288 645.75974197 -290.4296875 645.78515625 C-305.52002076 645.81002254 -319.87404007 644.28826807 -331.34375 633.49609375 C-345.01526375 618.98140294 -349.05881807 600.92021545 -348.765625 581.609375 C-347.87293234 556.92774872 -336.34807173 535.69526685 -319.4921875 518.23828125 C-318.95319824 517.67351074 -318.41420898 517.10874023 -317.85888672 516.52685547 C-309.2962983 507.58778611 -300.4472397 499.5838564 -290.4921875 492.23828125 C-289.82380859 491.73619141 -289.15542969 491.23410156 -288.46679688 490.71679688 C-263.83141516 472.22320008 -236.80874045 457.35873977 -209.4921875 443.23828125 C-217.42641837 435.55270149 -226.43587247 429.49424296 -235.4921875 423.23828125 C-238.44820367 421.18712658 -241.40285178 419.13401762 -244.35693359 417.08007812 C-246.30648745 415.72535165 -248.2572575 414.37237299 -250.20947266 413.02148438 C-255.90390327 409.07355958 -261.52393262 405.04327059 -267.08642578 400.91113281 C-269.17411818 399.45945143 -271.18630831 398.29595039 -273.4921875 397.23828125 C-273.4921875 396.57828125 -273.4921875 395.91828125 -273.4921875 395.23828125 C-274.14316406 395.04105469 -274.79414063 394.84382813 -275.46484375 394.640625 C-279.78218549 392.64072089 -283.22407773 389.75845181 -286.9296875 386.80078125 C-287.7252002 386.17260498 -288.52071289 385.54442871 -289.34033203 384.8972168 C-290.96044653 383.61777755 -292.57894791 382.33629292 -294.19580078 381.05273438 C-296.24016085 379.43741607 -298.29655827 377.84043762 -300.36328125 376.25390625 C-307.14380157 371.03505034 -313.5721487 365.58057401 -319.81640625 359.73046875 C-322.06484136 357.63630583 -324.34609339 355.61087463 -326.6796875 353.61328125 C-334.81174425 346.52293425 -341.86823065 338.74392042 -348.4921875 330.23828125 C-348.92289551 329.69461914 -349.35360352 329.15095703 -349.79736328 328.59082031 C-361.05245109 314.30598454 -369.58944946 298.7939371 -374.4921875 281.23828125 C-374.73582031 280.47 -374.97945313 279.70171875 -375.23046875 278.91015625 C-382.62089475 252.56605267 -369.08824496 222.7547045 -356.4921875 200.23828125 C-343.85322061 178.39919722 -326.88797044 159.36197074 -309.4921875 141.23828125 C-308.97793213 140.67971436 -308.46367676 140.12114746 -307.93383789 139.5456543 C-306.4921875 138.23828125 -306.4921875 138.23828125 -304.4921875 138.23828125 C-304.4921875 137.57828125 -304.4921875 136.91828125 -304.4921875 136.23828125 C-303.234375 134.93359375 -303.234375 134.93359375 -301.3671875 133.36328125 C-300.63242187 132.74066406 -299.89765625 132.11804688 -299.140625 131.4765625 C-298.26664062 130.73792969 -297.39265625 129.99929687 -296.4921875 129.23828125 C-295.46203657 128.33765616 -294.43348269 127.43520215 -293.40625 126.53125 C-285.41955339 119.53559481 -277.15398265 113.03700897 -268.58398438 106.77246094 C-266.486708 105.23426244 -264.40310911 103.67882374 -262.3203125 102.12109375 C-242.48675755 87.40375874 -221.20007117 74.9633709 -199.4921875 63.23828125 C-197.87787842 62.36623047 -197.87787842 62.36623047 -196.23095703 61.4765625 C-137.23733744 29.81761427 -68.0375458 0.56691991 0 0 Z M-43.4375 379.52734375 C-68.39062314 412.45028569 -82.38951613 453.74375763 -77.7421875 495.11328125 C-76.74708914 501.8301952 -75.4553452 509.27512355 -70.4921875 514.23828125 C-68.100958 514.44962655 -68.100958 514.44962655 -65.4921875 513.23828125 C-61.26876387 509.15989869 -58.07456818 504.36127012 -55.3671875 499.17578125 C-54.99231201 498.45938477 -54.61743652 497.74298828 -54.23120117 497.00488281 C-48.42128149 485.51936322 -43.94659489 473.40312576 -39.32733154 461.40325928 C-38.4725203 459.18729715 -37.61215792 456.97355749 -36.75048828 454.76025391 C-16.74127831 410.17231814 -16.74127831 410.17231814 -10.4921875 363.23828125 C-11.61207829 361.90307637 -11.61207829 361.90307637 -14.4921875 361.98828125 C-26.79935829 362.2890675 -35.81444732 370.55724561 -43.4375 379.52734375 Z M259.0703125 432.42578125 C246.44656923 445.32051722 231.98298179 465.40408989 231.3828125 484.140625 C231.4240625 485.16285156 231.4653125 486.18507813 231.5078125 487.23828125 C241.65399612 484.66497381 251.09520506 478.5950533 257.5078125 470.23828125 C262.77926853 461.31454622 265.86781865 452.99052813 265.7578125 442.61328125 C265.76554688 441.8759375 265.77328125 441.13859375 265.78125 440.37890625 C265.7663622 436.2252101 265.36680583 432.97102182 263.5078125 429.23828125 C261.6075659 429.23828125 260.34994471 431.17704559 259.0703125 432.42578125 Z M-259.4921875 512.23828125 C-260.52843649 513.12784809 -261.56489637 514.01716932 -262.6015625 514.90625 C-277.61452077 527.97540781 -291.66649325 547.01801566 -293.7109375 567.42138672 C-293.86951153 569.80049264 -293.95121121 572.16683937 -293.9921875 574.55078125 C-294.01087891 575.29183105 -294.02957031 576.03288086 -294.04882812 576.79638672 C-293.97677193 582.9835192 -292.19436098 588.25493388 -287.99291992 592.89355469 C-282.67387769 597.65966573 -275.00878201 596.77521219 -268.32421875 596.60546875 C-243.9477164 595.24019096 -223.04758045 577.60255095 -207.4921875 560.23828125 C-191.58086556 541.17071415 -183.06735116 516.70334143 -183.1796875 492.05078125 C-183.18097656 490.87346436 -183.18226563 489.69614746 -183.18359375 488.4831543 C-183.28296203 479.43380913 -184.23671278 471.00509667 -186.4921875 462.23828125 C-206.8927228 462.23828125 -244.53910275 499.02711344 -259.4921875 512.23828125 Z M148.5078125 469.23828125 C147.60005575 470.24751332 146.7327899 471.29320996 145.8828125 472.3515625 C145.3460791 473.01671875 144.8093457 473.681875 144.25634766 474.3671875 C143.67933105 475.08777344 143.10231445 475.80835938 142.5078125 476.55078125 C141.91403809 477.28554688 141.32026367 478.0203125 140.70849609 478.77734375 C138.18257711 481.90343368 135.66726535 485.03696537 133.171875 488.1875 C127.96308239 494.70348002 122.35173225 500.76124524 116.55908203 506.7578125 C115.62298096 507.73621094 115.62298096 507.73621094 114.66796875 508.734375 C113.82697632 509.60340454 113.82697632 509.60340454 112.96899414 510.48999023 C111.44867348 512.30904057 110.47884147 514.08322913 109.5078125 516.23828125 C121.69406223 514.45067396 133.64852144 502.46770785 141.0078125 493.05078125 C145.89193578 486.0118977 150.04007164 478.02055707 149.5078125 469.23828125 C149.1778125 469.23828125 148.8478125 469.23828125 148.5078125 469.23828125 Z M-21.4921875 492.23828125 C-20.4921875 495.23828125 -20.4921875 495.23828125 -20.4921875 495.23828125 Z " fill="#CC6899" transform="translate(376.4921875,-0.23828125)"/>
<path d="M0 0 C0.33 0 0.66 0 1 0 C2.89042925 11.07251418 3.52423179 20.0015615 1 31 C0.67 31 0.34 31 0 31 C0 20.77 0 10.54 0 0 Z " fill="#B87295" transform="translate(677,427)"/>
<path d="M0 0 C0.33 0 0.66 0 1 0 C1 7.92 1 15.84 1 24 C0.34 24 -0.32 24 -1 24 C-1.22297226 21.12546578 -1.42878171 18.2513818 -1.625 15.375 C-1.68945312 14.56675781 -1.75390625 13.75851562 -1.8203125 12.92578125 C-2.13273892 8.12222508 -1.92020113 4.52932939 0 0 Z " fill="#B27392" transform="translate(527,340)"/>
<path d="M0 0 C1.8125 1.5 1.8125 1.5 3 3 C-2.38490641 3.91657981 -7.54230189 4.11138159 -13 4 C-13 3.34 -13 2.68 -13 2 C-3.68421053 -0.52631579 -3.68421053 -0.52631579 0 0 Z " fill="#BA6E94" transform="translate(337,292)"/>
<path d="M0 0 C-1.79061272 1.79061272 -4.39677742 1.17289466 -6.8125 1.1875 C-7.87082031 1.20167969 -8.92914063 1.21585938 -10.01953125 1.23046875 C-12.9204626 1.00615034 -14.54818353 0.50196021 -17 -1 C-4.54918033 -3.03278689 -4.54918033 -3.03278689 0 0 Z " fill="#B67193" transform="translate(306,567)"/>
<path d="M0 0 C0 0.66 0 1.32 0 2 C-0.9075 2.598125 -1.815 3.19625 -2.75 3.8125 C-6.06873749 5.80667165 -6.06873749 5.80667165 -8.125 8.6875 C-10.19190463 11.23668238 -10.91806366 11.41814065 -14 12 C-3.93659942 0 -3.93659942 0 0 0 Z " fill="#C46A92" transform="translate(626,414)"/>
<path d="M0 0 C0 3.29052817 -0.14241486 4.33476915 -2 7 C-3.72274077 8.12869223 -5.49091333 9.09065327 -7.3125 10.05078125 C-9.20596038 11.11585271 -10.59431882 12.34625743 -12 14 C-12.66 13.67 -13.32 13.34 -14 13 C-9.38 8.71 -4.76 4.42 0 0 Z " fill="#C06990" transform="translate(450,197)"/>
<path d="M0 0 C0.9867097 3.11074833 0.96838493 5.16442757 0.22265625 8.328125 C0.03896484 9.12734375 -0.14472656 9.9265625 -0.33398438 10.75 C-0.53314453 11.575 -0.73230469 12.4 -0.9375 13.25 C-1.23043945 14.51070313 -1.23043945 14.51070313 -1.52929688 15.796875 C-2.01142286 17.86648898 -2.50463863 19.93351395 -3 22 C-3.33 22 -3.66 22 -4 22 C-5.63487605 16.20362129 -3.99920012 12.39970874 -2 7 C-1.29344957 4.67604498 -0.64759637 2.34130996 0 0 Z " fill="#BE6C93" transform="translate(402,447)"/>
<path d="M0 0 C0 0.33 0 0.66 0 1 C-9.405 2.98 -9.405 2.98 -19 5 C-18.67 4.01 -18.34 3.02 -18 2 C-11.88019467 0.59545452 -6.28260706 -0.23268915 0 0 Z " fill="#BC7192" transform="translate(701,403)"/>
<path d="M0 0 C0 4.15560231 -2.2820452 5.84099329 -5 8.6875 C-5.47695313 9.19861328 -5.95390625 9.70972656 -6.4453125 10.23632812 C-7.62359915 11.49709484 -8.81095253 12.74937686 -10 14 C-10.33 13.01 -10.66 12.02 -11 11 C-7.37 7.37 -3.74 3.74 0 0 Z " fill="#BF6C91" transform="translate(66,509)"/>
<path d="M0 0 C0.33 0.66 0.66 1.32 1 2 C0.38511719 2.68835938 0.38511719 2.68835938 -0.2421875 3.390625 C-1.05042969 4.31101563 -1.05042969 4.31101563 -1.875 5.25 C-2.40867187 5.85328125 -2.94234375 6.4565625 -3.4921875 7.078125 C-4.9797487 8.97418746 -6.00322436 10.81290005 -7 13 C-7.99 13 -8.98 13 -10 13 C-8.48446596 9.52224821 -6.4226544 7.0442016 -3.875 4.25 C-3.15054688 3.45078125 -2.42609375 2.6515625 -1.6796875 1.828125 C-0.84824219 0.92320312 -0.84824219 0.92320312 0 0 Z " fill="#BA6F90" transform="translate(59,149)"/>
<path d="M0 0 C2.54648079 0.61843105 4.82030192 0.62818682 7.4375 0.59375 C8.77554687 0.58021484 8.77554687 0.58021484 10.140625 0.56640625 C10.81609375 0.55480469 11.4915625 0.54320312 12.1875 0.53125 C12.5175 1.19125 12.8475 1.85125 13.1875 2.53125 C10.77053128 2.58536124 8.35478213 2.62497278 5.9375 2.65625 C5.25558594 2.67300781 4.57367188 2.68976562 3.87109375 2.70703125 C0.1266765 2.74338482 -2.63602727 2.61069349 -5.8125 0.53125 C-3.64221664 -0.16634108 -2.23607862 -0.57829619 0 0 Z " fill="#B47493" transform="translate(466.8125,541.46875)"/>
<path d="M0 0 C2.40672398 2.40672398 2.79132175 4.11378549 3.6875 7.375 C4.09548828 8.80972656 4.09548828 8.80972656 4.51171875 10.2734375 C4.9947433 12.97064661 4.9004538 14.44972144 4 17 C1.73707872 11.29350287 0 6.21539617 0 0 Z " fill="#BC7095" transform="translate(557,439)"/>
<path d="M0 0 C2.13636877 4.27273753 1.28095666 9.5393637 0 14 C-0.33 14.99 -0.66 15.98 -1 17 C-1.33 17 -1.66 17 -2 17 C-2.11116338 11.55299453 -2.00581962 6.36437132 -1 1 C-0.67 0.67 -0.34 0.34 0 0 Z " fill="#B36B8B" transform="translate(579,480)"/>
<path d="M0 0 C1.32 0.33 2.64 0.66 4 1 C0.37 3.31 -3.26 5.62 -7 8 C-4.98417794 3.96835588 -3.71998812 2.39142094 0 0 Z " fill="#BE6C92" transform="translate(155,480)"/>
<path d="M0 0 C0.66 0 1.32 0 2 0 C2.6875 1.8125 2.6875 1.8125 3 4 C1.6875 5.5 1.6875 5.5 0 7 C-1.17574711 9.09989652 -1.17574711 9.09989652 -2 11 C-3 9 -3 9 -2.44140625 6.8359375 C-2.15136719 6.02382813 -1.86132812 5.21171875 -1.5625 4.375 C-1.27503906 3.55773437 -0.98757813 2.74046875 -0.69140625 1.8984375 C-0.46324219 1.27195312 -0.23507812 0.64546875 0 0 Z " fill="#B86A8D" transform="translate(841,475)"/>
<path d="M0 0 C0.66 0.99 1.32 1.98 2 3 C0.79618552 5.49361571 -0.45428722 7.68143083 -2 10 C-2.66 10 -3.32 10 -4 10 C-2.99806563 6.20696275 -2.18975773 3.28463659 0 0 Z " fill="#C06F95" transform="translate(586,460)"/>
<path d="M0 0 C-4.74963401 3.68096635 -8.00708997 4.58669586 -14 5 C-10.63156097 2.05261585 -4.40469071 -2.20234535 0 0 Z " fill="#C36B92" transform="translate(250,31)"/>
<path d="M0 0 C0.33 0 0.66 0 1 0 C1.125 2.875 1.125 2.875 1 6 C0.34 6.66 -0.32 7.32 -1 8 C-1.33 8.845625 -1.66 9.69125 -2 10.5625 C-3 13 -3 13 -5 14 C-3.45730076 9.27934033 -1.92205381 4.58335908 0 0 Z " fill="#C06D92" transform="translate(474,333)"/>
<path d="M0 0 C0 0.66 0 1.32 0 2 C-0.78375 2.309375 -1.5675 2.61875 -2.375 2.9375 C-4.92330128 3.92875038 -4.92330128 3.92875038 -7 5 C-7.33 4.34 -7.66 3.68 -8 3 C-8.99 2.34 -9.98 1.68 -11 1 C-7.27569643 0.30710631 -3.78916254 -0.11144596 0 0 Z " fill="#BD7095" transform="translate(314,264)"/>
<path d="M0 0 C0.33 0 0.66 0 1 0 C1.58305225 3.84814487 0.7002883 5.76308635 -1.5 8.8125 C-2.32219744 9.88364055 -3.15204049 10.9491359 -4 12 C-4.33 11.34 -4.66 10.68 -5 10 C-4.00390625 7.6171875 -4.00390625 7.6171875 -2.5625 4.875 C-1.85287109 3.50988281 -1.85287109 3.50988281 -1.12890625 2.1171875 C-0.75636719 1.41851562 -0.38382813 0.71984375 0 0 Z " fill="#BE6B92" transform="translate(18,204)"/>
<path d="M0 0 C3.09537351 1.06737018 3.98455997 1.97518567 5.75 4.8125 C6.94728978 7.86558893 7.28472808 9.77308179 7 13 C5.43415689 10.65123533 4.17485037 8.45454353 2.9375 5.9375 C2.59589844 5.24527344 2.25429688 4.55304688 1.90234375 3.83984375 C1.60457031 3.23269531 1.30679687 2.62554687 1 2 C0.67 1.34 0.34 0.68 0 0 Z " fill="#BC6084" transform="translate(486,82)"/>
<path d="M0 0 C0.99 0 1.98 0 3 0 C2.34 2.97 1.68 5.94 1 9 C0.67 9 0.34 9 0 9 C-0.87890625 2.84765625 -0.87890625 2.84765625 -1 1 C-0.67 0.67 -0.34 0.34 0 0 Z " fill="#BE6F96" transform="translate(533,310)"/>
<path d="M0 0 C-1.60256108 0.50512244 -3.20711792 1.00391627 -4.8125 1.5 C-6.15248047 1.91765625 -6.15248047 1.91765625 -7.51953125 2.34375 C-10 3 -10 3 -13 3 C-12.67 2.01 -12.34 1.02 -12 0 C-3.96428571 -1.20535714 -3.96428571 -1.20535714 0 0 Z " fill="#BA6E96" transform="translate(319,65)"/>
<path d="M0 0 C0.66 0.66 1.32 1.32 2 2 C1.38245741 3.31602523 0.75571258 4.62773556 0.125 5.9375 C-0.22304688 6.66839844 -0.57109375 7.39929688 -0.9296875 8.15234375 C-2 10 -2 10 -4 11 C-3.5247412 9.35303396 -3.04468109 7.70745272 -2.5625 6.0625 C-2.29566406 5.14597656 -2.02882813 4.22945313 -1.75390625 3.28515625 C-1 1 -1 1 0 0 Z " fill="#BF6A93" transform="translate(601,275)"/>
<path d="M0 0 C0.66 0 1.32 0 2 0 C2 0.66 2 1.32 2 2 C2.66 2 3.32 2 4 2 C2.25 5.875 2.25 5.875 0 7 C0 4.69 0 2.38 0 0 Z " fill="#B0698C" transform="translate(192,505)"/>
<path d="M0 0 C-2.97 2.475 -2.97 2.475 -6 5 C-6.33 3.35 -6.66 1.7 -7 0 C-2.25 -1.125 -2.25 -1.125 0 0 Z " fill="#B6659B" transform="translate(114,178)"/>
<path d="M0 0 C0.33 0.66 0.66 1.32 1 2 C-2.625 6.875 -2.625 6.875 -6 8 C-4.55746343 4.63408134 -2.66735273 2.48952921 0 0 Z " fill="#C06A91" transform="translate(610,427)"/>
<path d="M0 0 C0.66 0.33 1.32 0.66 2 1 C0.02 3.31 -1.96 5.62 -4 8 C-4.99 7.67 -5.98 7.34 -7 7 C-4.69 4.69 -2.38 2.38 0 0 Z " fill="#BC6B8F" transform="translate(462,185)"/>
<path d="M0 0 C0.66 0 1.32 0 2 0 C1.1875 3.4375 1.1875 3.4375 0 7 C-0.99 7.33 -1.98 7.66 -3 8 C-1.125 2.25 -1.125 2.25 0 0 Z " fill="#BC698E" transform="translate(409,478)"/>
<path d="M0 0 C2.0625 0.4375 2.0625 0.4375 4 1 C3.01 2.98 2.02 4.96 1 7 C0.67 7 0.34 7 0 7 C-0.38133299 5.0085944 -0.71325582 3.00720923 -1 1 C-0.67 0.67 -0.34 0.34 0 0 Z " fill="#B77395" transform="translate(524,168)"/>
<path d="" fill="#240005" transform="translate(0,0)"/>
<path d="" fill="#260012" transform="translate(0,0)"/>
<path d="" fill="#160007" transform="translate(0,0)"/>
<path d="" fill="#0F0008" transform="translate(0,0)"/>
<path d="" fill="#30000F" transform="translate(0,0)"/>
<path d="" fill="#1B0007" transform="translate(0,0)"/>
<path d="" fill="#21000F" transform="translate(0,0)"/>
<path d="" fill="#874870" transform="translate(0,0)"/>
<path d="" fill="#CA2D49" transform="translate(0,0)"/>
<path d="" fill="#1A0006" transform="translate(0,0)"/>
<path d="" fill="#290013" transform="translate(0,0)"/>
<path d="" fill="#E12A3D" transform="translate(0,0)"/>
<path d="" fill="#DC243E" transform="translate(0,0)"/>
<path d="" fill="#1A0006" transform="translate(0,0)"/>
<path d="" fill="#14000C" transform="translate(0,0)"/>
<path d="" fill="#1A0008" transform="translate(0,0)"/>
<path d="" fill="#E43F3B" transform="translate(0,0)"/>
<path d="" fill="#19000B" transform="translate(0,0)"/>
<path d="" fill="#8D4963" transform="translate(0,0)"/>
<path d="" fill="#290000" transform="translate(0,0)"/>
<path d="" fill="#220003" transform="translate(0,0)"/>
<path d="" fill="#5B2C41" transform="translate(0,0)"/>
<path d="" fill="#190000" transform="translate(0,0)"/>
<path d="" fill="#A4394B" transform="translate(0,0)"/>
<path d="" fill="#50000C" transform="translate(0,0)"/>
<path d="" fill="#DC253C" transform="translate(0,0)"/>
<path d="" fill="#DC2042" transform="translate(0,0)"/>
<path d="" fill="#28000E" transform="translate(0,0)"/>
<path d="" fill="#C1245C" transform="translate(0,0)"/>
<path d="" fill="#AE173A" transform="translate(0,0)"/>
<path d="" fill="#20000B" transform="translate(0,0)"/>
<path d="" fill="#D20F41" transform="translate(0,0)"/>
<path d="" fill="#DC2455" transform="translate(0,0)"/>
<path d="" fill="#300000" transform="translate(0,0)"/>
<path d="" fill="#75293E" transform="translate(0,0)"/>
<path d="" fill="#1F000A" transform="translate(0,0)"/>
<path d="" fill="#130009" transform="translate(0,0)"/>
<path d="" fill="#10000C" transform="translate(0,0)"/>
<path d="" fill="#D33A30" transform="translate(0,0)"/>
<path d="" fill="#24000A" transform="translate(0,0)"/>
<path d="" fill="#803658" transform="translate(0,0)"/>
<path d="" fill="#2A0009" transform="translate(0,0)"/>
<path d="" fill="#D53E51" transform="translate(0,0)"/>
<path d="" fill="#24000C" transform="translate(0,0)"/>
<path d="" fill="#240005" transform="translate(0,0)"/>
<path d="" fill="#C12C3F" transform="translate(0,0)"/>
<path d="" fill="#1A0006" transform="translate(0,0)"/>
<path d="" fill="#230009" transform="translate(0,0)"/>
<path d="" fill="#D4413C" transform="translate(0,0)"/>
<path d="" fill="#29000F" transform="translate(0,0)"/>
<path d="" fill="#110007" transform="translate(0,0)"/>
<path d="" fill="#180010" transform="translate(0,0)"/>
<path d="" fill="#1F000C" transform="translate(0,0)"/>
<path d="" fill="#0B0000" transform="translate(0,0)"/>
<path d="" fill="#28000B" transform="translate(0,0)"/>
<path d="" fill="#23000C" transform="translate(0,0)"/>
<path d="" fill="#1B0003" transform="translate(0,0)"/>
<path d="" fill="#1D000A" transform="translate(0,0)"/>
<path d="" fill="#220005" transform="translate(0,0)"/>
<path d="" fill="#0C0005" transform="translate(0,0)"/>
<path d="" fill="#1A0005" transform="translate(0,0)"/>
<path d="" fill="#B61C33" transform="translate(0,0)"/>
<path d="" fill="#7C4B60" transform="translate(0,0)"/>
<path d="" fill="#1A0004" transform="translate(0,0)"/>
<path d="" fill="#784960" transform="translate(0,0)"/>
<path d="" fill="#270008" transform="translate(0,0)"/>
<path d="" fill="#160007" transform="translate(0,0)"/>
</svg>
