<?xml version="1.0" encoding="UTF-8"?>
<svg version="1.1" xmlns="http://www.w3.org/2000/svg" width="860" height="860">
<path d="M0 0 C1.49464804 1.29484266 2.97413455 2.60740533 4.4375 3.9375 C5.675 4.99904297 5.675 4.99904297 6.9375 6.08203125 C32.51482863 28.34522431 45.81202274 58.59780314 48.32421875 92.09375 C48.36160156 92.7021875 48.39898438 93.310625 48.4375 93.9375 C49.31535156 93.04611328 49.31535156 93.04611328 50.2109375 92.13671875 C72.60841518 70.51272754 102.93630377 60.49031657 133.74804688 60.63720703 C161.70729756 61.22632564 187.08628178 70.98761373 208.4375 88.9375 C209.74267578 89.99710938 209.74267578 89.99710938 211.07421875 91.078125 C233.24557758 109.87331145 247.47867461 138.89891959 250.27197266 167.6887207 C252.66466049 200.19469065 244.18241869 231.51832815 223.0859375 256.75 C221.23366129 258.84444659 219.36132397 260.90883548 217.4375 262.9375 C219.108125 263.08445312 219.108125 263.08445312 220.8125 263.234375 C254.97253374 266.47765487 285.46546222 279.95098226 307.76953125 306.73828125 C325.7339103 329.84408394 334.59950942 356.39934777 334.57794189 385.55393982 C334.58239858 387.44505284 334.58239858 387.44505284 334.5869453 389.37437016 C334.59497177 392.85796693 334.59680243 396.34154306 334.59754276 399.82514799 C334.59940099 403.58883611 334.60695224 407.3525137 334.61367798 411.11619568 C334.62723173 419.33974016 334.63328165 427.56327974 334.63768864 435.78683352 C334.64045656 440.92821845 334.64469495 446.06960152 334.64919281 451.21098518 C334.66138254 465.46421789 334.67168184 479.71744911 334.6750679 493.97068691 C334.67528747 494.88208888 334.67550703 495.79349084 334.67573325 496.73251105 C334.67595153 497.64601731 334.67616981 498.55952358 334.6763947 499.50071186 C334.67683816 501.35163017 334.67728472 503.20254848 334.67773438 505.0534668 C334.6779558 505.97157409 334.67817723 506.88968138 334.67840537 507.8356101 C334.68234945 522.69665044 334.69979288 537.55764164 334.7230939 552.41866302 C334.74685942 567.70015801 334.75927215 582.98162841 334.76043582 598.26314217 C334.76134976 606.83341371 334.76703076 615.40362123 334.78525543 623.97387505 C334.80072691 631.27484602 334.80573568 638.57573318 334.79751733 645.87671744 C334.79363535 649.59530657 334.7944188 653.31372729 334.80857468 657.03229523 C334.87486684 675.50957078 334.38720637 692.84889903 328.3125 710.5 C328.0131958 711.37785156 327.7138916 712.25570312 327.40551758 713.16015625 C317.46941912 741.08371301 296.21261543 764.19764226 269.6784668 777.16967773 C264.7193928 779.48051253 259.66993443 781.46344773 254.5 783.25 C253.84612305 783.48041992 253.19224609 783.71083984 252.51855469 783.94824219 C236.50452111 789.15375859 220.39843751 789.36944811 203.72924805 789.31845093 C201.25180957 789.32191266 198.77437264 789.32668067 196.2969389 789.33263266 C190.93610102 789.34250638 185.57538273 789.34318083 180.21455002 789.33549118 C172.24247612 789.32408731 164.27047808 789.32997405 156.2984046 789.3391161 C142.05570861 789.35487246 127.8130531 789.35356049 113.5703533 789.34487936 C101.10601042 789.33731987 88.64168235 789.33536856 76.17733765 789.3389473 C74.93507909 789.33929103 74.93507909 789.33929103 73.66772439 789.33964171 C70.30553944 789.34057579 66.94335449 789.34153099 63.58116956 789.342521 C32.06897785 789.35168913 0.55681187 789.34339169 -30.95537587 789.32723031 C-58.925668 789.31299448 -86.89591916 789.3142684 -114.86621094 789.32861328 C-146.32235308 789.34469216 -177.77847251 789.35103882 -209.23461819 789.34177649 C-212.59052467 789.3408144 -215.94643116 789.33987588 -219.30233765 789.3389473 C-220.12859124 789.33871006 -220.95484483 789.33847283 -221.80613641 789.33822841 C-234.25981211 789.33482218 -246.71347135 789.33879527 -259.16714478 789.34638596 C-273.33363923 789.35497781 -287.50008701 789.35278928 -301.66657567 789.33654372 C-309.58600796 789.32776055 -317.50533908 789.32712251 -325.42476866 789.33848225 C-331.34951945 789.34604045 -337.27418181 789.33779261 -343.19892251 789.32355852 C-345.58699015 789.32022167 -347.97507142 789.32187994 -350.36313021 789.32918589 C-366.56364405 789.37492728 -382.19354421 788.68610263 -397.625 783.25 C-398.36049072 782.99653809 -399.09598145 782.74307617 -399.85375977 782.48193359 C-416.78368144 776.43540345 -430.48466768 767.24870077 -443.5625 754.9375 C-444.46742188 754.12925781 -444.46742188 754.12925781 -445.390625 753.3046875 C-458.09669967 741.48922554 -466.2804957 725.18940624 -471.875 709 C-472.10541992 708.34612305 -472.33583984 707.69224609 -472.57324219 707.01855469 C-478.1031949 690.00643877 -478.00279636 672.81524328 -477.95467401 655.13378155 C-477.94781111 651.39472376 -477.95840028 647.65570599 -477.96661377 643.91665649 C-477.9798782 636.61366189 -477.9771058 629.31076036 -477.96837585 622.00776228 C-477.96156922 616.06487289 -477.96069538 610.12200938 -477.9639473 604.1791172 C-477.964407 603.32960837 -477.96486669 602.48009953 -477.96534032 601.604848 C-477.96629962 599.8784357 -477.96727226 598.1520234 -477.9682581 596.42561112 C-477.97679105 580.27683609 -477.96701168 564.12811233 -477.950857 547.97934572 C-477.93746302 534.16336951 -477.93977841 520.34746898 -477.95361328 506.53149414 C-477.96971886 490.44066923 -477.97595965 474.34988919 -477.96677649 458.25905734 C-477.96582097 456.5384816 -477.96487786 454.81790585 -477.9639473 453.09733009 C-477.96348447 452.25104905 -477.96302164 451.40476802 -477.96254479 450.5328421 C-477.95996924 444.60789427 -477.96429484 438.68297521 -477.97138596 432.75803185 C-477.97985705 425.52176433 -477.97740462 418.28559426 -477.96154372 411.04933771 C-477.95373448 407.36677787 -477.95044128 403.68437965 -477.96049118 400.00182152 C-478.06330203 358.77377958 -469.98691743 326.12508676 -440.5625 295.9375 C-419.38456506 274.68473136 -389.97139501 264.77952582 -360.5625 262.9375 C-361.38041016 262.09832031 -361.38041016 262.09832031 -362.21484375 261.2421875 C-384.53330062 237.51213593 -394.34973109 206.97455792 -393.75 174.734375 C-392.87402822 146.94417019 -381.78242248 119.96590871 -362.5625 99.9375 C-361.5962034 98.75647082 -360.63710619 97.56949031 -359.6875 96.375 C-342.41786189 76.22708887 -314.15068519 64.31954586 -288.30078125 61.21875 C-253.87059921 58.62839148 -222.11128994 67.54417283 -195.5625 89.9375 C-194.20345049 91.24461131 -192.85605827 92.56554426 -191.5625 93.9375 C-191.46453125 92.82375 -191.3665625 91.71 -191.265625 90.5625 C-188.48444553 61.26956558 -178.68256693 35.73933545 -158.5625 13.9375 C-157.59957031 12.85275391 -157.59957031 12.85275391 -156.6171875 11.74609375 C-117.49797181 -30.16735163 -44.96014251 -35.25044037 0 0 Z " fill="#261B0B" transform="translate(501.5625,47.0625)"/>
<path d="M0 0 C1.49464804 1.29484266 2.97413455 2.60740533 4.4375 3.9375 C5.675 4.99904297 5.675 4.99904297 6.9375 6.08203125 C32.51482863 28.34522431 45.81202274 58.59780314 48.32421875 92.09375 C48.36160156 92.7021875 48.39898438 93.310625 48.4375 93.9375 C49.31535156 93.04611328 49.31535156 93.04611328 50.2109375 92.13671875 C72.60841518 70.51272754 102.93630377 60.49031657 133.74804688 60.63720703 C161.70729756 61.22632564 187.08628178 70.98761373 208.4375 88.9375 C209.74267578 89.99710938 209.74267578 89.99710938 211.07421875 91.078125 C233.24557758 109.87331145 247.47867461 138.89891959 250.27197266 167.6887207 C252.66466049 200.19469065 244.18241869 231.51832815 223.0859375 256.75 C221.23366129 258.84444659 219.36132397 260.90883548 217.4375 262.9375 C219.108125 263.08445312 219.108125 263.08445312 220.8125 263.234375 C254.97253374 266.47765487 285.46546222 279.95098226 307.76953125 306.73828125 C325.7339103 329.84408394 334.59950942 356.39934777 334.57794189 385.55393982 C334.58239858 387.44505284 334.58239858 387.44505284 334.5869453 389.37437016 C334.59497177 392.85796693 334.59680243 396.34154306 334.59754276 399.82514799 C334.59940099 403.58883611 334.60695224 407.3525137 334.61367798 411.11619568 C334.62723173 419.33974016 334.63328165 427.56327974 334.63768864 435.78683352 C334.64045656 440.92821845 334.64469495 446.06960152 334.64919281 451.21098518 C334.66138254 465.46421789 334.67168184 479.71744911 334.6750679 493.97068691 C334.67528747 494.88208888 334.67550703 495.79349084 334.67573325 496.73251105 C334.67595153 497.64601731 334.67616981 498.55952358 334.6763947 499.50071186 C334.67683816 501.35163017 334.67728472 503.20254848 334.67773438 505.0534668 C334.6779558 505.97157409 334.67817723 506.88968138 334.67840537 507.8356101 C334.68234945 522.69665044 334.69979288 537.55764164 334.7230939 552.41866302 C334.74685942 567.70015801 334.75927215 582.98162841 334.76043582 598.26314217 C334.76134976 606.83341371 334.76703076 615.40362123 334.78525543 623.97387505 C334.80072691 631.27484602 334.80573568 638.57573318 334.79751733 645.87671744 C334.79363535 649.59530657 334.7944188 653.31372729 334.80857468 657.03229523 C334.87486684 675.50957078 334.38720637 692.84889903 328.3125 710.5 C328.0131958 711.37785156 327.7138916 712.25570312 327.40551758 713.16015625 C317.46941912 741.08371301 296.21261543 764.19764226 269.6784668 777.16967773 C264.7193928 779.48051253 259.66993443 781.46344773 254.5 783.25 C253.84612305 783.48041992 253.19224609 783.71083984 252.51855469 783.94824219 C236.50452111 789.15375859 220.39843751 789.36944811 203.72924805 789.31845093 C201.25180957 789.32191266 198.77437264 789.32668067 196.2969389 789.33263266 C190.93610102 789.34250638 185.57538273 789.34318083 180.21455002 789.33549118 C172.24247612 789.32408731 164.27047808 789.32997405 156.2984046 789.3391161 C142.05570861 789.35487246 127.8130531 789.35356049 113.5703533 789.34487936 C101.10601042 789.33731987 88.64168235 789.33536856 76.17733765 789.3389473 C74.93507909 789.33929103 74.93507909 789.33929103 73.66772439 789.33964171 C70.30553944 789.34057579 66.94335449 789.34153099 63.58116956 789.342521 C32.06897785 789.35168913 0.55681187 789.34339169 -30.95537587 789.32723031 C-58.925668 789.31299448 -86.89591916 789.3142684 -114.86621094 789.32861328 C-146.32235308 789.34469216 -177.77847251 789.35103882 -209.23461819 789.34177649 C-212.59052467 789.3408144 -215.94643116 789.33987588 -219.30233765 789.3389473 C-220.12859124 789.33871006 -220.95484483 789.33847283 -221.80613641 789.33822841 C-234.25981211 789.33482218 -246.71347135 789.33879527 -259.16714478 789.34638596 C-273.33363923 789.35497781 -287.50008701 789.35278928 -301.66657567 789.33654372 C-309.58600796 789.32776055 -317.50533908 789.32712251 -325.42476866 789.33848225 C-331.34951945 789.34604045 -337.27418181 789.33779261 -343.19892251 789.32355852 C-345.58699015 789.32022167 -347.97507142 789.32187994 -350.36313021 789.32918589 C-366.56364405 789.37492728 -382.19354421 788.68610263 -397.625 783.25 C-398.36049072 782.99653809 -399.09598145 782.74307617 -399.85375977 782.48193359 C-416.78368144 776.43540345 -430.48466768 767.24870077 -443.5625 754.9375 C-444.46742188 754.12925781 -444.46742188 754.12925781 -445.390625 753.3046875 C-458.09669967 741.48922554 -466.2804957 725.18940624 -471.875 709 C-472.10541992 708.34612305 -472.33583984 707.69224609 -472.57324219 707.01855469 C-478.1031949 690.00643877 -478.00279636 672.81524328 -477.95467401 655.13378155 C-477.94781111 651.39472376 -477.95840028 647.65570599 -477.96661377 643.91665649 C-477.9798782 636.61366189 -477.9771058 629.31076036 -477.96837585 622.00776228 C-477.96156922 616.06487289 -477.96069538 610.12200938 -477.9639473 604.1791172 C-477.964407 603.32960837 -477.96486669 602.48009953 -477.96534032 601.604848 C-477.96629962 599.8784357 -477.96727226 598.1520234 -477.9682581 596.42561112 C-477.97679105 580.27683609 -477.96701168 564.12811233 -477.950857 547.97934572 C-477.93746302 534.16336951 -477.93977841 520.34746898 -477.95361328 506.53149414 C-477.96971886 490.44066923 -477.97595965 474.34988919 -477.96677649 458.25905734 C-477.96582097 456.5384816 -477.96487786 454.81790585 -477.9639473 453.09733009 C-477.96348447 452.25104905 -477.96302164 451.40476802 -477.96254479 450.5328421 C-477.95996924 444.60789427 -477.96429484 438.68297521 -477.97138596 432.75803185 C-477.97985705 425.52176433 -477.97740462 418.28559426 -477.96154372 411.04933771 C-477.95373448 407.36677787 -477.95044128 403.68437965 -477.96049118 400.00182152 C-478.06330203 358.77377958 -469.98691743 326.12508676 -440.5625 295.9375 C-419.38456506 274.68473136 -389.97139501 264.77952582 -360.5625 262.9375 C-361.38041016 262.09832031 -361.38041016 262.09832031 -362.21484375 261.2421875 C-384.53330062 237.51213593 -394.34973109 206.97455792 -393.75 174.734375 C-392.87402822 146.94417019 -381.78242248 119.96590871 -362.5625 99.9375 C-361.5962034 98.75647082 -360.63710619 97.56949031 -359.6875 96.375 C-342.41786189 76.22708887 -314.15068519 64.31954586 -288.30078125 61.21875 C-253.87059921 58.62839148 -222.11128994 67.54417283 -195.5625 89.9375 C-194.20345049 91.24461131 -192.85605827 92.56554426 -191.5625 93.9375 C-191.46453125 92.82375 -191.3665625 91.71 -191.265625 90.5625 C-188.48444553 61.26956558 -178.68256693 35.73933545 -158.5625 13.9375 C-157.59957031 12.85275391 -157.59957031 12.85275391 -156.6171875 11.74609375 C-117.49797181 -30.16735163 -44.96014251 -35.25044037 0 0 Z M-120.125 53.375 C-132.3146159 67.40053003 -136.66831388 84.58202757 -135.72216797 102.81005859 C-134.91558387 113.55711342 -131.13050692 125.95409666 -123.62889862 134.01535606 C-117.33151746 140.84537151 -116.43230086 145.90147947 -116.65429688 155.00634766 C-116.65312866 156.27577209 -116.65196045 157.54519653 -116.65075684 158.85308838 C-116.64847919 162.30372856 -116.69521167 165.75210371 -116.7513485 169.20222139 C-116.80166335 172.81888852 -116.80608198 176.43561866 -116.81555176 180.05258179 C-116.84032869 186.88802653 -116.90585505 193.72243676 -116.98634768 200.55742776 C-117.0760448 208.34454731 -117.11982204 216.1317186 -117.15991116 223.91922688 C-117.24333166 239.92591519 -117.38386947 255.93157373 -117.5625 271.9375 C-129.56620451 260.26178427 -141.52873737 248.54564089 -153.44480705 236.78056335 C-158.97945199 231.31791123 -164.52640782 225.86898657 -170.10498047 220.45117188 C-174.97098668 215.72532292 -179.81132529 210.97483276 -184.62329113 206.19394779 C-187.16909161 203.66629916 -189.72545694 201.15214983 -192.31301498 198.66720581 C-210.97925068 180.71363119 -210.97925068 180.71363119 -211.72705078 170.94140625 C-211.693987 168.60636067 -211.64179897 166.27143289 -211.5625 163.9375 C-215.41865289 148.08966528 -225.92236411 134.00977271 -239.75 125.4375 C-241.3403348 124.57806392 -242.9440275 123.7426968 -244.5625 122.9375 C-245.26503906 122.56238281 -245.96757812 122.18726563 -246.69140625 121.80078125 C-262.17985741 114.1278653 -279.51970129 114.20862079 -295.69775391 119.30029297 C-311.53556871 124.71227211 -323.88726654 135.95714457 -331.8125 150.5625 C-339.31282231 166.58777881 -341.03176934 183.29776246 -335.875 200.34375 C-329.58100794 217.5772997 -317.66120638 230.49571364 -301.5625 239.25 C-294.74967837 242.38693815 -287.74418337 243.83461154 -280.31355286 244.4871521 C-272.68654756 245.65485627 -268.93666373 249.05895434 -263.7331543 254.51806641 C-262.82957845 255.42031637 -261.9260026 256.32256634 -260.99504566 257.25215721 C-258.57369123 259.67105041 -256.18672575 262.1212788 -253.80591583 264.58000183 C-251.55847847 266.89056708 -249.28078024 269.17075743 -247.00549316 271.45385742 C-240.39001408 278.12682065 -233.82285822 284.84755126 -227.25 291.5625 C-205.1296875 314.023125 -205.1296875 314.023125 -182.5625 336.9375 C-247.4075 337.4325 -247.4075 337.4325 -313.5625 337.9375 C-314.0575 336.4525 -314.0575 336.4525 -314.5625 334.9375 C-330.07493479 321.75946073 -347.58850923 317.79535213 -367.5625 318.9375 C-384.34882464 320.93825383 -399.05787641 330.73822816 -409.6796875 343.4765625 C-421.71118726 359.74232398 -424.37456228 377.77019364 -421.6875 397.375 C-421.27065011 400.44519057 -421.27065011 400.44519057 -420.5625 402.9375 C-419.9025 403.2675 -419.2425 403.5975 -418.5625 403.9375 C-417.7109375 406.00390625 -417.7109375 406.00390625 -416.9375 408.5 C-416.67710937 409.32628906 -416.41671875 410.15257812 -416.1484375 411.00390625 C-415.95507812 411.64199219 -415.76171875 412.28007812 -415.5625 412.9375 C-414.9025 412.9375 -414.2425 412.9375 -413.5625 412.9375 C-413.335625 413.96875 -413.10875 415 -412.875 416.0625 C-410.70851726 423.50324762 -404.31389211 428.16645882 -398.5625 432.9375 C-397.81613281 433.58203125 -397.06976563 434.2265625 -396.30078125 434.890625 C-392.95685856 437.39021914 -389.48286878 439.21537961 -385.75 441.0625 C-385.07646484 441.40925781 -384.40292969 441.75601562 -383.70898438 442.11328125 C-377.79585623 445.06701608 -372.26025778 446.9375 -365.5625 446.9375 C-366.43261719 448.33548828 -366.43261719 448.33548828 -367.3203125 449.76171875 C-383.03086863 475.27409793 -390.97102682 502.9381643 -384.5625 532.9375 C-379.85679806 552.05468078 -371.39790846 568.07441198 -358.5625 582.9375 C-357.96953125 583.63230469 -357.3765625 584.32710937 -356.765625 585.04296875 C-337.50749293 605.87416606 -307.75241595 612.31301513 -281.05053711 617.01147461 C-267.88134523 619.41439119 -254.99858853 622.47809407 -246.75 633.75 C-239.53075786 644.85523792 -237.09758634 654.8693222 -239.0234375 668.10546875 C-241.25519021 678.25337961 -246.17807888 687.56713022 -254.5625 693.9375 C-267.31811319 701.71873592 -279.08595096 704.16309245 -293.90625 701.2890625 C-305.91827214 697.25053782 -314.1582497 689.6907749 -319.80859375 678.4609375 C-322.50608977 672.23594668 -323.31125579 666.81934316 -324.5625 659.9375 C-344.6925 659.9375 -364.8225 659.9375 -385.5625 659.9375 C-385.5625 686.62567334 -378.04549923 707.18762509 -361.5625 727.9375 C-361.02109375 728.64648438 -360.4796875 729.35546875 -359.921875 730.0859375 C-352.22115765 739.6146029 -341.25949767 747.15969022 -330.5625 752.9375 C-329.81226563 753.36417969 -329.06203125 753.79085937 -328.2890625 754.23046875 C-323.24293241 756.95470841 -318.07375229 758.89247407 -312.625 760.625 C-311.67729736 760.92869507 -311.67729736 760.92869507 -310.71044922 761.23852539 C-285.31467511 768.96417364 -256.95239974 766.08845408 -233.39746094 753.93066406 C-223.79264149 748.73210026 -215.41157726 742.56663814 -207.5625 734.9375 C-206.87800781 734.31488281 -206.19351563 733.69226563 -205.48828125 733.05078125 C-190.09738643 718.62748689 -177.43822675 694.26005855 -176.41723633 672.89819336 C-176.39248601 669.22370258 -176.37684005 665.54958045 -176.375 661.875 C-176.36275391 660.61494141 -176.35050781 659.35488281 -176.33789062 658.05664062 C-176.29289216 629.03263032 -187.63507871 606.29151376 -206.5625 584.9375 C-205.144269 580.51761953 -202.99935109 577.99998888 -199.73046875 574.7421875 C-199.25684402 574.26806427 -198.7832193 573.79394104 -198.29524231 573.30545044 C-197.29604206 572.30858129 -196.29316998 571.31538052 -195.28686523 570.32568359 C-193.75650659 568.81890633 -192.23989228 567.29926508 -190.72460938 565.77734375 C-186.545101 561.6217124 -182.65847114 557.95177104 -177.5625 554.9375 C-176.51522055 553.30012908 -175.51636513 551.63099316 -174.5625 549.9375 C-173.15075667 548.39357096 -171.68970486 546.89356205 -170.1875 545.4375 C-169.38828125 544.65761719 -168.5890625 543.87773438 -167.765625 543.07421875 C-167.03859375 542.36910156 -166.3115625 541.66398437 -165.5625 540.9375 C-164.263125 539.6071875 -164.263125 539.6071875 -162.9375 538.25 C-160.967891 536.33222282 -158.98461366 534.45887266 -156.9375 532.625 C-156.36773437 532.11324219 -155.79796875 531.60148437 -155.2109375 531.07421875 C-153.5625 529.9375 -153.5625 529.9375 -150.5625 529.9375 C-150.326521 531.12263184 -150.09054199 532.30776367 -149.84741211 533.52880859 C-138.96057523 588.19360235 -138.96057523 588.19360235 -127.2890625 642.6953125 C-124.75861937 654.13592192 -122.44059474 665.60462933 -120.24563599 677.11425781 C-118.22948238 687.67458459 -116.03950047 698.1896186 -113.74902344 708.6940918 C-111.77738407 717.78922002 -109.98604538 726.91169058 -108.29858398 736.0637207 C-107.14889566 742.21693278 -105.78286103 748.268916 -104.19848633 754.32543945 C-103.64499358 756.59869047 -103.23702683 758.80726783 -102.9375 761.125 C-102.86573831 763.83674505 -102.86573831 763.83674505 -101.5625 764.9375 C-99.62943502 765.03146057 -97.69291162 765.05493517 -95.75756836 765.05102539 C-93.89575172 765.05091209 -93.89575172 765.05091209 -91.99632263 765.05079651 C-90.6316626 765.04568911 -89.26700298 765.0404731 -87.90234375 765.03515625 C-86.51371817 765.033292 -85.12509193 765.03186813 -83.73646545 765.03086853 C-80.07528885 765.02704387 -76.4141517 765.01721403 -72.75299072 765.00616455 C-69.01957737 764.99594932 -65.28615766 764.99137067 -61.55273438 764.98632812 C-54.22263823 764.97559171 -46.89257464 764.95851591 -39.5625 764.9375 C-39.31604736 763.7 -39.06959473 762.4625 -38.81567383 761.1875 C-30.40288727 718.9605577 -30.40288727 718.9605577 -26.8046875 701.8671875 C-25.81596819 697.16706924 -24.84667768 692.46307915 -23.8828125 687.7578125 C-23.73306976 687.02747299 -23.58332703 686.29713348 -23.42904663 685.54466248 C-22.53526489 681.18504162 -22.53526489 681.18504162 -21.64422607 676.82485962 C-19.88176661 668.18759655 -18.05133458 659.56792081 -16.1640625 650.95703125 C-13.69496485 639.67164409 -11.39131154 628.35585703 -9.11154175 617.03094482 C-5.25448401 597.89880682 -1.31388485 578.784897 2.77459717 559.70080566 C3.2561622 557.45144921 3.73587406 555.20169517 4.21368408 552.95153809 C4.87769078 549.82842657 5.5489868 546.70697701 6.22265625 543.5859375 C6.41802475 542.66245514 6.61339325 541.73897278 6.81468201 540.7875061 C7.09216026 539.51476334 7.09216026 539.51476334 7.37524414 538.21630859 C7.61193565 537.11493057 7.61193565 537.11493057 7.85340881 535.99130249 C8.4755651 533.80365413 9.36058996 531.93600988 10.4375 529.9375 C27.4375 546.9375 27.4375 546.9375 29.125 548.75 C30.38968271 550.16113777 30.38968271 550.16113777 32.4375 549.9375 C32.44108253 550.80163041 32.44108253 550.80163041 32.44473743 551.683218 C32.50420765 565.78469202 32.57995753 579.88600293 32.67321491 593.98729515 C32.71793458 600.80694393 32.75740203 607.62654326 32.78393555 614.44628906 C32.80960728 621.04056376 32.85066869 627.63464339 32.90068626 634.22877884 C32.91723692 636.73143343 32.92882401 639.23412644 32.93511391 641.73682785 C32.98313531 659.10446981 33.62442048 675.98863188 39.125 692.625 C39.37991211 693.40697754 39.63482422 694.18895508 39.89746094 694.99462891 C49.29400492 722.58364543 69.83744579 742.74013281 95.4375 755.9375 C118.30773615 766.63486852 145.38051927 768.83346576 169.4375 760.9375 C170.10394531 760.72851074 170.77039063 760.51952148 171.45703125 760.30419922 C186.61740731 755.46693774 199.58723355 747.54762229 211.4375 736.9375 C212.06914063 736.37675781 212.70078125 735.81601562 213.3515625 735.23828125 C232.43561139 717.24350456 243.87612584 691.00687012 244.69515991 664.94699097 C244.82031978 657.93181985 244.77572325 650.9180962 244.73046875 643.90234375 C244.72486169 641.32589466 244.72059685 638.74944234 244.71760559 636.17298889 C244.70739959 630.13150279 244.68386106 624.09020947 244.65355712 618.04879528 C244.61643333 610.47982817 244.60024718 602.91083261 244.58398438 595.34179688 C244.55495614 581.87356839 244.49482958 568.40570364 244.4375 554.9375 C209.7875 554.9375 175.1375 554.9375 139.4375 554.9375 C139.4375 575.0675 139.4375 595.1975 139.4375 615.9375 C153.9575 615.9375 168.4775 615.9375 183.4375 615.9375 C183.40922997 622.64263688 183.36566317 629.34433496 183.28491211 636.04858398 C183.26190974 638.3226013 183.24737873 640.59672246 183.24194336 642.87084961 C183.19027875 660.94154198 182.46726323 677.01308754 169.4375 690.9375 C159.92529219 699.65159448 148.32330526 702.60242295 135.68334961 702.47851562 C124.14625975 701.96639478 114.57643499 696.41281499 106.7265625 688.1328125 C99.76747513 679.61941121 96.33043768 669.22710904 96.29032898 658.34275818 C96.28665229 657.69358447 96.2829756 657.04441075 96.2791875 656.37556511 C96.26820587 654.2079695 96.26431623 652.04042193 96.26049805 649.87280273 C96.25422909 648.31519928 96.24758191 646.75759731 96.24058533 645.19999695 C96.21958934 640.09037305 96.20918533 634.98074901 96.19921875 629.87109375 C96.19516916 628.107814 96.19105218 626.3445344 96.18686867 624.58125496 C96.16782474 616.29349603 96.1535935 608.00574595 96.1452567 599.71796936 C96.1354948 590.17267914 96.10919936 580.62762147 96.06875581 571.08241314 C96.03852072 563.6911012 96.02378073 556.29985563 96.02047569 548.90848309 C96.01813315 544.50047762 96.00927731 540.09272078 95.98401451 535.68478203 C95.96059969 531.53225314 95.95655388 527.38013423 95.96677589 523.22755623 C95.96726817 521.711937 95.96103983 520.19629666 95.94721985 518.68074036 C95.82641495 504.63540361 98.61465366 491.76012715 108.1796875 480.97265625 C118.45790395 471.22754231 130.04627994 468.33873634 143.74609375 468.6015625 C154.57836629 469.1310333 163.97622596 474.20085381 171.4375 481.9375 C178.69110487 491.34387606 181.2463931 499.026431 182.4375 510.9375 C202.8975 510.9375 223.3575 510.9375 244.4375 510.9375 C244.4375 501.1144149 243.8131224 494.14175128 241.4375 484.9375 C241.03724609 483.34615234 241.03724609 483.34615234 240.62890625 481.72265625 C237.77720023 471.46918883 233.21113172 461.44726437 227.1875 452.65234375 C225.4375 449.9375 225.4375 449.9375 225.4375 446.9375 C226.40429688 446.70675781 227.37109375 446.47601563 228.3671875 446.23828125 C236.253455 444.28674702 243.3353241 442.01498452 250.4375 437.9375 C250.4375 437.2775 250.4375 436.6175 250.4375 435.9375 C251.0975 435.9375 251.7575 435.9375 252.4375 435.9375 C252.4375 435.2775 252.4375 434.6175 252.4375 433.9375 C253.2728125 433.8446875 253.2728125 433.8446875 254.125 433.75 C259.50452264 431.85989745 264.08407553 425.51244679 267.4375 420.9375 C267.4375 420.2775 267.4375 419.6175 267.4375 418.9375 C268.0975 418.9375 268.7575 418.9375 269.4375 418.9375 C270.118125 417.514375 270.118125 417.514375 270.8125 416.0625 C272.4375 412.9375 272.4375 412.9375 274.4375 410.9375 C275.04359623 408.90837478 275.04359623 408.90837478 275.4375 406.625 C275.96205927 404.03111634 276.48307753 401.82757773 277.5 399.375 C282.68023193 385.90639699 279.65159446 368.70156901 274.08203125 355.796875 C264.97604429 338.31728609 251.50731356 327.80016898 233.4453125 320.7734375 C217.27675516 315.87248669 199.89582965 318.23431778 184.9921875 325.65234375 C179.74688807 328.59718631 174.76006256 331.73500862 170.4375 335.9375 C170.4375 336.5975 170.4375 337.2575 170.4375 337.9375 C126.8775 337.9375 83.3175 337.9375 38.4375 337.9375 C38.4375 337.2775 38.4375 336.6175 38.4375 335.9375 C39.01867458 335.68108734 39.59984917 335.42467468 40.1986351 335.16049194 C42.6523813 333.82011994 44.28284667 332.34381087 46.25933838 330.36962891 C47.00528259 329.62932434 47.75122681 328.88901978 48.51977539 328.12628174 C49.32825928 327.31374939 50.13674316 326.50121704 50.96972656 325.6640625 C51.82862488 324.80866882 52.68752319 323.95327515 53.57244873 323.07196045 C55.92304731 320.72865275 58.26906038 318.38093599 60.61283588 316.03081512 C63.06553698 313.57304889 65.52311575 311.12016785 67.97991943 308.66650391 C72.1025231 304.547537 76.22089542 300.42437461 80.33691406 296.29882812 C85.10019469 291.52464907 89.87065716 286.75773728 94.64488626 281.99450874 C98.74203317 277.90642574 102.83528479 273.8144732 106.92528129 269.71923637 C109.36896104 267.27243383 111.81398333 264.82701403 114.26251984 262.3850708 C116.9883619 259.66605713 119.70601502 256.938951 122.42285156 254.2109375 C123.23943237 253.39840515 124.05601318 252.5858728 124.89733887 251.74871826 C125.99933624 250.63826141 125.99933624 250.63826141 127.12359619 249.50537109 C127.76734318 248.86087006 128.41109016 248.21636902 129.07434464 247.55233765 C130.65251558 246.03499663 130.65251558 246.03499663 130.4375 243.9375 C131.4584375 244.02451172 131.4584375 244.02451172 132.5 244.11328125 C148.17064823 244.84263323 162.02644024 238.69045133 173.6875 228.5 C175.28401452 226.99300966 176.86879105 225.47341364 178.4375 223.9375 C178.99179687 223.41929687 179.54609375 222.90109375 180.1171875 222.3671875 C190.84137317 211.2951904 195.97139635 194.16680193 195.85986328 179.14941406 C195.21072621 161.28753788 187.83625684 144.95722133 174.97265625 132.5625 C160.31871171 119.82368184 143.55065704 114.70731124 124.42529297 115.76464844 C107.55219952 117.23187395 91.66762486 126.77287902 80.70117188 139.36474609 C73.65162123 148.13854927 68.07549912 159.5061072 67.22137642 170.79365253 C66.36931045 179.98185871 63.5405001 184.38880313 56.94873047 190.64331055 C56.07061707 191.51981766 55.19250366 192.39632477 54.28778076 193.2993927 C51.89757696 195.67489734 49.48587094 198.02350524 47.06109381 200.36337638 C44.52357719 202.8241413 42.01844034 205.31743969 39.50979614 207.80757141 C34.76422546 212.50880806 29.99218304 217.18213619 25.20902836 221.84509736 C18.17471508 228.70503418 11.18064511 235.60581789 4.18736458 242.50754261 C3.15617942 243.52512372 2.12498482 244.54269525 1.09378052 245.56025696 C0.59064429 246.05684573 0.08750807 246.55343449 -0.43087471 247.0650714 C-3.42539525 250.01876953 -6.42789091 252.96405803 -9.43771005 255.90216386 C-10.85414597 257.28558272 -12.2682013 258.67143767 -13.68218994 260.05735779 C-15.40858557 261.74945252 -17.1387429 263.43772051 -18.87319946 265.12155151 C-19.62758301 265.86278763 -20.38196655 266.60402374 -21.15921021 267.36772156 C-21.82030352 268.01268428 -22.48139683 268.657647 -23.16252327 269.32215405 C-24.78081109 270.8331311 -24.78081109 270.8331311 -24.5625 272.9375 C-25.2225 272.9375 -25.8825 272.9375 -26.5625 272.9375 C-26.6188815 256.0297127 -26.62936673 239.12259504 -26.58584595 222.21478462 C-26.56669586 214.36338567 -26.56232533 206.51250737 -26.59326172 198.66113281 C-26.62020142 191.8144228 -26.61888701 184.96838741 -26.58424091 178.12170208 C-26.566881 174.49920141 -26.56326493 170.87790823 -26.59353638 167.25546646 C-26.62687763 163.20211113 -26.59710797 159.15148984 -26.5625 155.09814453 C-26.58191147 153.90915054 -26.60132294 152.72015656 -26.62132263 151.49513245 C-26.4661099 142.57166878 -23.52437292 138.34489696 -17.5625 131.9375 C-7.84007893 117.52884355 -5.89281169 100.57328785 -7.9609375 83.68359375 C-11.5942456 66.34280507 -22.17017126 51.06256744 -36.94921875 41.3984375 C-41.63405981 38.77940827 -46.52635787 36.77445348 -51.5625 34.9375 C-53.00882812 34.40576172 -53.00882812 34.40576172 -54.484375 33.86328125 C-78.69215252 26.58251568 -103.0070408 35.96591904 -120.125 53.375 Z " fill="#000000" transform="translate(501.5625,47.0625)"/>
<path d="M0 0 C12.48126869 9.43705682 22.71902462 24.29203434 25.27734375 39.96484375 C26.91399866 57.02641069 25.35877693 73.36379914 15.5625 87.9375 C14.18829846 89.44226508 12.80790178 90.94139217 11.421875 92.43527222 C6.57503605 98.46820878 6.43950041 103.56415664 6.5625 111.09814453 C6.55157822 112.37732254 6.54065643 113.65650055 6.52940369 114.97444153 C6.50060421 118.45164488 6.52036222 121.92701409 6.5494194 125.40415049 C6.57142961 129.04906662 6.54798518 132.69369708 6.52954102 136.33859253 C6.50149916 143.22690491 6.51382348 150.11451841 6.54096508 157.00281036 C6.56989859 164.85063289 6.55335387 172.69815863 6.53315353 180.54598451 C6.49264332 196.67669344 6.50870989 212.80682386 6.5625 228.9375 C7.2225 228.9375 7.8825 228.9375 8.5625 228.9375 C8.81905145 228.35396602 9.07560289 227.77043203 9.33992863 227.1692152 C10.67758825 224.72741475 12.12648112 223.16503307 14.12364197 221.23005676 C14.86250137 220.50868027 15.60136078 219.78730377 16.36260986 219.04406738 C17.17357117 218.26229126 17.98453247 217.48051514 18.82006836 216.67504883 C20.58986233 214.95126446 22.35954606 213.2273669 24.12913513 211.50337219 C25.06975737 210.59045221 26.0103796 209.67753223 26.97950554 208.73694801 C29.927337 205.8737028 32.86093249 202.99616724 35.79115295 200.11491394 C36.28685647 199.62758704 36.78255999 199.14026015 37.29328483 198.63816577 C38.30695265 197.64150624 39.32057194 196.64479734 40.33414376 195.64804018 C47.1520371 188.94369059 53.97695991 182.24742333 60.84838867 175.59790039 C65.48766059 171.10824391 70.10095562 166.59358412 74.68667513 162.04922312 C77.1096206 159.65007334 79.54326701 157.26490163 82.00919914 154.90989113 C93.56754972 143.82139164 100.90921988 136.23342326 101.5625 119.9375 C105.93228946 103.08131875 116.63443087 89.77941527 131.0625 80.4375 C146.11162966 71.74766643 163.52999623 69.37729803 180.375 73.5625 C199.13477873 79.25991428 213.10875185 90.3737378 222.375 107.6875 C229.88431953 123.04567279 230.77172574 140.09654037 225.8828125 156.3359375 C222.03114978 166.8425441 216.49674999 175.10034747 208.5625 182.9375 C207.94890625 183.57300781 207.3353125 184.20851563 206.703125 184.86328125 C196.83562987 194.37234172 182.47392103 200.06137932 168.875 200.125 C167.10369455 200.07773518 165.33247206 200.02090182 163.5625 199.9375 C163.30608734 200.51867458 163.04967468 201.09984917 162.78549194 201.6986351 C161.44511994 204.1523813 159.96881087 205.78284667 157.99462891 207.75933838 C157.25432434 208.50528259 156.51401978 209.25122681 155.75128174 210.01977539 C154.93874939 210.82825928 154.12621704 211.63674316 153.2890625 212.46972656 C152.43366882 213.32862488 151.57827515 214.18752319 150.69696045 215.07244873 C148.35365275 217.42304731 146.00593599 219.76906038 143.65581512 222.11283588 C141.19804889 224.56553698 138.74516785 227.02311575 136.29150391 229.47991943 C132.172537 233.6025231 128.04937461 237.72089542 123.92382812 241.83691406 C119.14964907 246.60019469 114.38273728 251.37065716 109.61950874 256.14488626 C105.53142574 260.24203317 101.4394732 264.33528479 97.34423637 268.42528129 C94.89743383 270.86896104 92.45201403 273.31398333 90.0100708 275.76251984 C87.29105713 278.4883619 84.563951 281.20601502 81.8359375 283.92285156 C81.02340515 284.73943237 80.2108728 285.55601318 79.37371826 286.39733887 C78.6334137 287.13200378 77.89310913 287.8666687 77.13037109 288.62359619 C76.16361954 289.58921667 76.16361954 289.58921667 75.17733765 290.57434464 C73.5625 291.9375 73.5625 291.9375 71.5625 291.9375 C71.5625 292.5975 71.5625 293.2575 71.5625 293.9375 C115.1225 293.9375 158.6825 293.9375 203.5625 293.9375 C203.8925 292.9475 204.2225 291.9575 204.5625 290.9375 C206.471225 289.35725326 208.33400698 287.95081774 210.375 286.5625 C210.95596436 286.16474365 211.53692871 285.7669873 212.13549805 285.35717773 C227.24492549 275.32039102 243.2779527 273.28298248 260.96875 275.33203125 C277.41245632 278.8330951 291.58058237 288.52712853 301.5 301.9375 C308.9672224 313.47444945 312.5625 325.18540222 312.5625 338.9375 C80.9025 338.9375 -150.7575 338.9375 -389.4375 338.9375 C-389.4375 320.71356805 -383.0932829 305.56820918 -370.25390625 292.59375 C-355.95387651 279.1068981 -339.81261108 274.35056009 -320.640625 274.75390625 C-316.00754376 274.91734316 -311.83661803 275.43459847 -307.4375 276.9375 C-306.42429687 277.2675 -305.41109375 277.5975 -304.3671875 277.9375 C-296.83354631 280.59437578 -290.72843708 284.04841078 -284.4375 288.9375 C-283.68597656 289.46085937 -282.93445313 289.98421875 -282.16015625 290.5234375 C-281.59167969 290.99007813 -281.02320313 291.45671875 -280.4375 291.9375 C-280.4375 292.5975 -280.4375 293.2575 -280.4375 293.9375 C-237.2075 293.6075 -193.9775 293.2775 -149.4375 292.9375 C-164.101875 277.984375 -178.76625 263.03125 -193.875 247.625 C-198.47107178 242.90147217 -203.06714355 238.17794434 -207.80249023 233.3112793 C-211.99012263 229.07679806 -211.99012263 229.07679806 -216.18714905 224.85163879 C-218.03988585 222.9775196 -219.87810084 221.09573987 -221.70240784 219.1945343 C-232.87030409 207.57664853 -240.77705957 199.51689555 -257.4375 198.9375 C-274.63064586 194.4088928 -288.53417806 182.498513 -297.90234375 167.609375 C-306.59895281 151.64356384 -307.75822089 133.93007699 -302.69140625 116.69140625 C-297.11966073 100.01088462 -286.27813715 87.07954397 -270.8125 78.6875 C-253.52599804 70.57614139 -235.503084 69.79887936 -217.4375 75.9375 C-208.39634763 79.7062741 -201.28393815 84.99412113 -194.4375 91.9375 C-193.80199219 92.56269531 -193.16648437 93.18789062 -192.51171875 93.83203125 C-183.3117685 103.52155757 -177.43728691 116.29150492 -177.40211487 129.66436768 C-176.79178937 137.18049791 -173.1658334 140.70202656 -167.87866211 145.74511719 C-166.98118759 146.644198 -166.08371307 147.54327881 -165.15904236 148.46960449 C-162.71623925 150.91554262 -160.24122011 153.32624935 -157.75862956 155.73170376 C-155.16303003 158.2581765 -152.59888922 160.8161899 -150.03114319 163.37091064 C-145.17262407 168.1953453 -140.28677583 172.9910721 -135.39028221 177.77692723 C-129.81357814 183.23034896 -124.26836487 188.71533004 -118.72547519 194.20308447 C-107.33063757 205.48318204 -95.8972259 216.72332174 -84.4375 227.9375 C-84.25026367 211.16046287 -84.10937279 194.38376683 -84.02300262 177.60593605 C-83.98182563 169.81489674 -83.92573103 162.0245082 -83.83398438 154.23388672 C-83.75401593 147.4401429 -83.70258033 140.64687054 -83.68479204 133.85266912 C-83.67440019 130.25794218 -83.65014225 126.66456344 -83.59165955 123.07027054 C-83.52675557 119.04836589 -83.52559516 115.02877487 -83.52929688 111.00634766 C-83.48615356 109.23688278 -83.48615356 109.23688278 -83.44213867 107.43167114 C-83.53061003 98.52134143 -86.48921001 94.3295571 -92.4375 87.9375 C-102.16038151 73.52949675 -104.10713123 56.57282172 -102.0390625 39.68359375 C-98.42840843 22.45092661 -88.22051473 7.6458901 -73.625 -2 C-50.43884474 -16.52785119 -22.54468278 -15.2045535 0 0 Z " fill="#FEB03C" transform="translate(468.4375,91.0625)"/>
<path d="M0 0 C1.62035156 0.36738281 1.62035156 0.36738281 3.2734375 0.7421875 C29.52891562 7.40930891 52.75199527 25.09698208 67 48 C72.39374708 57.19115847 76.39607656 66.64720293 79 77 C79.29777344 78.15371094 79.59554687 79.30742188 79.90234375 80.49609375 C81.80628589 88.50668901 82 94.33465841 82 103 C61.54 103 41.08 103 20 103 C19.34 98.71 18.68 94.42 18 90 C13.24881479 76.6337139 5.18565326 69.41830803 -7.078125 62.89453125 C-16.05000527 59.13269956 -28.88437242 59.54992792 -38 62.5625 C-51.20397051 68.35442571 -58.81906432 77.0383583 -64.0546875 90.30078125 C-65.64930478 94.85400662 -66.12927305 98.61234243 -66.14717102 103.46775818 C-66.15084771 104.1153719 -66.1545244 104.76298562 -66.1583125 105.430224 C-66.16931823 107.59859167 -66.17318796 109.76691136 -66.17700195 111.93530273 C-66.18326924 113.49113618 -66.18991627 115.04696813 -66.19691467 116.60279846 C-66.21793592 121.713053 -66.22831914 126.82330775 -66.23828125 131.93359375 C-66.24233032 133.69653908 -66.24644729 135.45948426 -66.25063133 137.22242928 C-66.26968322 145.51072763 -66.28391107 153.79901711 -66.2922433 162.08733314 C-66.30199896 171.63262352 -66.32827466 181.17768098 -66.36874419 190.72288936 C-66.39899442 198.11334751 -66.41372082 205.50373927 -66.41702431 212.89425808 C-66.41936576 217.30175148 -66.42820657 221.70899607 -66.45348549 226.11642265 C-66.47692594 230.27058285 -66.48093602 234.42433328 -66.47072411 238.57854271 C-66.4702324 240.09374105 -66.4764437 241.60896067 -66.49028015 243.12409592 C-66.6135206 257.43352614 -64.03257912 270.95884592 -54.2578125 281.9609375 C-44.61294814 291.12555965 -33.44806147 294.50895748 -20.5 294.26953125 C-8.32050659 293.74747948 1.78651442 288.67243622 10.0625 279.78515625 C21.16781009 265.40090761 20.77115922 248.85923315 20.8125 231.5625 C20.83568772 229.27015895 20.86106177 226.97783892 20.88867188 224.68554688 C20.9550097 219.12322116 20.97654405 213.56332415 21 208 C6.48 208 -8.04 208 -23 208 C-23 187.87 -23 167.74 -23 147 C11.65 147 46.3 147 82 147 C82.12049101 175.30646096 82.12049101 175.30646096 82.1507616 189.39500523 C82.16731768 196.98238902 82.18826015 204.56967272 82.22631836 212.15698242 C82.25970393 218.8159941 82.27690052 225.4748751 82.28463173 232.13397408 C82.29013476 234.66262068 82.30087965 237.191262 82.31719017 239.71986198 C82.42428097 257.02500927 82.32097032 273.85759101 75.4375 290.0625 C75.09090332 290.89483154 74.74430664 291.72716309 74.38720703 292.5847168 C65.99210857 312.05487316 52.7613654 328.30987881 35 340 C33.58847656 340.93392578 33.58847656 340.93392578 32.1484375 341.88671875 C24.19896905 346.82567422 15.87057237 350.14507907 7 353 C6.35498535 353.21317871 5.7099707 353.42635742 5.04541016 353.64599609 C-20.8520086 361.89887581 -48.75226365 357.24351358 -72.5859375 345.22265625 C-81.36195717 340.58999769 -88.69655372 334.67349943 -96 328 C-97.12535156 326.99839844 -97.12535156 326.99839844 -98.2734375 325.9765625 C-115.74045944 309.61417436 -127.26080308 283.1254623 -128.13422108 259.34568119 C-128.13849456 258.09199962 -128.14276804 256.83831804 -128.14717102 255.54664612 C-128.15084771 254.84126723 -128.1545244 254.13588834 -128.1583125 253.40913433 C-128.16923733 251.06905389 -128.17317394 248.729018 -128.17700195 246.38891602 C-128.18327522 244.7010535 -128.18992277 243.01319234 -128.19691467 241.32533264 C-128.2178598 235.80153345 -128.22831008 230.27773429 -128.23828125 224.75390625 C-128.24233277 222.84369328 -128.24644981 220.93348044 -128.25063133 219.02326775 C-128.2696643 210.04299358 -128.28389768 201.06272753 -128.2922433 192.0824371 C-128.30200018 181.75730786 -128.3282872 171.43239388 -128.36874419 161.1073404 C-128.39902915 153.10018385 -128.41372396 145.09308858 -128.41702431 137.08587593 C-128.4193612 132.31614627 -128.4281422 127.54664704 -128.45348549 122.77697945 C-128.47698832 118.28132029 -128.48091156 113.78603968 -128.47072411 109.2903347 C-128.47023394 107.6542598 -128.47639806 106.01816482 -128.49028015 104.38214874 C-128.72370766 75.20380694 -117.29945855 48.88253854 -97.25 27.8125 C-71.98872357 3.53491814 -34.4578806 -8.25850031 0 0 Z " fill="#FEFEFD" transform="translate(664,455)"/>
<path d="M0 0 C11.45018891 8.18509598 21.7154762 18.05796858 29.125 30.08203125 C29.70636719 30.98050781 30.28773438 31.87898438 30.88671875 32.8046875 C41.49173872 49.89694311 45.125 66.93325522 45.125 87.08203125 C24.995 87.08203125 4.865 87.08203125 -15.875 87.08203125 C-16.865 81.14203125 -16.865 81.14203125 -17.875 75.08203125 C-22.59540775 62.17107816 -29.52923488 54.20376058 -41.9453125 48.30859375 C-52.21330273 44.00972851 -64.20617742 43.1028908 -74.9375 46.64453125 C-86.70903564 51.78218463 -94.91626051 60.94588011 -99.9296875 72.56640625 C-103.78527707 82.82673552 -102.74570556 94.95231244 -98.875 105.08203125 C-93.52510375 115.75351743 -86.2300939 123.20601362 -74.875 127.08203125 C-68.56148408 129.10432932 -62.21368571 130.20782595 -55.65600586 131.05126953 C-37.20604079 133.43573969 -20.06473942 137.74089427 -3.875 147.08203125 C-2.88371094 147.63632812 -1.89242187 148.190625 -0.87109375 148.76171875 C21.00615242 161.76981107 36.16409328 184.55483372 42.71826172 208.84301758 C48.01334232 229.93338684 46.84957246 252.83943643 39.125 273.08203125 C38.80982422 273.92096924 38.49464844 274.75990723 38.16992188 275.62426758 C36.17639341 280.78315643 33.97552469 285.65374169 31.125 290.39453125 C30.55676514 291.34102539 30.55676514 291.34102539 29.97705078 292.30664062 C25.55754055 299.37927293 19.96423119 305.17672672 14.125 311.08203125 C13.23748047 312.07783203 13.23748047 312.07783203 12.33203125 313.09375 C0.53030181 326.10902488 -17.30579834 333.63325992 -33.875 338.08203125 C-34.89335937 338.38238281 -35.91171875 338.68273437 -36.9609375 338.9921875 C-60.97576145 345.2430194 -87.71056755 340.95266986 -109.33984375 329.19921875 C-116.32775179 325.04072038 -122.65363612 320.30068447 -128.875 315.08203125 C-129.885625 314.31890625 -130.89625 313.55578125 -131.9375 312.76953125 C-149.13878135 297.03218874 -160.60498647 273.97212598 -163.875 251.08203125 C-163.875 246.13203125 -163.875 241.18203125 -163.875 236.08203125 C-143.745 236.08203125 -123.615 236.08203125 -102.875 236.08203125 C-101.885 241.03203125 -100.895 245.98203125 -99.875 251.08203125 C-97.97062158 255.05286285 -96.24410476 258.4616835 -93.875 262.08203125 C-93.2975 262.98953125 -92.72 263.89703125 -92.125 264.83203125 C-82.75642876 274.20060249 -72.40583749 278.42858875 -59.3125 278.58203125 C-52.13419909 278.50468037 -46.16399465 277.79300052 -39.875 274.08203125 C-39.111875 273.65792969 -38.34875 273.23382812 -37.5625 272.796875 C-27.07597735 266.43764927 -20.75221805 257.56980859 -17.625 245.83203125 C-15.24441896 233.40972653 -17.01566435 222.85013824 -23.8125 212.20703125 C-33.56231068 198.57669891 -47.12679638 195.4105103 -62.88891602 192.57788086 C-74.48754424 190.47821261 -85.79283636 188.19029329 -96.875 184.08203125 C-97.49149414 183.86611328 -98.10798828 183.65019531 -98.74316406 183.42773438 C-124.12951091 174.52250849 -142.94481932 156.62967658 -154.83203125 132.6171875 C-166.94935729 106.67897861 -168.22277145 77.27068222 -158.72460938 50.265625 C-154.47155282 39.33478081 -148.22049831 29.18631084 -140.875 20.08203125 C-140.28589844 19.32921875 -139.69679687 18.57640625 -139.08984375 17.80078125 C-123.35361341 -1.17624388 -100.42852901 -11.6551868 -76.875 -16.91796875 C-76.08319336 -17.09521484 -75.29138672 -17.27246094 -74.47558594 -17.45507812 C-48.71755882 -22.03987154 -21.42916682 -14.29581645 0 0 Z " fill="#FDFDFD" transform="translate(279.875,470.91796875)"/>
<path d="M0 0 C20.13 0 40.26 0 61 0 C62.37252273 4.80382954 63.56066898 9.40497423 64.55078125 14.27734375 C64.68960724 14.95634735 64.82843323 15.63535095 64.97146606 16.33493042 C65.26739538 17.78388618 65.56210547 19.23309141 65.85568237 20.68252563 C66.32121772 22.98053299 66.79015435 25.27782345 67.26000977 27.57495117 C67.8888902 30.65034391 68.51674982 33.72594138 69.14355469 36.80175781 C70.23205359 42.14064278 71.32936888 47.4776538 72.4375 52.8125 C72.62876465 53.73401855 72.8200293 54.65553711 73.01708984 55.60498047 C74.27198478 61.61335692 75.56486569 67.61285981 76.875 73.609375 C80.33162709 89.44139357 83.69004056 105.27065884 86.71289062 121.19238281 C88.97259181 133.02703768 91.45015116 144.81129796 93.95336914 156.59643555 C94.2918867 158.19058029 94.63034697 159.78473719 94.96875 161.37890625 C95.13632309 162.16817001 95.30389618 162.95743378 95.47654724 163.77061462 C96.68496103 169.47645835 97.86529492 175.1876823 99.03125 180.90234375 C99.19331436 181.69570633 99.35537872 182.48906891 99.52235413 183.30647278 C100.29521666 187.09265474 101.06469273 190.87948676 101.82983398 194.66723633 C102.10390434 196.01255284 102.37806878 197.35785019 102.65234375 198.703125 C102.88945068 199.87520508 103.12655762 201.04728516 103.37084961 202.25488281 C103.87334107 204.94343156 103.87334107 204.94343156 105 207 C105.12528076 206.33806641 105.25056152 205.67613281 105.37963867 204.99414062 C108.98217389 186.00281664 112.80007861 167.06983465 116.91796875 148.18359375 C117.61230518 144.99746676 118.30635624 141.81127787 119 138.625 C119.17388245 137.82642578 119.34776489 137.02785156 119.5269165 136.20507812 C121.92625441 125.16773277 124.19093664 114.11586787 126.28613281 103.01611328 C130.04689603 83.0978807 134.42723192 63.3024953 138.68457031 43.48583984 C141.02600325 32.58180552 143.34324735 21.67364652 145.59179688 10.75 C145.76775391 9.89664062 145.94371094 9.04328125 146.125 8.1640625 C146.27195312 7.44686035 146.41890625 6.7296582 146.5703125 5.99072266 C147.00346403 3.98395129 147.50207775 1.99168899 148 0 C168.46 0 188.92 0 210 0 C207.525 12.375 207.525 12.375 205 25 C203.8408491 30.82078221 203.8408491 30.82078221 202.68188477 36.64160156 C200.48989772 47.63842306 198.26483272 58.62706351 195.96484375 69.60180664 C194.27705959 77.65550141 192.6141991 85.71414911 190.95755005 93.77429199 C189.6400374 100.18320499 188.31985454 106.59156898 187 113 C186.78375977 114.05058594 186.56751953 115.10117187 186.34472656 116.18359375 C184.27839717 126.20924519 182.17179927 136.22544575 180.0078125 146.23046875 C179.25461085 149.71601705 178.50200171 153.20169262 177.75 156.6875 C177.55879578 157.57378082 177.36759155 158.46006165 177.17059326 159.37319946 C173.67893539 175.58702613 170.38386645 191.83659574 167.18261719 208.11010742 C165.20851832 218.12104007 163.12627921 228.10050918 160.93814087 238.06686401 C158.6235146 248.6464816 156.46972784 259.25783527 154.3213501 269.87225342 C153.36402611 274.60181485 152.40311034 279.33064444 151.44235229 284.05950928 C150.96296646 286.41905561 150.48373676 288.77863366 150.00466919 291.13824463 C148.05883788 300.72007116 146.09844441 310.2988255 144.125 319.875 C143.75109131 321.69124878 143.75109131 321.69124878 143.36962891 323.54418945 C140.93162681 335.36664162 138.46435855 347.18301955 136 359 C127.93347826 359.02312737 119.86697028 359.04091709 111.80042362 359.05181217 C108.05516963 359.05704014 104.30993824 359.06413622 100.56469727 359.07543945 C96.95318313 359.08627141 93.34169079 359.09227749 89.73016167 359.09487724 C88.34939671 359.09673094 86.968633 359.10035049 85.58787727 359.10573006 C83.66024048 359.11294447 81.73258193 359.11340809 79.80493164 359.11352539 C78.70572891 359.115746 77.60652618 359.11796661 76.47401428 359.12025452 C74 359 74 359 73 358 C72.54386961 355.79947909 72.13771801 353.58859932 71.75 351.375 C70.54218941 344.67305922 69.16023293 338.02345317 67.6875 331.375 C65.70103481 322.37508108 63.85097934 313.35377196 62.0625 304.3125 C59.85698394 293.16393302 57.52743426 282.04837402 55.11621094 270.94262695 C53.40512642 263.01667949 51.81463949 255.07631178 50.38037109 247.09545898 C49.58756859 242.76156339 48.64324407 238.50630195 47.546875 234.23828125 C45.89873858 227.76759219 44.65738526 221.25029701 43.4375 214.6875 C40.81985084 200.80739724 37.90367543 186.99681878 34.9375 173.1875 C32.07180384 159.84235402 29.25973212 146.50308785 26.75708008 133.08447266 C25.08174906 124.19678661 23.13735582 115.37283955 21.17694092 106.54483032 C18.7950606 95.80531895 16.57050845 85.0415917 14.4375 74.25 C12.32885809 63.58622976 10.16910226 52.93840168 7.875 42.3125 C7.63305908 41.19061279 7.39111816 40.06872559 7.1418457 38.9128418 C6.66583911 36.70810324 6.18952599 34.50343084 5.71289062 32.29882812 C4.50770876 26.72197285 3.30919359 21.14385177 2.125 15.5625 C1.90956543 14.56710205 1.69413086 13.5717041 1.47216797 12.54614258 C1.27768066 11.62470459 1.08319336 10.7032666 0.8828125 9.75390625 C0.71152832 8.95283447 0.54024414 8.1517627 0.36376953 7.32641602 C0 5 0 5 0 0 Z " fill="#FEFEFD" transform="translate(326,453)"/>
<path d="M0 0 C4.92227036 4.11863438 9.51256299 8.41501001 14 13 C14.825 13.825 15.65 14.65 16.5 15.5 C22.5625 21.5625 22.5625 21.5625 24.3515625 23.359375 C25.69476826 24.69621485 27.06268552 26.00818882 28.4375 27.3125 C30 29 30 29 30 31 C31.09054687 30.94779297 31.09054687 30.94779297 32.203125 30.89453125 C49.19654012 30.43701623 63.24324798 36.88565168 76 48 C77.30859375 50.2421875 77.30859375 50.2421875 78 52 C78.66 52 79.32 52 80 52 C81.5078125 53.64453125 81.5078125 53.64453125 83.125 55.8125 C83.66382813 56.52019531 84.20265625 57.22789062 84.7578125 57.95703125 C86 60 86 60 86 63 C105.14 63 124.28 63 144 63 C144 63.33 144 63.66 144 64 C109.35 64 74.7 64 39 64 C39 84.13 39 104.26 39 125 C53.52 125 68.04 125 83 125 C83.11564444 131.70480763 83.21492426 138.40606851 83.2746582 145.11108398 C83.29959294 147.38529268 83.33355342 149.65942301 83.37719727 151.93334961 C83.71704395 170.11314826 83.14128563 185.98262866 70 200 C59.99544495 209.23977627 48.65178593 212.6711704 35.24560547 212.54125977 C23.53736602 212.02015692 14.0330421 206.32555324 6.06640625 197.97265625 C-1.33701926 189.16815236 -5.10503357 178.84015403 -5.14717102 167.40525818 C-5.15084771 166.75608447 -5.1545244 166.10691075 -5.1583125 165.43806511 C-5.16929413 163.2704695 -5.17318377 161.10292193 -5.17700195 158.93530273 C-5.18327091 157.37769928 -5.18991809 155.82009731 -5.19691467 154.26249695 C-5.21791066 149.15287305 -5.22831467 144.04324901 -5.23828125 138.93359375 C-5.24233084 137.170314 -5.24644782 135.4070344 -5.25063133 133.64375496 C-5.26967526 125.35599603 -5.2839065 117.06824595 -5.2922433 108.78046936 C-5.3020052 99.23517914 -5.32830064 89.69012147 -5.36874419 80.14491314 C-5.39897928 72.7536012 -5.41371927 65.36235563 -5.41702431 57.97098309 C-5.41936685 53.56297762 -5.42822269 49.15522078 -5.45348549 44.74728203 C-5.47690031 40.59475314 -5.48094612 36.44263423 -5.47072411 32.29005623 C-5.47023183 30.774437 -5.47646017 29.25879666 -5.49028015 27.74324036 C-5.57592207 17.78611444 -4.51297685 9.02595371 0 0 Z " fill="#281E0E" transform="translate(602,538)"/>
<path d="M0 0 C0.33 0 0.66 0 1 0 C1.12479479 6.02816454 1.21489727 12.05555613 1.2746582 18.0847168 C1.29960383 20.13009766 1.3335731 22.17539124 1.37719727 24.22045898 C1.70331655 39.91638813 1.01783936 52.37035626 -9.78125 64.78125 C-19.22308035 74.22308035 -30.31569746 78.31525382 -43.5625 78.5625 C-55.14918765 78.44891768 -64.6339836 73.97914859 -73 66 C-81.90266474 56.66569091 -85.60217921 46.45953408 -85.43945312 33.63671875 C-85.39755859 32.35410156 -85.35566406 31.07148437 -85.3125 29.75 C-85.28734004 28.40759447 -85.26454067 27.06514255 -85.24414062 25.72265625 C-85.18582934 22.48054876 -85.10403939 19.24090707 -85 16 C-80.60843128 16.83784428 -77.06666523 18.16601372 -73 20 C-73 20.66 -73 21.32 -73 22 C-72.32453125 22.06058594 -71.6490625 22.12117187 -70.953125 22.18359375 C-70.06109375 22.26738281 -69.1690625 22.35117187 -68.25 22.4375 C-67.36828125 22.51871094 -66.4865625 22.59992187 -65.578125 22.68359375 C-63 23 -63 23 -61.17578125 23.51953125 C-52.33386885 25.4720541 -42.03996026 24.55942349 -33.515625 21.80078125 C-29.42430781 20.49842096 -25.21717271 19.77756981 -21 19 C-21 18.34 -21 17.68 -21 17 C-20.46632813 16.74347656 -19.93265625 16.48695313 -19.3828125 16.22265625 C-11.83578731 12.34468656 -4.74955181 7.12432772 0 0 Z " fill="#010101" transform="translate(683,672)"/>
<path d="M0 0 C5.17846926 3.58586459 10.31461279 8.33268208 13.70703125 13.6484375 C13.734375 15.609375 13.734375 15.609375 12.70703125 17.6484375 C11.05073277 19.32540825 9.38222593 20.99034271 7.70703125 22.6484375 C6.02176814 24.50811335 4.34375577 26.37437778 2.671875 28.24609375 C-16.67963082 49.4076771 -16.67963082 49.4076771 -31.78515625 50.421875 C-32.50928711 50.44604492 -33.23341797 50.47021484 -33.97949219 50.49511719 C-38.15547582 50.77187085 -42.21511613 51.74070729 -46.29296875 52.6484375 C-46.29296875 53.3084375 -46.29296875 53.9684375 -46.29296875 54.6484375 C-48.84765625 56.375 -48.84765625 56.375 -52.16796875 58.2734375 C-53.25851563 58.90507813 -54.3490625 59.53671875 -55.47265625 60.1875 C-58.29296875 61.6484375 -58.29296875 61.6484375 -60.29296875 61.6484375 C-66.5506567 50.20785533 -69.58048236 38.72129574 -66.60546875 25.62109375 C-62.32842067 12.91469675 -54.28865337 3.73630738 -42.91796875 -3.08984375 C-29.16341736 -9.70103438 -12.81974508 -7.55644259 0 0 Z " fill="#010101" transform="translate(244.29296875,521.3515625)"/>
<path d="M0 0 C3.8965797 1.25124773 7.63027342 2.6654641 11.375 4.3125 C25.19837 10.0429152 39.06323293 13.17537676 53.73364258 15.76928711 C68.38732698 18.42864237 81.97093164 21.57354493 91.0625 34.25 C92.80445052 36.88956738 93.99687243 38.99061728 95 42 C81.35732731 47.02356359 81.35732731 47.02356359 75 49 C74.41476563 49.18949219 73.82953125 49.37898437 73.2265625 49.57421875 C69.93228418 50.20417724 66.65298162 50.14788267 63.3125 50.125 C62.59860107 50.12089111 61.88470215 50.11678223 61.14916992 50.11254883 C47.53967307 49.96877021 47.53967307 49.96877021 41 46 C39.14166906 45.26864006 37.26564268 44.58073518 35.375 43.9375 C32.16316743 42.84195711 29.84701782 41.89801188 27 40 C27 39.34 27 38.68 27 38 C26.01 37.7215625 26.01 37.7215625 25 37.4375 C17.88250666 34.02703444 13.56711997 28.87000883 10 22 C9.505 21.505 9.01 21.01 8.5 20.5 C3.8910798 15.8910798 1.58595456 9.19964054 0 3 C0 2.01 0 1.02 0 0 Z " fill="#251B0B" transform="translate(165,647)"/>
<path d="M0 0 C0.33 0 0.66 0 1 0 C4.14292773 13.99130178 7.00602174 28.02049218 9.68237305 42.10839844 C10.9601028 48.80136235 12.29366575 55.47621375 13.75 62.1328125 C13.89224503 62.78435806 14.03449005 63.43590363 14.18104553 64.10719299 C14.86324473 67.2219835 15.55557437 70.33413831 16.25952148 73.4440918 C16.50259033 74.54148682 16.74565918 75.63888184 16.99609375 76.76953125 C17.21450928 77.73479736 17.4329248 78.70006348 17.65795898 79.69458008 C18 82 18 82 17 84 C13.078241 80.19358686 9.51075394 76.18589893 6 72 C5.236875 71.13375 4.47375 70.2675 3.6875 69.375 C1.89070938 66.84618357 1.3491876 65.05539153 1 62 C0.34 62 -0.32 62 -1 62 C-1 60.35 -1 58.7 -1 57 C-1.66 57 -2.32 57 -3 57 C-8.71540852 41.47134289 -8.15672957 25.83516028 -4 10 C-3.34 10 -2.68 10 -2 10 C-1.855625 9.0925 -1.71125 8.185 -1.5625 7.25 C-1.13590527 4.78523044 -0.64925779 2.41152893 0 0 Z " fill="#281F10" transform="translate(373,684)"/>
<path d="M0 0 C7.28322215 14.25251232 10.15640939 32.44408895 5.625 48.0625 C4.65511581 50.77131797 3.62845455 52.55731817 2 55 C1.7525 55.886875 1.505 56.77375 1.25 57.6875 C-0.17409214 61.46134417 -2.1462572 64.05171736 -4.66015625 67.16796875 C-6.19150174 69.06654568 -6.19150174 69.06654568 -7 72 C-7.66 72 -8.32 72 -9 72 C-9.4021875 72.86625 -9.4021875 72.86625 -9.8125 73.75 C-11.02929189 76.05550043 -12.30333879 78.02056192 -14 80 C-14.66 80 -15.32 80 -16 80 C-12.47091647 58.74919431 -8.03265396 37.73245028 -3.44532776 16.68899536 C-2.23774839 11.13695958 -1.08421927 5.5776414 0 0 Z " fill="#271E0F" transform="translate(487,686)"/>
<path d="M0 0 C0 3 0 3 -1.20581055 4.54638672 C-1.76051025 5.08537598 -2.31520996 5.62436523 -2.88671875 6.1796875 C-3.49580078 6.77910156 -4.10488281 7.37851562 -4.73242188 7.99609375 C-5.70018555 8.92615234 -5.70018555 8.92615234 -6.6875 9.875 C-7.62625977 10.79345703 -7.62625977 10.79345703 -8.58398438 11.73046875 C-9.81870395 12.93803742 -11.05613866 14.14283669 -12.29638672 15.34472656 C-14.55506599 17.53931605 -16.77862314 19.76771622 -19 22 C-40 43 -61 64 -82 85 C-40.09 85.33 1.82 85.66 45 86 C45 86.66 45 87.32 45 88 C1.44 88 -42.12 88 -87 88 C-87 87.34 -87 86.68 -87 86 C-85.53688049 84.55632687 -85.53688049 84.55632687 -83.51000977 82.87791443 C-79.0709969 79.10015101 -74.94942416 75.0837611 -70.83984375 70.95336914 C-70.06814346 70.18181488 -69.29644318 69.41026062 -68.50135803 68.61532593 C-65.97769143 66.09096847 -63.45757505 63.56309873 -60.9375 61.03515625 C-59.17795342 59.27374255 -57.4181844 57.51255102 -55.65820312 55.75157166 C-51.04634362 51.13591012 -46.43749625 46.51725241 -41.82928467 41.89794922 C-37.11875967 37.17661286 -32.40482313 32.45868337 -27.69140625 27.74023438 C-18.45814432 18.49627599 -9.22796656 9.24924445 0 0 Z " fill="#301A04" transform="translate(627,297)"/>
<path d="M0 0 C11.22 0 22.44 0 34 0 C34 3 34 3 32.49609375 4.54296875 C31.81675781 5.08566406 31.13742187 5.62835938 30.4375 6.1875 C26.14890118 9.76515463 22.56378759 13.71231805 19 18 C14.02384051 16.52284691 11.20389699 13.62321342 7.6875 10 C7.13771484 9.4534375 6.58792969 8.906875 6.02148438 8.34375 C2 4.26731366 2 4.26731366 2 2 C1.34 2 0.68 2 0 2 C0 1.34 0 0.68 0 0 Z " fill="#060302" transform="translate(540,475)"/>
<path d="M0 0 C16.335 0.495 16.335 0.495 33 1 C31.649239 5.05228301 29.16180298 6.54568797 25.91015625 9.18359375 C23.95717156 11.04072643 23.10676015 12.5761452 22 15 C20.125 16.8125 20.125 16.8125 18 18 C14.44947838 17.59967823 12.77592653 16.1322005 10.328125 13.62109375 C9.66425781 12.94755859 9.00039063 12.27402344 8.31640625 11.58007812 C7.63449219 10.87302734 6.95257813 10.16597656 6.25 9.4375 C5.55261719 8.72658203 4.85523438 8.01566406 4.13671875 7.28320312 C2.4175342 5.52869286 0.70574128 3.76756648 -1 2 C-0.67 1.34 -0.34 0.68 0 0 Z " fill="#050403" transform="translate(287,474)"/>
<path d="M0 0 C0.66 0.33 1.32 0.66 2 1 C2 44.23 2 87.46 2 132 C-0.475 129.525 -0.475 129.525 -3 127 C-2.01 127 -1.02 127 0 127 C0 85.09 0 43.18 0 0 Z " fill="#432707" transform="translate(383,188)"/>
<path d="M0 0 C1.98 1.98 1.98 1.98 4 4 C-39.56 4 -83.12 4 -128 4 C-128 3.34 -128 2.68 -128 2 C-127.34639779 1.99576806 -126.69279558 1.99153612 -126.01938725 1.98717594 C-110.13807581 1.88400775 -94.2568125 1.77539106 -78.37558079 1.66066074 C-70.69563401 1.60531103 -63.01568259 1.55182623 -55.33569336 1.50268555 C-48.64419097 1.45986505 -41.95272303 1.41359255 -35.2612738 1.36312145 C-31.71606424 1.33650323 -28.17086159 1.31164982 -24.62561226 1.29092598 C-20.67427132 1.26776379 -16.72301166 1.23689681 -12.77172852 1.20532227 C-11.58778 1.1995668 -10.40383148 1.19381134 -9.18400574 1.18788147 C-8.11403351 1.17809265 -7.04406128 1.16830383 -5.94166565 1.15821838 C-5.00604577 1.15176583 -4.07042589 1.14531328 -3.1064539 1.1386652 C-1.01359206 1.2333028 -1.01359206 1.2333028 0 0 Z " fill="#442808" transform="translate(316,381)"/>
<path d="M0 0 C0.33 0 0.66 0 1 0 C1 42.24 1 84.48 1 128 C1.66 128.33 2.32 128.66 3 129 C2.34 129.99 1.68 130.98 1 132 C0.34 132 -0.32 132 -1 132 C-1.02332863 114.93699413 -1.04097899 97.87399322 -1.05181217 80.81097507 C-1.05697521 72.88887055 -1.06401805 64.96677591 -1.07543945 57.04467773 C-1.08538606 50.14225363 -1.09185337 43.23983669 -1.09408849 36.33740562 C-1.09539564 32.68039339 -1.09848174 29.02340164 -1.10573006 25.36639595 C-1.11374348 21.29055994 -1.11399115 17.21475987 -1.11352539 13.13891602 C-1.11712067 11.91756454 -1.12071594 10.69621307 -1.12442017 9.43785095 C-1.1230455 8.33422211 -1.12167084 7.23059326 -1.12025452 6.09352112 C-1.12117631 5.12840386 -1.1220981 4.16328661 -1.12304783 3.16892338 C-1 1 -1 1 0 0 Z " fill="#41280B" transform="translate(476,188)"/>
<path d="M0 0 C0.33 1.32 0.66 2.64 1 4 C-1.58237266 5.29118633 -3.39764174 5.10679965 -6.28970337 5.08229065 C-7.41153519 5.07525116 -8.533367 5.06821167 -9.68919373 5.06095886 C-10.9256514 5.04801285 -12.16210907 5.03506683 -13.43603516 5.02172852 C-15.38231056 5.0073172 -15.38231056 5.0073172 -17.36790466 4.99261475 C-20.93177052 4.96611069 -24.49555474 4.93333594 -28.05935717 4.89946485 C-31.78159773 4.8651446 -35.50388209 4.83655033 -39.22616577 4.80735779 C-46.27745647 4.75118227 -53.32869232 4.68983102 -60.37992322 4.62663645 C-68.40638684 4.55495245 -76.4328944 4.48901369 -84.45941091 4.42356598 C-100.97299812 4.28878607 -117.48651485 4.14676373 -134 4 C-133.67 3.01 -133.34 2.02 -133 1 C-133 1.66 -133 2.32 -133 3 C-89.44 3 -45.88 3 -1 3 C-0.67 2.01 -0.34 1.02 0 0 Z " fill="#EEB050" transform="translate(673,382)"/>
<path d="M0 0 C0.99 0 1.98 0 3 0 C2.67 0.99 2.34 1.98 2 3 C1.89803353 4.77586712 1.8536967 6.555278 1.84178162 8.33403015 C1.8319928 9.44040833 1.82220398 10.5467865 1.81211853 11.68669128 C1.80636307 12.9008522 1.8006076 14.11501312 1.79467773 15.3659668 C1.78477814 16.64412262 1.77487854 17.92227844 1.76467896 19.23916626 C1.7376358 22.74505513 1.71662306 26.25095745 1.69667697 29.75689292 C1.67481379 33.42045784 1.64742672 37.08398133 1.62062073 40.74751282 C1.57069834 47.68537823 1.52575783 54.62326665 1.48259836 61.56117707 C1.43322211 69.45955174 1.37830542 77.35788482 1.32291877 85.25621927 C1.20910569 101.50410785 1.10226518 117.75203455 1 134 C0.67 134 0.34 134 0 134 C0 89.78 0 45.56 0 0 Z " fill="#EBB156" transform="translate(474,186)"/>
<path d="M0 0 C0.33 0.66 0.66 1.32 1 2 C-0.28062485 3.7074998 -1.61767557 5.37373596 -3 7 C-3.66 7 -4.32 7 -5 7 C-5.33 7.99 -5.66 8.98 -6 10 C-6.66 10 -7.32 10 -8 10 C-8.185625 10.70125 -8.37125 11.4025 -8.5625 12.125 C-10.28296671 15.56593342 -12.36140999 17.19850242 -15.3203125 19.57421875 C-17.21303799 21.18083457 -18.54084652 23.00326366 -20 25 C-20.66 25 -21.32 25 -22 25 C-22.33 25.99 -22.66 26.98 -23 28 C-23.99 27.34 -24.98 26.68 -26 26 C-17.42 17.42 -8.84 8.84 0 0 Z " fill="#E4A145" transform="translate(508,287)"/>
<path d="M0 0 C1.10311523 0.00241699 1.10311523 0.00241699 2.22851562 0.00488281 C2.98583984 0.00649414 3.74316406 0.00810547 4.5234375 0.00976562 C15.54094729 0.24408297 25.68936193 3.54047398 35.54101562 8.37988281 C34.88101563 9.03988281 34.22101562 9.69988281 33.54101562 10.37988281 C31.04101562 9.37988281 31.04101562 9.37988281 28.54101562 8.37988281 C27.17976562 7.85394531 27.17976562 7.85394531 25.79101562 7.31738281 C23.54101562 6.37988281 23.54101562 6.37988281 22.54101562 5.37988281 C21.19354478 5.14913199 19.83723998 4.96835218 18.47851562 4.81738281 C17.17914062 4.67300781 15.87976563 4.52863281 14.54101562 4.37988281 C14.54101562 3.71988281 14.54101562 3.05988281 14.54101562 2.37988281 C7.28101563 2.37988281 0.02101563 2.37988281 -7.45898438 2.37988281 C-4.97242292 -0.10667864 -3.40388584 0.0721842 0 0 Z " fill="#DDA34F" transform="translate(629.458984375,162.6201171875)"/>
<path d="M0 0 C20.13 0 40.26 0 61 0 C61.495 1.485 61.495 1.485 62 3 C61.18308685 2.75885216 61.18308685 2.75885216 60.34967041 2.51283264 C57.65207295 1.92406239 55.16685617 1.8382162 52.40527344 1.79467773 C51.28441345 1.77473251 50.16355347 1.75478729 49.00872803 1.73423767 C47.20229828 1.70916893 47.20229828 1.70916893 45.359375 1.68359375 C44.12205627 1.66281265 42.88473755 1.64203156 41.60992432 1.62062073 C38.32861309 1.56634128 35.04727267 1.51608221 31.76586914 1.46777344 C28.41416896 1.41743908 25.0625628 1.3617364 21.7109375 1.30664062 C15.14069536 1.19955491 8.57038702 1.09776964 2 1 C1.34 2.32 0.68 3.64 0 5 C0 3.35 0 1.7 0 0 Z " fill="#EEEBDF" transform="translate(326,453)"/>
<path d="M0 0 C0.33 0.66 0.66 1.32 1 2 C-0.28062485 3.7074998 -1.61767557 5.37373596 -3 7 C-3.66 7 -4.32 7 -5 7 C-5.33 7.99 -5.66 8.98 -6 10 C-6.66 10 -7.32 10 -8 10 C-8.23460937 10.72574219 -8.46921875 11.45148438 -8.7109375 12.19921875 C-10.21533444 15.46786301 -12.03340448 17.33197286 -14.625 19.8125 C-15.44226563 20.60269531 -16.25953125 21.39289063 -17.1015625 22.20703125 C-17.72804688 22.79871094 -18.35453125 23.39039063 -19 24 C-19.99 23.34 -20.98 22.68 -22 22 C-14.74 14.74 -7.48 7.48 0 0 Z " fill="#E5A246" transform="translate(540,255)"/>
<path d="M0 0 C20.46 0 40.92 0 62 0 C61.67 2.31 61.34 4.62 61 7 C59 3.25 59 3.25 59 1 C39.53 1 20.06 1 0 1 C0 0.67 0 0.34 0 0 Z " fill="#EEECE2" transform="translate(474,453)"/>
<path d="M0 0 C0 0.66 0 1.32 0 2 C-1.0828125 2.3403125 -1.0828125 2.3403125 -2.1875 2.6875 C-5.16820166 3.88341578 -5.16820166 3.88341578 -7.5 6.5 C-10 9 -10 9 -12.6875 9.9375 C-15.34907186 10.84478829 -15.34907186 10.84478829 -16.3125 14.125 C-16.539375 15.07375 -16.76625 16.0225 -17 17 C-18.98 17.33 -20.96 17.66 -23 18 C-23 18.66 -23 19.32 -23 20 C-23.66 19.67 -24.32 19.34 -25 19 C-19.67413487 12.40688722 -9.34192429 0 0 0 Z " fill="#E2A74E" transform="translate(404,85)"/>
<path d="M0 0 C0.66 0.99 1.32 1.98 2 3 C1.01 3.66 0.02 4.32 -1 5 C-1.66 4.67 -2.32 4.34 -3 4 C-3 4.66 -3 5.32 -3 6 C-4.32 6 -5.64 6 -7 6 C-7.33 7.32 -7.66 8.64 -8 10 C-8.5775 10.04125 -9.155 10.0825 -9.75 10.125 C-13.12935009 11.4391917 -14.10747341 13.98378574 -16 17 C-18.125 19.375 -18.125 19.375 -20 21 C-20.66 21 -21.32 21 -22 21 C-17.41232042 11.15062155 -8.80733825 5.72145883 0 0 Z " fill="#E6A94D" transform="translate(197,170)"/>
<path d="M0 0 C1.04702186 3.7264085 1.07442057 7.13013042 1 11 C0.01 11 -0.98 11 -2 11 C-2 18.92 -2 26.84 -2 35 C-5.83027356 29.25458966 -4.7610002 20.38917511 -3.59863281 13.68505859 C-2.59954865 9.0655211 -1.34889583 4.528436 0 0 Z " fill="#D6A455" transform="translate(167,204)"/>
<path d="M0 0 C1 2 1 2 0.2578125 4.34765625 C-0.11601563 5.24355469 -0.48984375 6.13945312 -0.875 7.0625 C-1.24367188 7.96097656 -1.61234375 8.85945312 -1.9921875 9.78515625 C-3 12 -3 12 -4 13 C-4.36760731 15.32817964 -4.70241581 17.6618385 -5 20 C-5.66 20 -6.32 20 -7 20 C-7.33 21.98 -7.66 23.96 -8 26 C-10.1230176 20.30645279 -7.02103999 14.38525562 -5 9 C-3.49186544 5.89000501 -1.84295023 2.92303992 0 0 Z " fill="#CD9B4A" transform="translate(578,193)"/>
<path d="M0 0 C0 0.66 0 1.32 0 2 C-3.4019487 4.09350689 -6.05272412 4.17942163 -10 4 C-10 4.66 -10 5.32 -10 6 C-14.93387858 8.25861997 -19.80355921 10.40109514 -25 12 C-21.65453947 8.13394485 -18.07193481 6.34989619 -13.5 4.3125 C-12.50419922 3.85133789 -12.50419922 3.85133789 -11.48828125 3.38085938 C-4.07554363 0 -4.07554363 0 0 0 Z " fill="#DFA851" transform="translate(130,367)"/>
<path d="M0 0 C6.93 0.99 13.86 1.98 21 3 C21.33 4.32 21.66 5.64 22 7 C21.14792969 6.69191406 20.29585937 6.38382812 19.41796875 6.06640625 C16.02723525 5.0084974 12.8267814 4.42321369 9.3125 3.9375 C6.0416149 3.48100969 3.13493899 3.04497966 0 2 C0 1.34 0 0.68 0 0 Z " fill="#D7A149" transform="translate(208,287)"/>
<path d="M0 0 C16.335 0.495 16.335 0.495 33 1 C32.67 1.99 32.34 2.98 32 4 C31.505 3.01 31.505 3.01 31 2 C15.655 2.495 15.655 2.495 0 3 C0 2.01 0 1.02 0 0 Z " fill="#150E04" transform="translate(287,474)"/>
<path d="M0 0 C1 3 1 3 -0.328125 6.25 C-0.95840773 7.50524662 -1.59949541 8.75511279 -2.25 10 C-2.71986328 10.94359375 -2.71986328 10.94359375 -3.19921875 11.90625 C-4.79566657 15.03290299 -6.29067159 17.72550208 -9 20 C-8.67 17.69 -8.34 15.38 -8 13 C-7.01 13 -6.02 13 -5 13 C-4.01 9.37 -3.02 5.74 -2 2 C-1.34 2 -0.68 2 0 2 C0 1.34 0 0.68 0 0 Z " fill="#DEA64C" transform="translate(490,162)"/>
<path d="M0 0 C0.33 0.66 0.66 1.32 1 2 C-0.3125 4.625 -0.3125 4.625 -2 7 C-2.66 7 -3.32 7 -4 7 C-4.28875 7.639375 -4.5775 8.27875 -4.875 8.9375 C-6 11 -6 11 -8 12 C-8.66 11.34 -9.32 10.68 -10 10 C-6.7 6.7 -3.4 3.4 0 0 Z " fill="#E09E46" transform="translate(556,239)"/>
<path d="M0 0 C3.06255961 -0.0270491 6.1248786 -0.04686298 9.1875 -0.0625 C10.05181641 -0.07087891 10.91613281 -0.07925781 11.80664062 -0.08789062 C16.00286769 -0.10396812 19.90936886 -0.07559038 24 1 C24 1.99 24 2.98 24 4 C23.44054687 3.86722656 22.88109375 3.73445313 22.3046875 3.59765625 C14.90649974 1.96815187 7.55429188 1.41363558 0 1 C0 0.67 0 0.34 0 0 Z " fill="#2A1201" transform="translate(712,365)"/>
<path d="M0 0 C0.33 0.99 0.66 1.98 1 3 C0.401875 3.53625 -0.19625 4.0725 -0.8125 4.625 C-3.16395446 6.95196562 -3.16395446 6.95196562 -4.5625 10.1875 C-6 13 -6 13 -9 14 C-7.65070536 10.16336928 -5.92248975 7.34827431 -3.375 4.1875 C-2.42753906 3.00220703 -2.42753906 3.00220703 -1.4609375 1.79296875 C-0.97882813 1.20128906 -0.49671875 0.60960937 0 0 Z " fill="#DFA44D" transform="translate(96,386)"/>
<path d="M0 0 C2.5409267 4.25195395 2.41683855 8.38055968 2.65625 13.22265625 C2.81508818 16.2082876 2.81508818 16.2082876 5 19 C4.01 19 3.02 19 2 19 C1.690625 18.05125 1.38125 17.1025 1.0625 16.125 C0.12605258 13.13919592 0.12605258 13.13919592 -1 11 C-0.91255632 9.12137125 -0.75824458 7.24544819 -0.5625 5.375 C-0.40974609 3.87066406 -0.40974609 3.87066406 -0.25390625 2.3359375 C-0.17011719 1.56507813 -0.08632813 0.79421875 0 0 Z " fill="#DDA64B" transform="translate(289,211)"/>
<path d="M0 0 C-1.85493392 5.71937959 -3.93103891 11.35555275 -6 17 C-6.33 17 -6.66 17 -7 17 C-6.93976506 14.91587093 -6.85091679 12.83255565 -6.75 10.75 C-6.70359375 9.58984375 -6.6571875 8.4296875 -6.609375 7.234375 C-5.88853703 3.40838886 -4.33551479 0 0 0 Z " fill="#1F0D03" transform="translate(374,111)"/>
<path d="M0 0 C0.99 0.66 1.98 1.32 3 2 C1.37982158 3.33918806 -0.24629343 4.6711969 -1.875 6 C-3.23238281 7.11375 -3.23238281 7.11375 -4.6171875 8.25 C-7 10 -7 10 -9 10 C-8.67 9.01 -8.34 8.02 -8 7 C-7.01 7 -6.02 7 -5 7 C-4.67 5.68 -4.34 4.36 -4 3 C-2.68 3 -1.36 3 0 3 C0 2.01 0 1.02 0 0 Z " fill="#E4AB4F" transform="translate(673,273)"/>
<path d="M0 0 C0.33 0.66 0.66 1.32 1 2 C-1.36975637 5.72390287 -3.64962537 9.09634199 -7 12 C-7.66 12 -8.32 12 -9 12 C-7.55575365 8.76138697 -5.74227753 6.38030837 -3.375 3.75 C-2.74335938 3.04359375 -2.11171875 2.3371875 -1.4609375 1.609375 C-0.97882813 1.07828125 -0.49671875 0.5471875 0 0 Z " fill="#D99F4A" transform="translate(184,179)"/>
<path d="M0 0 C0.33 1.32 0.66 2.64 1 4 C-2 6 -2 6 -4 6 C-5.70680947 7.62553283 -7.37660195 9.29115995 -9 11 C-9.66 10.67 -10.32 10.34 -11 10 C-9.73232923 8.70522938 -8.46073776 7.41429661 -7.1875 6.125 C-6.47980469 5.40570313 -5.77210938 4.68640625 -5.04296875 3.9453125 C-3 2 -3 2 0 0 Z " fill="#EBAA50" transform="translate(596,174)"/>
<path d="M0 0 C0.33 0 0.66 0 1 0 C1.08685287 3.29150125 1.14033895 6.5827096 1.1875 9.875 C1.21263672 10.81214844 1.23777344 11.74929687 1.26367188 12.71484375 C1.27333984 13.61074219 1.28300781 14.50664062 1.29296875 15.4296875 C1.3086792 16.25710449 1.32438965 17.08452148 1.34057617 17.93701172 C1.22818604 18.61779785 1.1157959 19.29858398 1 20 C0.01 20.66 -0.98 21.32 -2 22 C-1.34 14.74 -0.68 7.48 0 0 Z " fill="#2C1804" transform="translate(494,139)"/>
<path d="M0 0 C1.68426809 3.25530808 2.88786134 6.50470706 4 10 C3.01 10 2.02 10 1 10 C0.67 10.66 0.34 11.32 0 12 C-1.31157516 9.37684968 -0.89649988 7.76966564 -0.5625 4.875 C-0.46066406 3.96492187 -0.35882813 3.05484375 -0.25390625 2.1171875 C-0.17011719 1.41851563 -0.08632813 0.71984375 0 0 Z " fill="#2B2C1F" transform="translate(487,686)"/>
<path d="M0 0 C0.33 0.66 0.66 1.32 1 2 C-0.28062485 3.7074998 -1.61767557 5.37373596 -3 7 C-3.66 7 -4.32 7 -5 7 C-5.33 7.99 -5.66 8.98 -6 10 C-8.0625 10.6875 -8.0625 10.6875 -10 11 C-6.79239749 7.19364503 -3.59253891 3.45436433 0 0 Z " fill="#D69A48" transform="translate(508,287)"/>
<path d="M0 0 C0.33 0.66 0.66 1.32 1 2 C-0.28062485 3.7074998 -1.61767557 5.37373596 -3 7 C-3.66 7 -4.32 7 -5 7 C-5.33 7.99 -5.66 8.98 -6 10 C-8.0625 10.6875 -8.0625 10.6875 -10 11 C-6.79239749 7.19364503 -3.59253891 3.45436433 0 0 Z " fill="#D69A48" transform="translate(540,255)"/>
<path d="M0 0 C0.90550946 3.01150495 1.06723758 5.43770987 0.75 8.5625 C0.68296875 9.32691406 0.6159375 10.09132812 0.546875 10.87890625 C-0.09694852 13.37602176 -1.05228884 14.36120002 -3 16 C-2.57910004 10.39538469 -2.08386889 5.27913453 0 0 Z " fill="#DAA14D" transform="translate(369,122)"/>
<path d="M0 0 C0.33 0 0.66 0 1 0 C0.50769231 7.50769231 0.50769231 7.50769231 -2.0625 10 C-3.0215625 10.495 -3.0215625 10.495 -4 11 C-4.66 10.34 -5.32 9.68 -6 9 C-4.7934375 7.88625 -4.7934375 7.88625 -3.5625 6.75 C-1.23011409 4.24695171 -0.36465606 3.2819045 0 0 Z " fill="#D69542" transform="translate(568,224)"/>
<path d="M0 0 C1.17571451 3.67410785 1.07366746 7.16929183 1 11 C0.01 11 -0.98 11 -2 11 C-2.33 11.99 -2.66 12.98 -3 14 C-2.48594831 9.03083364 -1.76615118 4.70973649 0 0 Z " fill="#E4AD4F" transform="translate(167,204)"/>
<path d="M0 0 C6.57142857 5 6.57142857 5 8 10 C4.20401451 8.50871999 2.28279601 6.34266559 0 3 C0 2.01 0 1.02 0 0 Z " fill="#E4A74D" transform="translate(273,183)"/>
<path d="M0 0 C-9.41002278 4.59225513 -9.41002278 4.59225513 -14 4 C-9.68030697 0.34487513 -5.55645743 -1.67651733 0 0 Z " fill="#DBA44F" transform="translate(702,369)"/>
<path d="M0 0 C4 5 4 5 3.953125 7.67578125 C3.72109375 8.54589844 3.4890625 9.41601562 3.25 10.3125 C3.02828125 11.19550781 2.8065625 12.07851562 2.578125 12.98828125 C2.29195313 13.98408203 2.29195313 13.98408203 2 15 C1.67 15 1.34 15 1 15 C0.67 10.05 0.34 5.1 0 0 Z " fill="#301702" transform="translate(290,212)"/>
<path d="M0 0 C5.75 1.875 5.75 1.875 8 3 C8 3.66 8 4.32 8 5 C5.69 5 3.38 5 1 5 C0.67 3.35 0.34 1.7 0 0 Z " fill="#2B2A22" transform="translate(165,647)"/>
<path d="M0 0 C0.99 0.33 1.98 0.66 3 1 C0.525 4.465 0.525 4.465 -2 8 C-2.99 7.67 -3.98 7.34 -5 7 C-4.34 6.67 -3.68 6.34 -3 6 C-3 5.34 -3 4.68 -3 4 C-2.34 4 -1.68 4 -1 4 C-0.67 2.68 -0.34 1.36 0 0 Z " fill="#282218" transform="translate(553,496)"/>
<path d="M0 0 C0 0.66 0 1.32 0 2 C-3.63423209 4.32590854 -6.77088331 4.16265833 -11 4 C-7.61125486 1.74083657 -4.15175481 0 0 0 Z " fill="#D6A248" transform="translate(130,367)"/>
<path d="M0 0 C0.66 0.33 1.32 0.66 2 1 C1.67 1.99 1.34 2.98 1 4 C-0.98 4.33 -2.96 4.66 -5 5 C-5 5.66 -5 6.32 -5 7 C-5.66 6.67 -6.32 6.34 -7 6 C-4.87944386 2.8191658 -3.36949443 1.68474722 0 0 Z " fill="#EAAA3E" transform="translate(386,98)"/>
<path d="M0 0 C3.61855575 0.62388892 4.1709277 1.1709277 7 4 C3.7 3.67 0.4 3.34 -3 3 C-2.01 2.67 -1.02 2.34 0 2 C0 1.34 0 0.68 0 0 Z " fill="#170904" transform="translate(434,76)"/>
<path d="M0 0 C1 2 1 2 0.22265625 4.3828125 C-0.16019531 5.28773438 -0.54304687 6.19265625 -0.9375 7.125 C-1.31777344 8.03507813 -1.69804688 8.94515625 -2.08984375 9.8828125 C-2.39019531 10.58148438 -2.69054687 11.28015625 -3 12 C-3.33 12 -3.66 12 -4 12 C-3.5317879 7.22423661 -2.75668002 3.95523655 0 0 Z " fill="#DBAA49" transform="translate(578,193)"/>
<path d="M0 0 C-2.46278801 2.46278801 -4.70676982 2.99771255 -8 4 C-8 3.01 -8 2.02 -8 1 C-4.93251126 -0.86240388 -3.40254489 -1.2151946 0 0 Z " fill="#1D0B02" transform="translate(409,82)"/>
<path d="M0 0 C3.96 1.98 3.96 1.98 8 4 C7.67 4.66 7.34 5.32 7 6 C5.68 5.67 4.36 5.34 3 5 C3 4.34 3 3.68 3 3 C2.01 2.67 1.02 2.34 0 2 C0 1.34 0 0.68 0 0 Z " fill="#E2A650" transform="translate(169,371)"/>
<path d="M0 0 C-1.0625 1.5625 -1.0625 1.5625 -3 3 C-6.6875 2.6875 -6.6875 2.6875 -10 2 C-3.24137931 -1.62068966 -3.24137931 -1.62068966 0 0 Z " fill="#281607" transform="translate(654,289)"/>
<path d="M0 0 C2.64752004 2.57784846 4.94432065 4.91648098 7 8 C5.68 7.34 4.36 6.68 3 6 C3 5.34 3 4.68 3 4 C2.01 4 1.02 4 0 4 C0 2.68 0 1.36 0 0 Z " fill="#DFA651" transform="translate(476,99)"/>
<path d="M0 0 C0.66 0.33 1.32 0.66 2 1 C-0.55068845 3.35448165 -1.71017358 3.98327924 -5.25 4.1875 C-6.1575 4.125625 -7.065 4.06375 -8 4 C-5.31143836 2.20762558 -3.0466145 1.01553817 0 0 Z " fill="#D5A14D" transform="translate(412,81)"/>
</svg>
