<?xml version="1.0" standalone="no"?>
<!DOCTYPE svg PUBLIC "-//W3C//DTD SVG 20010904//EN"
 "http://www.w3.org/TR/2001/REC-SVG-20010904/DTD/svg10.dtd">
<svg version="1.0" xmlns="http://www.w3.org/2000/svg"
 width="500.000000pt" height="524.000000pt" viewBox="0 0 500.000000 524.000000"
 preserveAspectRatio="xMidYMid meet">
<metadata>
Created by potrace 1.16, written by Peter Selinger 2001-2019
</metadata>
<g transform="translate(0.000000,524.000000) scale(0.100000,-0.100000)"
fill="#000000" stroke="none">
<path d="M2898 4024 c11 -19 -8 -82 -50 -173 -32 -68 -33 -76 -22 -158 8 -64
-17 -123 -82 -187 -69 -69 -139 -78 -308 -39 -55 13 -78 14 -120 5 -28 -6 -84
-14 -124 -18 -46 -4 -72 -11 -69 -18 12 -37 251 -128 380 -144 86 -11 139 -4
228 33 149 60 274 155 324 247 26 46 30 63 30 133 0 69 -4 89 -31 145 -17 36
-57 93 -88 128 -55 59 -88 81 -68 46z"/>
<path d="M4000 1690 c0 -6 -30 -10 -70 -10 -63 0 -70 -2 -70 -20 0 -11 -4 -20
-10 -20 -5 0 -10 -6 -10 -13 0 -12 -84 -43 -105 -38 -40 10 -95 9 -101 -1 -4
-6 -2 -14 4 -16 7 -2 12 -7 12 -12 0 -10 -59 -34 -67 -27 -3 4 6 11 21 17 15
5 24 15 21 20 -4 6 -25 -3 -53 -22 -54 -38 -63 -48 -55 -62 3 -5 2 -6 -4 -3
-9 6 -144 -76 -198 -119 -11 -9 -30 -21 -42 -27 -13 -5 -23 -14 -23 -19 0 -4
-7 -8 -15 -8 -8 0 -15 -4 -15 -9 0 -5 -9 -13 -20 -16 -11 -4 -17 -11 -14 -17
4 -6 2 -8 -4 -4 -13 8 -84 -39 -74 -49 4 -5 1 -5 -6 -1 -6 4 -24 -1 -40 -12
-37 -26 -269 -165 -312 -187 -19 -10 -37 -21 -40 -24 -3 -3 -117 -63 -255
-133 -515 -260 -849 -378 -1275 -449 -179 -30 -461 -33 -560 -7 -97 26 -217
91 -281 152 -55 52 -149 177 -149 200 0 6 -7 2 -15 -8 -8 -11 -15 -15 -15 -10
0 6 5 15 11 21 9 9 8 18 -5 37 -9 15 -14 26 -11 26 4 0 -1 10 -9 22 -9 12 -16
32 -16 44 0 12 -5 24 -10 26 -6 2 -11 17 -13 35 -2 26 -5 30 -20 22 -14 -8
-15 -14 -7 -30 15 -28 3 -63 -18 -53 -10 3 -27 9 -40 11 -19 5 -22 1 -22 -23
0 -16 9 -70 19 -120 30 -144 118 -306 232 -429 285 -305 687 -395 1206 -270
564 136 1333 541 2083 1098 224 166 450 349 450 364 0 8 4 12 9 9 5 -3 48 28
95 70 75 65 85 77 72 90 -17 17 -166 21 -166 4z"/>
</g>
</svg>
