<?xml version="1.0" encoding="UTF-8"?>
<svg version="1.1" xmlns="http://www.w3.org/2000/svg" width="256" height="256">
<path d="M0 0 C0.66 0.33 1.32 0.66 2 1 C1.61328125 1.80179688 1.2265625 2.60359375 0.828125 3.4296875 C-11.73953572 30.8670062 -10.79220906 60.54381424 -0.8125 88.6875 C4.54403641 102.9047131 12.2121152 115.42214152 22 127 C22.43038574 127.51014648 22.86077148 128.02029297 23.30419922 128.54589844 C47.03271504 156.29515276 81.30836201 174.12255835 117.63989258 177.8190918 C145.70096375 179.97004387 176.83233986 175.85968041 199.5625 157.875 C201.05101948 156.59412273 202.53107281 155.30329954 204 154 C204.99966797 153.195625 204.99966797 153.195625 206.01953125 152.375 C208.94860838 150.00707239 211.27945595 147.81233646 213.3125 144.625 C213.869375 143.75875 214.42625 142.8925 215 142 C215.66 142 216.32 142 217 142 C210.55552403 165.84456108 188.18675428 185.38542408 167.58935547 197.23681641 C139.91834227 212.47901242 102.56082541 216.28744929 72 208 C50.28790739 201.57508444 31.13523421 190.7505603 14 176 C13.07058594 175.2059375 12.14117187 174.411875 11.18359375 173.59375 C4.71720606 167.90980421 -0.80060445 161.85645481 -6 155 C-6.59296875 154.22269531 -7.1859375 153.44539062 -7.796875 152.64453125 C-17.1019821 139.90336396 -24.07200705 125.96162346 -29 111 C-29.2259082 110.32904297 -29.45181641 109.65808594 -29.68457031 108.96679688 C-35.79752978 89.90488026 -36.03331104 63.74022289 -29 45 C-28.61457031 43.92492187 -28.22914062 42.84984375 -27.83203125 41.7421875 C-23.22444525 29.84298482 -16.21423495 20.54283493 -8.12109375 10.83203125 C-5.22818105 7.33898831 -2.59178267 3.72116283 0 0 Z " fill="#1266A9" transform="translate(33,40)"/>
<path d="M0 0 C0.66 0 1.32 0 2 0 C0.93027262 3.22410857 -0.15192352 6.44299193 -1.25390625 9.65625 C-1.69015428 10.93748294 -2.12635159 12.21873315 -2.5625 13.5 C-2.78357422 14.13808594 -3.00464844 14.77617187 -3.23242188 15.43359375 C-9.83137433 34.93140492 -5.87028938 56.87546865 3 75 C16.79302423 100.66550079 38.79117749 118.90794716 66.63867188 127.34814453 C90.86241064 134.03521882 115.16964947 131.92648218 137.25 119.6875 C145.39022022 114.73024568 151.82620499 109.01103744 157 101 C158.11801194 104.37991787 158.04099341 104.90287546 156.55078125 108.43359375 C155.82394174 109.77881191 155.0764005 111.11297608 154.3125 112.4375 C153.90749268 113.14398682 153.50248535 113.85047363 153.08520508 114.57836914 C140.83349786 135.10557497 121.32663571 147.46829877 98.53515625 153.2734375 C72.11024861 158.70441299 45.87815493 154.12124392 23 140 C-0.65500483 124.03817216 -17.15502324 102.81891535 -23.52832031 74.66625977 C-27.41193995 52.713356 -22.4081319 32.58512541 -9.9140625 14.48046875 C-7.35083468 10.81795186 -4.74386803 7.1889253 -2.10400391 3.58129883 C-0.93040628 1.98191901 -0.93040628 1.98191901 0 0 Z " fill="#1166A9" transform="translate(98,17)"/>
<path d="M0 0 C0.66 0.33 1.32 0.66 2 1 C1.61328125 1.80179688 1.2265625 2.60359375 0.828125 3.4296875 C-11.73953572 30.8670062 -10.79220906 60.54381424 -0.8125 88.6875 C8.09893461 112.34005364 23.99553721 132.67743276 44 148 C43.14453125 149.9453125 43.14453125 149.9453125 42 152 C40.8553125 152.433125 40.8553125 152.433125 39.6875 152.875 C36.88637054 154.04756582 36.13611517 154.81580683 34.3125 157.125 C33.549375 158.07375 32.78625 159.0225 32 160 C31.34 160 30.68 160 30 160 C30 160.66 30 161.32 30 162 C29.34 162 28.68 162 28 162 C27.71125 162.969375 27.4225 163.93875 27.125 164.9375 C26 168 26 168 24 169 C23.319375 170.175625 23.319375 170.175625 22.625 171.375 C20.99149843 174.01373331 19.56703686 175.31814826 17 177 C7.32247214 172.72594307 0.24297729 163.19903208 -6 155 C-6.59425781 154.22140625 -7.18851563 153.4428125 -7.80078125 152.640625 C-17.1015785 139.89746371 -24.07216714 125.9611374 -29 111 C-29.2259082 110.32904297 -29.45181641 109.65808594 -29.68457031 108.96679688 C-35.79752978 89.90488026 -36.03331104 63.74022289 -29 45 C-28.61457031 43.92492187 -28.22914062 42.84984375 -27.83203125 41.7421875 C-23.22444525 29.84298482 -16.21423495 20.54283493 -8.12109375 10.83203125 C-5.22818105 7.33898831 -2.59178267 3.72116283 0 0 Z " fill="#0F5992" transform="translate(33,40)"/>
<path d="M0 0 C0.66 0 1.32 0 2 0 C0.93027262 3.22410857 -0.15192352 6.44299193 -1.25390625 9.65625 C-1.69015428 10.93748294 -2.12635159 12.21873315 -2.5625 13.5 C-2.78357422 14.13808594 -3.00464844 14.77617187 -3.23242188 15.43359375 C-9.83137433 34.93140492 -5.87028938 56.87546865 3 75 C9.71450863 87.49408568 18.19430927 97.81679464 28.91015625 107.00390625 C29.59980469 107.66261719 30.28945312 108.32132812 31 109 C31 109.66 31 110.32 31 111 C29.35 111 27.7 111 26 111 C25.91363281 111.7425 25.82726562 112.485 25.73828125 113.25 C24.85522358 116.53927301 23.67207462 117.71363819 21.1875 120 C18.79942745 122.25587568 16.72736607 124.34631878 14.6875 126.9375 C13 129 13 129 10 130 C-8.0353111 115.14964809 -19.96773759 95.09308496 -24 72 C-25.88439324 44.05899677 -18.34033332 25.76979383 -2.10400391 3.58129883 C-0.93040628 1.98191901 -0.93040628 1.98191901 0 0 Z " fill="#105991" transform="translate(98,17)"/>
<path d="M0 0 C0.66 0.33 1.32 0.66 2 1 C1.72285156 1.66386719 1.44570312 2.32773438 1.16015625 3.01171875 C0.61681641 4.33623047 0.61681641 4.33623047 0.0625 5.6875 C-0.29714844 6.55761719 -0.65679687 7.42773438 -1.02734375 8.32421875 C-5.162694 19.7005839 -3.13944722 32.13671162 1.25390625 43.140625 C9.79286134 61.28881293 23.68907491 72.38286307 42.18359375 79.16796875 C54.10336436 82.46954371 70.294005 83.42616521 81.7734375 78.26953125 C87.51594521 74.9952944 92.15141937 71.45215589 96 66 C96.66 66.33 97.32 66.66 98 67 C89.09973348 81.56167866 80.10176848 91.61925739 63.17114258 96.53051758 C51.00046659 99.16227401 36.35063174 97.99754433 25 93 C24.11441406 92.62617187 23.22882813 92.25234375 22.31640625 91.8671875 C6.66899798 84.67461931 -6.32624746 71.25500677 -12.375 55.125 C-16.6852407 42.56908145 -16.77247259 28.08741851 -11 16 C-7.66306014 10.43672165 -3.8713554 5.19963078 0 0 Z " fill="#11609E" transform="translate(152,5)"/>
<path d="M0 0 C9.24 0 18.48 0 28 0 C28 0.33 28 0.66 28 1 C18.76 1 9.52 1 0 1 C0 0.67 0 0.34 0 0 Z " fill="#1366A8" transform="translate(126,252)"/>
<path d="M0 0 C6.6 0 13.2 0 20 0 C20 0.33 20 0.66 20 1 C13.4 1 6.8 1 0 1 C0 0.67 0 0.34 0 0 Z " fill="#1D6093" transform="translate(155,217)"/>
<path d="M0 0 C0.66 0 1.32 0 2 0 C2 1.65 2 3.3 2 5 C0.68 5.33 -0.64 5.66 -2 6 C-1.125 1.125 -1.125 1.125 0 0 Z " fill="#145885" transform="translate(143,18)"/>
<path d="M0 0 C5.61 0 11.22 0 17 0 C17 0.33 17 0.66 17 1 C11.39 1 5.78 1 0 1 C0 0.67 0 0.34 0 0 Z " fill="#295F83" transform="translate(166,173)"/>
<path d="M0 0 C0.33 0 0.66 0 1 0 C1 5.28 1 10.56 1 16 C0.67 16 0.34 16 0 16 C0 10.72 0 5.44 0 0 Z " fill="#105A91" transform="translate(92,45)"/>
<path d="M0 0 C0.33 0 0.66 0 1 0 C1 4.62 1 9.24 1 14 C0.67 14 0.34 14 0 14 C0 9.38 0 4.76 0 0 Z " fill="#135891" transform="translate(135,35)"/>
<path d="M0 0 C4.29 0 8.58 0 13 0 C13 0.33 13 0.66 13 1 C8.71 1 4.42 1 0 1 C0 0.67 0 0.34 0 0 Z " fill="#1464A6" transform="translate(186,147)"/>
<path d="M0 0 C0.33 0 0.66 0 1 0 C1 3.63 1 7.26 1 11 C0.67 11 0.34 11 0 11 C0 7.37 0 3.74 0 0 Z " fill="#225379" transform="translate(25,88)"/>
<path d="M0 0 C0.33 0 0.66 0 1 0 C1 3.63 1 7.26 1 11 C0.67 11 0.34 11 0 11 C0 7.37 0 3.74 0 0 Z " fill="#20537D" transform="translate(25,74)"/>
<path d="M0 0 C2.64 0 5.28 0 8 0 C8 0.33 8 0.66 8 1 C5.36 1 2.72 1 0 1 C0 0.67 0 0.34 0 0 Z " fill="#1F4E68" transform="translate(191,103)"/>
<path d="M0 0 C0.33 0 0.66 0 1 0 C1 2.64 1 5.28 1 8 C0.67 8 0.34 8 0 8 C0 5.36 0 2.72 0 0 Z " fill="#21435E" transform="translate(72,79)"/>
<path d="M0 0 C0.33 0 0.66 0 1 0 C1 2.64 1 5.28 1 8 C0.67 8 0.34 8 0 8 C0 5.36 0 2.72 0 0 Z " fill="#1C4160" transform="translate(72,66)"/>
<path d="M0 0 C0.33 0 0.66 0 1 0 C1 2.64 1 5.28 1 8 C0.67 8 0.34 8 0 8 C0 5.36 0 2.72 0 0 Z " fill="#1D557F" transform="translate(149,23)"/>
<path d="M0 0 C2.31 0 4.62 0 7 0 C7 0.33 7 0.66 7 1 C4.69 1 2.38 1 0 1 C0 0.67 0 0.34 0 0 Z " fill="#29536D" transform="translate(205,103)"/>
<path d="M0 0 C2.31 0 4.62 0 7 0 C7 0.33 7 0.66 7 1 C4.69 1 2.38 1 0 1 C0 0.67 0 0.34 0 0 Z " fill="#0E65AD" transform="translate(204,85)"/>
<path d="M0 0 C1.98 0 3.96 0 6 0 C6 0.33 6 0.66 6 1 C4.02 1 2.04 1 0 1 C0 0.67 0 0.34 0 0 Z " fill="#28618B" transform="translate(117,251)"/>
<path d="M0 0 C1.98 0 3.96 0 6 0 C6 0.33 6 0.66 6 1 C4.02 1 2.04 1 0 1 C0 0.67 0 0.34 0 0 Z " fill="#22506F" transform="translate(178,216)"/>
<path d="M0 0 C1.98 0 3.96 0 6 0 C6 0.33 6 0.66 6 1 C4.02 1 2.04 1 0 1 C0 0.67 0 0.34 0 0 Z " fill="#255171" transform="translate(145,216)"/>
<path d="M0 0 C1.98 0 3.96 0 6 0 C6 0.33 6 0.66 6 1 C4.02 1 2.04 1 0 1 C0 0.67 0 0.34 0 0 Z " fill="#1266A0" transform="translate(186,172)"/>
<path d="M0 0 C1.98 0 3.96 0 6 0 C6 0.33 6 0.66 6 1 C4.02 1 2.04 1 0 1 C0 0.67 0 0.34 0 0 Z " fill="#1267A1" transform="translate(157,172)"/>
<path d="M0 0 C1.98 0 3.96 0 6 0 C6 0.33 6 0.66 6 1 C4.02 1 2.04 1 0 1 C0 0.67 0 0.34 0 0 Z " fill="#285E89" transform="translate(177,146)"/>
<path d="M0 0 C1.98 0 3.96 0 6 0 C6 0.33 6 0.66 6 1 C4.02 1 2.04 1 0 1 C0 0.67 0 0.34 0 0 Z " fill="#1363A5" transform="translate(218,85)"/>
<path d="M0 0 C1.65 0 3.3 0 5 0 C5 0.33 5 0.66 5 1 C3.35 1 1.7 1 0 1 C0 0.67 0 0.34 0 0 Z " fill="#25618E" transform="translate(157,251)"/>
<path d="M0 0 C1.65 0 3.3 0 5 0 C5 0.33 5 0.66 5 1 C3.35 1 1.7 1 0 1 C0 0.67 0 0.34 0 0 Z " fill="#1665A1" transform="translate(110,250)"/>
<path d="M0 0 C1.65 0 3.3 0 5 0 C5 0.33 5 0.66 5 1 C3.35 1 1.7 1 0 1 C0 0.67 0 0.34 0 0 Z " fill="#1B5F9B" transform="translate(138,215)"/>
<path d="M0 0 C1.65 0 3.3 0 5 0 C5 0.33 5 0.66 5 1 C3.35 1 1.7 1 0 1 C0 0.67 0 0.34 0 0 Z " fill="#206394" transform="translate(150,171)"/>
<path d="M0 0 C1.65 0 3.3 0 5 0 C5 0.33 5 0.66 5 1 C3.35 1 1.7 1 0 1 C0 0.67 0 0.34 0 0 Z " fill="#275D8B" transform="translate(202,146)"/>
<path d="M0 0 C0.33 0 0.66 0 1 0 C1 1.65 1 3.3 1 5 C0.67 5 0.34 5 0 5 C0 3.35 0 1.7 0 0 Z " fill="#10578F" transform="translate(26,101)"/>
<path d="M0 0 C4 1 4 1 4 1 Z " fill="#1564A0" transform="translate(164,250)"/>
<path d="M0 0 C4 1 4 1 4 1 Z " fill="#1E639C" transform="translate(186,215)"/>
<path d="M0 0 C4 1 4 1 4 1 Z " fill="#1C6394" transform="translate(191,214)"/>
<path d="M0 0 C4 1 4 1 4 1 Z " fill="#22608D" transform="translate(133,214)"/>
<path d="M0 0 C0.99 0.33 1.98 0.66 3 1 C2.01 1 1.02 1 0 1 C0 0.67 0 0.34 0 0 Z " fill="#0B4E7B" transform="translate(66,178)"/>
<path d="M0 0 C0.99 0.495 0.99 0.495 2 1 C1.67 1.66 1.34 2.32 1 3 C0.67 2.01 0.34 1.02 0 0 Z " fill="#14578C" transform="translate(59,170)"/>
<path d="M0 0 C4 1 4 1 4 1 Z " fill="#216395" transform="translate(193,171)"/>
<path d="M0 0 C4 1 4 1 4 1 Z " fill="#145181" transform="translate(172,145)"/>
<path d="M0 0 C1 4 1 4 1 4 Z " fill="#0D5A92" transform="translate(0,139)"/>
<path d="M0 0 C1 4 1 4 1 4 Z " fill="#1A5585" transform="translate(27,107)"/>
<path d="M0 0 C4 1 4 1 4 1 Z " fill="#206292" transform="translate(185,102)"/>
<path d="M0 0 C1 4 1 4 1 4 Z " fill="#1D5581" transform="translate(73,89)"/>
<path d="M0 0 C4 1 4 1 4 1 Z " fill="#26618E" transform="translate(199,84)"/>
<path d="M0 0 C1 4 1 4 1 4 Z " fill="#185591" transform="translate(26,68)"/>
<path d="M0 0 C1 4 1 4 1 4 Z " fill="#164A77" transform="translate(93,64)"/>
<path d="M0 0 C1 4 1 4 1 4 Z " fill="#175283" transform="translate(73,60)"/>
<path d="M0 0 C1 4 1 4 1 4 Z " fill="#174C76" transform="translate(93,39)"/>
<path d="M0 0 C1 4 1 4 1 4 Z " fill="#235279" transform="translate(150,34)"/>
<path d="M0 0 C1 4 1 4 1 4 Z " fill="#1B5583" transform="translate(150,16)"/>
<path d="M0 0 C3 1 3 1 3 1 Z " fill="#216192" transform="translate(169,249)"/>
<path d="M0 0 C3 1 3 1 3 1 Z " fill="#1F6294" transform="translate(106,249)"/>
<path d="M0 0 C3 1 3 1 3 1 Z " fill="#1564A4" transform="translate(173,248)"/>
<path d="M0 0 C3 1 3 1 3 1 Z " fill="#1664A1" transform="translate(102,248)"/>
<path d="M0 0 C3 1 3 1 3 1 Z " fill="#1763A0" transform="translate(99,247)"/>
<path d="M0 0 C3 1 3 1 3 1 Z " fill="#1265A6" transform="translate(96,246)"/>
<path d="M0 0 C3 1 3 1 3 1 Z " fill="#14649C" transform="translate(196,213)"/>
<path d="M0 0 C3 1 3 1 3 1 Z " fill="#106798" transform="translate(129,213)"/>
<path d="M0 0 C3 1 3 1 3 1 Z " fill="#245E9C" transform="translate(125,212)"/>
<path d="M0 0 C3 1 3 1 3 1 Z " fill="#1267A7" transform="translate(198,170)"/>
<path d="M0 0 C3 1 3 1 3 1 Z " fill="#1A64A0" transform="translate(147,170)"/>
<path d="M0 0 C3 1 3 1 3 1 Z " fill="#21619C" transform="translate(202,169)"/>
<path d="M0 0 C3 1 3 1 3 1 Z " fill="#1266A8" transform="translate(205,168)"/>
<path d="" fill="#1D5587" transform="translate(0,0)"/>
<path d="M0 0 C3 1 3 1 3 1 Z " fill="#164D7B" transform="translate(209,145)"/>
<path d="" fill="#0E5B95" transform="translate(0,0)"/>
<path d="M0 0 C3 1 3 1 3 1 Z " fill="#174264" transform="translate(213,144)"/>
<path d="M0 0 C3 1 3 1 3 1 Z " fill="#1C4E73" transform="translate(168,144)"/>
<path d="M0 0 C3 1 3 1 3 1 Z " fill="#1A64A0" transform="translate(164,143)"/>
<path d="" fill="#17588B" transform="translate(0,0)"/>
<path d="" fill="#184B85" transform="translate(0,0)"/>
<path d="" fill="#125993" transform="translate(0,0)"/>
<path d="M0 0 C3 1 3 1 3 1 Z " fill="#20608F" transform="translate(213,102)"/>
<path d="M0 0 C3 1 3 1 3 1 Z " fill="#1A629C" transform="translate(217,101)"/>
<path d="M0 0 C3 1 3 1 3 1 Z " fill="#23608E" transform="translate(182,101)"/>
<path d="M0 0 C3 1 3 1 3 1 Z " fill="#1664A1" transform="translate(179,100)"/>
<path d="" fill="#16568D" transform="translate(0,0)"/>
<path d="" fill="#1D567E" transform="translate(0,0)"/>
<path d="" fill="#0F5A95" transform="translate(0,0)"/>
<path d="" fill="#105993" transform="translate(0,0)"/>
<path d="M0 0 C3 1 3 1 3 1 Z " fill="#1D649A" transform="translate(226,84)"/>
<path d="M0 0 C3 1 3 1 3 1 Z " fill="#1B62A6" transform="translate(229,83)"/>
<path d="M0 0 C3 1 3 1 3 1 Z " fill="#1C649C" transform="translate(195,83)"/>
<path d="" fill="#18568D" transform="translate(0,0)"/>
<path d="" fill="#0C4C72" transform="translate(0,0)"/>
<path d="" fill="#1D5680" transform="translate(0,0)"/>
<path d="" fill="#1B5585" transform="translate(0,0)"/>
<path d="" fill="#1D5876" transform="translate(0,0)"/>
<path d="" fill="#1C5589" transform="translate(0,0)"/>
<path d="" fill="#175887" transform="translate(0,0)"/>
<path d="" fill="#15578B" transform="translate(0,0)"/>
<path d="" fill="#0F456D" transform="translate(0,0)"/>
<path d="" fill="#20547B" transform="translate(0,0)"/>
<path d="M0 0 C2 1 2 1 2 1 Z " fill="#1566A6" transform="translate(177,247)"/>
<path d="M0 0 C2 1 2 1 2 1 Z " fill="#1267AA" transform="translate(180,246)"/>
<path d="M0 0 C2 1 2 1 2 1 Z " fill="#1864A5" transform="translate(183,245)"/>
<path d="M0 0 C2 1 2 1 2 1 Z " fill="#1463A1" transform="translate(94,245)"/>
<path d="M0 0 C2 1 2 1 2 1 Z " fill="#1068A9" transform="translate(186,244)"/>
<path d="M0 0 C2 1 2 1 2 1 Z " fill="#16629E" transform="translate(91,244)"/>
<path d="M0 0 C2 1 2 1 2 1 Z " fill="#1367A6" transform="translate(188,243)"/>
<path d="M0 0 C2 1 2 1 2 1 Z " fill="#1B6199" transform="translate(88,243)"/>
<path d="M0 0 C2 1 2 1 2 1 Z " fill="#1167AB" transform="translate(191,242)"/>
<path d="M0 0 C2 1 2 1 2 1 Z " fill="#19619B" transform="translate(86,242)"/>
<path d="M0 0 C2 1 2 1 2 1 Z " fill="#19659D" transform="translate(193,241)"/>
<path d="M0 0 C2 1 2 1 2 1 Z " fill="#1C6299" transform="translate(84,241)"/>
<path d="M0 0 C2 1 2 1 2 1 Z " fill="#1267A6" transform="translate(195,240)"/>
<path d="M0 0 C2 1 2 1 2 1 Z " fill="#1665A4" transform="translate(197,239)"/>
<path d="M0 0 C2 1 2 1 2 1 Z " fill="#1167AA" transform="translate(199,238)"/>
<path d="M0 0 C2 1 2 1 2 1 Z " fill="#1467A3" transform="translate(201,237)"/>
<path d="M0 0 C2 1 2 1 2 1 Z " fill="#1367A4" transform="translate(204,235)"/>
<path d="M0 0 C2 1 2 1 2 1 Z " fill="#1367A3" transform="translate(72,235)"/>
<path d="M0 0 C2 1 2 1 2 1 Z " fill="#1665A6" transform="translate(70,234)"/>
<path d="M0 0 C2 1 2 1 2 1 Z " fill="#1C63A6" transform="translate(209,232)"/>
<path d="M0 0 C2 1 2 1 2 1 Z " fill="#1765A3" transform="translate(65,231)"/>
<path d="M0 0 C2 1 2 1 2 1 Z " fill="#1765A3" transform="translate(213,229)"/>
<path d="M0 0 C2 1 2 1 2 1 Z " fill="#1B629B" transform="translate(62,229)"/>
<path d="M0 0 C2 1 2 1 2 1 Z " fill="#1B629B" transform="translate(59,227)"/>
<path d="M0 0 C2 1 2 1 2 1 Z " fill="#1467A1" transform="translate(217,226)"/>
<path d="M0 0 C2 1 2 1 2 1 Z " fill="#1C62A0" transform="translate(55,224)"/>
<path d="M0 0 C2 1 2 1 2 1 Z " fill="#13669D" transform="translate(51,221)"/>
<path d="M0 0 C2 1 2 1 2 1 Z " fill="#105D8C" transform="translate(45,216)"/>
<path d="M0 0 C2 1 2 1 2 1 Z " fill="#18629B" transform="translate(200,212)"/>
<path d="M0 0 C2 1 2 1 2 1 Z " fill="#1B609A" transform="translate(203,211)"/>
<path d="M0 0 C2 1 2 1 2 1 Z " fill="#1A659C" transform="translate(122,211)"/>
<path d="M0 0 C2 1 2 1 2 1 Z " fill="#1863A1" transform="translate(206,210)"/>
<path d="M0 0 C2 1 2 1 2 1 Z " fill="#15689B" transform="translate(119,210)"/>
<path d="" fill="#1566A3" transform="translate(0,0)"/>
<path d="M0 0 C2 1 2 1 2 1 Z " fill="#1663A9" transform="translate(209,209)"/>
<path d="M0 0 C2 1 2 1 2 1 Z " fill="#1267A6" transform="translate(116,209)"/>
<path d="M0 0 C2 1 2 1 2 1 Z " fill="#1C63A0" transform="translate(211,208)"/>
<path d="M0 0 C2 1 2 1 2 1 Z " fill="#1765A6" transform="translate(114,208)"/>
<path d="M0 0 C2 1 2 1 2 1 Z " fill="#18659D" transform="translate(111,207)"/>
<path d="M0 0 C2 1 2 1 2 1 Z " fill="#1F6491" transform="translate(109,206)"/>
<path d="" fill="#1865A2" transform="translate(0,0)"/>
<path d="M0 0 C2 1 2 1 2 1 Z " fill="#1E639E" transform="translate(106,205)"/>
<path d="M0 0 C2 1 2 1 2 1 Z " fill="#1A63A6" transform="translate(104,204)"/>
<path d="" fill="#185492" transform="translate(0,0)"/>
<path d="M0 0 C2 1 2 1 2 1 Z " fill="#16669D" transform="translate(102,203)"/>
<path d="M0 0 C2 1 2 1 2 1 Z " fill="#1764A4" transform="translate(223,202)"/>
<path d="M0 0 C2 1 2 1 2 1 Z " fill="#1A659B" transform="translate(100,202)"/>
<path d="" fill="#1D61A4" transform="translate(0,0)"/>
<path d="M0 0 C2 1 2 1 2 1 Z " fill="#246198" transform="translate(98,201)"/>
<path d="" fill="#1967A0" transform="translate(0,0)"/>
<path d="M0 0 C2 1 2 1 2 1 Z " fill="#125996" transform="translate(93,198)"/>
<path d="M0 0 C2 1 2 1 2 1 Z " fill="#1E64A1" transform="translate(91,197)"/>
<path d="" fill="#115A8F" transform="translate(0,0)"/>
<path d="M0 0 C2 1 2 1 2 1 Z " fill="#206493" transform="translate(232,196)"/>
<path d="M0 0 C2 1 2 1 2 1 Z " fill="#14609E" transform="translate(88,195)"/>
<path d="" fill="#166999" transform="translate(0,0)"/>
<path d="" fill="#26526D" transform="translate(0,0)"/>
<path d="" fill="#176799" transform="translate(0,0)"/>
<path d="M0 0 C2 1 2 1 2 1 Z " fill="#1365A3" transform="translate(82,191)"/>
<path d="M0 0 C2 1 2 1 2 1 Z " fill="#15629A" transform="translate(79,189)"/>
<path d="" fill="#085C8B" transform="translate(0,0)"/>
<path d="M0 0 C2 1 2 1 2 1 Z " fill="#1C5C84" transform="translate(74,185)"/>
<path d="" fill="#15588E" transform="translate(0,0)"/>
<path d="" fill="#165793" transform="translate(0,0)"/>
<path d="" fill="#165791" transform="translate(0,0)"/>
<path d="" fill="#0E599A" transform="translate(0,0)"/>
<path d="" fill="#17578F" transform="translate(0,0)"/>
<path d="M0 0 C2 1 2 1 2 1 Z " fill="#1E6498" transform="translate(144,169)"/>
<path d="M0 0 C2 1 2 1 2 1 Z " fill="#1A649D" transform="translate(141,168)"/>
<path d="" fill="#15588F" transform="translate(0,0)"/>
<path d="M0 0 C2 1 2 1 2 1 Z " fill="#1166A7" transform="translate(208,167)"/>
<path d="M0 0 C2 1 2 1 2 1 Z " fill="#1765A1" transform="translate(139,167)"/>
<path d="M0 0 C2 1 2 1 2 1 Z " fill="#1465A2" transform="translate(211,166)"/>
<path d="M0 0 C2 1 2 1 2 1 Z " fill="#1367A6" transform="translate(136,166)"/>
<path d="M0 0 C2 1 2 1 2 1 Z " fill="#1C6297" transform="translate(213,165)"/>
<path d="M0 0 C2 1 2 1 2 1 Z " fill="#1C6598" transform="translate(134,165)"/>
<path d="" fill="#185888" transform="translate(0,0)"/>
<path d="M0 0 C2 1 2 1 2 1 Z " fill="#1266A3" transform="translate(215,164)"/>
<path d="M0 0 C2 1 2 1 2 1 Z " fill="#1A6697" transform="translate(132,164)"/>
<path d="" fill="#16578A" transform="translate(0,0)"/>
<path d="M0 0 C2 1 2 1 2 1 Z " fill="#16679C" transform="translate(130,163)"/>
<path d="" fill="#195888" transform="translate(0,0)"/>
<path d="M0 0 C2 1 2 1 2 1 Z " fill="#1065A8" transform="translate(219,162)"/>
<path d="M0 0 C2 1 2 1 2 1 Z " fill="#1268A1" transform="translate(128,162)"/>
<path d="M0 0 C2 1 2 1 2 1 Z " fill="#17669A" transform="translate(221,161)"/>
<path d="M0 0 C2 1 2 1 2 1 Z " fill="#0E6AA1" transform="translate(126,161)"/>
<path d="" fill="#16598B" transform="translate(0,0)"/>
<path d="M0 0 C2 1 2 1 2 1 Z " fill="#1467A0" transform="translate(124,160)"/>
<path d="" fill="#145798" transform="translate(0,0)"/>
<path d="M0 0 C2 1 2 1 2 1 Z " fill="#1068A8" transform="translate(121,158)"/>
<path d="" fill="#0C5B98" transform="translate(0,0)"/>
<path d="" fill="#185990" transform="translate(0,0)"/>
<path d="" fill="#135A87" transform="translate(0,0)"/>
<path d="" fill="#13598E" transform="translate(0,0)"/>
<path d="M0 0 C2 1 2 1 2 1 Z " fill="#1C5EA1" transform="translate(112,152)"/>
<path d="" fill="#15588F" transform="translate(0,0)"/>
<path d="M0 0 C2 1 2 1 2 1 Z " fill="#1C598F" transform="translate(107,148)"/>
<path d="" fill="#1D5089" transform="translate(0,0)"/>
<path d="M0 0 C2 1 2 1 2 1 Z " fill="#1860A7" transform="translate(217,143)"/>
<path d="M0 0 C2 1 2 1 2 1 Z " fill="#1A6299" transform="translate(220,142)"/>
<path d="M0 0 C2 1 2 1 2 1 Z " fill="#226296" transform="translate(161,142)"/>
<path d="" fill="#1C649C" transform="translate(0,0)"/>
<path d="M0 0 C2 1 2 1 2 1 Z " fill="#0F659A" transform="translate(223,141)"/>
<path d="M0 0 C2 1 2 1 2 1 Z " fill="#1266AA" transform="translate(158,141)"/>
<path d="" fill="#1E567F" transform="translate(0,0)"/>
<path d="M0 0 C2 1 2 1 2 1 Z " fill="#14629B" transform="translate(225,140)"/>
<path d="M0 0 C2 1 2 1 2 1 Z " fill="#1A65A0" transform="translate(155,140)"/>
<path d="M0 0 C2 1 2 1 2 1 Z " fill="#10639F" transform="translate(227,139)"/>
<path d="M0 0 C2 1 2 1 2 1 Z " fill="#1964A1" transform="translate(153,139)"/>
<path d="" fill="#1E558B" transform="translate(0,0)"/>
<path d="M0 0 C2 1 2 1 2 1 Z " fill="#1D5E99" transform="translate(229,138)"/>
<path d="M0 0 C2 1 2 1 2 1 Z " fill="#23619A" transform="translate(151,138)"/>
<path d="" fill="#1364B3" transform="translate(0,0)"/>
<path d="M0 0 C2 1 2 1 2 1 Z " fill="#17619B" transform="translate(231,137)"/>
<path d="M0 0 C2 1 2 1 2 1 Z " fill="#1661A4" transform="translate(233,136)"/>
<path d="" fill="#165986" transform="translate(0,0)"/>
<path d="" fill="#0F67B1" transform="translate(0,0)"/>
<path d="M0 0 C2 1 2 1 2 1 Z " fill="#245E98" transform="translate(236,134)"/>
<path d="" fill="#0C5A9A" transform="translate(0,0)"/>
<path d="M0 0 C2 1 2 1 2 1 Z " fill="#1468A0" transform="translate(141,133)"/>
<path d="M0 0 C2 1 2 1 2 1 Z " fill="#1C63A0" transform="translate(239,132)"/>
<path d="M0 0 C2 1 2 1 2 1 Z " fill="#1C6598" transform="translate(139,132)"/>
<path d="" fill="#0A5B9C" transform="translate(0,0)"/>
<path d="" fill="#175A81" transform="translate(0,0)"/>
<path d="M0 0 C2 1 2 1 2 1 Z " fill="#196697" transform="translate(136,130)"/>
<path d="" fill="#1E62A1" transform="translate(0,0)"/>
<path d="M0 0 C2 1 2 1 2 1 Z " fill="#1761A0" transform="translate(133,128)"/>
<path d="" fill="#206294" transform="translate(0,0)"/>
<path d="" fill="#1A568F" transform="translate(0,0)"/>
<path d="" fill="#1A639D" transform="translate(0,0)"/>
<path d="" fill="#1B558B" transform="translate(0,0)"/>
<path d="" fill="#115992" transform="translate(0,0)"/>
<path d="" fill="#1E5192" transform="translate(0,0)"/>
<path d="M0 0 C2 1 2 1 2 1 Z " fill="#16568A" transform="translate(123,120)"/>
<path d="" fill="#15537E" transform="translate(0,0)"/>
<path d="" fill="#074071" transform="translate(0,0)"/>
<path d="" fill="#16598A" transform="translate(0,0)"/>
<path d="" fill="#0C3D6A" transform="translate(0,0)"/>
<path d="" fill="#15568F" transform="translate(0,0)"/>
<path d="" fill="#14578D" transform="translate(0,0)"/>
<path d="" fill="#19588E" transform="translate(0,0)"/>
<path d="" fill="#0A5B91" transform="translate(0,0)"/>
<path d="" fill="#0B5A8A" transform="translate(0,0)"/>
<path d="" fill="#1B5582" transform="translate(0,0)"/>
<path d="M0 0 C2 1 2 1 2 1 Z " fill="#1E639D" transform="translate(220,100)"/>
<path d="" fill="#12548F" transform="translate(0,0)"/>
<path d="M0 0 C2 1 2 1 2 1 Z " fill="#18649D" transform="translate(223,99)"/>
<path d="M0 0 C2 1 2 1 2 1 Z " fill="#1B649B" transform="translate(177,99)"/>
<path d="M0 0 C2 1 2 1 2 1 Z " fill="#0E67A8" transform="translate(225,98)"/>
<path d="M0 0 C2 1 2 1 2 1 Z " fill="#1663A0" transform="translate(230,95)"/>
<path d="" fill="#104A6E" transform="translate(0,0)"/>
<path d="M0 0 C2 1 2 1 2 1 Z " fill="#1163A3" transform="translate(167,94)"/>
<path d="" fill="#104F7B" transform="translate(0,0)"/>
<path d="M0 0 C2 1 2 1 2 1 Z " fill="#1360A1" transform="translate(234,92)"/>
<path d="M0 0 C2 1 2 1 2 1 Z " fill="#1465A4" transform="translate(164,92)"/>
<path d="" fill="#1B5586" transform="translate(0,0)"/>
<path d="M0 0 C2 1 2 1 2 1 Z " fill="#1063A3" transform="translate(161,90)"/>
<path d="" fill="#1C558C" transform="translate(0,0)"/>
<path d="" fill="#1A5788" transform="translate(0,0)"/>
<path d="" fill="#17578D" transform="translate(0,0)"/>
<path d="" fill="#1861A2" transform="translate(0,0)"/>
<path d="M0 0 C2 1 2 1 2 1 Z " fill="#195789" transform="translate(155,85)"/>
<path d="" fill="#1A5785" transform="translate(0,0)"/>
<path d="" fill="#1E558A" transform="translate(0,0)"/>
<path d="M0 0 C2 1 2 1 2 1 Z " fill="#275F99" transform="translate(232,82)"/>
<path d="M0 0 C2 1 2 1 2 1 Z " fill="#1865A2" transform="translate(192,82)"/>
<path d="" fill="#17588D" transform="translate(0,0)"/>
<path d="" fill="#195788" transform="translate(0,0)"/>
<path d="" fill="#1E6192" transform="translate(0,0)"/>
<path d="M0 0 C2 1 2 1 2 1 Z " fill="#236197" transform="translate(234,81)"/>
<path d="M0 0 C2 1 2 1 2 1 Z " fill="#1267AA" transform="translate(189,81)"/>
<path d="" fill="#215485" transform="translate(0,0)"/>
<path d="M0 0 C2 1 2 1 2 1 Z " fill="#1B6599" transform="translate(236,80)"/>
<path d="M0 0 C2 1 2 1 2 1 Z " fill="#1666A3" transform="translate(186,80)"/>
<path d="M0 0 C2 1 2 1 2 1 Z " fill="#18649C" transform="translate(184,79)"/>
<path d="" fill="#115A8E" transform="translate(0,0)"/>
<path d="" fill="#1C5E96" transform="translate(0,0)"/>
<path d="M0 0 C2 1 2 1 2 1 Z " fill="#206292" transform="translate(239,78)"/>
<path d="M0 0 C2 1 2 1 2 1 Z " fill="#246091" transform="translate(182,78)"/>
<path d="" fill="#17588B" transform="translate(0,0)"/>
<path d="M0 0 C2 1 2 1 2 1 Z " fill="#275F8F" transform="translate(180,77)"/>
<path d="" fill="#145889" transform="translate(0,0)"/>
<path d="" fill="#175A83" transform="translate(0,0)"/>
<path d="" fill="#0D5C8E" transform="translate(0,0)"/>
<path d="" fill="#175887" transform="translate(0,0)"/>
<path d="M0 0 C2 1 2 1 2 1 Z " fill="#215582" transform="translate(170,70)"/>
<path d="" fill="#105990" transform="translate(0,0)"/>
<path d="" fill="#155888" transform="translate(0,0)"/>
<path d="" fill="#165786" transform="translate(0,0)"/>
<path d="" fill="#125992" transform="translate(0,0)"/>
<path d="" fill="#135A89" transform="translate(0,0)"/>
<path d="" fill="#12588F" transform="translate(0,0)"/>
<path d="" fill="#1A5788" transform="translate(0,0)"/>
<path d="" fill="#105A94" transform="translate(0,0)"/>
<path d="" fill="#205380" transform="translate(0,0)"/>
<path d="" fill="#094F83" transform="translate(0,0)"/>
<path d="" fill="#16568E" transform="translate(0,0)"/>
<path d="" fill="#175B90" transform="translate(0,0)"/>
<path d="" fill="#155793" transform="translate(0,0)"/>
<path d="" fill="#195789" transform="translate(0,0)"/>
<path d="" fill="#185C91" transform="translate(0,0)"/>
<path d="" fill="#105B8E" transform="translate(0,0)"/>
<path d="" fill="#14528E" transform="translate(0,0)"/>
<path d="" fill="#10598E" transform="translate(0,0)"/>
<path d="" fill="#185688" transform="translate(0,0)"/>
<path d="" fill="#175889" transform="translate(0,0)"/>
<path d="" fill="#1C5489" transform="translate(0,0)"/>
<path d="" fill="#1A5583" transform="translate(0,0)"/>
<path d="" fill="#16568D" transform="translate(0,0)"/>
<path d="" fill="#19578B" transform="translate(0,0)"/>
<path d="" fill="#0F598A" transform="translate(0,0)"/>
<path d="" fill="#20547D" transform="translate(0,0)"/>
<path d="" fill="#22527B" transform="translate(0,0)"/>
<path d="" fill="#135688" transform="translate(0,0)"/>
<path d="" fill="#16528E" transform="translate(0,0)"/>
<path d="" fill="#155596" transform="translate(0,0)"/>
<path d="" fill="#0E4D77" transform="translate(0,0)"/>
<path d="" fill="#115984" transform="translate(0,0)"/>
<path d="" fill="#1B5683" transform="translate(0,0)"/>
<path d="" fill="#1D557C" transform="translate(0,0)"/>
<path d="" fill="#0E5C8B" transform="translate(0,0)"/>
<path d="" fill="#195684" transform="translate(0,0)"/>
<path d="" fill="#0D599A" transform="translate(0,0)"/>
<path d="" fill="#1B577C" transform="translate(0,0)"/>
<path d="" fill="#155592" transform="translate(0,0)"/>
<path d="" fill="#14588D" transform="translate(0,0)"/>
<path d="" fill="#1B548B" transform="translate(0,0)"/>
<path d="" fill="#135783" transform="translate(0,0)"/>
<path d="" fill="#0D598D" transform="translate(0,0)"/>
<path d="" fill="#1F4F8E" transform="translate(0,0)"/>
<path d="" fill="#0D598E" transform="translate(0,0)"/>
<path d="" fill="#1E567D" transform="translate(0,0)"/>
<path d="" fill="#1F6296" transform="translate(0,0)"/>
<path d="" fill="#1F6294" transform="translate(0,0)"/>
<path d="" fill="#245577" transform="translate(0,0)"/>
<path d="" fill="#195885" transform="translate(0,0)"/>
<path d="" fill="#1267A6" transform="translate(0,0)"/>
<path d="" fill="#1A669A" transform="translate(0,0)"/>
<path d="" fill="#1068A8" transform="translate(0,0)"/>
<path d="" fill="#20629E" transform="translate(0,0)"/>
<path d="" fill="#0F68AE" transform="translate(0,0)"/>
<path d="" fill="#0F68AE" transform="translate(0,0)"/>
<path d="" fill="#1565A8" transform="translate(0,0)"/>
<path d="" fill="#1566A6" transform="translate(0,0)"/>
<path d="" fill="#1765A4" transform="translate(0,0)"/>
<path d="" fill="#1766A2" transform="translate(0,0)"/>
<path d="" fill="#1C639A" transform="translate(0,0)"/>
<path d="" fill="#1467A4" transform="translate(0,0)"/>
<path d="" fill="#1A639C" transform="translate(0,0)"/>
<path d="" fill="#1268A4" transform="translate(0,0)"/>
<path d="" fill="#1C649E" transform="translate(0,0)"/>
<path d="" fill="#1068A8" transform="translate(0,0)"/>
<path d="" fill="#1467A6" transform="translate(0,0)"/>
<path d="" fill="#1566A6" transform="translate(0,0)"/>
<path d="" fill="#1267AA" transform="translate(0,0)"/>
<path d="" fill="#1068A6" transform="translate(0,0)"/>
<path d="" fill="#1566A6" transform="translate(0,0)"/>
<path d="" fill="#1267A8" transform="translate(0,0)"/>
<path d="" fill="#14649B" transform="translate(0,0)"/>
<path d="" fill="#0D69AA" transform="translate(0,0)"/>
<path d="" fill="#14619B" transform="translate(0,0)"/>
<path d="" fill="#0F68AA" transform="translate(0,0)"/>
<path d="" fill="#185C93" transform="translate(0,0)"/>
<path d="" fill="#0F68AA" transform="translate(0,0)"/>
<path d="" fill="#125D88" transform="translate(0,0)"/>
<path d="" fill="#1267AA" transform="translate(0,0)"/>
<path d="" fill="#1565A8" transform="translate(0,0)"/>
<path d="" fill="#175A8E" transform="translate(0,0)"/>
<path d="" fill="#1266AC" transform="translate(0,0)"/>
<path d="" fill="#145A92" transform="translate(0,0)"/>
<path d="" fill="#1466AA" transform="translate(0,0)"/>
<path d="" fill="#135991" transform="translate(0,0)"/>
<path d="" fill="#1068AA" transform="translate(0,0)"/>
<path d="" fill="#14598F" transform="translate(0,0)"/>
<path d="" fill="#1068A8" transform="translate(0,0)"/>
<path d="" fill="#16598B" transform="translate(0,0)"/>
<path d="" fill="#1467A4" transform="translate(0,0)"/>
<path d="" fill="#155888" transform="translate(0,0)"/>
<path d="" fill="#155888" transform="translate(0,0)"/>
<path d="" fill="#15588A" transform="translate(0,0)"/>
<path d="" fill="#1D649C" transform="translate(0,0)"/>
<path d="" fill="#1A639A" transform="translate(0,0)"/>
<path d="" fill="#15578C" transform="translate(0,0)"/>
<path d="" fill="#1D639E" transform="translate(0,0)"/>
<path d="" fill="#1A639C" transform="translate(0,0)"/>
<path d="" fill="#165690" transform="translate(0,0)"/>
<path d="" fill="#1E6298" transform="translate(0,0)"/>
<path d="" fill="#18558E" transform="translate(0,0)"/>
<path d="" fill="#1763A2" transform="translate(0,0)"/>
<path d="" fill="#1565A8" transform="translate(0,0)"/>
<path d="" fill="#0F66AD" transform="translate(0,0)"/>
<path d="" fill="#1663AB" transform="translate(0,0)"/>
<path d="" fill="#1D538E" transform="translate(0,0)"/>
<path d="" fill="#1566A6" transform="translate(0,0)"/>
<path d="" fill="#1B5787" transform="translate(0,0)"/>
<path d="" fill="#1865A0" transform="translate(0,0)"/>
<path d="" fill="#335C87" transform="translate(0,0)"/>
<path d="" fill="#145A87" transform="translate(0,0)"/>
<path d="" fill="#1A64A2" transform="translate(0,0)"/>
<path d="" fill="#1567A0" transform="translate(0,0)"/>
<path d="" fill="#084476" transform="translate(0,0)"/>
<path d="" fill="#115A8F" transform="translate(0,0)"/>
<path d="" fill="#0D69AA" transform="translate(0,0)"/>
<path d="" fill="#0C5C95" transform="translate(0,0)"/>
<path d="" fill="#1A669A" transform="translate(0,0)"/>
<path d="" fill="#1B6799" transform="translate(0,0)"/>
<path d="" fill="#18609C" transform="translate(0,0)"/>
<path d="" fill="#22629A" transform="translate(0,0)"/>
<path d="" fill="#175889" transform="translate(0,0)"/>
<path d="" fill="#16699B" transform="translate(0,0)"/>
<path d="" fill="#22619E" transform="translate(0,0)"/>
<path d="" fill="#1364A1" transform="translate(0,0)"/>
<path d="" fill="#1F577D" transform="translate(0,0)"/>
<path d="" fill="#1C61A2" transform="translate(0,0)"/>
<path d="" fill="#1166A5" transform="translate(0,0)"/>
<path d="" fill="#1A62A0" transform="translate(0,0)"/>
<path d="" fill="#16659E" transform="translate(0,0)"/>
<path d="" fill="#16659E" transform="translate(0,0)"/>
<path d="" fill="#20526C" transform="translate(0,0)"/>
<path d="" fill="#16659C" transform="translate(0,0)"/>
<path d="" fill="#0E65A7" transform="translate(0,0)"/>
<path d="" fill="#1C5473" transform="translate(0,0)"/>
<path d="" fill="#1C649E" transform="translate(0,0)"/>
<path d="" fill="#1A659E" transform="translate(0,0)"/>
<path d="" fill="#1D62A4" transform="translate(0,0)"/>
<path d="" fill="#1A6192" transform="translate(0,0)"/>
<path d="" fill="#195A88" transform="translate(0,0)"/>
<path d="" fill="#1F619A" transform="translate(0,0)"/>
<path d="" fill="#2161A7" transform="translate(0,0)"/>
<path d="" fill="#1F5D86" transform="translate(0,0)"/>
<path d="" fill="#105A8C" transform="translate(0,0)"/>
<path d="" fill="#2161A7" transform="translate(0,0)"/>
<path d="" fill="#225C82" transform="translate(0,0)"/>
<path d="" fill="#176598" transform="translate(0,0)"/>
<path d="" fill="#1E63A5" transform="translate(0,0)"/>
<path d="" fill="#1B66A1" transform="translate(0,0)"/>
<path d="" fill="#155C88" transform="translate(0,0)"/>
<path d="" fill="#105A8A" transform="translate(0,0)"/>
<path d="" fill="#26608E" transform="translate(0,0)"/>
<path d="" fill="#18689F" transform="translate(0,0)"/>
<path d="" fill="#145A8B" transform="translate(0,0)"/>
<path d="" fill="#105896" transform="translate(0,0)"/>
<path d="" fill="#115A93" transform="translate(0,0)"/>
<path d="" fill="#1E6490" transform="translate(0,0)"/>
<path d="" fill="#0B599C" transform="translate(0,0)"/>
<path d="" fill="#105894" transform="translate(0,0)"/>
<path d="" fill="#17578F" transform="translate(0,0)"/>
<path d="" fill="#094869" transform="translate(0,0)"/>
<path d="" fill="#165793" transform="translate(0,0)"/>
<path d="" fill="#023654" transform="translate(0,0)"/>
<path d="" fill="#235478" transform="translate(0,0)"/>
<path d="" fill="#1D5582" transform="translate(0,0)"/>
<path d="" fill="#185688" transform="translate(0,0)"/>
<path d="" fill="#0E5994" transform="translate(0,0)"/>
<path d="" fill="#125890" transform="translate(0,0)"/>
<path d="" fill="#13588E" transform="translate(0,0)"/>
<path d="" fill="#16578A" transform="translate(0,0)"/>
<path d="" fill="#16568C" transform="translate(0,0)"/>
<path d="" fill="#1664A2" transform="translate(0,0)"/>
<path d="" fill="#16578A" transform="translate(0,0)"/>
<path d="" fill="#135991" transform="translate(0,0)"/>
<path d="" fill="#176696" transform="translate(0,0)"/>
<path d="" fill="#126B96" transform="translate(0,0)"/>
<path d="" fill="#1766A2" transform="translate(0,0)"/>
<path d="" fill="#12679A" transform="translate(0,0)"/>
<path d="" fill="#13579B" transform="translate(0,0)"/>
<path d="" fill="#1F619C" transform="translate(0,0)"/>
<path d="" fill="#1566A6" transform="translate(0,0)"/>
<path d="" fill="#175894" transform="translate(0,0)"/>
<path d="" fill="#1F609E" transform="translate(0,0)"/>
<path d="" fill="#2261A0" transform="translate(0,0)"/>
<path d="" fill="#1A62A0" transform="translate(0,0)"/>
<path d="" fill="#1F62A2" transform="translate(0,0)"/>
<path d="" fill="#1464A7" transform="translate(0,0)"/>
<path d="" fill="#1A65A0" transform="translate(0,0)"/>
<path d="" fill="#125B94" transform="translate(0,0)"/>
<path d="" fill="#1265A9" transform="translate(0,0)"/>
<path d="" fill="#1266AC" transform="translate(0,0)"/>
<path d="" fill="#0E67A9" transform="translate(0,0)"/>
<path d="" fill="#1166A5" transform="translate(0,0)"/>
<path d="" fill="#255589" transform="translate(0,0)"/>
<path d="" fill="#1C547F" transform="translate(0,0)"/>
<path d="" fill="#1266A0" transform="translate(0,0)"/>
<path d="" fill="#205691" transform="translate(0,0)"/>
<path d="" fill="#14669C" transform="translate(0,0)"/>
<path d="" fill="#1D5795" transform="translate(0,0)"/>
<path d="" fill="#1F5080" transform="translate(0,0)"/>
<path d="" fill="#12679C" transform="translate(0,0)"/>
<path d="" fill="#16669A" transform="translate(0,0)"/>
<path d="" fill="#185B8D" transform="translate(0,0)"/>
<path d="" fill="#1A659E" transform="translate(0,0)"/>
<path d="" fill="#135D8F" transform="translate(0,0)"/>
<path d="" fill="#17528C" transform="translate(0,0)"/>
<path d="" fill="#1566A6" transform="translate(0,0)"/>
<path d="" fill="#145C8C" transform="translate(0,0)"/>
<path d="" fill="#1067AE" transform="translate(0,0)"/>
<path d="" fill="#145B90" transform="translate(0,0)"/>
<path d="" fill="#1D5577" transform="translate(0,0)"/>
<path d="" fill="#1465AC" transform="translate(0,0)"/>
<path d="" fill="#115A93" transform="translate(0,0)"/>
<path d="" fill="#1864A6" transform="translate(0,0)"/>
<path d="" fill="#0B5B9B" transform="translate(0,0)"/>
<path d="" fill="#26556C" transform="translate(0,0)"/>
<path d="" fill="#0B599A" transform="translate(0,0)"/>
<path d="" fill="#0B5A98" transform="translate(0,0)"/>
<path d="" fill="#1C659C" transform="translate(0,0)"/>
<path d="" fill="#0B599A" transform="translate(0,0)"/>
<path d="" fill="#1D63A2" transform="translate(0,0)"/>
<path d="" fill="#0A5A9A" transform="translate(0,0)"/>
<path d="" fill="#286094" transform="translate(0,0)"/>
<path d="" fill="#0E5994" transform="translate(0,0)"/>
<path d="" fill="#1F6498" transform="translate(0,0)"/>
<path d="" fill="#115A8F" transform="translate(0,0)"/>
<path d="" fill="#1C5493" transform="translate(0,0)"/>
<path d="" fill="#0F68AE" transform="translate(0,0)"/>
<path d="" fill="#1C60A9" transform="translate(0,0)"/>
<path d="" fill="#1865A0" transform="translate(0,0)"/>
<path d="" fill="#1864A6" transform="translate(0,0)"/>
<path d="" fill="#226094" transform="translate(0,0)"/>
<path d="" fill="#1B5881" transform="translate(0,0)"/>
<path d="" fill="#1467A6" transform="translate(0,0)"/>
<path d="" fill="#195A7D" transform="translate(0,0)"/>
<path d="" fill="#1863AE" transform="translate(0,0)"/>
<path d="" fill="#1A6794" transform="translate(0,0)"/>
<path d="" fill="#1865A4" transform="translate(0,0)"/>
<path d="" fill="#1D60AE" transform="translate(0,0)"/>
<path d="" fill="#1F5FAE" transform="translate(0,0)"/>
<path d="" fill="#1C64A0" transform="translate(0,0)"/>
<path d="" fill="#175889" transform="translate(0,0)"/>
<path d="" fill="#1C61AC" transform="translate(0,0)"/>
<path d="" fill="#0F598B" transform="translate(0,0)"/>
<path d="" fill="#1464AB" transform="translate(0,0)"/>
<path d="" fill="#1160A5" transform="translate(0,0)"/>
<path d="" fill="#1464A9" transform="translate(0,0)"/>
<path d="" fill="#1B5D94" transform="translate(0,0)"/>
<path d="" fill="#11558C" transform="translate(0,0)"/>
<path d="" fill="#1165AB" transform="translate(0,0)"/>
<path d="" fill="#1D5B8F" transform="translate(0,0)"/>
<path d="" fill="#14548C" transform="translate(0,0)"/>
<path d="" fill="#1465A5" transform="translate(0,0)"/>
<path d="" fill="#1B5A8D" transform="translate(0,0)"/>
<path d="" fill="#19639E" transform="translate(0,0)"/>
<path d="" fill="#185B8D" transform="translate(0,0)"/>
<path d="" fill="#155694" transform="translate(0,0)"/>
<path d="" fill="#1A639C" transform="translate(0,0)"/>
<path d="" fill="#125C90" transform="translate(0,0)"/>
<path d="" fill="#1963A0" transform="translate(0,0)"/>
<path d="" fill="#115A8F" transform="translate(0,0)"/>
<path d="" fill="#1763A2" transform="translate(0,0)"/>
<path d="" fill="#0E5A90" transform="translate(0,0)"/>
<path d="" fill="#155690" transform="translate(0,0)"/>
<path d="" fill="#18629D" transform="translate(0,0)"/>
<path d="" fill="#105695" transform="translate(0,0)"/>
<path d="" fill="#105985" transform="translate(0,0)"/>
<path d="" fill="#1B6199" transform="translate(0,0)"/>
<path d="" fill="#135790" transform="translate(0,0)"/>
<path d="" fill="#13588C" transform="translate(0,0)"/>
<path d="" fill="#135A8B" transform="translate(0,0)"/>
<path d="" fill="#145A89" transform="translate(0,0)"/>
<path d="" fill="#19578D" transform="translate(0,0)"/>
<path d="" fill="#17588D" transform="translate(0,0)"/>
<path d="" fill="#175985" transform="translate(0,0)"/>
<path d="" fill="#1B5885" transform="translate(0,0)"/>
<path d="" fill="#115A93" transform="translate(0,0)"/>
<path d="" fill="#105990" transform="translate(0,0)"/>
<path d="" fill="#0F578A" transform="translate(0,0)"/>
<path d="" fill="#0C68B2" transform="translate(0,0)"/>
<path d="" fill="#115492" transform="translate(0,0)"/>
<path d="" fill="#0C6B9A" transform="translate(0,0)"/>
<path d="" fill="#1568A7" transform="translate(0,0)"/>
<path d="" fill="#166796" transform="translate(0,0)"/>
<path d="" fill="#1667A5" transform="translate(0,0)"/>
<path d="" fill="#1B527A" transform="translate(0,0)"/>
<path d="" fill="#1865A2" transform="translate(0,0)"/>
<path d="" fill="#1960A3" transform="translate(0,0)"/>
<path d="" fill="#155EA5" transform="translate(0,0)"/>
<path d="" fill="#0F609E" transform="translate(0,0)"/>
<path d="" fill="#11609C" transform="translate(0,0)"/>
<path d="" fill="#125D95" transform="translate(0,0)"/>
<path d="" fill="#0A5B96" transform="translate(0,0)"/>
<path d="" fill="#03588D" transform="translate(0,0)"/>
<path d="" fill="#075896" transform="translate(0,0)"/>
<path d="" fill="#03538A" transform="translate(0,0)"/>
<path d="" fill="#165795" transform="translate(0,0)"/>
<path d="" fill="#1E619C" transform="translate(0,0)"/>
<path d="" fill="#195691" transform="translate(0,0)"/>
<path d="" fill="#21609A" transform="translate(0,0)"/>
<path d="" fill="#175791" transform="translate(0,0)"/>
<path d="" fill="#175985" transform="translate(0,0)"/>
<path d="" fill="#1661A9" transform="translate(0,0)"/>
<path d="" fill="#145A89" transform="translate(0,0)"/>
<path d="" fill="#19619F" transform="translate(0,0)"/>
<path d="" fill="#15588A" transform="translate(0,0)"/>
<path d="" fill="#215F93" transform="translate(0,0)"/>
<path d="" fill="#1A6594" transform="translate(0,0)"/>
<path d="" fill="#10598E" transform="translate(0,0)"/>
<path d="" fill="#0B5B94" transform="translate(0,0)"/>
<path d="" fill="#19639E" transform="translate(0,0)"/>
<path d="" fill="#10598E" transform="translate(0,0)"/>
<path d="" fill="#1A5D9B" transform="translate(0,0)"/>
<path d="" fill="#1265A7" transform="translate(0,0)"/>
<path d="" fill="#266090" transform="translate(0,0)"/>
<path d="" fill="#1164A5" transform="translate(0,0)"/>
<path d="" fill="#1E6097" transform="translate(0,0)"/>
<path d="" fill="#1B5F88" transform="translate(0,0)"/>
<path d="" fill="#1063A4" transform="translate(0,0)"/>
<path d="" fill="#1A609A" transform="translate(0,0)"/>
<path d="" fill="#145787" transform="translate(0,0)"/>
<path d="" fill="#15609B" transform="translate(0,0)"/>
<path d="" fill="#0F609E" transform="translate(0,0)"/>
<path d="" fill="#175480" transform="translate(0,0)"/>
<path d="" fill="#135D91" transform="translate(0,0)"/>
<path d="" fill="#1D5982" transform="translate(0,0)"/>
<path d="" fill="#155689" transform="translate(0,0)"/>
<path d="" fill="#1F5583" transform="translate(0,0)"/>
<path d="" fill="#215581" transform="translate(0,0)"/>
<path d="" fill="#155888" transform="translate(0,0)"/>
<path d="" fill="#155888" transform="translate(0,0)"/>
<path d="" fill="#1B597F" transform="translate(0,0)"/>
<path d="" fill="#145B83" transform="translate(0,0)"/>
<path d="" fill="#145A89" transform="translate(0,0)"/>
<path d="" fill="#145A87" transform="translate(0,0)"/>
<path d="" fill="#13588A" transform="translate(0,0)"/>
<path d="" fill="#145A8B" transform="translate(0,0)"/>
<path d="" fill="#135B89" transform="translate(0,0)"/>
<path d="" fill="#16568C" transform="translate(0,0)"/>
<path d="" fill="#15588A" transform="translate(0,0)"/>
<path d="" fill="#115995" transform="translate(0,0)"/>
<path d="" fill="#0E5A99" transform="translate(0,0)"/>
<path d="" fill="#18568C" transform="translate(0,0)"/>
<path d="" fill="#18558E" transform="translate(0,0)"/>
<path d="" fill="#135A8F" transform="translate(0,0)"/>
<path d="" fill="#18558E" transform="translate(0,0)"/>
<path d="" fill="#094C7E" transform="translate(0,0)"/>
<path d="" fill="#125890" transform="translate(0,0)"/>
<path d="" fill="#105894" transform="translate(0,0)"/>
<path d="" fill="#1A588C" transform="translate(0,0)"/>
<path d="" fill="#0D5996" transform="translate(0,0)"/>
<path d="" fill="#135790" transform="translate(0,0)"/>
<path d="" fill="#195490" transform="translate(0,0)"/>
<path d="" fill="#165793" transform="translate(0,0)"/>
<path d="" fill="#195490" transform="translate(0,0)"/>
<path d="" fill="#125890" transform="translate(0,0)"/>
<path d="" fill="#0E5996" transform="translate(0,0)"/>
<path d="" fill="#15578C" transform="translate(0,0)"/>
<path d="" fill="#255378" transform="translate(0,0)"/>
<path d="" fill="#285274" transform="translate(0,0)"/>
<path d="" fill="#17548D" transform="translate(0,0)"/>
<path d="" fill="#155491" transform="translate(0,0)"/>
<path d="" fill="#185590" transform="translate(0,0)"/>
<path d="" fill="#19558C" transform="translate(0,0)"/>
<path d="" fill="#175683" transform="translate(0,0)"/>
<path d="" fill="#155783" transform="translate(0,0)"/>
<path d="" fill="#1E567A" transform="translate(0,0)"/>
<path d="" fill="#085D8E" transform="translate(0,0)"/>
<path d="" fill="#185880" transform="translate(0,0)"/>
<path d="" fill="#175681" transform="translate(0,0)"/>
<path d="" fill="#155886" transform="translate(0,0)"/>
<path d="" fill="#225279" transform="translate(0,0)"/>
<path d="" fill="#1E5482" transform="translate(0,0)"/>
<path d="" fill="#1A5175" transform="translate(0,0)"/>
<path d="" fill="#1A4F76" transform="translate(0,0)"/>
<path d="" fill="#1C3E4E" transform="translate(0,0)"/>
<path d="" fill="#0E589A" transform="translate(0,0)"/>
<path d="" fill="#155493" transform="translate(0,0)"/>
<path d="" fill="#175393" transform="translate(0,0)"/>
<path d="" fill="#204F8F" transform="translate(0,0)"/>
<path d="" fill="#1B5392" transform="translate(0,0)"/>
<path d="" fill="#1B5789" transform="translate(0,0)"/>
<path d="" fill="#1B5789" transform="translate(0,0)"/>
</svg>
