<?xml version="1.0" encoding="UTF-8"?>
<svg version="1.1" xmlns="http://www.w3.org/2000/svg" width="512" height="256">
<path d="M0 0 C1.65 0 3.3 0 5 0 C6.30853384 3.92560152 5.05826279 6.16580024 3.578125 9.8203125 C3.31747253 10.47957733 3.05682007 11.13884216 2.78826904 11.81808472 C2.23467046 13.21020354 1.67621259 14.60039835 1.11328125 15.98876953 C0.25274382 18.11821027 -0.58537513 20.25555187 -1.421875 22.39453125 C-1.96220876 23.74532561 -2.50383237 25.09560488 -3.046875 26.4453125 C-3.42208282 27.4077739 -3.42208282 27.4077739 -3.80487061 28.38967896 C-4.54199219 30.18017578 -4.54199219 30.18017578 -6 33 C-9 34 -9 34 -10.83081055 33.35083008 C-11.84848511 32.81558716 -11.84848511 32.81558716 -12.88671875 32.26953125 C-13.65258301 31.88015381 -14.41844727 31.49077637 -15.20751953 31.08959961 C-16.02591309 30.66815674 -16.84430664 30.24671387 -17.6875 29.8125 C-30.09053037 23.68674297 -43.77905058 18.37814254 -57.6875 22.0625 C-63.43284188 24.18184814 -66.38869817 28.2168423 -69.375 33.375 C-71.30575891 41.48418743 -69.72186718 48.61812493 -66 56 C-63.61143623 59.59486057 -61.14104867 63.02664592 -58 66 C-53.83798107 66 -52.06825096 63.7092896 -49.125 61.0625 C-30.29536069 44.61100316 -30.29536069 44.61100316 -21.75 43.625 C-13.62551342 44.43744866 -6.83489475 49.49852781 -1 55 C3.8557192 61.17056953 5.9167332 67.0815509 5 75 C2.94858635 83.62377711 -1.43513073 90.21615936 -7 97 C-7.52207031 97.66 -8.04414062 98.32 -8.58203125 99 C-14.51496803 105.72900171 -25.20557467 111.41292836 -34.23217773 112.19287109 C-48.93139863 112.6759647 -61.89203273 111.10954702 -76 107 C-77.36449096 106.61165444 -78.72906511 106.22360099 -80.09375 105.8359375 C-81.0528125 105.56007813 -82.011875 105.28421875 -83 105 C-82.38367054 100.04001528 -80.20164371 96.06328034 -77.9375 91.6875 C-77.37192383 90.57665039 -77.37192383 90.57665039 -76.79492188 89.44335938 C-75.86871843 87.62612478 -74.93509371 85.81267596 -74 84 C-74.4846875 83.3915625 -74.969375 82.783125 -75.46875 82.15625 C-79.77189477 76.52906069 -83.28775561 70.89672861 -86.4375 64.5625 C-86.77910156 63.87671875 -87.12070313 63.1909375 -87.47265625 62.484375 C-90.75327153 55.72310693 -92.5714695 49.55983772 -90.046875 42.234375 C-82.56178533 25.80159192 -67.55588326 13.70119084 -51 7 C-35.1788972 1.36914641 -22.78084507 5.02248136 -7.94921875 12.046875 C-7.30597656 12.36140625 -6.66273437 12.6759375 -6 13 C-5.71382813 12.26394531 -5.42765625 11.52789062 -5.1328125 10.76953125 C-4.13990276 8.34203813 -3.06289967 6.02370268 -1.875 3.6875 C-1.52179688 2.99011719 -1.16859375 2.29273438 -0.8046875 1.57421875 C-0.53914063 1.05472656 -0.27359375 0.53523438 0 0 Z M-62.44140625 83.8984375 C-62.95574219 84.59195313 -63.47007813 85.28546875 -64 86 C-60.69201607 89.94906609 -56.94782265 91.5074509 -52.1875 93.125 C-51.43919922 93.38144287 -50.69089844 93.63788574 -49.91992188 93.90209961 C-40.68125708 96.92805469 -30.14044375 100.0844907 -20.80078125 96.0390625 C-16.54372737 93.58271471 -14.04184269 90.89399325 -12.5 86.25 C-11.5575848 81.26732955 -12.55886652 77.39837364 -15 73 C-20.41766279 65.66236486 -20.41766279 65.66236486 -28 61 C-40.32405386 59.7725046 -54.96824634 75.02630205 -62.44140625 83.8984375 Z " fill="#323232" transform="translate(120,41)"/>
<path d="M0 0 C8.79760221 8.34034637 12.6552009 19.18633131 13 31.125 C12.49274777 47.6887362 5.769835 63.48591875 -5.375 75.75 C-6.04015625 76.50667969 -6.7053125 77.26335937 -7.390625 78.04296875 C-12.97398475 84.03805107 -19.06598748 88.09549374 -26.375 91.75 C-27.43074219 92.29333984 -27.43074219 92.29333984 -28.5078125 92.84765625 C-37.43109927 96.609434 -50.22002662 96.19360649 -59.3125 93.25 C-77.18015557 85.45171235 -88.40356515 70.40281456 -95.375 52.75 C-97.76568855 43.38297469 -96.86855193 34.31203813 -92.375 25.75 C-81.27614193 9.33197965 -63.57003453 -4.91572819 -43.921875 -8.9609375 C-27.44606985 -11.61498979 -13.49450217 -10.74467909 0 0 Z M-71.375 15.75 C-75.90847558 22.1412301 -77.02557637 28.07560841 -76.375 35.75 C-74.08339415 47.96542441 -66.8995999 57.07342182 -58.375 65.75 C-57.58996094 66.55953125 -56.80492187 67.3690625 -55.99609375 68.203125 C-49.42649835 74.57236355 -41.61740122 79.78131704 -32.1875 80.25 C-24.27102285 79.21177349 -18.98604965 77.54730942 -13.87890625 71.13671875 C-6.74417668 59.81381027 -5.99383962 45.74079987 -7.375 32.75 C-9.84217729 23.60291581 -15.71600398 17.10801009 -23.375 11.75 C-38.39202325 3.45582954 -59.04873478 1.61006088 -71.375 15.75 Z " fill="#323232" transform="translate(236.375,57.25)"/>
<path d="M0 0 C0.79921875 0.00902344 1.5984375 0.01804688 2.421875 0.02734375 C3.02515625 0.03894531 3.6284375 0.05054688 4.25 0.0625 C4.79805298 1.28706909 4.79805298 1.28706909 5.35717773 2.53637695 C14.93702819 23.89334571 24.90485332 45.03062928 35.24890137 66.027771 C36.23005927 68.02197055 37.20789455 70.01776214 38.18457031 72.01416016 C39.94795412 75.61780264 41.7226388 79.21572972 43.5 82.8125 C44.01256348 83.85913818 44.52512695 84.90577637 45.05322266 85.98413086 C49.09783967 94.10915198 52.54171387 99.98203869 60.25 105.0625 C61.125 107.3125 61.125 107.3125 61.25 109.0625 C57.83088664 110.77205668 53.91764905 110.20396246 50.15625 110.1953125 C49.2537854 110.19626923 48.3513208 110.19722595 47.42150879 110.19821167 C45.51163666 110.19889279 43.60176222 110.19704321 41.69189453 110.19287109 C38.76199157 110.18752189 35.83224192 110.19281837 32.90234375 110.19921875 C31.04947883 110.19855796 29.196614 110.19727677 27.34375 110.1953125 C26.46352173 110.19733673 25.58329346 110.19936096 24.6763916 110.20144653 C18.4799166 110.1774583 18.4799166 110.1774583 16.25 109.0625 C16.25 107.7425 16.25 106.4225 16.25 105.0625 C22 102.0625 22 102.0625 24.25 102.0625 C22.18995937 94.2085951 19.17439731 86.91885026 15.94335938 79.48901367 C15.42418945 78.2878894 15.42418945 78.2878894 14.89453125 77.0625 C14.57846924 76.340625 14.26240723 75.61875 13.93676758 74.875 C13.25 73.0625 13.25 73.0625 13.25 71.0625 C-1.27 71.0625 -15.79 71.0625 -30.75 71.0625 C-31.08 72.7125 -31.41 74.3625 -31.75 76.0625 C-32.49023438 77.97192383 -32.49023438 77.97192383 -33.34375 79.76953125 C-33.65183594 80.43919922 -33.95992188 81.10886719 -34.27734375 81.79882812 C-34.92128273 83.17334044 -35.56966409 84.54578107 -36.22265625 85.91601562 C-38.40777052 90.69309599 -39.32732989 94.8202165 -39.75 100.0625 C-36.8034615 101.86316242 -33.86198065 103.56413895 -30.75 105.0625 C-30.75 106.3825 -30.75 107.7025 -30.75 109.0625 C-33.6719769 110.52348845 -36.24893475 110.17384901 -39.5078125 110.16015625 C-40.50238968 110.15803383 -40.50238968 110.15803383 -41.51705933 110.15586853 C-43.63641863 110.15026754 -45.75567259 110.137715 -47.875 110.125 C-49.31119639 110.11998512 -50.74739444 110.11542219 -52.18359375 110.11132812 C-55.70576345 110.10029782 -59.22787145 110.08303259 -62.75 110.0625 C-63.245 107.5875 -63.245 107.5875 -63.75 105.0625 C-62.98598877 104.48072998 -62.98598877 104.48072998 -62.20654297 103.88720703 C-56.47127984 99.24297082 -53.21749683 94.46035555 -49.875 87.9375 C-49.33818604 86.91760986 -48.80137207 85.89771973 -48.24829102 84.84692383 C-36.42473615 62.13898301 -25.36868498 39.0115762 -15.1328125 15.546875 C-14.72579102 14.61939453 -14.31876953 13.69191406 -13.89941406 12.73632812 C-13.135634 10.95958232 -12.39767774 9.17150321 -11.68652344 7.37304688 C-11.35426758 6.55384766 -11.02201172 5.73464844 -10.6796875 4.890625 C-10.40108887 4.17293945 -10.12249023 3.45525391 -9.83544922 2.71582031 C-8.75 1.0625 -8.75 1.0625 -6.92626953 0.32714844 C-4.5911921 0.04318793 -2.35201475 -0.03458845 0 0 Z M-8.75 27.0625 C-13.31339116 34.29872014 -17.13200556 41.72385133 -20.6875 49.5 C-21.19345703 50.57443359 -21.69941406 51.64886719 -22.22070312 52.75585938 C-22.92936523 54.29790039 -22.92936523 54.29790039 -23.65234375 55.87109375 C-24.08023193 56.79720459 -24.50812012 57.72331543 -24.94897461 58.67749023 C-26.05040287 61.16431649 -26.05040287 61.16431649 -24.75 64.0625 C-13.86 64.0625 -2.97 64.0625 8.25 64.0625 C7.41284762 59.03958571 6.49835108 55.95384029 4.4140625 51.45703125 C4.13404388 50.8511467 3.85402527 50.24526215 3.56552124 49.62101746 C2.97564987 48.34959874 2.38213569 47.07986432 1.78515625 45.81176758 C0.87485002 43.87468086 -0.02029118 41.93109014 -0.9140625 39.98632812 C-1.49129536 38.74697992 -2.06939096 37.5080331 -2.6484375 36.26953125 C-3.17099121 35.1503833 -3.69354492 34.03123535 -4.23193359 32.87817383 C-5.55334964 30.42724245 -6.65283018 28.8480343 -8.75 27.0625 Z " fill="#CA2626" transform="translate(421.75,43.9375)"/>
<path d="M0 0 C0.90451401 -0.00315216 1.80902802 -0.00630432 2.74095154 -0.009552 C3.71081497 -0.00752777 4.68067841 -0.00550354 5.67993164 -0.00341797 C7.1851815 -0.00485306 7.1851815 -0.00485306 8.72084045 -0.00631714 C10.84156355 -0.00699715 12.96228873 -0.00515532 15.08300781 -0.00097656 C18.32434788 0.00436858 21.56554904 -0.00092474 24.80688477 -0.00732422 C26.86873403 -0.0066633 28.93058321 -0.00538184 30.99243164 -0.00341797 C31.96027084 -0.0054422 32.92811005 -0.00746643 33.92527771 -0.009552 C34.83294388 -0.00639984 35.74061005 -0.00324768 36.67578125 0 C37.46979843 0.00079559 38.26381561 0.00159119 39.08189392 0.00241089 C41.59795588 0.14008467 43.94593513 0.58123479 46.40258789 1.12939453 C46.40258789 2.11939453 46.40258789 3.10939453 46.40258789 4.12939453 C44.61238179 4.7999734 42.820373 5.46574143 41.02758789 6.12939453 C40.02985352 6.50064453 39.03211914 6.87189453 38.00415039 7.25439453 C35.40258789 8.12939453 35.40258789 8.12939453 33.40258789 8.12939453 C31.20651999 16.10458848 31.10942945 23.7582609 31.13696289 31.98876953 C31.13561186 33.42450018 31.13366771 34.86023037 31.13116455 36.29595947 C31.12823005 39.29484442 31.13245406 42.29360955 31.1418457 45.29248047 C31.15319781 49.09908558 31.14669712 52.90540723 31.13470078 56.7120018 C31.12740112 59.67549696 31.12980753 62.63892728 31.13495636 65.60242462 C31.13627274 67.00397018 31.13471739 68.40552201 31.12999725 69.80706024 C31.1068645 78.60912338 31.17570536 87.5560603 33.40258789 96.12939453 C41.67574751 100.26597434 53.68986341 97.97531073 62.40258789 96.12939453 C68.94543416 93.71477269 72.45393244 89.30347454 75.40258789 83.12939453 C76.4328271 80.47911373 77.41847151 77.83260297 78.31274414 75.13330078 C79.40258789 73.12939453 79.40258789 73.12939453 81.46118164 72.28173828 C82.1018457 72.23146484 82.74250977 72.18119141 83.40258789 72.12939453 C83.73258789 72.45939453 84.06258789 72.78939453 84.40258789 73.12939453 C84.33642578 74.953125 84.33642578 74.953125 84.06274414 77.37158203 C83.9623584 78.27618164 83.86197266 79.18078125 83.75854492 80.11279297 C83.6410791 81.10827148 83.52361328 82.10375 83.40258789 83.12939453 C83.28125488 84.17385742 83.15992188 85.21832031 83.03491211 86.29443359 C82.64389796 89.61533501 82.24343657 92.93496995 81.84008789 96.25439453 C81.70151367 97.40166016 81.56293945 98.54892578 81.42016602 99.73095703 C81.08188217 102.53054749 80.74267163 105.33002225 80.40258789 108.12939453 C25.06310636 108.32361142 25.06310636 108.32361142 5.59008789 107.75439453 C4.35572998 107.7235376 3.12137207 107.69268066 1.84960938 107.66088867 C0.74689697 107.62213623 -0.35581543 107.58338379 -1.49194336 107.54345703 C-2.4185376 107.51203613 -3.34513184 107.48061523 -4.29980469 107.44824219 C-6.59741211 107.12939453 -6.59741211 107.12939453 -9.59741211 105.12939453 C-4.51001276 101.73779497 0.27240635 100.12939453 6.40258789 100.12939453 C6.39098633 99.11103516 6.37938477 98.09267578 6.36743164 97.04345703 C6.31169711 89.77271281 6.39189399 82.57450219 6.90258789 75.31689453 C7.46368282 66.70050588 7.54653531 58.08204317 7.57983398 49.4503479 C7.58654642 47.89008695 7.59666763 46.32983603 7.6105957 44.7696228 C7.67914219 36.42555325 7.49510831 28.13161128 6.70336914 19.82080078 C6.65077438 19.12115707 6.59817963 18.42151337 6.54399109 17.70066833 C5.97941453 12.63235024 4.32483716 10.30066934 0.40258789 7.12939453 C-2.21980609 5.92569533 -2.21980609 5.92569533 -4.90991211 5.31689453 C-5.79291992 5.08357422 -6.67592773 4.85025391 -7.58569336 4.60986328 C-8.24956055 4.45130859 -8.91342773 4.29275391 -9.59741211 4.12939453 C-9.26741211 3.13939453 -8.93741211 2.14939453 -8.59741211 1.12939453 C-5.75967678 0.04329979 -3.0138629 0.00302287 0 0 Z " fill="#323232" transform="translate(266.597412109375,46.87060546875)"/>
<path d="M0 0 C1.875 0.625 1.875 0.625 4 2 C6.94866224 9.07055981 7.22489042 17.25354964 5.3125 24.6640625 C2.78316788 30.79769289 -0.98477094 36.0433088 -6.5703125 39.66796875 C-11.14240523 41.44369042 -15.13797 41.47631156 -20 41.4375 C-20.85722656 41.45748047 -21.71445312 41.47746094 -22.59765625 41.49804688 C-35.21689764 41.48875436 -46.76200266 36.53264908 -58.1656189 31.59777832 C-60.85328489 30.43488818 -63.54879483 29.29072189 -66.2440033 28.14544678 C-67.59175763 27.57263323 -68.93914415 26.99895341 -70.28614807 26.42437744 C-76.05908061 23.96398437 -81.86090729 21.58063709 -87.6875 19.25 C-88.48752441 18.92741211 -89.28754883 18.60482422 -90.11181641 18.27246094 C-96.83521601 15.59259784 -102.72741207 14.00268055 -110 15 C-113.9584715 16.80338683 -116.48632299 19.33524151 -119.125 22.75 C-121 25 -121 25 -123.75 25.8125 C-124.4925 25.874375 -125.235 25.93625 -126 26 C-125.5664005 17.54480969 -119.55282721 11.21072054 -113.80859375 5.5078125 C-108.84175071 1.36698871 -105.1405782 0.30949699 -98.75292969 0.55517578 C-94.48817574 1.06066509 -90.78864765 2.16060576 -86.74609375 3.55859375 C-85.96647278 3.82356659 -85.18685181 4.08853943 -84.38360596 4.36154175 C-74.71824794 7.70579283 -65.30569852 11.6709794 -55.87548828 15.61914062 C-37.56161801 23.64848342 -37.56161801 23.64848342 -18 26.4375 C-16.80375 26.43621094 -15.6075 26.43492187 -14.375 26.43359375 C-9.45135008 25.8010415 -5.13423858 23.95903821 -2 20 C-0.74986136 16.24958407 -0.93146005 12.77492316 -1 8.875 C-1.04576155 6.24371069 -1.04711723 3.63267512 -1 1 C-0.67 0.67 -0.34 0.34 0 0 Z " fill="#323232" transform="translate(293,157)"/>
</svg>
